<svg viewBox="20.62048192771084 4.912499999999966 294.5783132530121 373.35000000000014" xmlns="http://www.w3.org/2000/svg" overflow="visible" xmlns:xlink="http://www.w3.org/1999/xlink" width="294.5783132530121px" height="373.35000000000014px"><g id="Master/Comp/Plants" stroke="none" stroke-width="1" fill="none" fill-rule="evenodd"><g id="Plants/Small" transform="translate(183.000000, 183.000000) scale(1 1)"><g id="Plants/Small/Vine" stroke="none" stroke-width="1" fill="none" fill-rule="evenodd"><g id="Group" transform="translate(42.000000, 33.000000)"><path d="M19.2908,64.0265 L19.2908,64.0265 C9.3448,64.0265 1.2828,55.9635 1.2828,46.0185 L1.2828,28.0105 L37.2978,28.0105 L37.2978,46.0185 C37.2978,55.9635 29.2358,64.0265 19.2908,64.0265" id="Fill-25" fill="#FF0C0C"/><polygon id="Fill-91" fill="#000" points="1.13686838e-13 137.4407 2.385 137.4407 2.385 47.7807 1.13686838e-13 47.7807"/><polygon id="Fill-92" fill="#000" points="36.196 137.4407 38.581 137.4407 38.581 47.7807 36.196 47.7807"/><polygon id="Fill-93" fill="#000" points="18.098 142.6537 20.483 142.6537 20.483 47.7807 18.098 47.7807"/><path d="M34.6277,24.172 C34.6277,24.172 27.0047,24.373 21.3877,17.853 C15.7717,11.333 17.3757,-4.26325641e-14 17.3757,-4.26325641e-14 C17.3757,-4.26325641e-14 29.2327,3.41 32.6827,9.829 C36.1317,16.248 34.6277,24.172 34.6277,24.172" id="Fill-94" fill="#BE6FFB"/><path d="M37.2981,34.4679 C37.2981,34.4679 29.7041,34.3059 25.5881,39.9569 C21.4721,45.6089 23.6731,54.7679 23.6731,54.7679 C23.6731,54.7679 31.3171,53.2539 35.2351,48.4249 C40.1951,42.3119 37.2981,34.4679 37.2981,34.4679" id="Fill-95" fill="#BE6FFB"/><path d="M45.6243,45.3224 C45.6243,45.3224 52.7113,49.4354 53.1533,55.8444 C53.7953,65.1484 49.2403,69.0624 49.2403,69.0624 C49.2403,69.0624 42.7633,67.4584 41.5423,60.7214 C40.3213,53.9844 45.6243,45.3224 45.6243,45.3224" id="Fill-96" fill="#000"/><path d="M40.4719,23.631 C42.7459,23.29 44.4869,21.735 45.4909,22.069 C46.4939,22.403 49.0599,27.199 48.6139,31.549 C48.1669,35.899 42.3099,41.587 42.3099,41.587 C42.3099,41.587 37.0729,39.72 34.9539,33.951 C32.8349,28.182 35.3069,24.359 35.8959,23.476 C36.4839,22.593 39.0449,23.844 40.4719,23.631" id="Fill-97" fill="#BE6FFB"/><path d="M43.8679,39.9259 C43.8679,39.9259 47.6379,36.2179 54.2919,33.4829 C60.9449,30.7469 66.5639,32.2269 66.5639,32.2269 C66.5639,32.2269 62.4239,36.8099 57.0269,39.1759 C51.6299,41.5409 44.2379,41.2449 44.2379,41.2449 L43.8679,39.9259 Z" id="Fill-98" fill="#BE6FFB"/><path d="M39.8474,40.8449 C41.8624,40.2699 43.1544,38.5059 43.8654,38.8979 C44.5764,39.2899 46.5154,42.4389 46.6334,47.1009 C46.7514,51.7629 42.8564,57.9589 42.8564,57.9589 C42.8564,57.9589 40.0314,56.6579 38.1394,51.8219 C36.2474,46.9849 36.1884,42.3879 36.7784,41.5869 C37.3684,40.7859 38.1954,41.3179 39.8474,40.8449" id="Fill-99" fill="#BE6FFB"/><path d="M36.0579,23.0616 C36.0579,23.0616 34.8589,19.9876 34.8658695,17.7516 C34.8719,15.5156 38.4459,10.7076 39.1069,10.2216 C39.7689,9.7366 42.4079,10.1776 45.0199,9.5486 C47.6319,8.9196 49.9869,8.5516 51.3849,8.6626 C52.7829,8.7726 54.3749,9.8916 54.3749,9.8916 L36.0579,23.0616 Z" id="Fill-100" fill="#000"/><path d="M36.448,24.173 C36.448,24.173 35.446,21.913 35.887,20.457 C36.328,19.001 42.328,11.986 44.093,11.061 C45.857,10.134 46.827,10.84 49.43,10.09 C52.033,9.34 54.239,9.207 55.474,10.751 C55.474,10.751 52.386,11.193 50.577,13.222 C48.769,15.251 46.827,18.163 44.578,20.28 C42.328,22.399 37.607,24.428 37.607,24.428 L36.448,24.173 Z" id="Fill-101" fill="#BE6FFB"/><path d="M39.3074,59.9415 C39.3074,59.9415 42.1114,63.1925 41.5424,69.0625 C40.9734,74.9325 35.7744,78.0005 35.7744,78.0005 C35.7744,78.0005 31.6674,74.7565 32.6824,68.5325 C33.6974,62.3085 39.3074,59.9415 39.3074,59.9415" id="Fill-102" fill="#BE6FFB"/><path d="M45.8372,67.4103 C45.8372,67.4103 51.1782,71.1003 52.2032,77.0443 C53.2282,82.9863 49.0202,89.9543 49.0202,89.9543 C49.0202,89.9543 43.8062,87.4083 42.7772,80.9373 C41.3592,72.0253 45.8372,67.4103 45.8372,67.4103" id="Fill-103" fill="#BE6FFB"/><path d="M35.8958,23.4757 C35.8958,23.4757 29.5208,21.3047 24.3958,23.0617 C19.2688,24.8187 16.6608,31.8047 16.6608,31.8047 C16.6608,31.8047 24.7548,33.7217 29.2518,31.2927 C33.7488,28.8657 35.8958,23.4757 35.8958,23.4757" id="Fill-104" fill="#BE6FFB"/><path d="M45.6682,105.1583 C47.5192,104.5073 52.0992,107.0723 51.4102,114.1913 C50.7212,121.3113 45.1322,124.5263 45.1322,124.5263 C45.1322,124.5263 45.1322,121.5413 44.2132,119.7803 C43.2952,118.0193 41.7212,114.6513 41.3592,111.8183 C40.9982,108.9863 41.5342,106.6133 45.6682,105.1583" id="Fill-105" fill="#BE6FFB"/><path d="M41.6184,97.3497 C42.9974,98.6527 43.2924,104.4237 40.1304,107.7617 C36.8484,111.2247 29.5154,111.2837 29.5154,111.2837 C29.5154,111.2837 29.4344,104.7277 32.1144,101.1297 C34.7934,97.5327 40.1304,95.9457 41.6184,97.3497" id="Fill-106" fill="#BE6FFB"/></g></g></g><g id="Plants/Big Plant" transform="translate(0.000000, 30.000000) scale(1 1)"><g id="Plants/Big Plant/Big Plant 1" stroke="none" stroke-width="1" fill="none" fill-rule="evenodd"><g id="Group" transform="translate(23.000000, 35.000000)"><path d="M103.86369,152.3076 C103.86369,152.3076 100.58369,140.9486 103.30669,133.6426 C106.02969,126.3356 109.20069,122.0286 115.94469,114.3476 C122.68869,106.6666 121.93869,101.9846 129.24469,93.3676 C136.55069,84.7496 149.10169,82.8766 158.28069,78.3806 C167.45969,73.8846 167.83369,69.0146 173.64069,65.9056 C179.44769,62.7956 187.31569,65.9056 187.31569,65.9056 C187.31569,65.9056 177.94969,68.6396 168.58369,77.8186 C159.21769,86.9976 161.75769,93.2516 154.26469,105.0276 L149.44769,110.1406 L103.86369,152.3076 Z" id="Fill-70" fill="#000"/><path d="M90.6493904,167.499 C90.6493904,167.499 96.3643904,147.866 97.1493904,138.125 C97.9343904,128.384 98.1303904,91.478 89.1013904,71.651 C80.0703904,51.824 71.6293904,45.741 67.5073904,40.833 C63.3843904,35.924 62.9923904,30.623 56.5143904,25.323 C50.0363904,20.023 39.0593904,19.915 34.9203904,16.293 C30.2093904,12.171 11.9523904,1.767 2.72639036,-1.42108547e-14 C2.72639036,-1.42108547e-14 12.3453904,12.956 15.8783904,26.894 C19.4123904,40.831 14.7013904,47.898 17.6453904,54.966 C20.5903904,62.032 26.6753904,68.511 30.7983904,76.755 C34.9203904,85 38.4543904,106.79 41.7913904,112.091 C65.4913904,127.798 82.0103904,150.665 91.9713904,180.395 L90.6493904,167.499 Z" id="Fill-71" fill="#870CF7"/><path d="M87.7806904,230.1298 C87.7176904,229.7648 81.2476904,193.5948 58.7286904,191.9658 C46.8936904,191.0848 43.6296904,209.7188 43.5976904,209.9078 L42.1866904,209.6698 C42.2206904,209.4678 43.0516904,204.6458 45.4676904,199.8558 C48.7416904,193.3638 53.3626904,190.1488 58.8326904,190.5378 C68.6516904,191.2488 77.0206904,198.3098 83.0356904,210.9568 C87.5336904,220.4138 89.1756904,229.7938 89.1906904,229.8878 L87.7806904,230.1298 Z" id="Fill-72" fill="#000"/><path d="M92.2342904,229.9814 C92.9572904,211.1494 92.5292904,192.2674 90.6212904,173.5244 C88.7122904,154.7874 85.2582904,136.1854 79.8772904,118.1294 C74.5062904,100.0784 67.1842904,82.5864 57.8262904,66.2254 C57.2922904,65.1734 56.6402904,64.1904 56.0262904,63.1864 L54.1662904,60.1824 L50.4462904,54.1724 C47.8182904,50.2644 45.0702904,46.4334 42.3872904,42.5574 L33.6322904,31.4494 L24.2722904,20.8344 C27.4692904,24.3014 30.7012904,27.7454 33.8762904,31.2414 L42.7902904,42.2544 C45.5282904,46.1024 48.3332904,49.9084 51.0192904,53.7944 L54.7822904,59.8014 L56.6632904,62.8064 C57.2842904,63.8114 57.9422904,64.7944 58.4832904,65.8464 C67.9502904,82.2164 75.3842904,99.7384 80.8622904,117.8334 C86.3512904,135.9324 89.9072904,154.5904 91.9122904,173.3894 C93.9202904,192.1964 94.3422904,211.1474 93.6642904,230.0364 L92.2342904,229.9814 Z" id="Fill-73" fill="#000"/><path d="M0.75189036,245.0341 C0.75189036,245.0341 0.40489036,237.6561 4.65789036,233.1431 C8.91089036,228.6301 16.5488904,228.9761 19.3258904,226.7211 C22.1038904,224.4641 23.3188904,220.8181 26.2698904,219.3431 C29.2208904,217.8671 32.8668904,220.8181 39.1158904,217.6931 C45.3648904,214.5681 46.4938904,193.3041 47.8818904,190.4391 C49.2708904,187.5751 59.9468904,178.8081 59.9468904,178.8081 C59.9468904,178.8081 56.5618904,180.5061 52.3088904,180.3951 C48.0558904,180.2841 38.2478904,173.0801 35.6438904,173.5131 C33.0398904,173.9481 25.5728904,179.9361 24.2728904,181.9331 C22.9718904,183.9301 21.8428904,189.3101 16.0278904,194.6051 C10.2128904,199.9001 6.82789036,202.9381 5.61189036,206.1491 C4.39789036,209.3611 1.70689036,213.0071 1.96689036,215.5231 C2.22789036,218.0411 2.33589036,226.4941 1.83889036,228.2671 C1.34289036,230.0411 -1.25810964,240.5201 0.75189036,245.0341" id="Fill-74" fill="#BE6FFB"/><path d="M43.8836904,209.789 C43.8836904,209.789 44.1906904,208.581 44.7836904,206.427 C46.2596904,201.059 50.0276904,191.464 59.0276904,192.115 C68.6846904,192.813 75.1876904,198.701 79.7826904,206.377 C79.7826904,206.377 76.6516904,200.097 77.1526904,196.715 C77.6536904,193.332 81.3486904,189.387 80.7226904,185.879 C80.0966904,182.371 74.8976904,182.184 71.4526904,180.43 C68.0076904,178.676 66.3796904,175.92 62.5586904,175.92 C58.7376904,175.92 50.4696904,186.693 47.9646904,189.011 C45.4596904,191.328 43.8836904,209.789 43.8836904,209.789" id="Fill-75" fill="#870CF7"/><path d="M93.4491904,230.0302 L92.4501904,229.9872 C94.5661904,181.0372 114.50219,139.9412 153.39819,104.3512 L154.07319,105.0902 C115.38319,140.4912 95.5531904,181.3592 93.4491904,230.0302" id="Fill-76" fill="#000"/><path d="M151.26749,108.2089 C139.87149,117.1359 116.11249,123.9819 109.20049,135.1409 C100.27649,149.5489 103.28549,168.4899 104.48349,174.2079 C113.55149,151.0739 129.35849,129.7329 149.44749,110.1409 C150.12249,109.4819 150.66449,108.8989 151.26749,108.2089" id="Fill-77" fill="#BE6FFB"/><path d="M108.90179,288.247 L76.7667904,288.247 C70.6487904,288.247 65.6887904,283.287 65.6887904,277.169 L65.6887904,230.009 L119.97979,230.009 L119.97979,277.169 C119.97979,283.287 115.01979,288.247 108.90179,288.247" id="Fill-78" fill="#FFADAE"/></g></g></g><g transform="translate(7.000000, 7.000000) scale(1 1)" id="Master/Character/Standing"><g id="Master/Character/Standing" stroke="none" stroke-width="1" fill="none" fill-rule="evenodd"><g id="Bottom" transform="translate(71.000000, 158.000000) scale(1 1)"><g id="Bottom/Leggins" stroke="none" stroke-width="1" fill="none" fill-rule="evenodd"><g id="Group-66" transform="translate(3.000000, 0.000000)"><path d="M6.7229,179.9086 C6.7229,179.9086 3.0739,181.0126 1.8989,183.0686 C0.7239,185.1246 0.8119,187.1096 0.8119,187.1096 C0.8119,187.1096 1.5149,188.8306 5.6519,190.5776 C9.7889,192.3246 13.5129,194.8066 17.5129,199.0366 C21.5129,203.2656 25.9009,208.6906 32.0049,209.4266 C38.1089,210.1616 58.1989,210.2076 61.0949,209.4266 C63.9909,208.6446 65.0029,206.3436 65.3539,204.8066" id="Fill-1" fill="#CDCDCD"/><path d="M16.9495,159.9203 C16.9495,159.9203 19.8325,159.5243 24.4165,163.3693 C24.4165,163.3693 23.9735,165.6983 22.2725,168.1393 C20.5725,170.5783 18.3175,171.1333 18.3175,171.1333 L17.3815,168.3233 C17.9145,165.4403 17.8405,162.6303 16.9495,159.9203" id="Fill-3" fill="#474747"/><path d="M17.9886,169.0014 C17.9886,169.0014 19.0086,166.8204 19.3806,163.7184 C19.7526,160.6144 17.8906,159.5394 16.2776,160.0354 C14.6646,160.5324 15.3656,162.8454 16.5666,164.4604 C17.7666,166.0754 16.9056,168.5944 16.9056,168.5944 L17.9886,169.0014 Z" id="Fill-5" fill="#000"/><path d="M6.8045,180.1782 C6.0925,180.6092 5.3775,181.0322 4.7215,181.4862 C4.0645,181.9342 3.4465,182.4202 2.9915,182.9492 C2.5765,183.4302 2.2405,184.1642 1.9975,184.8772 C1.7625,185.5832 1.6235,186.4042 1.6235,187.0732 L1.5645,186.8022 C1.5645,186.8022 1.6795,186.9902 1.7655,187.0942 C1.8635,187.2172 1.9725,187.3412 2.0935,187.4602 C2.3285,187.7022 2.6015,187.9302 2.8875,188.1442 C3.4615,188.5732 4.0975,188.9492 4.7585,189.2882 C5.4135,189.6302 6.1135,189.9072 6.8515,190.2462 C7.5755,190.5792 8.2875,190.9382 8.9875,191.3212 C11.7885,192.8542 14.3275,194.8322 16.5885,197.0442 C18.8525,199.2752 20.8155,201.6722 23.0495,203.7712 C25.2575,205.8582 27.7275,207.7352 30.5985,208.5042 C32.0015,208.8852 33.5645,208.9632 35.1015,209.0892 C36.6465,209.1902 38.1955,209.2722 39.7475,209.3272 C42.8505,209.4492 45.9595,209.4982 49.0675,209.5352 C52.1735,209.5612 55.2875,209.5782 58.3815,209.4252 C59.9285,209.3432 61.4775,209.2792 62.7345,208.4232 C63.9965,207.6182 64.8255,206.2422 65.1805,204.7682 L65.5275,204.8472 C65.2045,206.3952 64.3685,207.9072 63.0095,208.8342 C62.3345,209.2872 61.5785,209.6202 60.7785,209.7722 C59.9795,209.9282 59.2075,209.9902 58.4245,210.0572 C55.3045,210.3052 52.1885,210.3802 49.0705,210.4482 C45.9525,210.5042 42.8355,210.4842 39.7155,210.4252 C38.1555,210.3972 36.5945,210.3422 35.0305,210.2692 C33.4705,210.1652 31.8965,210.1292 30.2805,209.7292 C27.0785,208.9202 24.3815,206.9472 22.0815,204.8012 C19.7595,202.6492 17.7455,200.2302 15.5555,198.1102 C13.3515,195.9872 10.9185,194.1242 8.2435,192.6852 C7.5745,192.3262 6.8935,191.9912 6.2005,191.6772 C5.5235,191.3702 4.7705,191.0792 4.0415,190.7072 C3.3155,190.3422 2.6035,189.9302 1.9265,189.4332 C1.5885,189.1822 1.2585,188.9132 0.9475,188.6012 C0.7915,188.4482 0.6405,188.2812 0.4945,188.1002 C0.3435,187.8972 0.2265,187.7692 0.0595,187.4162 L0.0015,187.2932 L0.000218564376,187.1452 C-0.0075,186.1292 0.1555,185.2702 0.4325,184.3722 C0.7295,183.4982 1.0715,182.6472 1.7855,181.8652 C2.4655,181.1442 3.2705,180.6802 4.0845,180.3162 C4.9115,179.9732 5.7495,179.7242 6.6415,179.6392 L6.8045,180.1782 Z" id="Fill-7" fill="#000"/><path d="M29.7659,180.8559 C29.7659,180.8559 35.8969,167.9209 41.2809,163.8089 L26.5509,156.3319 C26.5509,156.3319 22.6629,166.2929 20.9429,167.7429 C19.2239,169.1919 16.9059,168.5939 16.9059,168.5939 C16.9059,168.5939 15.4099,178.2399 18.6999,180.5569 C21.9899,182.8759 29.7659,180.8559 29.7659,180.8559" id="Fill-9" fill="#e7915c"/><path d="M41.8678,167.536 C43.9038,166.759 49.1018,156.873 51.9138,152.801 C54.7248,148.729 64.4348,134.869 70.9878,128.096 C77.5418,121.324 85.7548,115.248 88.5748,111.448 C91.3938,107.648 106.5748,79.084 106.5748,79.084 C106.5748,79.084 111.6098,35.632 111.6098,33.584 L111.6098,1.27897692e-13 L63.8848,1.27897692e-13 C63.8848,1.27897692e-13 65.9778,61.4 66.1168,71.587 C66.2568,81.775 65.0798,88.892 63.8848,92.318 C62.6888,95.744 58.6148,103.429 55.0968,106.485 C51.5778,109.54 46.1618,116.24 41.1108,123.64 C36.0598,131.039 31.3158,142.654 29.1048,146.085 C26.8948,149.516 24.3778,150.964 24.1488,156.073 C23.9208,161.181 28.0378,162.402 30.7828,163.24 C33.5278,164.079 35.9158,165.308 35.9158,165.308 C36.7888,166.762 39.8318,168.311 41.8678,167.536 Z" id="Fill-11" fill="#000"/><path d="M109.4485,53.9516 L65.4335,53.0266 C65.7845,60.8786 66.0685,68.0496 66.1165,71.5876 C66.2565,81.7746 65.0795,88.8916 63.8845,92.3176 C63.0715,94.6476 60.9265,98.9466 58.5305,102.4206 C52.9675,127.2026 56.4305,138.1366 59.2105,142.5876 C63.0035,137.4606 67.4535,131.7486 70.9885,128.0966 C77.5425,121.3236 85.7555,115.2486 88.5745,111.4476 C91.3935,107.6476 106.5745,79.0846 106.5745,79.0846 C106.5745,79.0846 108.0825,66.0706 109.4485,53.9516" id="Fill-13" fill="#474747"/><path d="M6.3016,180.5766 C6.3016,180.5766 6.6516,177.9526 8.7506,175.6206 C10.8496,173.2886 11.8416,173.4046 13.4736,171.0136 C15.1066,168.6236 15.7526,166.6986 16.5666,166.6986 C17.3806,166.6986 18.3716,167.4576 18.6056,169.9646 C18.8386,172.4726 17.7306,177.2536 20.5876,178.7686 C23.4456,180.2856 28.5346,178.9756 28.5346,178.9756 C28.5346,178.9756 27.9926,177.7206 28.5766,177.1376 C29.1596,176.5536 34.0576,174.6296 35.3986,175.5616 C36.7396,176.4956 40.8216,193.2886 45.7786,196.3796 C50.7346,199.4696 57.2066,201.7436 60.9386,202.6186 C64.6706,203.4926 65.3116,203.3766 65.5456,204.1926 C65.7786,205.0096 64.9036,207.0506 60.7056,207.3996 C56.5076,207.7496 50.9676,207.2836 46.1276,207.3996 C41.2876,207.5156 34.5236,208.0996 27.2936,202.8516 C20.0626,197.6036 18.1386,190.9726 14.1146,187.1156 C10.0916,183.2596 6.3016,180.5766 6.3016,180.5766" id="Fill-15" fill="#474747"/><path d="M13.3792,173.2514 C14.1262,174.1744 14.8372,175.1134 15.5982,175.9664 C16.3722,176.8214 17.1392,177.5804 18.0732,178.2304 L18.0942,178.2444 C18.2242,178.3344 18.2562,178.5144 18.1662,178.6454 C18.1052,178.7324 18.0032,178.7754 17.9042,178.7674 C17.2372,178.7074 16.6112,178.4264 16.0742,178.0634 C15.5312,177.6994 15.0872,177.2364 14.6812,176.7554 C13.8792,175.7814 13.2602,174.7004 12.8762,173.5044 C12.8282,173.3554 12.9112,173.1944 13.0612,173.1474 C13.1752,173.1094 13.2972,173.1494 13.3682,173.2374 L13.3792,173.2514 Z" id="Fill-17" fill="#000"/><path d="M10.9417,175.7553 C11.8037,176.3953 12.7797,177.1203 13.6467,177.8733 C14.5217,178.6473 15.3877,179.4233 16.1337,180.4163 C16.3207,180.6683 16.5027,180.9223 16.6527,181.2693 C16.8157,181.6133 16.8537,181.9003 16.9287,182.2053 C17.0557,182.8033 17.1147,183.3893 17.1637,183.9753 C17.2507,185.1463 17.2397,186.3083 17.1307,187.4743 C17.1157,187.6303 16.9777,187.7443 16.8217,187.7313 C16.6897,187.7183 16.5877,187.6163 16.5677,187.4913 L16.0407,184.1043 C15.9557,183.5463 15.8587,182.9903 15.7447,182.4633 C15.6197,181.8973 15.4857,181.5743 15.1567,181.1273 C14.5297,180.2693 13.7217,179.4443 12.9367,178.6303 C12.1327,177.7973 11.3417,177.0443 10.5147,176.1213 C10.4127,176.0073 10.4217,175.8323 10.5357,175.7303 C10.6357,175.6403 10.7827,175.6373 10.8857,175.7133 L10.9417,175.7553 Z" id="Fill-19" fill="#000"/><path d="M28.6282,177.5873 C28.7382,178.8603 29.2472,180.2093 29.7632,181.4633 C30.3242,182.7213 30.9132,183.9733 31.6002,185.1803 C32.2862,186.3873 33.0002,187.5803 33.7262,188.7723 C34.4392,189.9733 35.1972,191.1483 35.8932,192.3773 L35.8972,192.3823 C35.9732,192.5183 35.9252,192.6913 35.7892,192.7683 C35.6722,192.8343 35.5272,192.8083 35.4402,192.7123 C34.9632,192.1863 34.5082,191.6433 34.0582,191.0943 C33.6222,190.5343 33.2002,189.9633 32.7792,189.3913 C31.9672,188.2263 31.2122,187.0163 30.5522,185.7503 C29.8872,184.4883 29.2642,183.1933 28.8082,181.8283 C28.3572,180.4573 27.9462,179.0763 28.0692,177.5233 C28.0812,177.3693 28.2152,177.2563 28.3682,177.2683 C28.5052,177.2783 28.6112,177.3883 28.6232,177.5213 L28.6282,177.5873 Z" id="Fill-21" fill="#000"/><path d="M27.469,198.9282 C27.941,198.1272 28.829,197.7532 29.679,197.7012 C30.545,197.6522 31.344,197.8822 32.055,198.1162 C33.513,198.6062 34.881,199.2762 36.075,200.2522 C36.198,200.3522 36.216,200.5322 36.115,200.6562 C36.041,200.7462 35.922,200.7802 35.815,200.7492 L35.806,200.7462 C34.365,200.3332 33.016,199.7562 31.66,199.2592 C30.968,199.0172 30.322,198.7812 29.689,198.7392 C29.066,198.6822 28.393,198.8442 27.939,199.2382 L27.891,199.2802 C27.775,199.3792 27.599,199.3672 27.498,199.2502 C27.418,199.1582 27.41,199.0282 27.469,198.9282" id="Fill-23" fill="#000"/><path d="M41.1263,198.0112 C41.7303,198.3712 42.4273,198.6712 43.1053,198.9312 C43.7903,199.1942 44.4933,199.4022 45.2023,199.5932 C46.6303,199.9542 48.0803,200.1892 49.5773,200.5392 L49.5833,200.5402 C49.7363,200.5762 49.8323,200.7312 49.7963,200.8852 C49.7693,201.0012 49.6733,201.0842 49.5623,201.1022 C48.7843,201.2232 47.9943,201.2562 47.2093,201.1912 C46.4253,201.1252 45.6443,200.9832 44.8823,200.7592 C44.1213,200.5402 43.3763,200.2492 42.6723,199.8732 C41.9683,199.4882 41.3113,199.0482 40.7433,198.4242 C40.6393,198.3092 40.6473,198.1312 40.7623,198.0272 C40.8563,197.9422 40.9923,197.9312 41.0963,197.9922 L41.1263,198.0112 Z" id="Fill-25" fill="#000"/><path d="M30.6722,191.1352 C31.3092,190.3712 31.9612,189.7462 32.6852,189.1312 C33.4042,188.5282 34.1802,187.9812 35.0092,187.5032 C35.8342,187.0192 36.7382,186.6452 37.6792,186.3572 C38.6242,186.0652 39.6302,185.9512 40.6422,185.9292 C41.2982,185.9142 41.8412,186.4352 41.8562,187.0912 C41.8702,187.7472 41.3502,188.2912 40.6932,188.3062 C40.6722,188.3062 40.6502,188.3062 40.6282,188.3052 L40.5492,188.3032 C39.7852,188.2752 39.0042,188.2972 38.2312,188.4812 C37.4602,188.6632 36.6872,188.9152 35.9512,189.2832 C35.2132,189.6462 34.4972,190.0782 33.8192,190.5732 C33.1502,191.0622 32.4792,191.6352 31.9362,192.2012 L31.9022,192.2372 C31.5872,192.5662 31.0642,192.5762 30.7342,192.2612 C30.4192,191.9592 30.3972,191.4652 30.6722,191.1352" id="Fill-27" fill="#000"/><path d="M35.0979,194.2075 C36.0389,193.2285 37.0899,192.4375 38.1219,191.6625 L41.1689,189.3915 L41.2129,189.3575 C41.5499,189.1065 42.0269,189.1765 42.2779,189.5135 C42.4609,189.7585 42.4729,190.0785 42.3359,190.3315 C41.6159,191.6545 40.5259,192.6075 39.4079,193.4245 C38.8439,193.8335 38.2469,194.1865 37.6289,194.4975 C37.0079,194.8065 36.3709,195.0675 35.6649,195.2335 C35.3379,195.3115 35.0099,195.1075 34.9329,194.7805 C34.8839,194.5725 34.9479,194.3655 35.0839,194.2215 L35.0979,194.2075 Z" id="Fill-29" fill="#000"/><path d="M39.1302,197.3032 C39.2992,196.7802 39.5462,196.3402 39.8342,195.9212 C40.1232,195.5062 40.4522,195.1212 40.8172,194.7692 C41.5502,194.0742 42.4002,193.4422 43.4502,193.1402 C43.8622,193.0222 44.2912,193.2602 44.4092,193.6712 C44.4832,193.9272 44.4182,194.1902 44.2612,194.3802 L44.2242,194.4242 C43.6292,195.1312 42.9852,195.7342 42.3122,196.3582 C41.6362,196.9702 40.9252,197.5782 40.0432,198.0392 L40.0182,198.0532 C39.7112,198.2132 39.3312,198.0942 39.1712,197.7872 C39.0902,197.6322 39.0802,197.4572 39.1302,197.3032" id="Fill-31" fill="#000"/><path d="M171.8626,203.6059 C171.8626,203.6059 170.7706,208.7129 172.4876,210.2459 C174.2036,211.7789 181.2556,210.7369 185.3636,208.4069 C189.4716,206.0769 193.0286,203.3169 198.4856,200.8029 C203.9426,198.2889 209.5226,196.2649 213.0786,193.7519 C216.6346,191.2379 223.0736,183.9409 226.0166,180.9359 C228.9596,177.9319 230.7646,175.5029 231.2696,174.0069 C232.0466,171.7049 231.0956,169.9469 231.0956,169.9469" id="Fill-33" fill="#CDCDCD"/><path d="M165.2254,188.2143 C165.2254,188.2143 163.5654,186.9933 161.3414,187.3693 C159.1184,187.7443 157.3014,188.3483 156.6434,186.9503 C156.0014,185.5843 158.5284,181.9043 161.7994,180.9193 C161.8764,180.8963 161.9534,180.8743 162.0314,180.8553 C165.4134,179.9783 167.3554,186.5243 167.3554,186.5243 L165.2254,188.2143 Z" id="Fill-35" fill="#000"/><path d="M153.7234,173.4985 C153.7234,173.4985 163.1604,184.7845 170.7484,189.6485 C170.7484,189.6485 176.2944,188.6765 179.9914,182.9365 C179.9914,182.9365 170.8464,166.2995 167.8304,162.3105 L153.7234,173.4985 Z" id="Fill-37" fill="#e7915c"/><path d="M58.419,56.0846 C62.694,61.8556 74.022,74.2526 82.785,82.1616 C91.549,90.0696 99.03,95.8406 104.374,105.2456 C109.717,114.6496 115.488,132.8176 123.397,143.7196 C131.305,154.6196 139.434,161.6046 143.155,167.2546 C146.875,172.9026 149.355,176.6236 153.489,176.6236 C157.622,176.6236 159.138,173.1786 161.894,171.2496 C164.65,169.3206 167.975,168.6646 170.18,164.5306 C172.384,160.3966 167.543,156.5066 162.996,151.4086 C158.449,146.3096 145.836,124.9216 137.335,105.4526 C128.834,85.9836 120.629,66.4296 115.503,57.8306 C110.376,49.2306 103.596,30.4256 103.596,30.4256 L103.596,1.13686838e-13 L52.6268324,1.13686838e-13 C52.6268324,1.13686838e-13 48.9084631,22.7359721 48.9084631,32.2180618 C48.9084631,41.7001516 54.144,50.3136 58.419,56.0846 Z" id="Fill-39" fill="#000"/><path d="M154.3899,138.5395 C148.9699,129.4185 142.4179,117.0945 137.3349,105.4525 C135.0759,100.2775 132.8379,95.1005 130.6729,90.1205 C99.5299,64.2605 73.4679,62.3815 63.8849,62.7355 C69.2359,68.8635 76.6399,76.6145 82.7859,82.1615 C91.5489,90.0695 99.0299,95.8405 104.3739,105.2455 C106.6869,109.3155 109.0799,115.0285 111.6919,121.0835 C132.9039,140.5015 147.5879,140.3235 154.3899,138.5395" id="Fill-41" fill="#474747"/><path d="M61.6741,58.1508 C67.0601,65.2018 73.0131,71.8488 79.3691,78.0338 C85.7131,84.2088 92.9401,89.5358 98.9581,96.2968 C100.4541,97.9878 101.8601,99.7668 103.1421,101.6358 C104.4401,103.5008 105.5421,105.4908 106.5981,107.4638 C108.6991,111.4308 110.6071,115.4618 112.5611,119.4618 C116.4701,127.4398 120.3871,135.4718 125.4991,142.5898 L125.5131,142.6108 C125.8791,143.1198 125.7631,143.8298 125.2531,144.1958 C124.7441,144.5618 124.0341,144.4458 123.6681,143.9358 C123.6671,143.9338 123.6611,143.9258 123.6601,143.9238 C118.4501,136.4798 114.6281,128.3538 110.7961,120.3078 C108.8871,116.2808 107.0281,112.2328 105.0031,108.3008 C103.9811,106.3368 102.9441,104.4088 101.7141,102.5988 C100.4981,100.7798 99.1581,99.0418 97.7221,97.3798 C91.9491,90.7218 84.7881,85.3098 78.4451,78.9778 C72.1131,72.6528 66.2331,65.9098 60.8941,58.7288 C60.7341,58.5138 60.7781,58.2098 60.9931,58.0488 C61.2071,57.8908 61.5081,57.9338 61.6691,58.1438 L61.6741,58.1508 Z" id="Fill-43" fill="#000"/><path d="M226.0901,169.3334 C223.0851,170.5484 216.3711,175.4084 209.9131,176.6234 C203.4551,177.8374 195.9101,176.1114 191.4341,175.2164 C186.9581,174.3204 181.9121,170.5484 179.9911,170.5484 C179.9911,170.5484 176.8821,172.3954 176.1011,175.9794 C175.3211,179.5634 176.3441,182.0584 176.3441,182.0584 L178.0021,182.3764 C177.5511,183.8974 176.6841,185.9704 175.2541,186.2334 C172.9601,186.6564 167.8881,185.2684 166.5001,185.8114 C165.6321,186.1504 164.8351,187.0794 164.3601,187.7294 C164.0761,188.1154 164.0631,188.6354 164.3231,189.0384 C165.2171,190.4214 167.2581,193.7754 167.5871,196.0734 C168.0091,199.0314 168.2511,200.7224 168.7941,202.1104 C169.3381,203.4994 171.8131,204.6464 171.8131,204.6464 C171.8131,204.6464 178.4541,205.4194 179.9911,204.6464 C181.5291,203.8734 188.2371,198.6184 192.5211,197.1474 C196.8051,195.6774 205.6291,194.2064 210.7441,190.3704 C215.8601,186.5334 231.2701,169.9084 231.2701,169.9084 C231.2701,169.9084 229.0951,168.1184 226.0901,169.3334" id="Fill-45" fill="#474747"/><g id="Group-49" transform="translate(170.000000, 169.781000)" fill="#000"><path d="M2.138,33.8845 C2.157,35.5845 2.112,37.3355 2.486,38.7835 C2.579,39.1375 2.712,39.4515 2.875,39.6715 C2.957,39.7805 3.047,39.8535 3.129,39.9165 C3.238,39.9805 3.362,40.0535 3.525,40.1045 C4.163,40.3255 4.993,40.3785 5.797,40.3705 C7.428,40.3395 9.097,40.0485 10.709,39.6225 C12.325,39.1795 13.887,38.6065 15.312,37.7615 C18.265,36.0715 21.12,34.0875 24.184,32.3995 C27.242,30.6815 30.474,29.3495 33.641,28.0045 C36.8,26.6475 40.014,25.3475 42.786,23.4565 C45.477,21.4665 47.89,18.9395 50.298,16.4935 L57.508,9.0695 C58.657,7.8055 59.788,6.4945 60.628,5.0315 C61.457,3.6085 61.611,1.7585 60.939,0.2505 L61.252,0.0815 C62.046,1.7205 61.929,3.6885 61.082,5.2765 C60.245,6.8405 59.139,8.1975 58.012,9.5195 L51.008,17.1705 C48.619,19.6815 46.295,22.2335 43.467,24.4125 C40.553,26.4745 37.329,27.8305 34.184,29.2575 C31.023,30.6705 27.853,31.9775 24.901,33.6785 C21.924,35.3475 19.111,37.3345 16.084,39.1025 C14.54,40.0315 12.834,40.6735 11.127,41.1555 C9.408,41.6205 7.652,41.9475 5.828,41.9985 C4.911,42.0055 3.986,41.9885 2.981,41.6595 C2.732,41.5805 2.469,41.4535 2.211,41.2925 C1.939,41.1085 1.716,40.8775 1.544,40.6355 C1.21,40.1475 1.029,39.6395 0.93,39.1545 C0.738,38.1765 0.777,37.2545 0.899,36.3605 C1.031,35.4655 1.244,34.6045 1.587,33.7665 L2.138,33.8845 Z" id="Fill-47"/></g><path d="M188.22,184.5395 C188.665,183.4965 189.149,182.5715 189.687,181.6285 C190.227,180.6975 190.806,179.7875 191.462,178.9225 C192.766,177.2015 194.342,175.5715 196.421,174.5665 C196.832,174.3675 197.326,174.5395 197.525,174.9505 C197.716,175.3475 197.564,175.8195 197.185,176.0315 L197.153,176.0495 C195.524,176.9555 194.197,178.4495 193.105,180.0885 C192.554,180.9085 192.069,181.7805 191.619,182.6695 C191.179,183.5525 190.759,184.4965 190.442,185.3795 L190.432,185.4065 C190.211,186.0245 189.531,186.3465 188.912,186.1255 C188.295,185.9025 187.973,185.2235 188.195,184.6045 C188.202,184.5845 188.212,184.5605 188.22,184.5395" id="Fill-50" fill="#000"/><path d="M194.7229,184.4799 C194.9889,182.7219 195.5159,181.0599 196.2529,179.4399 C196.6299,178.6349 197.0699,177.8519 197.6189,177.1189 C198.1799,176.4009 198.8309,175.7089 199.6749,175.2349 C199.9599,175.0749 200.3209,175.1759 200.4809,175.4609 C200.6169,175.7029 200.5649,175.9989 200.3719,176.1809 L200.3469,176.2059 C199.7949,176.7259 199.3179,177.3419 198.8959,178.0119 C198.4519,178.6679 198.0969,179.4039 197.7409,180.1369 C197.3729,180.8689 197.0839,181.6439 196.7709,182.4129 C196.4739,183.1829 196.1849,183.9799 195.9149,184.7499 L195.9059,184.7739 C195.7939,185.0929 195.4449,185.2599 195.1249,185.1489 C194.8439,185.0489 194.6799,184.7639 194.7229,184.4799" id="Fill-52" fill="#000"/><path d="M201.1824,181.8823 C201.1244,181.3463 201.1184,180.8263 201.1334,180.3003 C201.1344,179.7743 201.2054,179.2513 201.2574,178.7243 C201.3194,178.1983 201.4354,177.6743 201.5684,177.1473 C201.7264,176.6243 201.8984,176.0953 202.2654,175.5743 C202.4534,175.3063 202.8244,175.2413 203.0924,175.4303 C203.2924,175.5703 203.3784,175.8133 203.3324,176.0373 L203.3174,176.1093 C203.2324,176.5163 203.1494,176.9943 203.0914,177.4763 L202.8854,178.9443 C202.8014,179.4373 202.7594,179.9383 202.6694,180.4373 C202.5934,180.9363 202.5114,181.4443 202.4024,181.9363 L202.3994,181.9483 C202.3264,182.2813 201.9964,182.4923 201.6634,182.4183 C201.3974,182.3603 201.2104,182.1383 201.1824,181.8823" id="Fill-54" fill="#000"/><path d="M168.8465,196.3022 C170.0495,195.8592 171.2695,195.4922 172.5035,195.1682 C173.7415,194.8292 174.9665,194.5392 176.2905,194.3622 C176.4585,194.3402 176.6375,194.3232 176.8295,194.3172 C177.0465,194.3262 177.2785,194.3352 177.4475,194.3822 C177.8255,194.4572 178.1425,194.5702 178.4615,194.6882 C179.0965,194.9182 179.6775,195.2172 180.2515,195.5182 C181.3905,196.1372 182.4585,196.8482 183.4675,197.6602 C183.5895,197.7582 183.6085,197.9382 183.5105,198.0602 C183.4285,198.1602 183.2915,198.1912 183.1775,198.1432 L179.6965,196.6702 C179.1285,196.4172 178.5495,196.1992 177.9915,195.9982 C177.7135,195.9012 177.4265,195.8122 177.1795,195.7722 C177.0415,195.7352 176.9545,195.7402 176.8545,195.7262 C176.7315,195.7282 176.5925,195.7372 176.4465,195.7522 C175.2525,195.8932 173.9925,196.1352 172.7465,196.3132 C171.4995,196.5162 170.2445,196.7092 168.9775,196.8502 C168.8215,196.8672 168.6805,196.7562 168.6625,196.6002 C168.6475,196.4682 168.7275,196.3462 168.8465,196.3022" id="Fill-56" fill="#000"/><path d="M167.3797,190.6948 L171.4467,190.9028 L173.4827,191.0228 C174.1777,191.0748 174.8027,191.0958 175.5797,191.2038 L175.5797,191.2038 L174.8737,191.5778 C175.0867,191.1758 175.2357,191.0528 175.4197,190.8348 C175.5957,190.6368 175.7767,190.4538 175.9627,190.2748 C176.3347,189.9188 176.7227,189.5848 177.1317,189.2728 C177.5407,188.9628 177.9747,188.6788 178.4377,188.4378 C178.9017,188.2018 179.3997,187.9978 179.9487,187.9358 C180.1027,187.9198 180.2427,188.0308 180.2597,188.1848 C180.2757,188.3278 180.1827,188.4568 180.0467,188.4898 L180.0347,188.4928 C179.1707,188.7078 178.3967,189.3178 177.7087,189.9558 C177.3657,190.2848 177.0417,190.6328 176.7387,190.9988 C176.5877,191.1798 176.4407,191.3658 176.3077,191.5528 C176.1837,191.7168 176.0217,191.9838 176.0147,192.0248 C175.9697,192.2938 175.7157,192.4738 175.4477,192.4288 L175.4267,192.4238 L175.3077,192.3988 C174.7487,192.2748 174.0217,192.1758 173.3717,192.0778 L171.3607,191.7938 L167.3307,191.2558 C167.1757,191.2368 167.0667,191.0958 167.0857,190.9408 C167.1047,190.7958 167.2347,190.6888 167.3797,190.6948" id="Fill-58" fill="#000"/><path d="M185.3499,183.9936 L197.8079,183.7016 C198.8449,183.6746 199.8809,183.6446 200.9119,183.5926 C201.9129,183.5336 203.0419,183.5026 203.8659,183.3016 C205.6689,182.6546 207.4739,181.5066 209.2849,180.5436 L209.2909,180.5406 C209.4289,180.4676 209.5999,180.5186 209.6739,180.6566 C209.7369,180.7756 209.7059,180.9196 209.6089,181.0046 C208.8099,181.6956 207.9619,182.3086 207.0779,182.8866 C206.1859,183.4596 205.2859,183.9966 204.1999,184.3676 C203.6009,184.5296 203.0569,184.5536 202.5339,184.5986 L200.9589,184.6786 C199.9129,184.7196 198.8709,184.7386 197.8289,184.7546 C195.7459,184.7956 193.6649,184.7596 191.5839,184.7356 C189.5039,184.7106 187.4249,184.6436 185.3449,184.5566 C185.1889,184.5506 185.0689,184.4196 185.074684,184.2646 C185.0809,184.1146 185.2029,183.9976 185.3499,183.9936" id="Fill-60" fill="#000"/><path d="M193.9324,193.6645 C193.8044,193.0455 193.7514,192.4305 193.7754,191.7935 C193.8094,191.1595 193.8904,190.5085 194.2264,189.8485 C194.3774,189.5195 194.6664,189.1925 195.0334,188.9575 C195.5034,188.7195 195.6804,188.7205 195.9824,188.6025 L197.6624,188.0125 L201.0364,186.8105 C202.1394,186.3935 203.3274,186.0165 204.3474,185.5735 L204.3994,185.5515 C204.5404,185.4895 204.7044,185.5555 204.7654,185.6955 C204.8214,185.8235 204.7734,185.9705 204.6594,186.0425 C203.5674,186.7345 202.5034,187.1995 201.3954,187.7015 C200.2974,188.1965 199.1904,188.6635 198.0674,189.0995 C197.5064,189.3185 196.9404,189.5245 196.3654,189.7265 C196.1074,189.8195 195.6914,189.9465 195.6274,189.9855 C195.4994,190.0755 195.3524,190.1915 195.2434,190.4085 C194.7784,191.2425 194.6264,192.4855 194.4944,193.6235 L194.4924,193.6395 C194.4744,193.7955 194.3334,193.9065 194.1774,193.8895 C194.0534,193.8745 193.9564,193.7805 193.9324,193.6645" id="Fill-62" fill="#000"/><path d="M176.3885,181.7797 C177.6845,181.6237 178.9275,181.8467 180.1865,181.9527 C181.4445,182.0567 182.6975,182.1707 183.9635,182.2527 C184.1195,182.2597 184.2395,182.3937 184.2315,182.5507 C184.2235,182.6837 184.1205,182.7937 183.9925,182.8147 C182.7075,183.0197 181.4035,183.0627 180.1155,182.9927 C178.8265,182.9197 177.5285,182.8727 176.2995,182.3367 C176.1525,182.2717 176.0855,182.0997 176.1495,181.9537 C176.1925,181.8557 176.2825,181.7937 176.3805,181.7807 L176.3885,181.7797 Z" id="Fill-64" fill="#000"/></g></g></g><g id="Body" transform="translate(74.000000, 0.000000) scale(1 1)"><g id="Body/Coffee" stroke="none" stroke-width="1" fill="none" fill-rule="evenodd"><g id="Group-92" transform="translate(36.000000, 52.000000)"><g id="Group-3" transform="translate(145.000000, 75.305000)" fill="#000"><path d="M1.3916,0.2904 C1.3916,0.2904 3.0856,2.1334 4.5186,2.8504 C5.9536,3.5664 6.2276,4.6424 5.9746,5.2744 C5.7216,5.9074 2.5876,5.9494 0.9916,5.5074 L1.3916,0.2904 Z" id="Fill-1"/></g><path d="M146.082,81.3396 C146.082,81.3396 148.528,81.9726 148.633,84.5666 C148.739,87.1596 145.639,87.3076 145.639,87.3076 L146.082,81.3396 Z" id="Fill-4" fill="#000"/><path d="M126.6333,65.4411 L127.7143,58.5571 C133.8993,55.7331 143.0033,56.4001 148.6363,59.7231 L149.3403,68.9131 L126.6333,65.4411 Z" id="Fill-6" fill="#474747"/><path d="M109.3047,94.2468 C109.3047,94.2468 113.2217,93.6928 116.1087,93.8508 C118.9947,94.0098 119.5877,94.3258 123.1457,93.6538 C126.7037,92.9808 130.4197,89.6208 131.9617,88.9098 L131.9617,77.6818 L109.3047,85.7468 L109.3047,94.2468 Z" id="Fill-8" fill="#e7915c"/><path d="M127.0171,64.487 L127.0171,95.858 C131.2171,98.809 139.8741,99.972 145.2741,97.659 L148.5241,66.202 L127.0171,64.487 Z" id="Fill-10" fill="#CDCDCD"/><path d="M127.0171,95.8581 C128.3561,96.7051 129.8431,97.2651 131.3551,97.6701 C132.8711,98.0711 134.4251,98.3091 135.9811,98.4101 C139.0761,98.5971 142.2751,98.2771 144.9961,97.0231 L145.0011,97.0221 L144.5851,97.5871 L147.8351,66.1301 L149.2131,66.2731 L145.9621,97.7301 L145.9191,98.1541 L145.5461,98.2951 L145.5421,98.2961 C143.9751,98.8951 142.3471,99.1791 140.7311,99.2891 C139.1131,99.3981 137.4991,99.3141 135.9121,99.0981 C134.3251,98.8791 132.7611,98.5201 131.2531,98.0011 C129.7511,97.4791 128.2901,96.8001 127.0171,95.8581" id="Fill-12" fill="#000"/><path d="M109.3047,80.823 C109.3047,80.823 112.4237,81.258 114.1887,80.636 C115.9537,80.013 122.3147,74.347 123.8177,73.827 C125.3207,73.306 129.7547,72.961 130.9047,73.038 C132.0537,73.114 133.8167,73.689 136.6907,73.574 C139.5647,73.459 140.7147,72.961 141.0597,73.229 C141.4047,73.497 141.7107,76.717 139.0287,77.675 C136.3457,78.633 132.0157,78.211 131.4407,78.402 C131.4407,78.402 131.2487,79.169 130.2527,80.511 C129.2567,81.851 125.8457,85.914 123.9677,86.22 C122.0907,86.527 120.2127,86.488 120.2127,86.488 L109.3047,86.488 L109.3047,80.823 Z" id="Fill-14" fill="#e7915c"/><path d="M141.0595,73.2292 C141.4615,73.6602 141.4925,74.2912 141.5065,74.8582 C141.4975,75.4412 141.3425,76.0352 141.0405,76.5692 C140.7345,77.0992 140.2795,77.5602 139.7395,77.8752 C139.1835,78.1812 138.6385,78.3492 138.0815,78.5042 C136.9705,78.7912 135.8455,78.8982 134.7355,78.9682 C134.1805,79.0062 133.6255,79.0192 133.0785,79.0242 L132.2675,79.0372 L131.8805,79.0472 C131.7665,79.0502 131.6355,79.0722 131.6595,79.0602 L131.6595,79.0592 L132.1125,78.5712 C131.8845,79.3762 131.5585,79.8752 131.2015,80.4522 C130.8445,81.0072 130.4425,81.5012 130.0395,81.9832 C129.2305,82.9482 128.3785,83.8752 127.4315,84.7262 C126.9595,85.1542 126.4535,85.5522 125.9135,85.9252 C125.3715,86.2842 124.7705,86.6632 123.9835,86.7502 C122.7125,86.8572 121.4465,86.7832 120.2125,86.4882 L123.8175,85.7102 C124.7195,85.4492 125.6575,84.5432 126.4815,83.7282 C127.3155,82.8722 128.1215,81.9652 128.8895,81.0332 C129.2695,80.5622 129.6385,80.0892 129.9745,79.6252 C130.2945,79.1742 130.6185,78.6052 130.7685,78.2342 L130.9375,77.8192 L131.2225,77.7462 L131.2265,77.7442 C131.5165,77.6682 131.6585,77.6752 131.8165,77.6622 L132.2495,77.6532 L133.0755,77.6582 L134.6915,77.6652 C135.7635,77.6662 136.8225,77.5892 137.8515,77.4362 C138.3575,77.3452 138.8725,77.2242 139.2935,77.0402 C139.7195,76.8392 140.0865,76.5322 140.3635,76.1402 C140.8915,75.3632 141.2635,74.2812 141.0595,73.2292" id="Fill-16" fill="#000"/><path d="M62.5893,25.281 C62.5893,25.281 67.5133,30.523 70.9793,33.061 C74.4443,35.6 77.6013,37.602 78.9873,41.607 C80.3743,45.611 81.0673,53.312 81.5283,57.548 C81.9913,61.783 81.0143,67.219 81.9483,69.676 C82.8823,72.134 83.3733,73.756 82.7833,74.885 C82.1943,76.016 81.1623,76.802 81.1623,76.802 L82.8333,78.621 C82.8333,78.621 82.4403,77.146 85.7333,77.589 C89.0253,78.031 91.8273,80.39 96.8893,79.898 C101.9513,79.407 104.6053,77.146 106.6693,76.95 C108.7333,76.753 114.1893,80.635 114.1893,80.635 C114.1893,80.635 112.4043,81.69 112.3603,87.031 C112.3173,92.371 113.0173,94.647 113.0173,94.647 C113.0173,94.647 112.4483,96.093 108.2023,97.844 C103.9563,99.594 103.1243,101.17 101.3733,103.578 C99.6223,105.985 99.0973,108.524 95.1573,110.582 C91.2173,112.638 80.7123,111.633 80.7123,111.633 L62.8133,112.544 L62.5893,25.281 Z" id="Fill-18" fill="#870cf7"/><path d="M80.7192,111.5525 C82.3562,111.4865 83.9802,111.4475 85.5972,111.4025 C87.2142,111.3625 88.8282,111.3165 90.4172,111.1345 C91.9912,110.9505 93.6042,110.6675 94.9032,110.0015 C96.2792,109.2645 97.4832,108.3015 98.3772,107.0535 C99.2872,105.8335 99.9792,104.2995 100.9992,102.9435 C101.9172,101.6485 102.9262,100.1725 104.3602,99.1475 C105.7362,98.1035 107.3762,97.4465 108.8062,96.8225 C109.5252,96.4945 110.2222,96.1295 110.8652,95.7115 C111.1842,95.5015 111.4902,95.2795 111.7662,95.0405 C111.9012,94.9215 112.0312,94.7985 112.1422,94.6745 C112.2442,94.5755 112.3762,94.3665 112.3652,94.3905 L112.3482,94.8535 C112.0082,93.5455 111.8932,92.3655 111.7842,91.1225 C111.6902,89.8955 111.6522,88.6695 111.6522,87.4475 C111.6502,86.2185 111.7132,84.9565 111.9622,83.7045 C112.0952,83.0775 112.2622,82.4505 112.5252,81.8355 C112.6582,81.5275 112.8082,81.2225 113.0052,80.9265 C113.1032,80.7785 113.2072,80.6315 113.3342,80.4895 C113.4742,80.3365 111.0112,79.3695 109.5612,78.6245 C108.8392,78.2585 108.0872,77.9155 107.3802,77.7395 C107.2082,77.7015 107.0342,77.6675 106.8942,77.6655 C106.7762,77.6545 106.6142,77.6875 106.4392,77.7135 C106.0932,77.7905 105.7312,77.9085 105.3572,78.0555 C103.8612,78.6545 102.2652,79.4225 100.5872,79.8855 C98.9032,80.3585 97.1812,80.6455 95.4032,80.6235 C93.6282,80.6205 91.8792,80.1755 90.2712,79.5915 C88.6612,79.0175 87.1322,78.3065 85.5912,78.1275 C84.1842,77.9485 82.9392,79.2145 82.0362,80.5245 C81.5672,81.1925 81.1482,81.9095 80.7182,82.6375 C80.4952,82.9965 80.3032,83.3805 80.0072,83.7145 C79.8662,83.8845 79.6942,84.0445 79.4972,84.1795 C79.3072,84.3065 79.0322,84.4375 78.7842,84.3565 L78.7822,84.3355 C79.5252,82.9485 80.3042,81.4455 81.2402,79.9825 C81.7202,79.2605 82.2652,78.5505 82.9852,77.9615 C83.6842,77.3725 84.6772,76.9405 85.6842,77.0375 C87.5162,77.2095 89.1012,77.9275 90.6702,78.4315 C92.2372,78.9525 93.8142,79.2935 95.4172,79.2895 C97.0112,79.2945 98.6452,79.0085 100.1952,78.5515 C101.7672,78.0985 103.2122,77.3795 104.8322,76.7065 C105.2402,76.5425 105.6832,76.4015 106.1592,76.2985 C106.4002,76.2615 106.6542,76.2105 106.9582,76.2285 C107.2402,76.2395 107.4812,76.2925 107.7192,76.3475 C108.6472,76.5875 109.4322,76.9675 110.2092,77.3635 C111.7492,78.1695 113.1772,79.0825 114.5902,80.0715 L114.5412,81.2325 C114.5682,81.2155 114.4372,81.3235 114.3812,81.4005 C114.3082,81.4835 114.2372,81.5845 114.1692,81.6875 C114.0322,81.8965 113.9162,82.1355 113.8112,82.3825 C113.6032,82.8795 113.4592,83.4255 113.3452,83.9805 C113.1352,85.1025 113.0732,86.2635 113.0702,87.4485 C113.0672,88.6415 113.1012,89.8315 113.1892,91.0135 C113.2822,92.1755 113.4202,93.4085 113.6862,94.4415 L113.7582,94.7195 L113.6682,94.9045 C113.4802,95.2945 113.3522,95.4075 113.1822,95.6095 C113.0212,95.7885 112.8542,95.9455 112.6842,96.0955 C112.3422,96.3885 111.9872,96.6435 111.6252,96.8805 C110.9002,97.3495 110.1482,97.7385 109.3852,98.0835 C108.6082,98.4385 107.8672,98.7175 107.1672,99.0655 C106.4632,99.4095 105.7892,99.7955 105.1772,100.2465 C103.9332,101.1265 103.0552,102.3885 102.0932,103.7335 C101.1382,104.9775 100.4812,106.4485 99.4412,107.8455 C98.4152,109.2415 96.9942,110.3425 95.4902,111.1165 C93.8612,111.9195 92.1762,112.0995 90.5282,112.2615 C87.2232,112.5245 83.9262,112.3955 80.7042,111.7115 L80.7192,111.5525 Z" id="Fill-20" fill="#000"/><path d="M71.0258,32.9968 C73.0918,33.8788 74.8878,35.1828 76.5648,36.7348 C78.2458,38.2708 79.4778,40.4378 80.0098,42.6398 C81.1418,47.0008 81.5568,51.3968 82.0538,55.7718 L82.2318,57.4098 C82.2908,57.9728 82.3338,58.5428 82.3558,59.1048 C82.3978,60.2308 82.3828,61.3468 82.3398,62.4508 C82.2818,64.6388 82.0708,66.8868 82.4118,68.8628 C82.4568,69.1188 82.5228,69.3008 82.6068,69.5658 L82.8848,70.3528 C83.0658,70.8828 83.2408,71.4188 83.3828,71.9798 C83.5198,72.5428 83.6428,73.1268 83.6288,73.7708 C83.6488,74.3968 83.3688,75.1658 82.9668,75.6198 C82.2378,76.5388 81.4488,77.2738 80.6798,78.0598 C79.9308,78.8508 79.0988,79.5698 78.5808,80.5478 C78.7808,79.4278 79.4748,78.4708 80.0998,77.5688 C80.7408,76.6668 81.4748,75.8098 82.0688,74.9708 C82.3538,74.5618 82.4468,74.2358 82.4458,73.7578 C82.4438,73.3008 82.3308,72.7988 82.1918,72.3008 C82.0478,71.7998 81.8668,71.2948 81.6758,70.7888 L81.3808,70.0288 C81.2898,69.7758 81.1638,69.4378 81.1078,69.1538 C80.8378,67.9698 80.8278,66.8358 80.8298,65.7188 C80.8368,64.6008 80.8798,63.5008 80.9068,62.4068 C80.9298,61.3138 80.9588,60.2288 80.9218,59.1578 C80.9018,58.6208 80.8648,58.0958 80.8128,57.5638 L80.6408,55.9218 C80.1698,51.5658 79.7608,47.1658 78.6968,42.9988 C78.1788,40.9268 77.2028,39.1098 75.7148,37.5778 C74.2768,36.0128 72.4008,34.8478 70.9308,33.1268 L71.0258,32.9968 Z" id="Fill-22" fill="#000"/><path d="M148.5009,66.4294 C148.1139,66.3194 147.7279,66.2084 147.3379,66.1074 L132.8969,64.9554 C130.8949,65.2064 128.9249,65.6474 127.0169,66.2564 L127.0169,67.8374 C130.5099,66.9734 134.1179,66.7314 137.6539,67.0994 C141.2599,67.4644 144.7779,68.4314 148.1569,69.7544 L148.5009,66.4294 Z" id="Fill-24" fill="#000"/><path d="M148.7856,61.6745 C140.6866,60.0245 133.4096,60.5145 126.9736,63.2735 L126.6326,65.4415 L129.8576,65.9345 C135.3246,64.1335 141.6146,63.7425 149.0666,65.3425 L148.7856,61.6745 Z" id="Fill-26" fill="#000"/><path d="M125.2934,67.5945 C132.3294,65.1515 140.3584,65.0275 150.0014,68.6645 L150.0014,65.2335 C150.0014,65.0405 149.8774,64.8665 149.6964,64.8025 C141.0024,61.7265 132.9854,61.3685 125.6454,63.8805 C125.4354,63.9515 125.2934,64.1535 125.2934,64.3745 L125.2934,67.5945 Z" id="Fill-28" fill="#474747"/><path d="M105.9311,91.9861 C105.4721,93.8811 104.8641,95.7151 104.1671,97.5131 C103.4611,99.3061 102.6941,101.0751 101.8631,102.8181 C101.0261,104.5591 100.1291,106.2691 99.0531,107.9231 C98.7751,108.3381 98.5031,108.7431 98.1191,109.1591 C97.7381,109.5211 97.3751,109.8471 96.9441,110.1281 C96.1171,110.6791 95.1101,111.1401 94.1011,111.0151 C95.0201,110.6751 95.7081,110.0451 96.3721,109.4211 C96.6931,109.1011 97.0231,108.7571 97.2991,108.4201 C97.5421,108.1071 97.7831,107.6951 98.0041,107.2901 C98.8861,105.6351 99.6741,103.8841 100.5131,102.1701 C102.1931,98.7301 103.8051,95.2521 105.9311,91.9861" id="Fill-30" fill="#000"/><path d="M127.9008,95.3923 C130.4418,94.5973 133.1358,94.3613 135.7998,94.5193 C138.4508,94.7093 141.1528,95.3063 143.4428,96.6913 C140.8668,96.0493 138.3228,95.6813 135.7338,95.5163 C133.1478,95.3323 130.5568,95.3763 127.9008,95.3923" id="Fill-32" fill="#000"/><path d="M73.9897,38.0993 C73.9897,38.0993 76.8517,48.1523 77.2007,59.1823 C77.5507,70.2133 76.5027,80.8253 77.2007,89.6913 C77.8997,98.5573 79.8467,107.1153 80.5107,111.8783 C81.5067,119.0283 85.5247,129.4973 84.9657,131.9923 C84.2077,135.3693 82.7607,136.4273 82.7607,136.4273 C82.7607,136.4273 84.2767,140.1283 82.2277,141.3103 C80.1797,142.4933 77.0277,139.7633 72.1147,138.4143 C67.2027,137.0663 58.7077,136.9123 54.1017,137.3223 C49.4967,137.7313 34.0427,139.7783 29.4377,139.8803 C24.8317,139.9833 19.8207,139.8803 19.8207,139.8803 C19.8207,139.8803 15.9367,78.7423 21.5597,56.3443 C27.1817,33.9473 33.2707,23.0983 33.2707,23.0983 L42.1707,18.5563 L62.5897,25.2813" id="Fill-34" fill="#870cf7"/><path d="M28.7426,137.4773 L33.2456,136.9473 C34.7446,136.7783 36.2456,136.5583 37.7096,136.2793 C39.1826,135.9963 40.6386,135.5643 42.1246,135.2113 C43.6006,134.8493 45.1216,134.4833 46.6556,134.5153 C45.1396,134.7053 43.7226,135.2633 42.2876,135.7513 C40.8586,136.2743 39.4126,136.7683 37.9216,137.1793 C36.4226,137.5983 34.9066,137.8193 33.3906,138.0583 C31.8696,138.2533 30.3526,138.4163 28.8146,138.4753 L28.7426,137.4773 Z" id="Fill-36" fill="#000"/><path d="M80.8383,142.4548 C79.5813,142.4548 78.2043,141.7758 76.6903,141.0288 C75.3173,140.3518 73.7613,139.5848 71.9313,139.0828 C66.9583,137.7178 58.3883,137.6378 54.1633,138.0118 C52.5473,138.1548 49.6093,138.4998 46.2063,138.8968 C40.0843,139.6138 32.4653,140.5058 29.4533,140.5728 C24.8853,140.6758 19.8563,140.5738 19.8063,140.5728 L19.1693,140.5598 L19.1293,139.9248 C19.0903,139.3118 15.3033,78.4208 20.8873,56.1758 C26.4673,33.9458 27.3753,36.0188 22.2313,56.5138 C17.0053,77.3288 20.0833,132.6198 20.4723,139.1988 C21.9673,139.2228 25.8393,139.2688 29.4213,139.1878 C32.3693,139.1228 39.9523,138.2348 46.0453,137.5218 C49.4583,137.1228 52.4053,136.7768 54.0403,136.6328 C58.4933,136.2348 67.1033,136.3198 72.2983,137.7468 C74.2553,138.2838 75.8743,139.0828 77.3033,139.7868 C79.5923,140.9158 80.8313,141.4688 81.8203,140.7508 C83.6093,139.4488 82.4833,136.3908 82.4713,136.3588 L83.7673,135.8708 C83.8303,136.0368 85.2683,139.9548 82.6353,141.8698 C82.0653,142.2858 81.4663,142.4548 80.8383,142.4548" id="Fill-38" fill="#000"/><g id="Group" transform="translate(5.789700, 88.682700)"><path d="M17.508,0.493 C17.508,0.493 18.316,5.371 18.383,10.684 C18.452,15.998 17.49,31.033 17.478,35.826 C17.465,40.619 17.519,44.408 18.383,46.415 C19.248,48.421 24.076,54.981 24.618,55.931 C25.16,56.879 24.55,60.945 24.618,63.046 C24.686,65.146 24.821,65.891 23.534,67.653 C23.534,67.653 23.941,69.889 24.144,74.226 C24.347,78.562 25.092,81.138 23.602,81.409 C22.111,81.68 20.485,75.446 20.485,75.446 C20.485,75.446 16.935,76.123 15.559,75.649 C14.183,75.175 13.438,72.329 11.676,69.415 C9.914,66.501 9.304,66.569 8.695,64.536 C8.085,62.504 8.017,53.694 7.61,48.748 C7.204,43.802 4.779,29.192 4.17,24.855 C3.56,20.518 1.444,13.491 0.969,8.884 C0.495,4.276 -1.77635684e-15,1.42108547e-14 -1.77635684e-15,1.42108547e-14 L17.508,0.493 Z" id="Fill-46" fill="#e7915c"/><path d="M11.635,65.202 C12.236,65.473 12.799,65.721 13.358,65.925 C13.935,66.126 14.436,66.254 15.051,66.317 C15.66,66.412 16.281,66.497 16.904,66.656 C17.506,66.821 18.213,66.99 18.664,67.52 C18.037,67.374 17.431,67.457 16.804,67.431 C16.179,67.431 15.548,67.388 14.911,67.306 C14.607,67.254 14.246,67.195 13.921,67.077 C13.599,66.949 13.287,66.809 13.008,66.62 C12.448,66.251 11.961,65.783 11.635,65.202" id="Fill-100" fill="#000"/><path d="M22.0134,55.6747 C22.0024,56.7367 22.0544,57.8277 22.1764,58.8897 C22.2864,59.9427 22.5654,61.0207 22.7634,62.0947 L24.0184,68.5477 C24.4064,70.7527 24.4804,72.9487 24.5844,75.1457 L24.6814,78.4377 C24.6734,79.0017 24.7464,79.5007 24.6724,80.1137 C24.5794,80.7187 24.1284,81.2247 23.6014,81.4087 C24.0064,81.0247 24.2644,80.5537 24.3064,80.0637 C24.3124,79.5827 24.2614,78.9857 24.2424,78.4537 L24.0494,75.1737 C23.8854,72.9957 23.7424,70.7957 23.3054,68.6887 L21.8624,62.2627 C21.6394,61.1847 21.3594,60.1357 21.2214,59.0067 C21.0814,57.8907 21.0154,56.7877 21.0134,55.6567 L22.0134,55.6747 Z" id="Fill-102" fill="#000"/></g><path d="M76.1333,48.2966 C77.0183,51.9406 77.4573,55.6816 77.6043,59.4336 C77.7323,63.1776 77.7123,66.9236 77.6433,70.6606 C77.5303,78.1336 77.1573,85.6066 78.0993,92.9756 C79.0043,100.3616 80.3063,107.7236 81.7863,115.0256 C82.1663,116.8526 82.5483,118.6616 83.0733,120.4316 L84.7093,125.7756 C84.9793,126.6766 85.2443,127.5856 85.4513,128.5336 C85.6693,129.4806 85.7803,130.5066 85.7253,131.5036 C85.6173,133.5136 84.9363,135.5756 83.1803,137.0206 L83.1773,137.0226 L83.0233,137.1336 L82.8163,137.1506 C81.1023,137.2946 79.5183,137.1066 77.9113,136.8276 C76.3203,136.5466 74.7483,136.0876 73.2563,135.5516 C71.7933,135.0166 70.2923,134.5886 68.7773,134.1856 C67.2603,133.7906 65.7233,133.4476 64.1573,133.1836 C65.7473,133.0756 67.3463,133.1776 68.9323,133.3626 C70.5233,133.5366 72.0903,133.8786 73.6503,134.2586 C75.1713,134.6676 76.6613,135.0096 78.1843,135.2636 C79.6863,135.5166 81.2613,135.6846 82.7053,135.7026 L82.3443,135.8316 L82.3453,135.8316 C82.8843,135.4036 83.4203,134.6506 83.7343,133.9016 C84.0703,133.1356 84.2333,132.2896 84.2773,131.4326 C84.3933,129.7096 83.8453,127.9796 83.3313,126.1876 C82.7933,124.4116 82.2263,122.6206 81.7583,120.7926 C81.2823,118.9626 80.8893,117.1156 80.5223,115.2826 C79.0823,107.9316 77.8273,100.5576 76.9633,93.1056 C76.0603,85.6126 76.5433,78.0886 76.7283,70.6406 C76.8373,66.9086 76.8983,63.1806 76.8113,59.4566 C76.7473,55.7376 76.4043,52.0326 76.1333,48.2966" id="Fill-40" fill="#000"/><path d="M65.6259,26.0202 C65.2799,25.2292 63.9689,23.8372 61.6139,22.2452 C61.5769,22.6332 61.5389,23.0012 61.5009,23.3362 C60.9099,28.5592 60.0779,31.7912 60.0779,31.7912 C58.6789,33.9602 54.7559,33.2012 50.0829,30.6532 C44.9899,27.8762 40.8009,22.3472 40.8009,22.3472 C41.8009,20.3292 42.4439,18.0782 42.8499,15.8162 C41.5079,15.7762 40.5759,15.9032 40.2829,16.1692 C39.3559,17.0112 39.6509,17.2642 38.8519,19.4962 C38.0519,21.7262 36.4939,22.3162 36.4939,22.3162 C36.4939,22.3162 36.4939,26.4422 49.5439,33.0612 C58.7399,37.7262 65.0789,34.1452 65.0789,34.1452 C65.0789,34.1452 66.2159,27.3682 65.6259,26.0202" id="Fill-42" fill="#000"/><g id="Group-46" transform="translate(40.000000, 0.305000)" fill="#e7915c"><path d="M21.5009,23.0316 C22.1929,16.9156 22.8129,1.2676 22.8129,1.2676 L2.9259,0.6946 C2.9259,0.6946 5.0509,13.4616 0.8009,22.0426 C0.8009,22.0426 4.9899,27.5716 10.0829,30.3476 C14.7559,32.8956 18.6789,33.6556 20.0779,31.4856 C20.0779,31.4856 20.9099,28.2546 21.5009,23.0316" id="Fill-44"/></g><path d="M40.4507,17.2302 C40.5287,17.3852 41.0637,18.2092 41.9877,19.3482 C42.3507,18.1952 42.6367,17.0072 42.8497,15.8162 C41.9647,15.7902 41.2627,15.8362 40.8007,15.9482 C40.7997,15.9502 40.2007,16.7312 40.4507,17.2302" id="Fill-47" fill="#000"/><path d="M65.6259,26.0202 C65.2799,25.2292 63.9689,23.8372 61.6139,22.2452 C61.5769,22.6332 61.5389,23.0012 61.5009,23.3362 C61.2409,25.6282 60.9359,27.5372 60.6739,28.9572 C63.3019,28.7082 64.8149,27.4892 65.6259,26.0202" id="Fill-49" fill="#000"/><path d="M65.6259,26.0202 C64.8149,27.4892 63.3019,28.7082 60.6739,28.9572 C58.8149,29.1322 56.4029,28.8272 53.2669,27.7622 C48.0429,25.9882 44.0459,21.8852 41.9869,19.3482 C41.0639,18.2092 40.7369,17.6862 40.6429,17.5412 C40.0499,16.6312 40.7989,15.9502 40.7999,15.9482 C40.5619,16.0052 40.3829,16.0792 40.2829,16.1692 C39.3559,17.0112 39.6509,17.2642 38.8519,19.4962 C38.0519,21.7262 36.4939,22.3162 36.4939,22.3162 C36.4939,22.3162 36.4939,26.4422 49.5439,33.0612 C58.7399,37.7262 65.0789,34.1452 65.0789,34.1452 C65.0789,34.1452 66.2159,27.3682 65.6259,26.0202" id="Fill-51" fill="#870cf7"/><path d="M42.1709,18.5564 C42.1709,18.5564 32.8669,23.6794 26.0689,26.2144 C19.2729,28.7484 14.7159,32.3834 10.3119,37.7084 C5.9089,43.0344 5.1019,57.0894 2.9129,62.1584 C0.7239,67.2274 0.9549,73.7934 0.9549,80.8224 C0.9549,87.8494 0.9549,90.0374 1.6459,94.4154 C2.3369,98.7934 3.2589,106.3974 3.2589,115.1534 C3.2589,123.9094 1.1849,136.0044 6.7149,137.9634 C12.2449,139.9214 18.4659,133.0094 23.3049,132.6634 C28.1429,132.3184 32.8349,134.6854 35.6179,131.2524 C38.4009,127.8214 33.4839,119.1944 33.4839,119.1944 C33.4839,119.1944 35.3509,117.6124 35.2489,113.0054 C35.1469,108.3994 29.8229,101.3354 29.1069,93.9644 C28.3899,86.5934 25.8309,79.7354 28.2879,71.4424 C30.7449,63.1504 31.4609,60.3864 32.8949,58.6464 C34.3279,56.9064 36.7849,54.8584 36.7849,54.8584 C36.7849,54.8584 42.1079,47.0774 41.6979,35.7144 C41.2889,24.3514 42.1709,18.5564 42.1709,18.5564" id="Fill-61" fill="#870cf7"/><path d="M36.7846,54.8581 C35.9766,56.0791 35.0826,57.1881 34.2126,58.3021 L32.9186,59.9571 C32.4746,60.5251 32.2056,61.0031 31.9166,61.6481 C30.8486,64.1821 30.1316,66.9681 29.4436,69.7091 L28.9506,71.7981 C28.7776,72.4801 28.5786,73.1641 28.4676,73.8431 C28.1876,75.2001 28.0586,76.5851 28.0196,77.9731 C27.9336,80.7551 28.3096,83.5451 28.7636,86.3471 L29.4366,90.5851 C29.5476,91.2951 29.6376,92.0121 29.7256,92.7301 C29.8006,93.4611 29.8816,94.1701 29.9746,94.8361 C30.3706,97.5611 31.3516,100.2121 32.4446,102.8201 C33.5186,105.4461 34.8086,108.0091 35.5556,110.9001 C35.6436,111.2631 35.7006,111.6411 35.7716,112.0101 C35.7996,112.3921 35.8476,112.7891 35.8466,113.1601 C35.8486,113.9001 35.7956,114.6441 35.6896,115.3841 C35.4196,116.8611 35.0176,118.3371 33.8176,119.5671 L33.8076,119.5761 L33.9186,118.9471 C34.8566,120.5551 35.6276,122.2191 36.2436,123.9801 C36.8326,125.7351 37.3186,127.6071 37.0006,129.6301 C36.8406,130.6221 36.2656,131.6761 35.5116,132.3321 C34.7496,133.0371 33.7536,133.4891 32.7696,133.6571 C30.7876,133.9891 28.9396,133.6361 27.1596,133.4531 C26.2666,133.3551 25.3826,133.2611 24.5096,133.2551 C23.6146,133.2481 22.8046,133.2831 21.9936,133.5351 C20.3466,133.9741 18.7536,134.8651 17.1536,135.6981 C15.5586,136.5571 13.8996,137.3701 12.1436,137.9551 C10.3956,138.5161 8.4066,138.6801 6.7146,137.9631 C8.4976,138.4291 10.3006,138.0431 11.9376,137.3861 C13.5896,136.7121 15.1046,135.7401 16.6796,134.8431 C18.2546,133.9461 19.8156,132.9641 21.6606,132.3821 C22.1136,132.2181 22.6046,132.1431 23.0986,132.0751 C23.5826,132.0271 24.0496,132.0051 24.5196,132.0121 C25.4616,132.0081 26.3856,132.0951 27.2956,132.1841 C29.1056,132.3621 30.9036,132.6431 32.5166,132.3421 C34.0916,132.0721 35.4746,130.9231 35.7206,129.3881 C36.0126,127.8031 35.5876,126.0311 35.0926,124.3581 C34.5716,122.6731 33.8456,121.0171 33.0506,119.4421 L32.9056,119.1561 L33.1606,118.8121 L33.1616,118.8121 C33.5316,118.4251 33.8776,117.7881 34.0946,117.1801 C34.3206,116.5551 34.4626,115.8931 34.5536,115.2211 C34.6336,114.5461 34.6686,113.8621 34.6506,113.1731 C34.6436,112.8321 34.5926,112.5181 34.5646,112.1891 C34.4906,111.8591 34.4356,111.5311 34.3486,111.2021 C33.6176,108.5611 32.2536,106.0171 31.1396,103.3761 C30.0106,100.7351 28.9566,97.9911 28.5036,95.0561 C28.3936,94.3081 28.3076,93.6001 28.2306,92.9111 C28.1396,92.2121 28.0466,91.5141 27.9316,90.8141 L27.2266,86.5951 C26.7656,83.7671 26.4066,80.8611 26.5126,77.9271 C26.5636,76.4631 26.7126,74.9951 27.0176,73.5561 C27.1436,72.8261 27.3506,72.1371 27.5336,71.4361 L28.0396,69.3611 C28.7626,66.5751 29.4836,63.8071 30.6516,61.0801 C30.8086,60.7381 30.9706,60.3991 31.1806,60.0541 C31.3966,59.6891 31.6286,59.4051 31.8626,59.1231 C32.3266,58.5491 32.8306,58.0251 33.3516,57.5211 C34.4076,56.5271 35.5196,55.6021 36.7846,54.8581" id="Fill-63" fill="#000"/><path d="M10.1674,56.364 C10.9944,55.607 12.3474,55.46 13.4484,55.9 C14.5654,56.326 15.4594,57.141 16.1664,58.023 C17.5214,59.789 18.6804,61.617 19.8974,63.415 C21.1204,65.205 22.2844,67.028 23.5674,68.747 C24.2084,69.607 24.8694,70.443 25.5674,71.226 C26.2554,71.99 27.0794,72.74 27.8554,72.971 L27.7044,73.96 C27.0304,73.816 26.4764,73.518 26.0094,73.167 C25.7844,72.985 25.5524,72.807 25.3354,72.619 L24.7264,72.03 C23.9384,71.229 23.2274,70.379 22.5714,69.497 C21.2504,67.739 20.0144,65.938 18.8554,64.096 C17.6824,62.271 16.5444,60.406 15.3004,58.691 C14.6984,57.851 13.9854,57.108 13.1274,56.607 C12.2784,56.13 11.1964,55.938 10.1674,56.364" id="Fill-70" fill="#000"/><path d="M24.0727,126.5495 C24.4407,125.5215 25.1757,124.8125 25.8757,124.0845 C26.5777,123.3555 27.3127,122.6535 28.0827,121.9875 C28.8547,121.3245 29.6607,120.6955 30.5197,120.1245 C31.3847,119.5645 32.2967,119.0455 33.3217,118.7215 L33.6467,119.6665 C31.9107,120.3925 30.2887,121.5605 28.7567,122.7965 C27.9817,123.4095 27.2297,124.0605 26.4847,124.7195 C25.7397,125.3825 25.0587,126.0975 24.0727,126.5495" id="Fill-72" fill="#000"/><path d="M5.2314,99.0447 C6.3024,101.3467 7.2094,103.7167 8.0364,106.1147 C8.8744,108.5117 9.5724,110.9527 10.2064,113.4097 C10.8174,115.8727 11.3614,118.3537 11.7674,120.8577 C11.9694,122.1107 12.1554,123.3647 12.3254,124.6207 C12.4594,125.8837 12.6084,127.1417 12.6864,128.4077 L11.0134,121.0087 C10.4324,118.5527 9.8654,116.0957 9.2374,113.6547 C8.6324,111.2077 7.9634,108.7777 7.3044,106.3417 L5.2314,99.0447 Z" id="Fill-74" fill="#000"/><path d="M26.5122,126.5495 C26.8002,125.7475 27.3812,125.1305 28.0042,124.6165 C28.6312,124.0995 29.2942,123.6285 29.9872,123.1995 C30.6792,122.7675 31.4192,122.4175 32.1922,122.1155 C32.9702,121.8315 33.7932,121.5955 34.7412,121.6785 L34.6432,122.6735 C34.0012,122.6635 33.2632,122.8665 32.5592,123.1165 C31.8452,123.3635 31.1582,123.7095 30.4722,124.0565 C29.7872,124.4085 29.1222,124.8075 28.4902,125.2505 C27.8582,125.7005 27.2482,126.1425 26.5122,126.5495" id="Fill-76" fill="#000"/><path d="M37.4697,23.6286 C39.0397,25.5346 40.7637,27.2706 42.6617,28.7566 C44.5667,30.2326 46.6527,31.4526 48.8857,32.3326 C53.3467,34.1486 58.2277,34.6916 63.1507,34.8846 C58.2887,35.6546 53.1237,35.3376 48.4287,33.4586 C46.0947,32.5136 43.9117,31.1716 42.0537,29.4816 C40.1817,27.8086 38.6487,25.7966 37.4697,23.6286" id="Fill-78" fill="#000"/><path d="M7.4751,56.3396 C6.6311,57.7616 5.8761,59.2206 5.1001,60.6656 C4.3331,62.1146 3.5781,63.5686 2.8851,65.0356 C2.5571,65.7706 2.2141,66.5206 2.0091,67.2356 C1.8301,67.9766 1.7011,68.8006 1.5981,69.6016 L0.9661,74.4956 C0.7661,72.8476 0.6961,71.1896 0.7761,69.5256 C0.8341,68.6896 0.8761,67.8686 1.0751,67.0066 C1.2961,66.1316 1.6431,65.3766 2.0061,64.6186 C2.7341,63.1156 3.5741,61.6856 4.4771,60.2986 C5.3851,58.9156 6.3501,57.5596 7.4751,56.3396" id="Fill-80" fill="#000"/><path d="M65.0791,34.1452 C65.0161,32.4862 65.2311,30.8592 65.3731,29.2532 C65.4361,28.4522 65.5241,27.6462 65.5061,26.8592 C65.4971,26.6652 65.4841,26.4692 65.4491,26.2952 C65.4191,26.1352 65.3461,25.9822 65.2481,25.8042 C65.0631,25.4592 64.8551,25.1062 64.6651,24.7272 C65.0251,24.9552 65.3411,25.2302 65.6131,25.5622 C65.7401,25.7252 65.8811,25.9272 65.9451,26.1672 C66.0081,26.3902 66.0381,26.6032 66.0661,26.8162 C66.1551,27.6612 66.1451,28.4922 66.0671,29.3162 C65.8981,30.9662 65.5681,32.5652 65.0791,34.1452" id="Fill-88" fill="#000"/><path d="M65.8706,26.156 C65.4946,27.457 64.4046,28.556 63.1316,29.131 C61.8506,29.722 60.4496,29.82 59.1356,29.758 C56.4786,29.586 54.0206,28.852 51.6476,27.806 C49.2886,26.728 47.2156,25.17 45.3696,23.433 C43.5266,21.687 41.9446,19.687 40.6416,17.541 C41.4686,18.494 42.2296,19.476 43.1246,20.35 C44.0026,21.235 44.9306,22.063 45.8796,22.855 C47.7856,24.432 49.9016,25.738 52.1476,26.647 C53.2626,27.097 54.4486,27.443 55.6336,27.724 C56.8166,28.004 58.0146,28.198 59.1946,28.229 C61.5686,28.264 63.7776,27.735 65.3816,25.885 L65.8706,26.156 Z" id="Fill-90" fill="#000"/></g></g></g><g id="Head" transform="translate(112.000000, 0.000000) scale(1 1)"><g id="Head/Afro" stroke="none" stroke-width="1" fill="none" fill-rule="evenodd"><g id="Group-23"><g id="Group-3" transform="translate(43.000000, 0.575800)" fill="#ff7475"><path d="M0.9151,14.3384 C4.3171,14.8034 1.8311,5.8924 6.9191,2.2794 C12.0071,-1.3326 16.5861,0.7024 16.0261,5.1804 C16.0261,5.1804 20.6561,-0.1626 25.8461,1.4654 C31.0361,3.0934 26.9141,6.0414 30.5271,7.4174 C34.1391,8.7924 46.5781,4.6164 49.2501,9.7074 C51.2301,13.4814 46.6551,14.5414 48.1311,17.5944 C49.6061,20.6474 61.6111,16.6924 60.8511,24.4624 C60.0121,33.0314 43.6031,28.7874 44.4671,33.5194 C45.3321,38.2514 56.9141,38.2084 56.5071,44.9254 C56.2011,49.9734 50.4201,47.9074 50.0781,52.0204 C49.8351,54.9424 58.3051,59.0544 53.3501,65.9124 C48.3941,72.7724 42.3001,66.0724 39.3561,68.4104 C37.4751,69.9044 41.0461,72.2794 39.7071,74.3524 C37.8881,77.1684 35.8561,74.5034 34.2441,75.6374 C32.6321,76.7724 32.7771,78.9624 29.7041,79.0001057 C26.0011,79.0434 22.9301,77.0294 22.0681,73.0974 C21.4191,70.1304 20.4861,67.3484 17.3261,65.9124 C14.4981,64.6284 0.9151,14.3384 0.9151,14.3384" id="Fill-1"/></g><path d="M80.1768,25.7491 C80.1768,25.7491 81.9968,33.8471 78.5908,36.8981 C75.5078,39.6621 73.5728,37.0841 72.5268,38.1131 C71.6368,38.9871 74.2588,41.2041 73.5328,43.0061 C72.7948,44.8391 69.4648,46.2471 69.4648,46.2471 L63.6548,30.4091 L80.1768,25.7491 Z" id="Fill-4" fill="#000"/><path d="M63.7335,65.838 L63.2675,65.658 C68.8675,51.201 67.4925,33.075 60.1355,24.393 L60.5175,24.07 C68.1065,33.026 69.4885,50.983 63.7335,65.838" id="Fill-6" fill="#00BFF9"/><path d="M33.7623,41.8448 C33.6893,41.2078 33.6523,40.5608 33.6523,39.9048 C33.6523,30.2128 41.8083,22.3568 51.8693,22.3568 C60.8893,22.3568 68.9823,28.9138 70.4353,37.2038 C70.4353,37.2038 74.4903,59.4538 62.8523,66.1048 C58.5573,68.5588 46.1433,58.4588 46.1433,58.4588" id="Fill-8" fill="#e7915c"/><path d="M70.4356,37.2042 C71.2196,41.3462 71.5136,45.5992 71.2206,49.8292 C70.9286,54.0352 70.0216,58.3502 67.6696,62.0002 C66.5006,63.8122 64.9076,65.3702 63.0226,66.4712 C61.9076,67.0442 60.7106,66.9042 59.6556,66.6852 C58.5886,66.4372 57.5836,66.0442 56.6116,65.6002 C54.6616,64.7172 52.8746,63.5582 51.1296,62.3662 C49.3886,61.1652 47.7266,59.8532 46.1436,58.4592 C49.5806,60.8892 53.1076,63.2382 56.9026,64.9512 C57.8526,65.3662 58.8266,65.7282 59.8176,65.9422 C60.7966,66.1392 61.8446,66.1942 62.6286,65.7632 C64.3916,64.7522 65.9136,63.3042 67.0426,61.5862 C68.1726,59.8652 68.9976,57.9392 69.5496,55.9342 C70.1156,53.9332 70.4926,51.8702 70.6886,49.7852 C71.0786,45.6132 70.9666,41.3842 70.4356,37.2042" id="Fill-10" fill="#000"/><path d="M40.0855,46.6673838 C40.0855,46.6673838 41.180708,44.7889722 42.3305,44.2719365 C43.480292,43.7549008 41.5965,41.3781 42.3305,40.2891 C43.0635,39.2001 45.3305,40.9111 46.5305,39.1551 C47.7305,37.3991 46.2635,36.3111 46.9975,35.1551 C47.7305,34.0001 48.2195,34.1101 48.1745,32.9551 C48.1305,31.8001 45.0195,29.6411 46.7085,28.2311 C48.3975,26.8211 50.4195,31.3991 52.7305,31.1771 C55.0425,30.9551 54.4795,28.3961 57.1085,28.2311 C59.7385,28.0651 60.5415,33.9541 64.2175,33.6011 C67.8945,33.2471 67.9645,31.0911 69.0955,31.0211 C70.2275,30.9491 71.2165,34.3791 74.0095,33.7771 C76.8025,33.1771 79.7355,29.2041 80.1765,25.7491 C80.6175,22.2951 80.1765,17.4121 80.1765,17.4121 L32.9295,17.4121 L32.9295,46.3301 L40.0855,46.6673838 Z" id="Fill-12" fill="#ff7475"/><g id="Group-16" transform="translate(0.000000, 7.575800)" fill="#ff7475"><path d="M43.9151,7.3384 C41.6971,7.3384 38.5331,-0.8436 34.3151,0.5634 C30.0981,1.9684 31.7671,3.9894 30.1861,5.3954 C28.6041,6.8014 27.5491,4.0774 24.5621,7.7684 C21.5741,11.4584 25.5281,16.6554 25.5281,16.6554 C25.5281,16.6554 23.6441,17.2964 21.0961,16.3794 C18.5481,15.4624 16.4591,12.4564 13.3521,13.4754 C10.2441,14.4944 10.8551,17.7544 10.8551,17.7544 C10.8551,17.7544 2.7041,15.2584 0.7161,21.6784 C-1.2709,28.0974 6.9321,28.6574 5.7601,31.6124 C4.5881,34.5674 0.1051,32.9384 0.0031,37.2684 C-0.0989,41.5994 2.2451,41.3444 2.2451,41.3444 C2.2451,41.3444 1.8881,53.0114 6.1681,53.6224 C10.4481,54.2344 12.0271,49.9544 13.8101,50.7704 C15.5931,51.5844 14.4211,53.7254 12.8421,55.1004 C11.2631,56.4764 9.6841,56.5264 10.1421,59.3804 C10.6011,62.2334 15.4921,62.0804 16.1541,64.0164 C16.8161,65.9524 17.0711,69.0094 20.4841,70.5374 C23.8981,72.0664 27.0571,69.5694 29.1971,69.4684 C31.3361,69.3654 33.8331,70.6394 36.8391,69.5694 C39.8451,68.4994 39.4371,66.2584 39.9471,65.6474 C40.4571,65.0354 41.2211,64.8314 41.9341,63.3544 C42.6471,61.8764 41.6281,58.4624 42.2401,57.5974 C42.8511,56.7314 44.8891,55.0494 45.1441,53.1644 C45.3981,51.2784 38.1671,40.3144 38.1671,40.3144 L45.5311,10.0384 L43.9151,7.3384 Z" id="Fill-14"/></g><path d="M43.4054,53.9991 C42.9084,54.8501 41.7164,55.1691 40.7774,55.1991 C38.2724,55.2801 34.4594,52.1251 33.2964,47.8901 C32.1334,43.6551 33.8884,40.6621 36.3924,40.5811 C38.2434,40.5211 40.4444,41.9531 41.9364,44.4131" id="Fill-17" fill="#e7915c"/><path d="M43.4059,53.9991 C43.1079,54.5661 42.5099,54.9291 41.9029,55.1191 C41.2929,55.3121 40.6319,55.3911 39.9799,55.2831 C38.6769,55.0741 37.5429,54.3521 36.5559,53.5351 C34.5829,51.8781 33.1579,49.5261 32.7059,46.9491 C32.4689,45.6681 32.4639,44.3091 32.8949,43.0181 C33.3269,41.7591 34.3669,40.5341 35.8009,40.2891 C37.2219,40.0361 38.5349,40.6711 39.5509,41.4411 C40.5849,42.2331 41.3689,43.2881 41.9359,44.4131 C41.1899,43.3931 40.2979,42.5001 39.2769,41.8281 C38.2679,41.1621 37.0379,40.7691 35.9459,41.0021 C34.8509,41.2491 34.0259,42.1871 33.6589,43.2871 C33.2709,44.3911 33.2439,45.6271 33.4469,46.8191 C33.6369,48.0211 34.0599,49.1801 34.6629,50.2431 C35.2629,51.3041 35.9979,52.3091 36.9089,53.1351 C37.8059,53.9651 38.8629,54.6661 40.0409,54.9651 C40.6249,55.1101 41.2539,55.0891 41.8549,54.9471 C42.4469,54.8021 43.0489,54.5321 43.4059,53.9991" id="Fill-19" fill="#000"/><path d="M41.1537804,43.2920083 C41.7997505,44.0032968 41.9635,44.1878696 42.2215,44.1878696 C42.4795,44.1878696 42.4795,43.6588 42.4005,42.9438 C42.3675,42.5848 42.2725,42.2378 42.1505,41.8828 C42.0395,41.5338 41.8655,41.1448 41.9355,40.6728 C41.9835,40.4438 42.0695,40.2428 42.2215,40.0558 C42.3795,39.8668 42.6145,39.7538 42.8315,39.7068 C43.2705,39.6198 43.6595,39.6838 44.0355,39.7148 C44.7755,39.7998 45.5235,39.8148 46.0215,39.3668 C46.5005,38.9168 46.8185,38.2008 46.7665,37.5298 C46.7495,37.1828 46.6535,36.8318 46.5815,36.4418 C46.5075,36.0608 46.4795,35.5798 46.6965,35.1728 C46.8995,34.7888 47.1395,34.4958 47.4025,34.1978 C47.6775,33.9008 47.8645,33.6918 47.8935,33.3728 C47.9415,33.0148 47.9105,32.7648 47.7115,32.4568 C47.5325,32.1548 47.3025,31.8568 47.0755,31.5538 C46.6365,30.9408 46.1065,30.3328 45.9415,29.4508 C45.8625,29.0068 46.0345,28.4908 46.3525,28.1738 C46.6315,27.8578 47.1355,27.5968 47.6165,27.6908 C48.5375,27.8918 49.0685,28.5078 49.6435,28.9998 C50.2025,29.5158 50.7385,30.0428 51.3355,30.4338 C51.9395,30.8438 52.5685,31.0008 53.2155,30.7508 C53.8485,30.5578 54.2245,29.9668 54.6705,29.3218 C54.8985,29.0038 55.1715,28.6778 55.5245,28.4298 C55.8715,28.1698 56.2945,28.0368 56.7005,27.9648 C57.0865,27.8918 57.5845,27.8808 57.9885,28.0708 C58.3985,28.2418 58.7285,28.5138 59.0095,28.8008 C59.5695,29.3828 59.9835,30.0308 60.4195,30.6458 C61.2555,31.8558 62.2235,33.1358 63.6105,33.2818 C64.9845,33.3138 66.5315,32.9028 67.4985,31.8658 C67.7575,31.6118 67.9805,31.3178 68.3135,31.0298 C68.4865,30.8948 68.7065,30.7458 68.9725,30.7178 C69.2445,30.6568 69.5545,30.7738 69.7315,30.9018 C70.4465,31.4438 70.8125,32.0748 71.3545,32.5708 C71.8655,33.0758 72.4685,33.4558 73.1355,33.5138 C73.7995,33.5798 74.4935,33.3348 75.1185,32.9998 C76.3815,32.3038 77.3955,31.1658 78.2135,29.9488 C79.0265,28.7208 79.6615,27.3418 79.9015,25.8908 C80.0315,25.1588 80.1235,24.4058 80.1925,23.6588 C80.2485,22.9138 80.3255,22.1558 80.1765,21.4118 C80.9805,24.3458 80.4245,27.6728 78.7335,30.2858 C77.8935,31.5858 76.8235,32.7778 75.4265,33.5628 C74.7305,33.9338 73.9325,34.2348 73.0725,34.1538 C72.2115,34.0768 71.4635,33.5828 70.9085,33.0308 C70.3405,32.4958 69.8855,31.8058 69.3805,31.4368 C69.2475,31.3538 69.1725,31.3248 69.0685,31.3498 C68.9515,31.3558 68.8415,31.4318 68.7195,31.5238 C68.4765,31.7298 68.2315,32.0388 67.9505,32.3168 C67.3965,32.8878 66.6745,33.3398 65.9135,33.5778 C65.1385,33.8068 64.3995,33.9728 63.5425,33.9138 C62.6965,33.8278 61.9385,33.3718 61.3685,32.8218 C60.7875,32.2688 60.3345,31.6318 59.8995,31.0088 C59.4625,30.3878 59.0505,29.7538 58.5575,29.2428 C58.0545,28.7228 57.4905,28.4198 56.8045,28.5878 C56.1135,28.6798 55.5945,29.0878 55.1815,29.6918 C54.9665,29.9858 54.7625,30.3188 54.4835,30.6288 C54.2085,30.9418 53.8315,31.2068 53.4215,31.3418 C53.0225,31.4748 52.5815,31.5428 52.1415,31.4478 C51.7115,31.3618 51.3365,31.1648 51.0025,30.9448 C50.3325,30.4968 49.7885,29.9478 49.2385,29.4348 C48.6995,28.9398 48.1215,28.3768 47.5295,28.2628 C47.2455,28.2108 46.9965,28.3318 46.7655,28.5678 C46.5505,28.7948 46.4555,29.0648 46.4995,29.3738 C46.6015,30.0068 47.0765,30.6268 47.5145,31.2268 C47.7385,31.5318 47.9735,31.8348 48.1785,32.1868 C48.2775,32.3658 48.3765,32.5548 48.4255,32.7948 C48.4585,33.0578 48.4445,33.2168 48.4195,33.4478 C48.3825,33.9078 48.0305,34.3058 47.7925,34.5488 C47.5505,34.8138 47.3115,35.1168 47.1595,35.4028 C46.8485,35.9498 47.2305,36.6858 47.2655,37.5038 C47.3065,38.3478 46.9605,39.1568 46.3375,39.7358 C45.6495,40.3318 44.7135,40.2678 43.9885,40.1818 C43.6135,40.1448 43.2385,40.0958 42.9305,40.1588 C42.6295,40.2038 42.4465,40.4528 42.3705,40.7538 C42.3115,41.0428 42.4285,41.3938 42.5415,41.7588 C42.6535,42.1238 42.7505,42.5158 42.7745,42.9118 C42.8375,43.7148 42.6368757,44.1245722 42.3269459,44.4229736 C42.017016,44.721375 41.4339229,44.0032968 41.0583928,43.2920083" id="Fill-21" fill="#000"/></g></g></g><g id="Expressions" transform="translate(158.000000, 29.000000) scale(1 1)" fill="#000"><g id="Expressions/Happy" stroke="none" stroke-width="1" fill="none" fill-rule="evenodd"><g id="Group" transform="translate(7.000000, 4.000000)" fill="#000"><path d="M3.70147231,20.2519297 C3.84599011,19.3810589 4.45155927,18.9902089 5.1691431,19.4508857 L5.27757715,19.5264201 C6.64605655,20.5543282 8.726403,20.9771082 11.5267626,20.7735349 C11.7333243,20.7585189 11.9129486,20.9137973 11.9279647,21.120359 C11.9429808,21.3269207 11.7877024,21.5065449 11.5811407,21.521561 C8.74502911,21.7277333 6.55941517,21.3175838 5.03142799,20.2725376 L4.82714297,20.1260942 C4.5666552,19.9304336 4.50954987,19.9637589 4.441354,20.3747104 C4.34669757,20.9451143 4.48682869,21.8343583 4.83085316,22.6661213 C5.73021088,24.8405377 7.50118009,25.8767616 9.89508429,24.9673291 C10.088691,24.8937788 10.3052646,24.9911038 10.3788149,25.1847106 C10.4523651,25.3783173 10.3550401,25.5948909 10.1614334,25.6684412 C7.34567288,26.7381348 5.1791289,25.4704535 4.13779541,22.9527761 C3.74371779,21.9999974 3.58184696,20.9727975 3.70147231,20.2519297 Z" id="Path-2" fill-rule="nonzero"/><g id="Group-18"><path d="M0.0246196271,4.63233625 C0.533331126,3.52891014 1.2933508,2.47790812 2.2948326,1.70112436 C3.29021925,0.916779447 4.44689323,0.413205815 5.60403607,0.0492617078 L5.61153781,0.0472453969 C6.1858895,-0.133718501 6.78790385,0.221152207 6.95622406,0.838647402 C7.12407541,1.45664667 6.79446787,2.10337838 6.22011617,2.28434227 C6.13290849,2.31156247 6.03960564,2.3266848 5.95333567,2.33071742 C4.91715833,2.36902733 3.89035816,2.51722618 2.94185737,2.92502504 C1.99241886,3.32475867 1.13347004,4.01685736 0.41470992,4.91209938 C0.329377668,5.0179557 0.180280657,5.03005356 0.0818203672,4.93831142 C-0.00163645024,4.86068345 -0.0222662253,4.73365587 0.0246196271,4.63233625" id="Fill-9"/><path d="M12.0175854,6.63233625 C12.3809508,5.52891014 12.923822,4.47790812 13.6391661,3.70112436 C14.3501566,2.91677945 15.1763523,2.41320581 16.0028829,2.04926171 L16.0082413,2.0472454 C16.4184925,1.8662815 16.8485027,2.22115221 16.9687315,2.8386474 C17.0886253,3.45664667 16.8531913,4.10337838 16.4429401,4.28434227 C16.3806489,4.31156247 16.314004,4.3266848 16.2523826,4.33071742 C15.512256,4.36902733 14.7788273,4.51722618 14.1013267,4.92502504 C13.4231563,5.32475867 12.8096215,6.01685736 12.2962214,6.91209938 C12.2352698,7.0179557 12.1287719,7.03005356 12.0584431,6.93831142 C11.9988311,6.86068345 11.9840956,6.73365587 12.0175854,6.63233625" id="Fill-9-Copy" transform="translate(14.500000, 4.500000) scale(-1, 1) translate(-14.500000, -4.500000)"/><path d="M5.99717249,10.1502934 C6.21141031,11.0039316 5.96204216,11.7117838 5.44040055,11.7311473 C4.91826112,11.7510167 4.32177824,11.0745789 4.10754042,10.2209406 C3.89330261,9.36730235 4.14267076,8.65945019 4.66481361,8.64009015 C5.1864518,8.6202173 5.78293468,9.29665512 5.99717249,10.1502934" id="Fill-11" transform="translate(5.052360, 10.185619) rotate(20.000000) translate(-5.052360, -10.185619)"/><path d="M15.2914755,10.5784931 C15.3505205,11.4566023 14.9797452,12.1093737 14.4623283,12.0369076 C13.9459104,11.963934 13.479008,11.1928401 13.4199629,10.314731 C13.3604162,9.43610997 13.732192,8.78334149 14.2486099,8.85631508 C14.765528,8.92929013 15.2324304,9.70038401 15.2914755,10.5784931" id="Fill-13" transform="translate(14.355677, 10.446574) rotate(8.000000) translate(-14.355677, -10.446574)"/></g></g><path d="M18.5379491,12.250917 C18.6180931,13.3277399 19.0257588,14.3861031 19.5295974,15.3788312 C20.0467932,16.36797 20.6660391,17.3217275 21.3990894,18.1606238 C21.5850235,18.3667585 21.7757662,18.568791 21.9771947,18.7513381 C22.0744361,18.8492777 22.181829,18.9261937 22.2844133,19.0123395 C22.3736403,19.0866915 22.5472856,19.2225763 22.6642958,19.3584611 C22.7893205,19.5061397 22.9100707,19.681508 22.9693773,19.9096919 C23.0292181,20.1378758 22.9982291,20.3983644 22.9036592,20.5983458 C22.7091765,21.0039491 22.3992864,21.2157243 22.1113023,21.3905799 C21.5209083,21.7274716 20.8941823,21.866433 20.2695935,21.95463 C19.6439361,22.0310331 19.0033185,22.0166755 18.3840726,21.8674586 C18.2403477,21.8331028 18.1532579,21.6936286 18.1895899,21.5556927 C18.2216475,21.4316017 18.3434663,21.3516091 18.4716967,21.3623773 L18.4781082,21.3628901 C19.0327046,21.4080141 19.5985212,21.3551985 20.1451032,21.2444396 C20.6890137,21.1367573 21.2249098,20.9439547 21.653413,20.6850044 C21.8639246,20.5588623 22.0391727,20.3916984 22.085122,20.2676074 C22.1294683,20.1568484 22.1080966,20.0876241 21.9734547,19.9271262 C21.8965164,19.8455953 21.8345384,19.8050863 21.7004308,19.6907379 C21.5807491,19.5876706 21.4519845,19.4892182 21.3451258,19.3784593 C21.1175169,19.1656586 20.911814,18.9400385 20.7125226,18.7113418 C19.9329888,17.7873252 19.290234,16.7807522 18.8093701,15.6982887 C18.3236975,14.625568 17.9593095,13.463112 18.0036558,12.2473276 C18.0084645,12.1058023 18.1324205,11.9950434 18.2798854,12.0001711 C18.4171988,12.0047861 18.5267289,12.1078534 18.5368805,12.2365594 L18.5379491,12.250917 Z" id="Fill-1" fill="#000"/></g></g></g></g></g></svg>