<svg viewBox="35.349397590361434 19.650000000000034 255.30120481927702 368.4375" xmlns="http://www.w3.org/2000/svg" overflow="visible" xmlns:xlink="http://www.w3.org/1999/xlink" width="255.30120481927702px" height="368.4375px"><g id="Master/Comp/Squiggle" stroke="none" stroke-width="1" fill="none" fill-rule="evenodd"><path d="M281,312 C268.396019,313.423812 258.665344,325.60301 253,336 C263.616413,329.699668 272.999463,321.387894 281,312 M265,271 C241.881595,277.085279 218.461925,298.640012 206,319 C228.22341,306.370805 246.568192,288.458706 265,271 M120.581177,44 C93.8471792,47.1393691 66.9322134,85.8195428 65,108 C82.0175766,99.5285268 97.1599505,88.4119573 110.077488,74.6163409 C115.291483,69.6466878 130.821341,49.1473665 120.581177,44 M173,57.3411208 C150.25319,51.4354123 94.0287943,123.899815 84,144 C119.665901,124.603965 155.216903,94.5145215 173,57.3411208 M153,300.730771 C153.655665,301.153769 154.31133,301.576767 154.966994,302 C155.112068,301.222108 155.005744,299.991527 155.447343,299.747626 C163.828984,296.103012 171.308761,290.614647 179.520283,286.505324 C193.727299,276.958067 207.146573,266.21369 220.086206,255.020866 C234.526663,241.200036 253.973799,230.205395 263,212 C221.384777,218.952244 170.770997,263.319161 153,300.730771 M261,136 C211.702046,148.58761 153.560756,202.433887 124,243 C148.523575,229.094129 170.72567,213.097606 193.603135,196.820471 C207.710751,188.307164 219.700281,177.427317 232.403584,166.90603 C241.550113,156.65756 255.290294,148.332508 261,136 M242,70.1174386 C229.485392,68.7350564 218.522851,79.9014308 207.904741,85.4920476 C167.719181,113.015393 133.631976,149.504056 107,190 C139.818452,171.36862 168.512981,146.064257 196.174458,120.527099 C204.062001,114.335979 210.667051,106.760119 218.24238,100.20601 C227.300606,90.9312416 237.681122,82.8716303 242,70.1174386 M186.460437,343.847483 C186.538969,342.436405 187.37774,339.387633 187.201517,337.184703 C179.823596,339.220928 172.531065,342.526388 165.163552,344.909522 C156.299686,347.978421 144.723888,347.622514 137.641405,340.728383 C131.805015,333.287011 135.346966,324.005721 136.550719,315.678963 C124.27287,317.075123 110.791032,322.558887 98.0405757,317.262667 C79.0218077,307.494283 93.2778413,277.904503 99.4732989,263.490146 C90.377387,262.521406 75.4072389,267.861197 71.3619306,256.670606 C67.4644598,238.564572 78.7199826,222.034427 86.9101826,206.882919 C49.1794392,213.165875 57.5820522,182.301885 68.5080746,159.319 C74.3470663,149.65907 63.7011073,153.602228 58.6954463,149.873846 C46.0670449,141.89376 56.270674,124.484148 53.8373863,113.889577 C45.9896963,113.152662 38.7267334,108.849809 39.0481914,100.143938 C38.0407672,74.8049143 52.9404263,50.1554461 73.2119105,35.7391953 C77.9559582,33.0463306 86.2353338,23.8353694 90.9084194,30.1962322 C69.3974653,31.3823524 36.9037191,83.6912257 46.7714613,104.881315 C55.3313734,119.001331 57.4072491,103.51357 60.2450203,96.0430731 C66.8799693,73.1596431 102.459854,24.8083716 128.922065,43.8057128 C138.924398,62.1755398 101.647339,94.0913856 86.1239234,102.858825 C79.01755,107.874676 70.9541355,111.423565 62.6579656,113.785149 C60.193218,117.027622 60.547082,122.487232 60.0054052,126.487694 C59.4008088,135.136734 58.6164419,151.616204 71.9334114,149.157296 C79.4991456,141.088884 83.8510098,129.553989 90.7681512,120.709591 C106.778602,99.5287369 125.22589,80.1435209 146.075951,63.7166199 C151.058904,60.3356208 156.268699,57.2255183 161.314808,53.9356864 C168.904197,49.3186026 184.59319,54.5009227 178.896832,65.3185571 C170.499896,84.0073508 156.073317,98.9417152 141.46129,112.94949 C128.631594,124.273398 115.046388,135.00839 100.085465,143.378008 C92.9906817,148.340817 81.2225766,148.334423 77.5143379,156.902005 C73.4638257,167.750186 56.0935055,203.784183 77.8107226,203.902345 C93.2664874,200.455279 94.6497737,195.559248 102.525375,182.88867 C112.461241,167.890844 123.312044,153.53403 135.11492,139.958885 C154.405473,117.214455 209.740001,66.7980699 238.504693,63.558439 C273.684116,71.7102037 211.668276,119.383997 201.187422,130.008641 C168.974685,157.580668 135.758073,184.327691 97.930348,203.690885 C86.2596974,220.827705 59.1777515,278.75508 104.348153,254.513378 C141.070526,205.392987 197.875861,143.31502 260.167743,130.583823 C299.132043,137.992516 193.445702,208.959873 182.397388,216.227908 C166.141882,228.290388 148.739155,238.727725 131.190011,248.788791 C124.215627,253.464364 114.292534,254.816716 110.629711,263.168101 C91.1766559,298.082281 86.7517007,330.927321 137.847195,307.396486 C143.45485,301.957714 145.24333,293.365742 149.944564,287.095573 C162.278946,268.003986 177.0258,249.951468 194.979428,235.900833 C209.864185,224.290163 226.310816,213.83104 244.734922,209.123026 C253.573952,204.6215 269.154137,201.460486 270.462913,215.151425 C263.4864,236.588494 222.496608,265.455805 203.807576,279.20547 C189.347882,289.538853 173.906783,298.421139 157.948843,306.219601 C154.057286,308.870789 147.118619,308.758784 145.836099,313.929027 C143.806112,322.772715 135.950616,343.900526 151.8946,342.206238 C208.875921,327.053783 184.869705,320.457306 222.733384,286.92792 C233.91487,277.595008 246.434463,270.010848 260.096071,264.924904 C265.035738,262.533246 268.645812,264.742096 272.046312,268.044715 C278.997988,274.839155 257.027437,290.823007 252.51851,296.119464 C236.3685,309.430579 218.970505,321.704283 200.197738,330.988652 C193.737356,334.048553 192.553473,348.696155 195.223774,354.515698 C202.217318,363.345652 230.574451,346.120032 239.942857,343.319188 C248.039387,340.00165 248.480061,328.596284 254.849612,322.793553 C261.656053,315.067077 270.088943,305.732981 281.508625,307.115644 C285.675751,307.809698 288.333988,313.633504 286.304711,317.338679 C278.446613,331.435489 263.099894,337.63533 250.470783,346.449655 C246.249725,351.404886 248.329858,359.725013 247.361227,365.86376 C241.554405,367.539578 243.800826,353.267537 243.121009,349.833732 C228.865686,357.121658 188.009302,375.65606 186.460437,343.847483" id="Background" fill="#FFD686"/><g transform="translate(3.000000, 7.000000) scale(1 1)" id="Master/Character/Standing"><g id="Master/Character/Standing" stroke="none" stroke-width="1" fill="none" fill-rule="evenodd"><g id="Bottom" transform="translate(71.000000, 158.000000) scale(1 1)"><g id="Bottom/Skirt" stroke="none" stroke-width="1" fill="none" fill-rule="evenodd"><g id="Group-78" transform="translate(24.000000, 0.000000)"><path d="M57.8278,152.9208 C57.8278,152.9208 57.1748,151.4428 55.1568,150.3628 C53.1398,149.2838 50.7238,150.3628 50.6388,148.5448 C50.5538,146.7268 53.9348,147.1818 53.9348,147.1818 C53.9348,147.1818 57.9418,148.8858 58.8788,152.6928 L57.8278,152.9208 Z" id="Fill-1" fill="#000"/><path d="M58.2873,152.6933 C58.2873,152.6933 57.9133,150.9603 55.9523,149.2843 C53.9923,147.6073 51.5193,147.3513 51.5193,147.3513 C51.5193,147.3513 52.3153,146.7553 53.0823,146.6983 C53.8503,146.6413 56.5493,146.6983 56.5493,146.6983 C56.5493,146.6983 58.6523,148.1513 59.2483,152.3263 L58.2873,152.6933 Z" id="Fill-3" fill="#ffa200"/><path d="M109.4235,193.4433 C109.4235,193.4433 110.6855,193.5843 110.9925,193.9673 C111.2985,194.3503 110.9925,200.8273 110.9925,200.8273 C110.9925,200.8273 110.0345,202.2453 107.6585,202.8203 C105.2825,203.3953 83.5905,203.4333 81.1005,202.6293 C78.6095,201.8243 75.5235,198.9163 72.4015,198.5663 C70.4075,198.3433 70.1015,202.0913 70.1015,202.0913 C70.1015,202.0913 65.2735,203.0593 59.1785,201.9243 C53.0835,200.7913 53.8005,199.6573 53.8005,199.6573 L54.1075,192.5993 L54.8495,190.3913 C54.8495,190.3913 54.9965,190.3183 56.5185,190.2953 C58.0415,190.2713 109.4235,193.4433 109.4235,193.4433" id="Fill-5" fill="#474747"/><path d="M19.5524,158.9657 C19.5524,158.9657 18.9374,157.3117 17.1644,155.2777 C15.3914,153.2447 14.6264,151.6147 15.5404,150.6217 L17.8024,150.6217 C17.8024,150.6217 19.0794,151.6137 19.8594,154.2847 C20.6394,156.9567 20.3084,158.9657 20.3084,158.9657 L19.5524,158.9657 Z" id="Fill-7" fill="#000"/><path d="M19.8229,159.3974 C19.8229,159.3974 19.8519,156.6484 18.3839,153.4234 C16.9149,150.1994 15.5409,150.6224 15.5409,150.6224 L20.9329,149.5114 C20.9329,149.5114 22.1489,150.8334 22.5719,152.6304 C22.9949,154.4284 22.2609,159.0804 22.2609,159.0804 L19.8229,159.3974 Z" id="Fill-9" fill="#ffa200"/><path d="M19.3249,159.6435 C19.3249,159.6435 19.0369,159.4405 19.0829,158.8455 C19.1289,158.2505 23.2249,156.0775 25.4449,155.7335 L25.4449,160.6535 C25.4449,160.6535 20.0699,160.3725 19.3249,159.6435" id="Fill-11" fill="#000"/><g id="Group-15" transform="translate(16.000000, 195.384000)" fill="#474747"><path d="M2.4162,0.1599 C2.4162,0.1599 0.8942,0.6049 0.4042,1.5849 L0.4042,11.3819 C0.4042,11.3819 4.8132,14.9439 6.9502,15.0779 C6.9502,15.0779 8.6872,13.7419 9.8452,13.8749 C11.0022,14.0089 13.5762,15.5589 16.9362,18.3589 C20.2952,21.1589 21.8632,23.2869 25.1662,24.6859 C28.4702,26.0869 37.5972,27.3179 44.8202,26.9269 C52.0432,26.5339 56.7462,23.2869 56.7462,23.2869 L56.7462,16.1759 C56.7462,16.1759 55.7752,15.1259 54.7122,14.4359 L2.4162,0.1599 Z" id="Fill-13"/></g><polygon id="Fill-16" fill="#7b3d16" points="25.4489 140.0312 24.3289 164.6212 42.2689 164.6212 48.7239 140.0312"/><polygon id="Fill-18" fill="#7b3d16" points="58.2873 138.079 60.6233 161.354 78.5843 162.279 79.6303 137.299"/><path d="M70.7126,209.8202 L18.4166,195.5442 C18.4166,195.5442 16.8946,195.9892 16.4046,196.9682 L16.4046,197.8582 C17.3566,199.0932 19.1696,200.7112 22.5506,201.8112 C25.9216,202.9082 29.2246,203.9012 32.2466,206.0472 C35.2676,208.1922 38.8196,212.1922 47.3366,214.3582 C55.8546,216.5232 68.5556,215.1832 70.3376,214.6462 C71.3566,214.3402 72.1446,213.8732 72.7466,213.4012 L72.7466,211.5592 C72.7466,211.5592 71.7756,210.5092 70.7126,209.8202" id="Fill-20" fill="#000"/><path d="M44.6266,182.0985 C44.6266,182.0965 43.4746,178.2505 43.9836,172.8775 C44.4926,167.5045 45.0586,162.6405 45.0586,162.6405 C45.0586,162.6405 43.9186,162.2715 43.3056,162.6395 L43.3046,162.6405 C42.5226,170.3285 41.4256,178.3275 44.6266,182.0985" id="Fill-22" fill="#000"/><path d="M67.2316,204.4413 C64.2336,202.4623 59.4256,199.8593 59.4256,199.8593 C59.4256,199.8593 55.2616,198.2373 52.4506,196.3833 C49.6386,194.5303 49.2546,192.6133 48.3606,190.2953 C47.4656,187.9763 44.6266,182.0983 44.6266,182.0983 C41.4256,178.3273 42.5226,170.3293 43.3046,162.6403 C43.3046,162.6403 43.7256,161.8323 43.0266,161.1923 C42.3296,160.5513 41.3136,159.0723 38.0296,157.9653 C34.7456,156.8593 32.1046,156.6453 31.3906,157.5023 C30.6756,158.3583 30.7836,160.0363 30.7836,160.0363 C30.7836,160.0363 29.4986,159.6433 26.8566,159.8223 C24.2146,160.0013 21.1096,160.2863 19.3246,159.6433 C19.3246,159.6433 20.5486,164.3303 21.3666,168.2263 C22.1846,172.1243 23.3866,175.8763 22.3766,179.0513 C21.3666,182.2263 19.5386,185.0163 19.0576,187.5183 C18.5756,190.0203 18.3836,196.4663 18.3836,196.4663 C18.3836,196.4663 19.4596,197.5873 22.8316,198.6823 C26.2036,199.7773 29.2246,201.0903 32.2466,203.2363 C35.2676,205.3813 38.8196,209.3813 47.3366,211.5473 C55.8546,213.7123 68.7016,212.7233 70.3376,211.8363 C71.3596,211.2823 71.5886,210.4893 71.5886,210.4893 C71.5886,210.4893 70.2296,206.4203 67.2316,204.4413" id="Fill-24" fill="#474747"/><path d="M43.9914,165.6913 L42.9934,165.6303 C43.1074,163.7453 42.9654,161.8423 42.6884,161.5603 C42.5724,161.4533 42.4474,161.3243 42.3054,161.1773 C41.5944,160.4433 40.5194,159.3323 37.8694,158.4393 C34.0854,157.1643 32.1494,157.3713 31.7744,157.8223 C31.2964,158.3953 31.2574,159.5913 31.2824,160.0043 L30.2844,160.0683 C30.2724,159.8763 30.1874,158.1633 31.0064,157.1813 C32.2794,155.6523 36.8264,157.0333 38.1894,157.4923 C41.0694,158.4623 42.2934,159.7273 43.0244,160.4823 C43.1504,160.6133 43.2614,160.7283 43.3654,160.8243 C44.1534,161.5453 44.0654,164.4683 43.9914,165.6913" id="Fill-26" fill="#000"/><path d="M19.4943,159.1728 C20.3003,159.4518 21.2453,159.5188 22.1753,159.5378 C23.1123,159.5528 24.0613,159.5068 25.0143,159.4458 C25.9673,159.3928 26.9203,159.2948 27.9143,159.2778 C28.9133,159.2748 29.8663,159.2978 30.9293,159.5578 L30.8483,159.5398 C31.8273,159.6928 32.6623,160.0688 33.4673,160.4758 C34.2713,160.8918 35.0233,161.3528 35.7693,161.8738 L36.0273,162.0538 L35.9693,162.3708 C35.3643,165.6998 34.8193,169.0508 34.3523,172.4028 C33.9043,175.7538 33.4703,179.1308 33.4293,182.4718 C33.4313,183.2958 33.4533,184.1498 33.6333,184.8728 C33.6783,185.0688 33.7273,185.1798 33.8153,185.3418 C33.9233,185.4988 34.0153,185.6628 34.1333,185.8168 C34.3723,186.1218 34.6453,186.4118 34.9393,186.6908 C36.1453,187.7898 37.5633,188.7608 38.8883,189.8478 C41.5793,191.9858 43.9313,194.5918 45.7813,197.5008 L45.7813,197.5008 L46.0943,197.9678 L45.5863,198.2148 C44.9633,198.5178 44.3113,198.9718 43.7543,199.4718 C43.1853,199.9748 42.6753,200.5518 42.2503,201.1908 C41.8243,201.8278 41.4573,202.5178 41.2133,203.2568 C40.9373,203.9878 40.8053,204.7648 40.7013,205.5478 C40.7223,204.7608 40.7713,203.9618 40.9733,203.1868 C41.1433,202.4028 41.4453,201.6498 41.8213,200.9328 C42.1963,200.2138 42.6733,199.5438 43.2253,198.9398 C43.7853,198.3288 44.3803,197.7938 45.1313,197.3238 L44.9363,198.0368 L44.9363,198.0358 C43.1393,195.2138 40.8863,192.7138 38.2583,190.6248 C36.9603,189.5568 35.5623,188.6088 34.2553,187.4198 C33.9323,187.1138 33.6233,186.7868 33.3383,186.4238 C33.1973,186.2408 33.0773,186.0348 32.9483,185.8408 C32.8293,185.6358 32.7113,185.3488 32.6673,185.1308 C32.4413,184.2018 32.4363,183.3408 32.4293,182.4718 C32.4733,179.0188 32.9113,175.6428 33.3623,172.2668 C33.8313,168.8938 34.3773,165.5398 34.9863,162.1888 L35.1853,162.6858 C34.4993,162.2058 33.7593,161.7508 33.0103,161.3648 C32.2623,160.9828 31.4733,160.6458 30.7193,160.5318 L30.6933,160.5278 L30.6373,160.5148 C29.8323,160.3168 28.8463,160.2668 27.9293,160.2778 C27.0023,160.2928 26.0413,160.3898 25.0773,160.4438 C24.1133,160.5048 23.1423,160.5528 22.1583,160.5378 C21.1753,160.5118 20.1733,160.4618 19.1553,160.1138 L19.4943,159.1728 Z" id="Fill-28" fill="#000"/><path d="M91.7446,-1.13686838e-13 L42.5877458,-1.13686838e-13 C41.6227458,3.407 36.7646001,16.4507006 34.3089954,26.0992302 C30.4305226,41.3384748 24.7956,53.7782 22.7386,64.7502 C20.6816,75.7212 10.8316,107.0872 4.9916,120.4442 C-0.8264,133.7542 0.0466,142.2522 0.0466,142.2522 C9.9896,147.5092 17.7656,140.0312 36.5266,143.8012 C44.1866,145.3422 46.0456,143.6082 56.7886,142.0082 C67.5316,140.4082 73.7036,143.6082 83.5326,143.7222 C93.3606,143.8372 94.5046,140.7522 94.5046,140.7522 C94.5046,140.7522 90.8896,123.1232 91.7446,107.7382 C92.5986,92.3542 97.0436,49.7912 95.5046,39.5292 C94.4806,32.6962 92.5176,6.634 91.7446,-1.13686838e-13 Z" id="Fill-30" fill="#870CF7"/><path d="M91.7584,-1.42108547e-14 C91.9014,2.629 93.4964,20.283 93.6964,22.906 L94.4744,30.754 C94.9384,35.983 96.0554,41.175 95.8294,46.453 L95.5984,62.236 C95.5394,67.505 95.1604,72.754 94.7394,77.996 C94.3574,83.241 93.8204,88.474 93.3474,93.708 C92.8634,98.939 92.3654,104.183 92.1284,109.411 C91.9354,114.64 92.2494,119.884 92.7664,125.097 C93.3244,130.304 94.1194,135.507 95.2154,140.605 L95.2604,140.811 L95.1844,141.004 L95.1834,141.006 C95.0624,141.274 94.9814,141.362 94.8734,141.506 C94.7704,141.631 94.6644,141.749 94.5534,141.849 C94.3344,142.057 94.1034,142.236 93.8654,142.386 C93.3934,142.704 92.8974,142.925 92.4014,143.131 C91.4034,143.52 90.3834,143.737 89.3664,143.911 C87.3264,144.21 85.2914,144.27 83.2674,144.22 C79.2134,144.112 75.2274,143.392 71.2874,142.763 C67.3504,142.122 63.3724,141.706 59.4204,142.134 C55.4744,142.513 51.5634,143.401 47.6524,144.265 C45.6914,144.691 43.6564,145.058 41.5794,145.054578 C39.5144,145.071 37.4504,144.71 35.5004,144.369 C31.6064,143.669 27.6574,143.362 23.7084,143.478 C19.7514,143.551 15.8234,144.191 11.7904,144.504 C9.7774,144.643 7.7204,144.707 5.7034,144.368 C3.6894,144.025 1.7534,143.311 0.0464,142.253 C0.9684,142.651 1.9074,142.99 2.8624,143.256 C3.8234,143.504 4.8014,143.661 5.7814,143.735 C7.7444,143.901 9.7174,143.74 11.6814,143.468 C15.6044,142.886 19.5924,142.143 23.6534,141.984 C27.7104,141.791 31.7944,142.126 35.7724,142.903 C37.7524,143.308 39.6444,143.694 41.5944,143.737 C43.5304,143.796 45.4714,143.512 47.4334,143.156 C49.3954,142.798 51.3734,142.416 53.3574,142.099 C55.3374,141.764 57.3274,141.458 59.3484,141.294 C63.3874,140.95 67.4514,141.333 71.4134,141.945 C73.3984,142.246 75.3694,142.576 77.3454,142.822 C79.3224,143.053 81.3034,143.209 83.2844,143.21 C85.2624,143.21 87.2474,143.116 89.1584,142.743 C90.1064,142.544 91.0464,142.301 91.9014,141.926 C92.3214,141.73 92.7394,141.526 93.0834,141.26 C93.2624,141.136 93.4214,140.992 93.5554,140.849 C93.6864,140.732 93.8234,140.499 93.8234,140.499 L93.7924,140.897 C93.3254,138.28 92.9544,135.677 92.6234,133.057 C92.2794,130.442 91.9884,127.821 91.7584,125.194 C91.3084,119.94 91.0284,114.663 91.2344,109.38 C91.3024,106.734 91.5064,104.115 91.6774,101.488 L92.2054,93.616 C92.5804,88.371 92.9134,83.124 93.3514,77.887 C93.7514,72.646 94.1544,67.409 94.7524,62.183 C95.0294,59.569 95.2784,56.951 95.5024,54.331 C95.6934,51.709 95.8164,49.082 95.8184,46.453 C96.0124,41.173 94.8534,36.003 94.1204,30.8 L92.9434,22.997 C92.5124,20.4 90.7764,2.594 90.3164,-1.42108547e-14 L91.7584,-1.42108547e-14 Z" id="Fill-32" fill="#000"/><path d="M111.1227,195.2821 C111.1097,194.5811 111.0717,194.0671 110.9927,193.9681 C110.6857,193.5841 109.4237,193.4431 109.4237,193.4431 C109.4237,193.4431 58.0417,190.2711 56.5187,190.2951 C54.9957,190.3181 54.8497,190.3911 54.8497,190.3911 L54.1077,192.6031 C54.8377,193.0021 57.7207,194.3771 63.3147,194.7231 C69.8777,195.1291 76.8467,194.5201 80.3647,194.9941 C83.8827,195.4681 89.1597,197.8361 94.9777,197.7671 C100.0747,197.7091 108.9907,195.7631 111.1227,195.2821" id="Fill-34" fill="#000"/><path d="M57.4836,152.3261 C57.4836,152.3261 59.7776,167.2501 59.2676,172.0941 C58.7576,176.9371 56.4006,181.3981 56.0176,184.2651 C55.6356,187.1341 55.6986,190.3841 55.6986,190.3841 C55.6986,190.3841 58.3756,192.1041 64.5576,192.4871 C70.7396,192.8701 77.3036,192.2961 80.6176,192.7421 C83.9316,193.1881 88.9026,195.4191 94.3836,195.3551 C99.8636,195.2911 109.4236,193.4431 109.4236,193.4431 C109.4236,193.4431 110.0606,189.8741 106.7466,187.9631 C103.4326,186.0511 98.8446,186.8361 95.0846,184.9141 C91.3246,182.9911 89.7316,180.7611 86.3536,178.2121 C82.9756,175.6621 79.7916,174.6421 79.6306,172.7951 C79.4706,170.9461 79.4706,163.1071 80.0446,160.3671 C80.6176,157.6271 81.4596,154.1191 80.9976,152.3261 C80.9976,152.3261 79.1066,152.0901 76.7966,152.1171 C76.7966,152.1171 76.2266,151.3021 74.8676,151.2471 C73.5096,151.1931 71.5046,153.5281 66.2836,152.8781 C61.8436,152.3241 59.7676,151.5851 57.4836,152.3261" id="Fill-36" fill="#474747"/><path d="M79.2116,173.9901 C79.1316,173.8671 77.2396,170.9481 76.6876,168.8081 C76.1356,166.6701 76.1276,161.4551 76.2976,158.4341 C76.4366,155.9661 76.3346,153.0431 76.3046,152.3121 C76.1306,152.1381 75.6716,151.7801 74.8476,151.7471 C74.5186,151.7271 74.0706,151.9431 73.4856,152.2091 C72.0616,152.8551 69.9106,153.8341 66.2216,153.3741 C65.0146,153.2231 63.9816,153.0591 63.0706,152.9151 C60.6506,152.5301 59.1906,152.2981 57.6376,152.8021 L57.3296,151.8501 C59.1086,151.2731 60.7486,151.5341 63.2276,151.9271 C64.1286,152.0701 65.1506,152.2321 66.3456,152.3821 C69.7516,152.8051 71.7506,151.8991 73.0726,151.2991 C73.7776,150.9771 74.3436,150.7321 74.8876,150.7471 C76.4756,150.8111 77.1776,151.7891 77.2066,151.8301 L77.2896,151.9491 L77.2966,152.0941 C77.2976,152.1291 77.4586,155.6071 77.2956,158.4911 C77.1346,161.3611 77.1366,166.5471 77.6556,168.5581 C78.1676,170.5411 80.0306,173.4161 80.0496,173.4451 L79.2116,173.9901 Z" id="Fill-38" fill="#000"/><path d="M76.7912,151.6171 C78.2202,151.5441 79.6332,151.5931 81.0682,151.7561 L81.5312,151.8071 L81.5702,152.2721 C81.6612,153.3631 81.6062,154.3991 81.4902,155.4541 C81.3792,156.4961 81.1622,157.5581 80.9012,158.5301 L80.2192,161.5191 C80.0072,162.5201 79.7982,163.5221 79.6312,164.5431 C79.4612,162.4721 79.6952,160.3931 80.0012,158.3531 C80.1562,157.3141 80.3522,156.3601 80.4112,155.3531 C80.4842,154.3621 80.4812,153.3381 80.4252,152.3811 L80.9262,152.8961 C79.5732,152.7481 78.1792,152.6651 76.8032,152.6171 L76.7912,151.6171 Z" id="Fill-40" fill="#000"/><path d="M52.4504,196.3837 C55.2624,198.2377 59.4264,199.8597 59.4264,199.8597 C59.4264,199.8597 58.9734,198.1627 56.9934,196.4657 C55.0134,194.7687 52.6384,194.0327 49.3574,189.3387 C46.0764,184.6437 46.5144,184.3617 44.6264,182.0987 C44.6264,182.0987 47.4654,187.9767 48.3604,190.2947 C49.2554,192.6127 49.6384,194.5297 52.4504,196.3837" id="Fill-42" fill="#000"/><path d="M21.1379,187.2167 C21.3549,188.1187 21.4669,189.0207 21.5389,189.9227 L21.3419,189.5777 C21.9469,189.8997 22.4719,190.2717 22.9669,190.7097 C23.4669,191.1377 23.9039,191.6387 24.2949,192.1697 C24.6849,192.7037 24.9899,193.3027 25.2119,193.9237 C25.4389,194.5437 25.5269,195.2117 25.5089,195.8557 C25.2219,195.2677 24.9679,194.7117 24.6279,194.2007 C24.2959,193.6907 23.9519,193.1977 23.5529,192.7457 C22.7819,191.8327 21.8759,190.9887 20.9339,190.2687 L20.7219,190.1067 L20.7369,189.9227 C20.8089,189.0207 20.9209,188.1187 21.1379,187.2167" id="Fill-44" fill="#000"/><path d="M43.9299,175.8105 C39.8909,172.4555 30.8539,170.8445 30.7629,170.8285 L30.9349,169.8435 C31.3169,169.9105 40.3279,171.5175 44.5689,175.0405 L43.9299,175.8105 Z" id="Fill-46" fill="#000"/><path d="M31.113,176.494 L30.586,175.644 C30.902,175.448 38.35,170.866 44.452,170.866 C44.495,170.866 44.538,170.867 44.581,170.867 L44.57,171.867 C38.78,171.807 31.189,176.446 31.113,176.494" id="Fill-48" fill="#000"/><path d="M33.4718,188.5194 L32.7368,187.8414 C33.0218,187.5324 39.7768,180.2494 44.1178,179.0664 L44.3808,180.0314 C40.3148,181.1394 33.5398,188.4464 33.4718,188.5194" id="Fill-50" fill="#000"/><path d="M45.5744,184.1083 C38.0764,180.6293 31.1194,183.5853 31.0494,183.6143 L30.6484,182.6983 C30.9484,182.5673 38.0764,179.5253 45.9954,183.2023 L45.5744,184.1083 Z" id="Fill-52" fill="#000"/><path d="M36.0905,192.369 L35.6575,191.468 C35.9505,191.327 42.9255,188.034 49.8495,189.81 L49.6015,190.779 C43.0335,189.095 36.1595,192.335 36.0905,192.369" id="Fill-54" fill="#000"/><path d="M38.1252,195.8261 L37.3002,195.2621 C37.4242,195.0801 40.4252,190.8051 47.6262,189.3021 L47.8302,190.2801 C41.0192,191.7031 38.1532,195.7851 38.1252,195.8261" id="Fill-56" fill="#000"/><path d="M58.2873,183.8642 C59.2253,183.6792 60.2233,183.9582 61.0773,184.4122 C61.9443,184.8722 62.6583,185.5672 63.2473,186.3262 C63.8433,187.0912 64.2673,187.9532 64.6103,188.8332 C64.7573,189.2822 64.8943,189.7332 65.0043,190.1882 C65.0843,190.6532 65.1653,191.1152 65.2013,191.5832 C64.9523,191.1762 64.7483,190.7642 64.5433,190.3562 C64.3283,189.9522 64.0993,189.5592 63.9013,189.1572 C63.4353,188.3892 63.0063,187.6122 62.4543,186.9342 C61.9343,186.2352 61.3403,185.5972 60.6553,185.0652 C59.9623,184.5492 59.1953,184.0982 58.2873,183.8642" id="Fill-58" fill="#000"/><path d="M80.1579,162.4159 C76.3069,160.9559 72.3249,161.4679 72.2839,161.4729 L72.1499,160.4819 C72.3219,160.4579 76.4149,159.9269 80.5119,161.4799 L80.1579,162.4159 Z" id="Fill-60" fill="#000"/><path d="M73.614,167.6308 L73.039,166.8138 C73.129,166.7498 75.291,165.2468 79.655,165.4738 L79.606,166.4718 C75.614,166.2828 73.634,167.6168 73.614,167.6308" id="Fill-62" fill="#000"/><path d="M75.3903,174.0946 L74.7333,173.3406 C74.8353,173.2516 77.2653,171.1616 79.9883,171.1616 L79.9883,172.1616 C77.6353,172.1616 75.4123,174.0746 75.3903,174.0946" id="Fill-64" fill="#000"/><path d="M77.1423,178.1298 L76.4523,177.4048 C76.5703,177.2928 79.3633,174.6488 81.5303,174.1918 L81.7363,175.1708 C79.8453,175.5678 77.1693,178.1038 77.1423,178.1298" id="Fill-66" fill="#000"/><path d="M83.0617,181.8603 L82.1057,181.5693 C82.2357,181.1403 83.4087,177.3513 84.3127,176.3383 L85.0597,177.0043 C84.4157,177.7243 83.3987,180.7543 83.0617,181.8603" id="Fill-68" fill="#000"/><path d="M96.7619,188.9481 C97.6389,188.8991 98.4979,189.0461 99.3639,189.1041 C100.2279,189.1741 101.0939,189.2241 101.9539,189.2361 C102.8149,189.2661 103.6749,189.2511 104.5109,189.1821 C104.9249,189.1421 105.3389,189.0761 105.6999,188.9491 C106.0659,188.8021 106.3689,188.7821 106.6219,188.3391 C106.7579,188.5491 106.7379,188.8761 106.5759,189.1121 C106.4219,189.3461 106.1979,189.5011 105.9789,189.6101 C105.5289,189.8181 105.0749,189.9181 104.6249,190.0011 C103.7239,190.1691 102.8269,190.1831 101.9379,190.1861 C101.0489,190.1691 100.1649,190.1121 99.2849,190.0371 C98.4059,189.9481 97.5229,189.9071 96.6649,189.6201 C96.4849,189.5591 96.3869,189.3641 96.4479,189.1831 C96.4939,189.0461 96.6179,188.9571 96.7539,188.9491 L96.7619,188.9481 Z" id="Fill-70" fill="#000"/><path d="M82.5842,53.0829 C80.8532,60.5259 78.7382,67.8649 76.3782,75.1289 C75.2272,78.7649 73.8832,82.3719 72.4802,85.9189 C71.0882,89.4779 69.6332,93.0049 68.1782,96.5339 C65.2722,103.5919 62.1932,110.5759 59.0392,117.5259 C57.4752,121.0069 55.8542,124.4639 54.1782,127.8929 C52.4642,131.2979 50.8482,134.7769 48.7252,137.9539 C49.2152,137.1349 49.6962,136.3159 50.1042,135.4529 C50.5412,134.6059 50.9502,133.7459 51.3552,132.8839 C52.1842,131.1689 52.9452,129.4199 53.7292,127.6839 L58.2702,117.1879 C61.2532,110.1719 64.1412,103.1149 67.0332,96.0629 C69.8862,88.9909 72.7202,81.9269 75.1002,74.7039 C77.5482,67.4889 79.9642,60.2609 82.5842,53.0829" id="Fill-72" fill="#000"/><path d="M88.9016,53.0829 C88.4496,57.5209 88.2056,61.9329 88.1586,66.3429 C88.1366,68.5469 88.1836,70.7479 88.2626,72.9459 L88.6226,79.5809 C88.8716,84.0169 89.0696,88.4589 89.1846,92.9079 C89.2696,97.3549 89.3206,101.8259 88.9016,106.2679 C88.7216,101.8189 88.2746,97.4049 87.9146,92.9779 C87.5456,88.5519 87.1746,84.1239 86.8786,79.6869 C86.5656,75.2739 86.2696,70.7599 86.6016,66.2839 C86.9246,61.8169 87.5556,57.3529 88.9016,53.0829" id="Fill-74" fill="#000"/><path d="M19.3244,102.8407 C18.1324,107.9637 16.9994,113.0917 16.0314,118.2287 C15.5774,120.7997 15.1324,123.3767 14.9434,125.9467 C14.8424,127.2247 14.7874,128.5167 14.9304,129.7217 C15.0014,130.3127 15.1444,130.9067 15.3764,131.2727 C15.6294,131.6277 15.7474,131.6517 16.1914,131.5557 C16.6144,131.4117 17.1234,131.1147 17.5734,130.7037 C18.0364,130.3197 18.4754,129.8647 18.9004,129.3977 C19.7484,128.4537 20.5294,127.4237 21.3024,126.3857 C22.8284,124.2877 24.2284,122.0807 25.6134,119.8617 C28.3454,115.3997 30.9704,110.8517 33.5494,106.2677 C31.5054,111.1157 29.2264,115.8677 26.6564,120.4757 C25.3814,122.7847 24.0074,125.0437 22.5044,127.2387 C21.7484,128.3347 20.9414,129.4017 20.0434,130.4217 C19.5904,130.9297 19.1204,131.4277 18.5774,131.8887 C18.0564,132.3547 17.4364,132.7917 16.6224,133.0667 C16.3924,133.1087 16.1964,133.1947 15.9364,133.1787 C15.6784,133.1527 15.4204,133.1707 15.1684,133.0617 C14.6534,132.8757 14.2724,132.4787 14.0474,132.1057 C13.5964,131.3417 13.4834,130.6107 13.3924,129.9057 C13.2414,128.4977 13.3214,127.1517 13.4374,125.8157 C13.7244,123.1527 14.2094,120.5497 14.8054,117.9757 C15.9814,112.8277 17.5294,107.7877 19.3244,102.8407" id="Fill-76" fill="#000"/></g></g></g><g id="Body" transform="translate(74.000000, 0.000000) scale(1 1)"><g id="Body/Coffee" stroke="none" stroke-width="1" fill="none" fill-rule="evenodd"><g id="Group-92" transform="translate(36.000000, 52.000000)"><g id="Group-3" transform="translate(145.000000, 75.305000)" fill="#000"><path d="M1.3916,0.2904 C1.3916,0.2904 3.0856,2.1334 4.5186,2.8504 C5.9536,3.5664 6.2276,4.6424 5.9746,5.2744 C5.7216,5.9074 2.5876,5.9494 0.9916,5.5074 L1.3916,0.2904 Z" id="Fill-1"/></g><path d="M146.082,81.3396 C146.082,81.3396 148.528,81.9726 148.633,84.5666 C148.739,87.1596 145.639,87.3076 145.639,87.3076 L146.082,81.3396 Z" id="Fill-4" fill="#000"/><path d="M126.6333,65.4411 L127.7143,58.5571 C133.8993,55.7331 143.0033,56.4001 148.6363,59.7231 L149.3403,68.9131 L126.6333,65.4411 Z" id="Fill-6" fill="#474747"/><path d="M109.3047,94.2468 C109.3047,94.2468 113.2217,93.6928 116.1087,93.8508 C118.9947,94.0098 119.5877,94.3258 123.1457,93.6538 C126.7037,92.9808 130.4197,89.6208 131.9617,88.9098 L131.9617,77.6818 L109.3047,85.7468 L109.3047,94.2468 Z" id="Fill-8" fill="#7b3d16"/><path d="M127.0171,64.487 L127.0171,95.858 C131.2171,98.809 139.8741,99.972 145.2741,97.659 L148.5241,66.202 L127.0171,64.487 Z" id="Fill-10" fill="#CDCDCD"/><path d="M127.0171,95.8581 C128.3561,96.7051 129.8431,97.2651 131.3551,97.6701 C132.8711,98.0711 134.4251,98.3091 135.9811,98.4101 C139.0761,98.5971 142.2751,98.2771 144.9961,97.0231 L145.0011,97.0221 L144.5851,97.5871 L147.8351,66.1301 L149.2131,66.2731 L145.9621,97.7301 L145.9191,98.1541 L145.5461,98.2951 L145.5421,98.2961 C143.9751,98.8951 142.3471,99.1791 140.7311,99.2891 C139.1131,99.3981 137.4991,99.3141 135.9121,99.0981 C134.3251,98.8791 132.7611,98.5201 131.2531,98.0011 C129.7511,97.4791 128.2901,96.8001 127.0171,95.8581" id="Fill-12" fill="#000"/><path d="M109.3047,80.823 C109.3047,80.823 112.4237,81.258 114.1887,80.636 C115.9537,80.013 122.3147,74.347 123.8177,73.827 C125.3207,73.306 129.7547,72.961 130.9047,73.038 C132.0537,73.114 133.8167,73.689 136.6907,73.574 C139.5647,73.459 140.7147,72.961 141.0597,73.229 C141.4047,73.497 141.7107,76.717 139.0287,77.675 C136.3457,78.633 132.0157,78.211 131.4407,78.402 C131.4407,78.402 131.2487,79.169 130.2527,80.511 C129.2567,81.851 125.8457,85.914 123.9677,86.22 C122.0907,86.527 120.2127,86.488 120.2127,86.488 L109.3047,86.488 L109.3047,80.823 Z" id="Fill-14" fill="#7b3d16"/><path d="M141.0595,73.2292 C141.4615,73.6602 141.4925,74.2912 141.5065,74.8582 C141.4975,75.4412 141.3425,76.0352 141.0405,76.5692 C140.7345,77.0992 140.2795,77.5602 139.7395,77.8752 C139.1835,78.1812 138.6385,78.3492 138.0815,78.5042 C136.9705,78.7912 135.8455,78.8982 134.7355,78.9682 C134.1805,79.0062 133.6255,79.0192 133.0785,79.0242 L132.2675,79.0372 L131.8805,79.0472 C131.7665,79.0502 131.6355,79.0722 131.6595,79.0602 L131.6595,79.0592 L132.1125,78.5712 C131.8845,79.3762 131.5585,79.8752 131.2015,80.4522 C130.8445,81.0072 130.4425,81.5012 130.0395,81.9832 C129.2305,82.9482 128.3785,83.8752 127.4315,84.7262 C126.9595,85.1542 126.4535,85.5522 125.9135,85.9252 C125.3715,86.2842 124.7705,86.6632 123.9835,86.7502 C122.7125,86.8572 121.4465,86.7832 120.2125,86.4882 L123.8175,85.7102 C124.7195,85.4492 125.6575,84.5432 126.4815,83.7282 C127.3155,82.8722 128.1215,81.9652 128.8895,81.0332 C129.2695,80.5622 129.6385,80.0892 129.9745,79.6252 C130.2945,79.1742 130.6185,78.6052 130.7685,78.2342 L130.9375,77.8192 L131.2225,77.7462 L131.2265,77.7442 C131.5165,77.6682 131.6585,77.6752 131.8165,77.6622 L132.2495,77.6532 L133.0755,77.6582 L134.6915,77.6652 C135.7635,77.6662 136.8225,77.5892 137.8515,77.4362 C138.3575,77.3452 138.8725,77.2242 139.2935,77.0402 C139.7195,76.8392 140.0865,76.5322 140.3635,76.1402 C140.8915,75.3632 141.2635,74.2812 141.0595,73.2292" id="Fill-16" fill="#000"/><path d="M62.5893,25.281 C62.5893,25.281 67.5133,30.523 70.9793,33.061 C74.4443,35.6 77.6013,37.602 78.9873,41.607 C80.3743,45.611 81.0673,53.312 81.5283,57.548 C81.9913,61.783 81.0143,67.219 81.9483,69.676 C82.8823,72.134 83.3733,73.756 82.7833,74.885 C82.1943,76.016 81.1623,76.802 81.1623,76.802 L82.8333,78.621 C82.8333,78.621 82.4403,77.146 85.7333,77.589 C89.0253,78.031 91.8273,80.39 96.8893,79.898 C101.9513,79.407 104.6053,77.146 106.6693,76.95 C108.7333,76.753 114.1893,80.635 114.1893,80.635 C114.1893,80.635 112.4043,81.69 112.3603,87.031 C112.3173,92.371 113.0173,94.647 113.0173,94.647 C113.0173,94.647 112.4483,96.093 108.2023,97.844 C103.9563,99.594 103.1243,101.17 101.3733,103.578 C99.6223,105.985 99.0973,108.524 95.1573,110.582 C91.2173,112.638 80.7123,111.633 80.7123,111.633 L62.8133,112.544 L62.5893,25.281 Z" id="Fill-18" fill="#ffa200"/><path d="M80.7192,111.5525 C82.3562,111.4865 83.9802,111.4475 85.5972,111.4025 C87.2142,111.3625 88.8282,111.3165 90.4172,111.1345 C91.9912,110.9505 93.6042,110.6675 94.9032,110.0015 C96.2792,109.2645 97.4832,108.3015 98.3772,107.0535 C99.2872,105.8335 99.9792,104.2995 100.9992,102.9435 C101.9172,101.6485 102.9262,100.1725 104.3602,99.1475 C105.7362,98.1035 107.3762,97.4465 108.8062,96.8225 C109.5252,96.4945 110.2222,96.1295 110.8652,95.7115 C111.1842,95.5015 111.4902,95.2795 111.7662,95.0405 C111.9012,94.9215 112.0312,94.7985 112.1422,94.6745 C112.2442,94.5755 112.3762,94.3665 112.3652,94.3905 L112.3482,94.8535 C112.0082,93.5455 111.8932,92.3655 111.7842,91.1225 C111.6902,89.8955 111.6522,88.6695 111.6522,87.4475 C111.6502,86.2185 111.7132,84.9565 111.9622,83.7045 C112.0952,83.0775 112.2622,82.4505 112.5252,81.8355 C112.6582,81.5275 112.8082,81.2225 113.0052,80.9265 C113.1032,80.7785 113.2072,80.6315 113.3342,80.4895 C113.4742,80.3365 111.0112,79.3695 109.5612,78.6245 C108.8392,78.2585 108.0872,77.9155 107.3802,77.7395 C107.2082,77.7015 107.0342,77.6675 106.8942,77.6655 C106.7762,77.6545 106.6142,77.6875 106.4392,77.7135 C106.0932,77.7905 105.7312,77.9085 105.3572,78.0555 C103.8612,78.6545 102.2652,79.4225 100.5872,79.8855 C98.9032,80.3585 97.1812,80.6455 95.4032,80.6235 C93.6282,80.6205 91.8792,80.1755 90.2712,79.5915 C88.6612,79.0175 87.1322,78.3065 85.5912,78.1275 C84.1842,77.9485 82.9392,79.2145 82.0362,80.5245 C81.5672,81.1925 81.1482,81.9095 80.7182,82.6375 C80.4952,82.9965 80.3032,83.3805 80.0072,83.7145 C79.8662,83.8845 79.6942,84.0445 79.4972,84.1795 C79.3072,84.3065 79.0322,84.4375 78.7842,84.3565 L78.7822,84.3355 C79.5252,82.9485 80.3042,81.4455 81.2402,79.9825 C81.7202,79.2605 82.2652,78.5505 82.9852,77.9615 C83.6842,77.3725 84.6772,76.9405 85.6842,77.0375 C87.5162,77.2095 89.1012,77.9275 90.6702,78.4315 C92.2372,78.9525 93.8142,79.2935 95.4172,79.2895 C97.0112,79.2945 98.6452,79.0085 100.1952,78.5515 C101.7672,78.0985 103.2122,77.3795 104.8322,76.7065 C105.2402,76.5425 105.6832,76.4015 106.1592,76.2985 C106.4002,76.2615 106.6542,76.2105 106.9582,76.2285 C107.2402,76.2395 107.4812,76.2925 107.7192,76.3475 C108.6472,76.5875 109.4322,76.9675 110.2092,77.3635 C111.7492,78.1695 113.1772,79.0825 114.5902,80.0715 L114.5412,81.2325 C114.5682,81.2155 114.4372,81.3235 114.3812,81.4005 C114.3082,81.4835 114.2372,81.5845 114.1692,81.6875 C114.0322,81.8965 113.9162,82.1355 113.8112,82.3825 C113.6032,82.8795 113.4592,83.4255 113.3452,83.9805 C113.1352,85.1025 113.0732,86.2635 113.0702,87.4485 C113.0672,88.6415 113.1012,89.8315 113.1892,91.0135 C113.2822,92.1755 113.4202,93.4085 113.6862,94.4415 L113.7582,94.7195 L113.6682,94.9045 C113.4802,95.2945 113.3522,95.4075 113.1822,95.6095 C113.0212,95.7885 112.8542,95.9455 112.6842,96.0955 C112.3422,96.3885 111.9872,96.6435 111.6252,96.8805 C110.9002,97.3495 110.1482,97.7385 109.3852,98.0835 C108.6082,98.4385 107.8672,98.7175 107.1672,99.0655 C106.4632,99.4095 105.7892,99.7955 105.1772,100.2465 C103.9332,101.1265 103.0552,102.3885 102.0932,103.7335 C101.1382,104.9775 100.4812,106.4485 99.4412,107.8455 C98.4152,109.2415 96.9942,110.3425 95.4902,111.1165 C93.8612,111.9195 92.1762,112.0995 90.5282,112.2615 C87.2232,112.5245 83.9262,112.3955 80.7042,111.7115 L80.7192,111.5525 Z" id="Fill-20" fill="#000"/><path d="M71.0258,32.9968 C73.0918,33.8788 74.8878,35.1828 76.5648,36.7348 C78.2458,38.2708 79.4778,40.4378 80.0098,42.6398 C81.1418,47.0008 81.5568,51.3968 82.0538,55.7718 L82.2318,57.4098 C82.2908,57.9728 82.3338,58.5428 82.3558,59.1048 C82.3978,60.2308 82.3828,61.3468 82.3398,62.4508 C82.2818,64.6388 82.0708,66.8868 82.4118,68.8628 C82.4568,69.1188 82.5228,69.3008 82.6068,69.5658 L82.8848,70.3528 C83.0658,70.8828 83.2408,71.4188 83.3828,71.9798 C83.5198,72.5428 83.6428,73.1268 83.6288,73.7708 C83.6488,74.3968 83.3688,75.1658 82.9668,75.6198 C82.2378,76.5388 81.4488,77.2738 80.6798,78.0598 C79.9308,78.8508 79.0988,79.5698 78.5808,80.5478 C78.7808,79.4278 79.4748,78.4708 80.0998,77.5688 C80.7408,76.6668 81.4748,75.8098 82.0688,74.9708 C82.3538,74.5618 82.4468,74.2358 82.4458,73.7578 C82.4438,73.3008 82.3308,72.7988 82.1918,72.3008 C82.0478,71.7998 81.8668,71.2948 81.6758,70.7888 L81.3808,70.0288 C81.2898,69.7758 81.1638,69.4378 81.1078,69.1538 C80.8378,67.9698 80.8278,66.8358 80.8298,65.7188 C80.8368,64.6008 80.8798,63.5008 80.9068,62.4068 C80.9298,61.3138 80.9588,60.2288 80.9218,59.1578 C80.9018,58.6208 80.8648,58.0958 80.8128,57.5638 L80.6408,55.9218 C80.1698,51.5658 79.7608,47.1658 78.6968,42.9988 C78.1788,40.9268 77.2028,39.1098 75.7148,37.5778 C74.2768,36.0128 72.4008,34.8478 70.9308,33.1268 L71.0258,32.9968 Z" id="Fill-22" fill="#000"/><path d="M148.5009,66.4294 C148.1139,66.3194 147.7279,66.2084 147.3379,66.1074 L132.8969,64.9554 C130.8949,65.2064 128.9249,65.6474 127.0169,66.2564 L127.0169,67.8374 C130.5099,66.9734 134.1179,66.7314 137.6539,67.0994 C141.2599,67.4644 144.7779,68.4314 148.1569,69.7544 L148.5009,66.4294 Z" id="Fill-24" fill="#000"/><path d="M148.7856,61.6745 C140.6866,60.0245 133.4096,60.5145 126.9736,63.2735 L126.6326,65.4415 L129.8576,65.9345 C135.3246,64.1335 141.6146,63.7425 149.0666,65.3425 L148.7856,61.6745 Z" id="Fill-26" fill="#000"/><path d="M125.2934,67.5945 C132.3294,65.1515 140.3584,65.0275 150.0014,68.6645 L150.0014,65.2335 C150.0014,65.0405 149.8774,64.8665 149.6964,64.8025 C141.0024,61.7265 132.9854,61.3685 125.6454,63.8805 C125.4354,63.9515 125.2934,64.1535 125.2934,64.3745 L125.2934,67.5945 Z" id="Fill-28" fill="#474747"/><path d="M105.9311,91.9861 C105.4721,93.8811 104.8641,95.7151 104.1671,97.5131 C103.4611,99.3061 102.6941,101.0751 101.8631,102.8181 C101.0261,104.5591 100.1291,106.2691 99.0531,107.9231 C98.7751,108.3381 98.5031,108.7431 98.1191,109.1591 C97.7381,109.5211 97.3751,109.8471 96.9441,110.1281 C96.1171,110.6791 95.1101,111.1401 94.1011,111.0151 C95.0201,110.6751 95.7081,110.0451 96.3721,109.4211 C96.6931,109.1011 97.0231,108.7571 97.2991,108.4201 C97.5421,108.1071 97.7831,107.6951 98.0041,107.2901 C98.8861,105.6351 99.6741,103.8841 100.5131,102.1701 C102.1931,98.7301 103.8051,95.2521 105.9311,91.9861" id="Fill-30" fill="#000"/><path d="M127.9008,95.3923 C130.4418,94.5973 133.1358,94.3613 135.7998,94.5193 C138.4508,94.7093 141.1528,95.3063 143.4428,96.6913 C140.8668,96.0493 138.3228,95.6813 135.7338,95.5163 C133.1478,95.3323 130.5568,95.3763 127.9008,95.3923" id="Fill-32" fill="#000"/><path d="M73.9897,38.0993 C73.9897,38.0993 76.8517,48.1523 77.2007,59.1823 C77.5507,70.2133 76.5027,80.8253 77.2007,89.6913 C77.8997,98.5573 79.8467,107.1153 80.5107,111.8783 C81.5067,119.0283 85.5247,129.4973 84.9657,131.9923 C84.2077,135.3693 82.7607,136.4273 82.7607,136.4273 C82.7607,136.4273 84.2767,140.1283 82.2277,141.3103 C80.1797,142.4933 77.0277,139.7633 72.1147,138.4143 C67.2027,137.0663 58.7077,136.9123 54.1017,137.3223 C49.4967,137.7313 34.0427,139.7783 29.4377,139.8803 C24.8317,139.9833 19.8207,139.8803 19.8207,139.8803 C19.8207,139.8803 15.9367,78.7423 21.5597,56.3443 C27.1817,33.9473 33.2707,23.0983 33.2707,23.0983 L42.1707,18.5563 L62.5897,25.2813" id="Fill-34" fill="#ffa200"/><path d="M28.7426,137.4773 L33.2456,136.9473 C34.7446,136.7783 36.2456,136.5583 37.7096,136.2793 C39.1826,135.9963 40.6386,135.5643 42.1246,135.2113 C43.6006,134.8493 45.1216,134.4833 46.6556,134.5153 C45.1396,134.7053 43.7226,135.2633 42.2876,135.7513 C40.8586,136.2743 39.4126,136.7683 37.9216,137.1793 C36.4226,137.5983 34.9066,137.8193 33.3906,138.0583 C31.8696,138.2533 30.3526,138.4163 28.8146,138.4753 L28.7426,137.4773 Z" id="Fill-36" fill="#000"/><path d="M80.8383,142.4548 C79.5813,142.4548 78.2043,141.7758 76.6903,141.0288 C75.3173,140.3518 73.7613,139.5848 71.9313,139.0828 C66.9583,137.7178 58.3883,137.6378 54.1633,138.0118 C52.5473,138.1548 49.6093,138.4998 46.2063,138.8968 C40.0843,139.6138 32.4653,140.5058 29.4533,140.5728 C24.8853,140.6758 19.8563,140.5738 19.8063,140.5728 L19.1693,140.5598 L19.1293,139.9248 C19.0903,139.3118 15.3033,78.4208 20.8873,56.1758 C26.4673,33.9458 27.3753,36.0188 22.2313,56.5138 C17.0053,77.3288 20.0833,132.6198 20.4723,139.1988 C21.9673,139.2228 25.8393,139.2688 29.4213,139.1878 C32.3693,139.1228 39.9523,138.2348 46.0453,137.5218 C49.4583,137.1228 52.4053,136.7768 54.0403,136.6328 C58.4933,136.2348 67.1033,136.3198 72.2983,137.7468 C74.2553,138.2838 75.8743,139.0828 77.3033,139.7868 C79.5923,140.9158 80.8313,141.4688 81.8203,140.7508 C83.6093,139.4488 82.4833,136.3908 82.4713,136.3588 L83.7673,135.8708 C83.8303,136.0368 85.2683,139.9548 82.6353,141.8698 C82.0653,142.2858 81.4663,142.4548 80.8383,142.4548" id="Fill-38" fill="#000"/><g id="Group" transform="translate(5.789700, 88.682700)"><path d="M17.508,0.493 C17.508,0.493 18.316,5.371 18.383,10.684 C18.452,15.998 17.49,31.033 17.478,35.826 C17.465,40.619 17.519,44.408 18.383,46.415 C19.248,48.421 24.076,54.981 24.618,55.931 C25.16,56.879 24.55,60.945 24.618,63.046 C24.686,65.146 24.821,65.891 23.534,67.653 C23.534,67.653 23.941,69.889 24.144,74.226 C24.347,78.562 25.092,81.138 23.602,81.409 C22.111,81.68 20.485,75.446 20.485,75.446 C20.485,75.446 16.935,76.123 15.559,75.649 C14.183,75.175 13.438,72.329 11.676,69.415 C9.914,66.501 9.304,66.569 8.695,64.536 C8.085,62.504 8.017,53.694 7.61,48.748 C7.204,43.802 4.779,29.192 4.17,24.855 C3.56,20.518 1.444,13.491 0.969,8.884 C0.495,4.276 -1.77635684e-15,1.42108547e-14 -1.77635684e-15,1.42108547e-14 L17.508,0.493 Z" id="Fill-46" fill="#7b3d16"/><path d="M11.635,65.202 C12.236,65.473 12.799,65.721 13.358,65.925 C13.935,66.126 14.436,66.254 15.051,66.317 C15.66,66.412 16.281,66.497 16.904,66.656 C17.506,66.821 18.213,66.99 18.664,67.52 C18.037,67.374 17.431,67.457 16.804,67.431 C16.179,67.431 15.548,67.388 14.911,67.306 C14.607,67.254 14.246,67.195 13.921,67.077 C13.599,66.949 13.287,66.809 13.008,66.62 C12.448,66.251 11.961,65.783 11.635,65.202" id="Fill-100" fill="#000"/><path d="M22.0134,55.6747 C22.0024,56.7367 22.0544,57.8277 22.1764,58.8897 C22.2864,59.9427 22.5654,61.0207 22.7634,62.0947 L24.0184,68.5477 C24.4064,70.7527 24.4804,72.9487 24.5844,75.1457 L24.6814,78.4377 C24.6734,79.0017 24.7464,79.5007 24.6724,80.1137 C24.5794,80.7187 24.1284,81.2247 23.6014,81.4087 C24.0064,81.0247 24.2644,80.5537 24.3064,80.0637 C24.3124,79.5827 24.2614,78.9857 24.2424,78.4537 L24.0494,75.1737 C23.8854,72.9957 23.7424,70.7957 23.3054,68.6887 L21.8624,62.2627 C21.6394,61.1847 21.3594,60.1357 21.2214,59.0067 C21.0814,57.8907 21.0154,56.7877 21.0134,55.6567 L22.0134,55.6747 Z" id="Fill-102" fill="#000"/></g><path d="M76.1333,48.2966 C77.0183,51.9406 77.4573,55.6816 77.6043,59.4336 C77.7323,63.1776 77.7123,66.9236 77.6433,70.6606 C77.5303,78.1336 77.1573,85.6066 78.0993,92.9756 C79.0043,100.3616 80.3063,107.7236 81.7863,115.0256 C82.1663,116.8526 82.5483,118.6616 83.0733,120.4316 L84.7093,125.7756 C84.9793,126.6766 85.2443,127.5856 85.4513,128.5336 C85.6693,129.4806 85.7803,130.5066 85.7253,131.5036 C85.6173,133.5136 84.9363,135.5756 83.1803,137.0206 L83.1773,137.0226 L83.0233,137.1336 L82.8163,137.1506 C81.1023,137.2946 79.5183,137.1066 77.9113,136.8276 C76.3203,136.5466 74.7483,136.0876 73.2563,135.5516 C71.7933,135.0166 70.2923,134.5886 68.7773,134.1856 C67.2603,133.7906 65.7233,133.4476 64.1573,133.1836 C65.7473,133.0756 67.3463,133.1776 68.9323,133.3626 C70.5233,133.5366 72.0903,133.8786 73.6503,134.2586 C75.1713,134.6676 76.6613,135.0096 78.1843,135.2636 C79.6863,135.5166 81.2613,135.6846 82.7053,135.7026 L82.3443,135.8316 L82.3453,135.8316 C82.8843,135.4036 83.4203,134.6506 83.7343,133.9016 C84.0703,133.1356 84.2333,132.2896 84.2773,131.4326 C84.3933,129.7096 83.8453,127.9796 83.3313,126.1876 C82.7933,124.4116 82.2263,122.6206 81.7583,120.7926 C81.2823,118.9626 80.8893,117.1156 80.5223,115.2826 C79.0823,107.9316 77.8273,100.5576 76.9633,93.1056 C76.0603,85.6126 76.5433,78.0886 76.7283,70.6406 C76.8373,66.9086 76.8983,63.1806 76.8113,59.4566 C76.7473,55.7376 76.4043,52.0326 76.1333,48.2966" id="Fill-40" fill="#000"/><path d="M65.6259,26.0202 C65.2799,25.2292 63.9689,23.8372 61.6139,22.2452 C61.5769,22.6332 61.5389,23.0012 61.5009,23.3362 C60.9099,28.5592 60.0779,31.7912 60.0779,31.7912 C58.6789,33.9602 54.7559,33.2012 50.0829,30.6532 C44.9899,27.8762 40.8009,22.3472 40.8009,22.3472 C41.8009,20.3292 42.4439,18.0782 42.8499,15.8162 C41.5079,15.7762 40.5759,15.9032 40.2829,16.1692 C39.3559,17.0112 39.6509,17.2642 38.8519,19.4962 C38.0519,21.7262 36.4939,22.3162 36.4939,22.3162 C36.4939,22.3162 36.4939,26.4422 49.5439,33.0612 C58.7399,37.7262 65.0789,34.1452 65.0789,34.1452 C65.0789,34.1452 66.2159,27.3682 65.6259,26.0202" id="Fill-42" fill="#000"/><g id="Group-46" transform="translate(40.000000, 0.305000)" fill="#7b3d16"><path d="M21.5009,23.0316 C22.1929,16.9156 22.8129,1.2676 22.8129,1.2676 L2.9259,0.6946 C2.9259,0.6946 5.0509,13.4616 0.8009,22.0426 C0.8009,22.0426 4.9899,27.5716 10.0829,30.3476 C14.7559,32.8956 18.6789,33.6556 20.0779,31.4856 C20.0779,31.4856 20.9099,28.2546 21.5009,23.0316" id="Fill-44"/></g><path d="M40.4507,17.2302 C40.5287,17.3852 41.0637,18.2092 41.9877,19.3482 C42.3507,18.1952 42.6367,17.0072 42.8497,15.8162 C41.9647,15.7902 41.2627,15.8362 40.8007,15.9482 C40.7997,15.9502 40.2007,16.7312 40.4507,17.2302" id="Fill-47" fill="#000"/><path d="M65.6259,26.0202 C65.2799,25.2292 63.9689,23.8372 61.6139,22.2452 C61.5769,22.6332 61.5389,23.0012 61.5009,23.3362 C61.2409,25.6282 60.9359,27.5372 60.6739,28.9572 C63.3019,28.7082 64.8149,27.4892 65.6259,26.0202" id="Fill-49" fill="#000"/><path d="M65.6259,26.0202 C64.8149,27.4892 63.3019,28.7082 60.6739,28.9572 C58.8149,29.1322 56.4029,28.8272 53.2669,27.7622 C48.0429,25.9882 44.0459,21.8852 41.9869,19.3482 C41.0639,18.2092 40.7369,17.6862 40.6429,17.5412 C40.0499,16.6312 40.7989,15.9502 40.7999,15.9482 C40.5619,16.0052 40.3829,16.0792 40.2829,16.1692 C39.3559,17.0112 39.6509,17.2642 38.8519,19.4962 C38.0519,21.7262 36.4939,22.3162 36.4939,22.3162 C36.4939,22.3162 36.4939,26.4422 49.5439,33.0612 C58.7399,37.7262 65.0789,34.1452 65.0789,34.1452 C65.0789,34.1452 66.2159,27.3682 65.6259,26.0202" id="Fill-51" fill="#ffa200"/><path d="M42.1709,18.5564 C42.1709,18.5564 32.8669,23.6794 26.0689,26.2144 C19.2729,28.7484 14.7159,32.3834 10.3119,37.7084 C5.9089,43.0344 5.1019,57.0894 2.9129,62.1584 C0.7239,67.2274 0.9549,73.7934 0.9549,80.8224 C0.9549,87.8494 0.9549,90.0374 1.6459,94.4154 C2.3369,98.7934 3.2589,106.3974 3.2589,115.1534 C3.2589,123.9094 1.1849,136.0044 6.7149,137.9634 C12.2449,139.9214 18.4659,133.0094 23.3049,132.6634 C28.1429,132.3184 32.8349,134.6854 35.6179,131.2524 C38.4009,127.8214 33.4839,119.1944 33.4839,119.1944 C33.4839,119.1944 35.3509,117.6124 35.2489,113.0054 C35.1469,108.3994 29.8229,101.3354 29.1069,93.9644 C28.3899,86.5934 25.8309,79.7354 28.2879,71.4424 C30.7449,63.1504 31.4609,60.3864 32.8949,58.6464 C34.3279,56.9064 36.7849,54.8584 36.7849,54.8584 C36.7849,54.8584 42.1079,47.0774 41.6979,35.7144 C41.2889,24.3514 42.1709,18.5564 42.1709,18.5564" id="Fill-61" fill="#ffa200"/><path d="M36.7846,54.8581 C35.9766,56.0791 35.0826,57.1881 34.2126,58.3021 L32.9186,59.9571 C32.4746,60.5251 32.2056,61.0031 31.9166,61.6481 C30.8486,64.1821 30.1316,66.9681 29.4436,69.7091 L28.9506,71.7981 C28.7776,72.4801 28.5786,73.1641 28.4676,73.8431 C28.1876,75.2001 28.0586,76.5851 28.0196,77.9731 C27.9336,80.7551 28.3096,83.5451 28.7636,86.3471 L29.4366,90.5851 C29.5476,91.2951 29.6376,92.0121 29.7256,92.7301 C29.8006,93.4611 29.8816,94.1701 29.9746,94.8361 C30.3706,97.5611 31.3516,100.2121 32.4446,102.8201 C33.5186,105.4461 34.8086,108.0091 35.5556,110.9001 C35.6436,111.2631 35.7006,111.6411 35.7716,112.0101 C35.7996,112.3921 35.8476,112.7891 35.8466,113.1601 C35.8486,113.9001 35.7956,114.6441 35.6896,115.3841 C35.4196,116.8611 35.0176,118.3371 33.8176,119.5671 L33.8076,119.5761 L33.9186,118.9471 C34.8566,120.5551 35.6276,122.2191 36.2436,123.9801 C36.8326,125.7351 37.3186,127.6071 37.0006,129.6301 C36.8406,130.6221 36.2656,131.6761 35.5116,132.3321 C34.7496,133.0371 33.7536,133.4891 32.7696,133.6571 C30.7876,133.9891 28.9396,133.6361 27.1596,133.4531 C26.2666,133.3551 25.3826,133.2611 24.5096,133.2551 C23.6146,133.2481 22.8046,133.2831 21.9936,133.5351 C20.3466,133.9741 18.7536,134.8651 17.1536,135.6981 C15.5586,136.5571 13.8996,137.3701 12.1436,137.9551 C10.3956,138.5161 8.4066,138.6801 6.7146,137.9631 C8.4976,138.4291 10.3006,138.0431 11.9376,137.3861 C13.5896,136.7121 15.1046,135.7401 16.6796,134.8431 C18.2546,133.9461 19.8156,132.9641 21.6606,132.3821 C22.1136,132.2181 22.6046,132.1431 23.0986,132.0751 C23.5826,132.0271 24.0496,132.0051 24.5196,132.0121 C25.4616,132.0081 26.3856,132.0951 27.2956,132.1841 C29.1056,132.3621 30.9036,132.6431 32.5166,132.3421 C34.0916,132.0721 35.4746,130.9231 35.7206,129.3881 C36.0126,127.8031 35.5876,126.0311 35.0926,124.3581 C34.5716,122.6731 33.8456,121.0171 33.0506,119.4421 L32.9056,119.1561 L33.1606,118.8121 L33.1616,118.8121 C33.5316,118.4251 33.8776,117.7881 34.0946,117.1801 C34.3206,116.5551 34.4626,115.8931 34.5536,115.2211 C34.6336,114.5461 34.6686,113.8621 34.6506,113.1731 C34.6436,112.8321 34.5926,112.5181 34.5646,112.1891 C34.4906,111.8591 34.4356,111.5311 34.3486,111.2021 C33.6176,108.5611 32.2536,106.0171 31.1396,103.3761 C30.0106,100.7351 28.9566,97.9911 28.5036,95.0561 C28.3936,94.3081 28.3076,93.6001 28.2306,92.9111 C28.1396,92.2121 28.0466,91.5141 27.9316,90.8141 L27.2266,86.5951 C26.7656,83.7671 26.4066,80.8611 26.5126,77.9271 C26.5636,76.4631 26.7126,74.9951 27.0176,73.5561 C27.1436,72.8261 27.3506,72.1371 27.5336,71.4361 L28.0396,69.3611 C28.7626,66.5751 29.4836,63.8071 30.6516,61.0801 C30.8086,60.7381 30.9706,60.3991 31.1806,60.0541 C31.3966,59.6891 31.6286,59.4051 31.8626,59.1231 C32.3266,58.5491 32.8306,58.0251 33.3516,57.5211 C34.4076,56.5271 35.5196,55.6021 36.7846,54.8581" id="Fill-63" fill="#000"/><path d="M10.1674,56.364 C10.9944,55.607 12.3474,55.46 13.4484,55.9 C14.5654,56.326 15.4594,57.141 16.1664,58.023 C17.5214,59.789 18.6804,61.617 19.8974,63.415 C21.1204,65.205 22.2844,67.028 23.5674,68.747 C24.2084,69.607 24.8694,70.443 25.5674,71.226 C26.2554,71.99 27.0794,72.74 27.8554,72.971 L27.7044,73.96 C27.0304,73.816 26.4764,73.518 26.0094,73.167 C25.7844,72.985 25.5524,72.807 25.3354,72.619 L24.7264,72.03 C23.9384,71.229 23.2274,70.379 22.5714,69.497 C21.2504,67.739 20.0144,65.938 18.8554,64.096 C17.6824,62.271 16.5444,60.406 15.3004,58.691 C14.6984,57.851 13.9854,57.108 13.1274,56.607 C12.2784,56.13 11.1964,55.938 10.1674,56.364" id="Fill-70" fill="#000"/><path d="M24.0727,126.5495 C24.4407,125.5215 25.1757,124.8125 25.8757,124.0845 C26.5777,123.3555 27.3127,122.6535 28.0827,121.9875 C28.8547,121.3245 29.6607,120.6955 30.5197,120.1245 C31.3847,119.5645 32.2967,119.0455 33.3217,118.7215 L33.6467,119.6665 C31.9107,120.3925 30.2887,121.5605 28.7567,122.7965 C27.9817,123.4095 27.2297,124.0605 26.4847,124.7195 C25.7397,125.3825 25.0587,126.0975 24.0727,126.5495" id="Fill-72" fill="#000"/><path d="M5.2314,99.0447 C6.3024,101.3467 7.2094,103.7167 8.0364,106.1147 C8.8744,108.5117 9.5724,110.9527 10.2064,113.4097 C10.8174,115.8727 11.3614,118.3537 11.7674,120.8577 C11.9694,122.1107 12.1554,123.3647 12.3254,124.6207 C12.4594,125.8837 12.6084,127.1417 12.6864,128.4077 L11.0134,121.0087 C10.4324,118.5527 9.8654,116.0957 9.2374,113.6547 C8.6324,111.2077 7.9634,108.7777 7.3044,106.3417 L5.2314,99.0447 Z" id="Fill-74" fill="#000"/><path d="M26.5122,126.5495 C26.8002,125.7475 27.3812,125.1305 28.0042,124.6165 C28.6312,124.0995 29.2942,123.6285 29.9872,123.1995 C30.6792,122.7675 31.4192,122.4175 32.1922,122.1155 C32.9702,121.8315 33.7932,121.5955 34.7412,121.6785 L34.6432,122.6735 C34.0012,122.6635 33.2632,122.8665 32.5592,123.1165 C31.8452,123.3635 31.1582,123.7095 30.4722,124.0565 C29.7872,124.4085 29.1222,124.8075 28.4902,125.2505 C27.8582,125.7005 27.2482,126.1425 26.5122,126.5495" id="Fill-76" fill="#000"/><path d="M37.4697,23.6286 C39.0397,25.5346 40.7637,27.2706 42.6617,28.7566 C44.5667,30.2326 46.6527,31.4526 48.8857,32.3326 C53.3467,34.1486 58.2277,34.6916 63.1507,34.8846 C58.2887,35.6546 53.1237,35.3376 48.4287,33.4586 C46.0947,32.5136 43.9117,31.1716 42.0537,29.4816 C40.1817,27.8086 38.6487,25.7966 37.4697,23.6286" id="Fill-78" fill="#000"/><path d="M7.4751,56.3396 C6.6311,57.7616 5.8761,59.2206 5.1001,60.6656 C4.3331,62.1146 3.5781,63.5686 2.8851,65.0356 C2.5571,65.7706 2.2141,66.5206 2.0091,67.2356 C1.8301,67.9766 1.7011,68.8006 1.5981,69.6016 L0.9661,74.4956 C0.7661,72.8476 0.6961,71.1896 0.7761,69.5256 C0.8341,68.6896 0.8761,67.8686 1.0751,67.0066 C1.2961,66.1316 1.6431,65.3766 2.0061,64.6186 C2.7341,63.1156 3.5741,61.6856 4.4771,60.2986 C5.3851,58.9156 6.3501,57.5596 7.4751,56.3396" id="Fill-80" fill="#000"/><path d="M65.0791,34.1452 C65.0161,32.4862 65.2311,30.8592 65.3731,29.2532 C65.4361,28.4522 65.5241,27.6462 65.5061,26.8592 C65.4971,26.6652 65.4841,26.4692 65.4491,26.2952 C65.4191,26.1352 65.3461,25.9822 65.2481,25.8042 C65.0631,25.4592 64.8551,25.1062 64.6651,24.7272 C65.0251,24.9552 65.3411,25.2302 65.6131,25.5622 C65.7401,25.7252 65.8811,25.9272 65.9451,26.1672 C66.0081,26.3902 66.0381,26.6032 66.0661,26.8162 C66.1551,27.6612 66.1451,28.4922 66.0671,29.3162 C65.8981,30.9662 65.5681,32.5652 65.0791,34.1452" id="Fill-88" fill="#000"/><path d="M65.8706,26.156 C65.4946,27.457 64.4046,28.556 63.1316,29.131 C61.8506,29.722 60.4496,29.82 59.1356,29.758 C56.4786,29.586 54.0206,28.852 51.6476,27.806 C49.2886,26.728 47.2156,25.17 45.3696,23.433 C43.5266,21.687 41.9446,19.687 40.6416,17.541 C41.4686,18.494 42.2296,19.476 43.1246,20.35 C44.0026,21.235 44.9306,22.063 45.8796,22.855 C47.7856,24.432 49.9016,25.738 52.1476,26.647 C53.2626,27.097 54.4486,27.443 55.6336,27.724 C56.8166,28.004 58.0146,28.198 59.1946,28.229 C61.5686,28.264 63.7776,27.735 65.3816,25.885 L65.8706,26.156 Z" id="Fill-90" fill="#000"/></g></g></g><g id="Head" transform="translate(112.000000, 0.000000) scale(1 1)"><g id="Head/Cap" stroke="none" stroke-width="1" fill="none" fill-rule="evenodd"><g id="Group-17" transform="translate(31.000000, 17.000000)"><path d="M2.0905,24.5154 C2.0175,23.8784 1.9805,23.2314 1.9805,22.5754 C1.9805,12.8834 10.1365,5.0274 20.1975,5.0274 C29.2175,5.0274 37.3115,11.5844 38.7635,19.8744 C38.7635,19.8744 42.8185,42.1244 31.1805,48.7754 C26.8865,51.2294 14.4715,41.1294 14.4715,41.1294" id="Fill-1" fill="#7b3d16"/><g id="Group-5" transform="translate(14.000000, 19.546600)" fill="#000"><path d="M24.7639,0.3282 C25.5479,4.4712 25.8419,8.7232 25.5489,12.9532 C25.2569,17.1602 24.3509,21.4742 21.9979,25.1252 C20.8289,26.9372 19.2369,28.4942 17.3509,29.5952 C16.2359,30.1682 15.0389,30.0282 13.9849,29.8102 C12.9169,29.5622 11.9119,29.1682 10.9399,28.7242 C8.9909,27.8412 7.2029,26.6822 5.4579,25.4902 C3.7169,24.2892 2.0549,22.9772 0.4719,21.5832 C3.9089,24.0132 7.4359,26.3632 11.2319,28.0752 C12.1809,28.4902 13.1559,28.8522 14.1459,29.0662 C15.1249,29.2642 16.1729,29.3182 16.9569,28.8872 C18.7199,27.8752 20.2419,26.4282 21.3709,24.7102 C22.5009,22.9902 23.3259,21.0632 23.8779,19.0582 C24.4439,17.0572 24.8219,14.9942 25.0169,12.9082 C25.4069,8.7382 25.2949,4.5082 24.7639,0.3282" id="Fill-3"/></g><g id="Group-8" transform="translate(0.000000, 1.546600)" fill="#030067"><path d="M1.7531,25.5371 C1.7531,25.5371 0.2421,23.7141 0.1121,22.4191 C-0.0169,21.1241 -0.1899,11.1951 0.5871,10.0721 C1.3641,8.9501 9.6961,1.1801 11.0341,0.7481 C12.3731,0.3161 21.7831,0.7481 21.7831,0.7481 L13.8401,16.5481 L10.6031,20.2171 L10.2641,25.5371 L1.7531,25.5371 Z" id="Fill-6"/></g><path d="M11.7336,36.6697 C11.2366,37.5207 10.0446,37.8397 9.1056,37.8697 C6.6006,37.9507 2.7886,34.7957 1.6246,30.5607 C0.4616,26.3257 2.2166,23.3327 4.7216,23.2517 C6.5716,23.1917 8.7726,24.6237 10.2646,27.0837" id="Fill-9" fill="#7b3d16"/><path d="M11.7336,36.6697 C11.4356,37.2377 10.8386,37.5997 10.2316,37.7897 C9.6206,37.9837 8.9606,38.0617 8.3086,37.9537 C7.0046,37.7457 5.8706,37.0227 4.8836,36.2057 C2.9116,34.5487 1.4866,32.1967 1.0336,29.6187 C0.7976,28.3387 0.7916,26.9787 1.2236,25.6887 C1.6546,24.4297 2.6946,23.2047 4.1296,22.9597 C5.5496,22.7067 6.8626,23.3417 7.8786,24.1117 C8.9136,24.9037 9.6966,25.9587 10.2646,27.0837 C9.5186,26.0637 8.6256,25.1707 7.6046,24.4987 C6.5966,23.8327 5.3666,23.4397 4.2746,23.6727 C3.1796,23.9197 2.3546,24.8567 1.9876,25.9577 C1.5986,27.0617 1.5716,28.2977 1.7746,29.4897 C1.9656,30.6917 2.3886,31.8507 2.9916,32.9137 C3.5916,33.9747 4.3256,34.9797 5.2366,35.8057 C6.1336,36.6357 7.1916,37.3377 8.3696,37.6367 C8.9526,37.7807 9.5826,37.7597 10.1836,37.6177 C10.7746,37.4727 11.3776,37.2027 11.7336,36.6697" id="Fill-11" fill="#000"/><path d="M10.2643,27.0837 C10.2643,27.0837 11.7273,27.7667 12.8873,29.2317 C14.0473,30.6967 14.9413,31.2467 15.4103,30.8197 C15.8793,30.3927 14.4073,25.8127 14.4713,24.7737 C14.5353,23.7357 15.8183,19.3397 15.7573,16.8967 C15.7573,16.8967 10.8613,19.9697 10.7313,20.8667 C10.6023,21.7637 10.2643,27.0837 10.2643,27.0837" id="Fill-13" fill="#474747"/><path d="M10.2643,27.0837 C10.2643,27.0837 10.7843,22.5277 11.2053,21.6867 C11.6263,20.8437 17.8973,14.7607 24.6823,14.0117 C31.4683,13.2627 36.3943,15.2457 37.1543,15.6897 C37.9133,16.1347 38.5293,18.7737 38.5293,18.7737 C38.5293,18.7737 44.8513,10.9227 45.9743,8.9577 C47.0973,6.9917 47.6123,5.0257 45.7403,3.8567 C43.8683,2.6877 39.2663,0.0037 35.8293,0.0037 C32.3913,0.0037 23.1833,-0.1943 20.7143,2.3167 C18.2433,4.8297 10.4823,18.7887 10.2643,19.8747 C10.0463,20.9607 10.2643,27.0837 10.2643,27.0837" id="Fill-15" fill="#000"/></g></g></g><g id="Expressions" transform="translate(158.000000, 29.000000) scale(1 1)" fill="#000"><g id="Expressions/Confident" stroke="none" stroke-width="1" fill="none" fill-rule="evenodd"><g id="Group" transform="translate(19.000000, 7.000000)" fill="#000"><g id="Group-18"><path d="M0.017585448,4.63233625 C0.380950805,3.52891014 0.923821996,2.47790812 1.63916615,1.70112436 C2.35015661,0.916779447 3.17635231,0.413205815 4.00288291,0.0492617078 L4.00824129,0.0472453969 C4.4184925,-0.133718501 4.84850275,0.221152207 4.96873147,0.838647402 C5.08862529,1.45664667 4.85319133,2.10337838 4.44294012,2.28434227 C4.38064892,2.31156247 4.31400403,2.3266848 4.25238262,2.33071742 C3.51225595,2.36902733 2.77882726,2.51722618 2.10132669,2.92502504 C1.42315633,3.32475867 0.809621456,4.01685736 0.296221371,4.91209938 C0.235269763,5.0179557 0.128771898,5.03005356 0.0584431194,4.93831142 C-0.00116889303,4.86068345 -0.0159044467,4.73365587 0.017585448,4.63233625" id="Fill-9-Copy" transform="translate(2.500000, 2.500000) scale(-1, 1) translate(-2.500000, -2.500000)"/></g></g><g id="Group-12-Copy" transform="translate(7.000000, 4.000000)" fill="#000"><path d="M11.5379491,8.25091701 C11.6180931,9.32773995 12.0257588,10.3861031 12.5295974,11.3788312 C13.0467932,12.36797 13.6660391,13.3217275 14.3990894,14.1606238 C14.5850235,14.3667585 14.7757662,14.568791 14.9771947,14.7513381 C15.0744361,14.8492777 15.181829,14.9261937 15.2844133,15.0123395 C15.3736403,15.0866915 15.5472856,15.2225763 15.6642958,15.3584611 C15.7893205,15.5061397 15.9100707,15.681508 15.9693773,15.9096919 C16.0292181,16.1378758 15.9982291,16.3983644 15.9036592,16.5983458 C15.7091765,17.0039491 15.3992864,17.2157243 15.1113023,17.3905799 C14.5209083,17.7274716 13.8941823,17.866433 13.2695935,17.95463 C12.6439361,18.0310331 12.0033185,18.0166755 11.3840726,17.8674586 C11.2403477,17.8331028 11.1532579,17.6936286 11.1895899,17.5556927 C11.2216475,17.4316017 11.3434663,17.3516091 11.4716967,17.3623773 L11.4781082,17.3628901 C12.0327046,17.4080141 12.5985212,17.3551985 13.1451032,17.2444396 C13.6890137,17.1367573 14.2249098,16.9439547 14.653413,16.6850044 C14.8639246,16.5588623 15.0391727,16.3916984 15.085122,16.2676074 C15.1294683,16.1568484 15.1080966,16.0876241 14.9734547,15.9271262 C14.8965164,15.8455953 14.8345384,15.8050863 14.7004308,15.6907379 C14.5807491,15.5876706 14.4519845,15.4892182 14.3451258,15.3784593 C14.1175169,15.1656586 13.911814,14.9400385 13.7125226,14.7113418 C12.9329888,13.7873252 12.290234,12.7807522 11.8093701,11.6982887 C11.3236975,10.625568 10.9593095,9.46311197 11.0036558,8.2473276 C11.0084645,8.1058023 11.1324205,7.99504337 11.2798854,8.0001711 C11.4171988,8.00478606 11.5267289,8.10785339 11.5368805,8.23655937 L11.5379491,8.25091701 Z" id="Fill-1"/><path d="M2.00075166,11.7502749 C2.063031,11.0408329 2.4044141,10.3320317 2.92398533,9.85778861 C3.43605998,9.3732916 4.0876865,9.09579531 4.74796292,9.02081363 C5.40939267,8.94390934 6.09677215,9.07977358 6.68900262,9.43417416 C7.28526972,9.78152519 7.75524814,10.3781743 7.98418241,11.0459598 C8.03146858,11.1850284 7.96918923,11.3394779 7.84463053,11.39267 C7.74429158,11.4349673 7.63530272,11.3990787 7.57129339,11.3112796 L7.56610345,11.3042301 C6.87353402,10.3544621 5.85976463,9.92379812 4.82984873,10.012238 C3.80742943,10.0961919 2.81845644,10.7159123 2.39403421,11.8573 C2.35193798,11.9739382 2.23314589,12.0303347 2.12819366,11.9835512 C2.04227122,11.9450991 1.99325507,11.8470461 2.00075166,11.7502749" id="Fill-3" transform="translate(5.000000, 10.500000) scale(1, -1) translate(-5.000000, -10.500000)"/><path d="M6.53374389,20.2298502 C6.6133413,20.5089219 6.77522521,20.8224608 6.9709918,21.0648418 C7.16837186,21.3144498 7.40770189,21.521808 7.67499859,21.6774655 C7.9482113,21.8236725 8.23863427,21.9354123 8.54895659,21.9904484 C8.7000841,22.0265832 8.86304365,22.027695 9.01739808,22.0499318 L9.49767162,22.0510437 L9.54284852,22.0515996 C9.79616189,22.0521555 10.0010714,22.2650728 10,22.5269111 C9.99945796,22.7893053 9.79347279,23.0005548 9.54015942,23 C9.52617609,23 9.51219276,22.999443 9.49874726,22.9977752 L8.92650645,22.9427392 C8.73611806,22.9004892 8.54572967,22.8782525 8.3585682,22.8159894 C7.98209398,22.7120324 7.62014092,22.5363617 7.2888436,22.3139938 C6.96238668,22.0816193 6.67949319,21.7858699 6.46060033,21.4512061 C6.24116964,21.1098713 6.08573957,20.75853 6.00506653,20.3304717 C5.97656205,20.1803733 6.07121842,20.0347223 6.21642991,20.0052585 C6.35303627,19.9774626 6.48587788,20.0625183 6.52460094,20.1976068 L6.53374389,20.2298502 Z" id="Fill-5"/><path d="M0.0556765477,3.58091006 C0.874090172,2.55772659 1.97844198,1.63665308 3.31413354,1.04222724 C4.6441964,0.438423959 6.1104739,0.151890909 7.54973363,0.0081034153 L7.55873955,0.00706147694 C8.27302215,-0.0643113009 8.91525732,0.413417438 8.99237057,1.0750483 C9.06948382,1.73615819 8.55333163,2.33058403 7.83848616,2.4019568 C7.73041504,2.41289716 7.61727808,2.41029231 7.51370992,2.39726808 C6.28214939,2.23368376 5.03933145,2.18419169 3.8387288,2.4139391 C2.63812614,2.63483003 1.48705608,3.17090732 0.462069008,3.94142074 C0.340488992,4.03259034 0.161496191,4.01539836 0.0629938635,3.90338999 C-0.0203109621,3.80805262 -0.0191852212,3.67468451 0.0556765477,3.58091006" id="Fill-7"/><g id="Group-11" transform="translate(14.500000, 11.000000) scale(1, -1) translate(-14.500000, -11.000000) translate(12.000000, 10.000000)"><path d="M0.202625,1.7113 C0.335125,1.3438 0.55075,1.0143 0.86825,0.7128 C1.185125,0.4203 1.63825,0.1413 2.2345,0.0838 C2.37825,0.0593 2.528875,0.0773 2.6745,0.0828 C2.802625,0.1043 2.932625,0.1158 3.058875,0.1508 C3.31325,0.2088 3.555125,0.3103 3.766375,0.4368 C4.195125,0.6963 4.47075,1.0508 4.57075,1.4643 C4.59825,1.5768 4.507,1.6858 4.366375,1.7073 C4.267,1.7228 4.17075,1.6908 4.112625,1.6318 L4.081375,1.5998 C3.857625,1.3708 3.5595,1.1638 3.267,1.0398 C3.117,0.9753 2.962625,0.9258 2.796375,0.8968 C2.717625,0.8743 2.628875,0.8713 2.546375,0.8568 C2.47575,0.8638 2.407625,0.8433 2.337625,0.8558 C1.77075,0.8803 1.1295,1.3758 0.597,1.8653 L0.583875,1.8773 C0.50325,1.9513 0.362625,1.9593 0.270125,1.8948 C0.202625,1.8478 0.1795,1.7758 0.202625,1.7113" id="Fill-9"/></g></g></g></g></g></g></g></svg>