<svg viewBox="35.349397590361434 19.650000000000034 255.30120481927702 368.4375" xmlns="http://www.w3.org/2000/svg" overflow="visible" xmlns:xlink="http://www.w3.org/1999/xlink" width="255.30120481927702px" height="368.4375px"><g id="Master/Comp/Squiggle" stroke="none" stroke-width="1" fill="none" fill-rule="evenodd"><path d="M281,312 C268.396019,313.423812 258.665344,325.60301 253,336 C263.616413,329.699668 272.999463,321.387894 281,312 M265,271 C241.881595,277.085279 218.461925,298.640012 206,319 C228.22341,306.370805 246.568192,288.458706 265,271 M120.581177,44 C93.8471792,47.1393691 66.9322134,85.8195428 65,108 C82.0175766,99.5285268 97.1599505,88.4119573 110.077488,74.6163409 C115.291483,69.6466878 130.821341,49.1473665 120.581177,44 M173,57.3411208 C150.25319,51.4354123 94.0287943,123.899815 84,144 C119.665901,124.603965 155.216903,94.5145215 173,57.3411208 M153,300.730771 C153.655665,301.153769 154.31133,301.576767 154.966994,302 C155.112068,301.222108 155.005744,299.991527 155.447343,299.747626 C163.828984,296.103012 171.308761,290.614647 179.520283,286.505324 C193.727299,276.958067 207.146573,266.21369 220.086206,255.020866 C234.526663,241.200036 253.973799,230.205395 263,212 C221.384777,218.952244 170.770997,263.319161 153,300.730771 M261,136 C211.702046,148.58761 153.560756,202.433887 124,243 C148.523575,229.094129 170.72567,213.097606 193.603135,196.820471 C207.710751,188.307164 219.700281,177.427317 232.403584,166.90603 C241.550113,156.65756 255.290294,148.332508 261,136 M242,70.1174386 C229.485392,68.7350564 218.522851,79.9014308 207.904741,85.4920476 C167.719181,113.015393 133.631976,149.504056 107,190 C139.818452,171.36862 168.512981,146.064257 196.174458,120.527099 C204.062001,114.335979 210.667051,106.760119 218.24238,100.20601 C227.300606,90.9312416 237.681122,82.8716303 242,70.1174386 M186.460437,343.847483 C186.538969,342.436405 187.37774,339.387633 187.201517,337.184703 C179.823596,339.220928 172.531065,342.526388 165.163552,344.909522 C156.299686,347.978421 144.723888,347.622514 137.641405,340.728383 C131.805015,333.287011 135.346966,324.005721 136.550719,315.678963 C124.27287,317.075123 110.791032,322.558887 98.0405757,317.262667 C79.0218077,307.494283 93.2778413,277.904503 99.4732989,263.490146 C90.377387,262.521406 75.4072389,267.861197 71.3619306,256.670606 C67.4644598,238.564572 78.7199826,222.034427 86.9101826,206.882919 C49.1794392,213.165875 57.5820522,182.301885 68.5080746,159.319 C74.3470663,149.65907 63.7011073,153.602228 58.6954463,149.873846 C46.0670449,141.89376 56.270674,124.484148 53.8373863,113.889577 C45.9896963,113.152662 38.7267334,108.849809 39.0481914,100.143938 C38.0407672,74.8049143 52.9404263,50.1554461 73.2119105,35.7391953 C77.9559582,33.0463306 86.2353338,23.8353694 90.9084194,30.1962322 C69.3974653,31.3823524 36.9037191,83.6912257 46.7714613,104.881315 C55.3313734,119.001331 57.4072491,103.51357 60.2450203,96.0430731 C66.8799693,73.1596431 102.459854,24.8083716 128.922065,43.8057128 C138.924398,62.1755398 101.647339,94.0913856 86.1239234,102.858825 C79.01755,107.874676 70.9541355,111.423565 62.6579656,113.785149 C60.193218,117.027622 60.547082,122.487232 60.0054052,126.487694 C59.4008088,135.136734 58.6164419,151.616204 71.9334114,149.157296 C79.4991456,141.088884 83.8510098,129.553989 90.7681512,120.709591 C106.778602,99.5287369 125.22589,80.1435209 146.075951,63.7166199 C151.058904,60.3356208 156.268699,57.2255183 161.314808,53.9356864 C168.904197,49.3186026 184.59319,54.5009227 178.896832,65.3185571 C170.499896,84.0073508 156.073317,98.9417152 141.46129,112.94949 C128.631594,124.273398 115.046388,135.00839 100.085465,143.378008 C92.9906817,148.340817 81.2225766,148.334423 77.5143379,156.902005 C73.4638257,167.750186 56.0935055,203.784183 77.8107226,203.902345 C93.2664874,200.455279 94.6497737,195.559248 102.525375,182.88867 C112.461241,167.890844 123.312044,153.53403 135.11492,139.958885 C154.405473,117.214455 209.740001,66.7980699 238.504693,63.558439 C273.684116,71.7102037 211.668276,119.383997 201.187422,130.008641 C168.974685,157.580668 135.758073,184.327691 97.930348,203.690885 C86.2596974,220.827705 59.1777515,278.75508 104.348153,254.513378 C141.070526,205.392987 197.875861,143.31502 260.167743,130.583823 C299.132043,137.992516 193.445702,208.959873 182.397388,216.227908 C166.141882,228.290388 148.739155,238.727725 131.190011,248.788791 C124.215627,253.464364 114.292534,254.816716 110.629711,263.168101 C91.1766559,298.082281 86.7517007,330.927321 137.847195,307.396486 C143.45485,301.957714 145.24333,293.365742 149.944564,287.095573 C162.278946,268.003986 177.0258,249.951468 194.979428,235.900833 C209.864185,224.290163 226.310816,213.83104 244.734922,209.123026 C253.573952,204.6215 269.154137,201.460486 270.462913,215.151425 C263.4864,236.588494 222.496608,265.455805 203.807576,279.20547 C189.347882,289.538853 173.906783,298.421139 157.948843,306.219601 C154.057286,308.870789 147.118619,308.758784 145.836099,313.929027 C143.806112,322.772715 135.950616,343.900526 151.8946,342.206238 C208.875921,327.053783 184.869705,320.457306 222.733384,286.92792 C233.91487,277.595008 246.434463,270.010848 260.096071,264.924904 C265.035738,262.533246 268.645812,264.742096 272.046312,268.044715 C278.997988,274.839155 257.027437,290.823007 252.51851,296.119464 C236.3685,309.430579 218.970505,321.704283 200.197738,330.988652 C193.737356,334.048553 192.553473,348.696155 195.223774,354.515698 C202.217318,363.345652 230.574451,346.120032 239.942857,343.319188 C248.039387,340.00165 248.480061,328.596284 254.849612,322.793553 C261.656053,315.067077 270.088943,305.732981 281.508625,307.115644 C285.675751,307.809698 288.333988,313.633504 286.304711,317.338679 C278.446613,331.435489 263.099894,337.63533 250.470783,346.449655 C246.249725,351.404886 248.329858,359.725013 247.361227,365.86376 C241.554405,367.539578 243.800826,353.267537 243.121009,349.833732 C228.865686,357.121658 188.009302,375.65606 186.460437,343.847483" id="Background" fill="#FFD686"/><g transform="translate(3.000000, 7.000000) scale(1 1)" id="Master/Character/Standing"><g id="Master/Character/Standing" stroke="none" stroke-width="1" fill="none" fill-rule="evenodd"><g id="Bottom" transform="translate(71.000000, 158.000000) scale(1 1)"><g id="Bottom/Floating" stroke="none" stroke-width="1" fill="none" fill-rule="evenodd"><g id="Group-106" transform="translate(33.000000, -7.000000)"><path d="M73.4400356,142 C73.4400356,142 68.3805169,152.7515 67,157.42579 L78.1100864,166 C78.1100864,166 87.5152478,155.182384 90,150.508095 L73.4400356,142 Z" id="Fill-7" fill="#7b3d16"/><path d="M99.2997461,57.4773478 C93.6503734,50.1963417 87.1083433,37.1261586 85.4083092,34.4234858 C83.7064101,31.7217288 81,31.7974684 81,31.7974684 C83.2008121,31.0107534 82.545598,29.1024887 81.9450374,25.6140167 C81.6251736,23.7566733 81.8042228,2.62940483 82.0401573,0 L49,0 L49,56.5395175 C53.4258703,62.8927677 64.3562594,72.6630536 68.7271094,78.6069189 C73.0979595,84.5507842 72.6773806,87.9357652 74.4753321,88.8186444 C76.2732836,89.7015236 76.9512457,89.1510979 76.9512457,89.1510979 C76.6500328,90.9763866 77.5005161,91.6925811 77.5005161,91.6925811 C77.5005161,91.6925811 77.1228344,91.742037 76.6947951,92.5076875 C76.2667558,93.2751696 77.2990859,93.7477481 74.4287047,102.566466 C71.5583236,111.3861 66.4787374,118.036085 63.24,123.385564 C60.0012626,128.735043 59.9275914,134.01217 59.9275914,134.01217 C61.6947689,134.590071 64.7861638,137.119648 68.3186536,140.518367 C71.852076,143.915254 75.2381559,147.168352 78.9189209,149.409437 C82.5987532,151.649605 85.3217919,151.867578 87.6037355,152.15607 C89.8856792,152.446395 91.5791855,153.745986 94.4495666,155.047408 C97.3199478,156.348831 99.2335352,155.915634 101.810164,156.13269 C104.386793,156.348831 106.742408,157 106.742408,157 C106.742408,157 108.803337,153.529845 108.728734,150.204394 C108.655995,146.878944 107.639518,141.142976 109.311576,128.126919 C110.982701,115.109945 114.812673,103.644421 115.612799,100.679815 C116.412925,97.7152095 115.664089,94.5225571 115.664089,94.5225571 C115.664089,94.5225571 117.070371,86.8358295 114.128184,78.2817922 C111.185996,69.7286708 104.948186,64.7583538 99.2997461,57.4773478 Z" id="Fill-1" fill="#2C3DFF"/><path d="M21.1814086,157.749781 C21.1814086,157.749781 20.7732392,163.137679 21.1814086,171.368606 L33.8355609,172 C33.8355609,172 35.8773089,163.102602 37,157 L21.1814086,157.749781 Z" id="Fill-3" fill="#7b3d16"/><path d="M102.891101,207.838878 C102.891101,207.838878 102.596166,206.240256 101.515342,205.439099 C100.605127,204.766237 96.113947,201.652063 94.3361692,200.027597 C93.7553741,199.986985 92.4803471,199.94545 91.4793829,200.26296 C90.5827803,200.547241 88.3040667,201.820047 87,202.566748 C92.0774205,204.680399 98.290114,207.421685 99.9308604,207.813034 C101.159605,208.105622 102.4065,207.988402 103,207.903487 C102.935568,207.861953 102.891101,207.838878 102.891101,207.838878" id="Fill-5" fill="#CDCDCD"/><path d="M86,156 C86,156 79.9621072,156.276743 78.6007394,156.840873 C77.2393715,157.405003 76,160 76,160 L83.8142329,159.139968 L86,156 Z" id="Fill-9" fill="#000"/><path d="M95,200.429108 C94.6581614,200.122582 94.4022495,199.861848 94.2985772,199.686156 C93.6410516,198.573131 91.7198442,194.322888 89.8995072,191.286599 C88.0791701,188.251246 84.5898017,181.622624 84.1349509,176.411684 C83.6791662,171.199809 83.6380708,163.344149 83.5876356,161.472285 C83.5372004,159.600421 86.1691705,156.838885 86.1691705,156.838885 C86.1691705,156.838885 79.1792258,155.970706 77.8641747,156.982802 C76.5500576,157.993964 76.2455785,159.006995 76.2455785,159.006995 C76.2455785,159.006995 72.8580144,157.437919 70.8611542,154.807216 C68.86336,152.175579 68.360876,149.860748 67.0448909,150.006535 C67.0448909,150.006535 66.1772187,151.282169 65.3767935,153.754001 C64.5754342,156.223029 63.8413219,158.894851 60.505127,160.696625 C57.1689321,162.500268 54.1661699,163.768426 51.9638329,165.905696 C49.9426891,167.86634 48.2624498,170.102671 48,170.458727 C49.4682246,172.621229 52.2692461,176.418225 54.9880768,178.253642 C58.9154843,180.905839 66.1809547,187.783981 70.305433,190.926805 C74.4289774,194.070565 81.6935138,200.65246 86.9957474,202.814029 C87.145185,202.874773 87.2992926,202.938321 87.4505981,203 C88.7918008,202.243031 91.1370375,200.954314 92.0598148,200.667413 C93.0909344,200.345934 94.4022495,200.387988 95,200.429108" id="Fill-11" fill="#FF7475"/><path d="M102.365094,207.499902 C101.766835,207.584868 100.5071,207.702159 99.2675218,207.40847 C97.5625286,207.005801 90.967934,204.112313 85.7668346,201.976138 C80.5666514,199.839962 73.4397618,193.335386 69.3948694,190.228557 C65.3490609,187.122652 58.2221713,180.32531 54.3696748,177.70427 C51.7027027,175.88949 48.9551077,172.138023 47.5148878,170 C47.4919835,170.031401 47.4754924,170.053566 47.4754924,170.053566 C47.4754924,170.053566 46.6729272,170.006465 46.2514888,170.517189 C45.8291342,171.028837 43,175.029664 43,175.029664 C43,175.029664 44.6885021,177.838185 46.5464956,179.456248 C48.4044892,181.072464 60.3916628,190.633997 63.1685754,192.734154 C65.9473202,194.834311 75.2226294,203.633913 79.8850206,206.935611 C84.5474118,210.234539 100.767293,214.285237 101.46175,213.984159 C102.156207,213.684929 103,208.634947 103,208.235049 C103,207.9312 102.572148,207.628275 102.365094,207.499902" id="Fill-13" fill="#CDCDCD"/><path d="M26.1884965,0 C25.2735362,8.69745586 20.0049561,22.8578811 20.3479815,55.1715651 C20.4632344,66.028623 21.4422556,74.3885416 19.2546269,90.4722563 C17.0660787,106.557786 13.3464662,112.387849 7.65807981,125.449005 C1.96877388,138.511975 0,147.36369 0,147.36369 C0,147.36369 2.9536206,148.875423 9.40799886,152.761829 C15.8632967,156.648235 16.0812319,158.806946 24.7241585,159.777867 C33.3661654,160.749696 36.9772701,158.375023 43.1033661,155.719055 C49.2294621,153.063087 53.6056391,149.199366 53.6056391,149.199366 C54.6999132,143.585264 53.6056391,135.813359 53.6056391,125.449005 C53.6056391,115.085557 56.2309775,104.830091 57.1063968,99.8647827 C57.9808965,94.8985672 57.434679,87.2337357 58.9657432,75.682498 C60.497727,64.1321678 62.1382186,51.8250635 63.2324928,49.2344286 C64.3267669,46.6428861 71,44.3344534 71,44.3344534 L70.4317131,0 L26.1884965,0 Z" id="Fill-15" fill="#2C3DFF"/><path d="M42.2891834,70 C40.6344744,70 39.2251124,68.7648922 39.0775353,67.124388 C38.5361115,61.138034 40.9222499,52.5904754 43.3683415,47.182487 C44.3737109,44.9609145 44.6799336,42.6816857 45.0027586,40.2673247 C45.401217,37.3061289 45.811666,34.2431337 47.4672973,30.9801428 C51.3089155,23.4091392 61.560917,18.9101397 67.4889074,20.2281285 C69.227551,20.6155073 70.3150102,22.30556 69.9183966,24.0028198 C69.521783,25.7018813 67.7914406,26.7622182 66.0527971,26.3757402 C62.6963389,25.6289099 55.5093307,29.3306298 53.2523224,33.7809817 C52.0735497,36.102552 51.74888,38.52412 51.4048407,41.0862255 C51.0358978,43.8366151 50.6549642,46.6797954 49.2741953,49.7310792 C46.761694,55.2850103 45.1429569,62.5244898 45.5082104,66.5694453 C45.6659335,68.3036411 44.3524967,69.8342379 42.5769589,69.9873877 C42.4810337,69.9963965 42.3841862,70 42.2891834,70" id="Fill-17" fill="#FF7475"/><path d="M67.1069468,20 C68.7381824,20.3339907 70.0073317,21.8656159 69.9980949,23.5182785 C70.0553636,25.1673009 68.8148486,26.7498892 67.1762235,27.1221023 C66.7725712,27.2231186 66.3495215,27.2586108 65.9338612,27.2167482 L64.8817789,27.0729593 C64.2324252,27.0693191 63.5581319,27.1275627 62.8930755,27.3068438 C61.5592679,27.6308239 60.2651789,28.195969 59.0449851,28.8694108 C57.8266387,29.5501331 56.6784927,30.3628136 55.6587396,31.2983517 C54.6426811,32.2338898 53.7467024,33.2977459 53.1638543,34.5053909 C51.9427368,36.9698239 51.6776379,39.7964595 51.2906121,42.6158146 C50.9229837,45.4351697 50.2560799,48.3400701 49.0072517,50.9410116 C47.8831216,53.5192018 47.007464,56.2138791 46.3562629,58.9540593 C45.7272304,61.6887791 45.2358276,64.4999437 45.4140997,67.2646954 C45.4759869,68.0655452 45.2422934,68.8827759 44.779525,69.5371066 C44.3158329,70.1896171 43.619371,70.6728571 42.8517851,70.8812601 C42.0851228,71.0823826 41.2574971,71.0305093 40.5582641,70.7065292 C39.862726,70.3852793 39.2946569,69.833785 39,69.1785443 C39.8858182,70.3306759 41.4385402,70.7229102 42.6513445,70.2606015 C43.8835462,69.8292347 44.6917745,68.5678964 44.5726186,67.3283994 C44.3620174,64.408028 44.845107,61.5468103 45.4584368,58.7511167 C46.0967062,55.954513 46.9594321,53.2079624 48.087257,50.5551477 C49.2862059,47.9924285 49.8736724,45.2822802 50.2265218,42.4729357 C50.612624,39.6945332 50.8694097,36.7368495 52.1930567,34.0458123 C52.8544183,32.6807276 53.8390713,31.5213155 54.9234827,30.5229835 C56.01436,29.5210113 57.2253169,28.6646481 58.5138637,27.9438834 C59.8033342,27.2249387 61.1777841,26.6415925 62.6492214,26.2994112 C63.3789361,26.1119396 64.1539116,26.0409552 64.9436661,26.0600664 L66.0308486,26.2165961 C66.332895,26.2502682 66.6395599,26.2284268 66.9342169,26.1565324 C68.1340895,25.8953461 69.0614737,24.750495 69.0319157,23.525559 C69.0522368,22.3051732 68.1211579,21.1503114 66.9009641,20.8873051 L67.1069468,20 Z" id="Fill-19" fill="#000"/><path d="M77,25.0004542 C77,28.3136498 74.4644331,31 71.3374605,31 C68.2095169,31 65,28.3136498 65,25.0004542 C65,21.6863502 68.2095169,19 71.3374605,19 C74.4644331,19 77,21.6863502 77,25.0004542" id="Fill-21" fill="#FF7475"/><path d="M76.97342,25.5034187 C77.0779603,26.6548844 76.8772059,27.8685915 76.3165738,28.9385943 C76.0344074,29.470392 75.6847062,29.9747303 75.2554434,30.4177426 C74.8104532,30.8442792 74.2979281,31.2085744 73.7326703,31.4831688 C72.604005,32.0341881 71.2338793,32.1540943 70.0238021,31.7971217 C68.8044735,31.472185 67.7035622,30.7902756 66.8431862,29.8905214 C65.9763342,28.999005 65.3379907,27.8539465 65.1039314,26.610034 C64.8596957,25.3642909 65.0567495,24.0535604 65.5813014,22.9103325 C66.6442821,20.6412677 69.0015273,18.9845483 71.5789549,19 L71.5789549,19.9154233 C69.4492929,19.9859025 67.4528505,21.4586436 66.5665707,23.3579213 C65.6460608,25.277336 66.1225056,27.634271 67.5962465,29.1957977 C69.0255809,30.7838684 71.3994786,31.5875146 73.4023969,30.7554937 C74.3932171,30.3463481 75.246192,29.6003667 75.8678831,28.6823062 C76.4766222,27.750516 76.8494518,26.656715 76.97342,25.5034187" id="Fill-23" fill="#000"/><path d="M60.6559618,67 C62.2936105,68.6993378 63.9384775,70.3968858 65.5544713,72.1266488 C67.1650515,73.8626758 68.7639019,75.6157051 70.2066569,77.5342834 C71.6322684,79.457336 72.8593771,81.5522015 73.7706857,83.7714525 C74.2443858,84.8488631 74.5953749,86.0587128 75.1340396,86.8900371 C75.2766007,87.0770627 75.4137482,87.2452962 75.5887916,87.3338873 C75.7475939,87.4421653 76.0552734,87.5620764 76.2817471,87.6435086 C76.5271688,87.7312048 76.7734928,87.7884758 76.9963574,87.8054781 C77.1064363,87.8117422 77.2138083,87.8117422 77.3031346,87.7974244 C77.3726106,87.7983193 77.5061489,87.724046 77.4285523,87.7759478 L77.4240409,87.7786324 L77.5819409,87.685567 C78.4634741,87.3705765 79.3432028,86.7790746 80.1660874,86.1562525 C80.9925812,85.5271664 81.7965178,84.8488631 82.5679722,84.1329757 C84.1153923,82.7038854 85.5924342,81.1844144 87,79.603198 C85.7485296,81.3096947 84.4212672,82.9651843 82.9983625,84.5517698 C82.2900682,85.3472997 81.541171,86.1124044 80.7480618,86.8452941 C79.9450274,87.5719199 79.116729,88.2815433 78.0348884,88.7960874 L78.1927884,88.703022 L78.1864724,88.7083912 C77.8625518,88.925842 77.7019449,88.932106 77.4808849,88.9777438 C77.276066,89.0063793 77.0847814,89.0036947 76.8989106,88.9902718 C76.5316803,88.957162 76.1978345,88.868571 75.8856436,88.7558187 C75.5608207,88.6287487 75.3072784,88.5401576 74.9689213,88.328076 C74.620639,88.1303121 74.3734126,87.8269548 74.1685938,87.5450741 C73.7788063,86.9616259 73.5794011,86.3880211 73.3574388,85.8332083 L72.7231319,84.194721 C71.8668627,82.045269 70.7164483,80.0318356 69.3539968,78.1508414 C67.9816201,76.2823753 66.4134474,74.5221871 64.8317404,72.7825806 C63.2446197,71.0447639 61.6205053,69.3320033 60,67.6147683 L60.6559618,67 Z" id="Fill-25" fill="#000"/><path d="M77.5586985,92 C77.5278476,91.9638219 76.8062056,91.0816327 77.0503299,89 L77.7122821,89.148423 C77.5325423,90.6808905 77.9805505,91.2764378 78,91.3014842 L77.5586985,92 Z" id="Fill-27" fill="#000"/><path d="M105.755482,156 C103.69197,155.469669 101.559884,155.106715 99.427798,155.106715 C98.3504766,155.092161 97.2136048,155.084883 96.0911694,154.848372 C94.9696363,154.633693 93.8932172,154.16158 92.9214625,153.670364 C90.9319368,152.713403 89.1273783,151.4417 87.0864227,151.253401 C84.9299753,151.034173 82.6535248,150.575705 80.6351261,149.580539 C76.5947197,147.567464 73.3609509,144.482812 70.2128987,141.460016 C68.6411282,139.92997 67.1180809,138.380821 65.5048056,136.939922 C64.6990703,136.218562 63.880703,135.512667 63.0316582,134.86499 C62.1889294,134.230958 61.2911616,133.58692 60.4051234,133.26672 L60,133.120265 L60.0216547,132.721835 C60.24542,128.742078 61.4851516,124.938795 63.5098662,121.583974 C65.5066102,118.28919 67.6414028,115.130855 69.4937821,111.805143 C71.3551842,108.491256 72.9612412,105.034553 74.1287906,101.424118 C74.7062493,99.6084395 75.2593464,97.7791159 75.6834177,95.9343281 C75.8972579,95.0119342 76.078616,94.084992 76.1679416,93.1644174 C76.1914009,92.9342738 76.2049351,92.7059494 76.2130556,92.4739865 C76.2283943,92.2347462 76.2076419,92.0200668 76.2662901,91.6825834 C76.2942607,91.5215738 76.3853909,91.3150813 76.450355,91.2113802 C76.5162214,91.0940343 76.5938174,90.9785076 76.6777294,90.8638906 C76.7643482,90.7501833 76.8626966,90.6373856 76.9826998,90.5309555 C77.0431525,90.479105 77.1090189,90.4272545 77.1866149,90.3790426 C77.2822565,90.329921 77.3147385,90.2908057 77.5249696,90.2462324 L77.4275234,90.2698835 C78.4010827,89.951503 79.3385509,89.8923752 80.2688008,89.8414343 C81.1990506,89.8086866 82.1175709,89.8032286 83.0315798,89.8095962 C83.9455886,89.8041383 84.8559884,89.8059576 85.7573653,89.7304559 C86.6542309,89.6604122 87.5718489,89.53306 88.3342748,89 C87.6873406,89.6922503 86.7101722,89.9414967 85.8169158,90.1488989 C84.9011023,90.3308306 83.9762661,90.4236158 83.0577459,90.4918402 L80.3211329,90.6819589 C79.4260719,90.7583702 78.5129654,90.8456975 77.7424189,91.1231433 L77.6449727,91.1477041 C77.7469303,91.1231433 77.6106861,91.1704456 77.5773018,91.2186575 C77.5186536,91.2714177 77.4572987,91.3387325 77.4004551,91.4160534 C77.284061,91.5761534 77.1667647,91.7726396 77.1586442,91.8617862 C77.1180417,92.1838054 77.135185,92.7814511 77.0810482,93.2499253 C76.989918,94.2387243 76.805853,95.1965949 76.5929151,96.1435496 C76.1679416,98.0365493 75.6193559,99.884066 75.0455063,101.720667 C73.8725433,105.412971 72.252952,108.944266 70.385234,112.310913 C68.5274411,115.686657 66.3899415,118.885016 64.4383116,122.145233 C62.51375,125.339954 61.3642462,129.062278 61.1440901,132.738208 L60.7606214,132.193323 C61.9263662,132.62723 62.8096975,133.301287 63.7074654,133.965338 C64.5935036,134.642124 65.4281119,135.363483 66.2473814,136.099397 C67.8895296,137.567586 69.428818,139.136747 70.9843474,140.653149 C74.1008199,143.66048 77.3075203,146.688734 81.1061159,148.578095 C83.0126319,149.512314 85.0571967,149.958047 87.21996,150.197287 C88.3595387,150.318272 89.4873877,150.741263 90.4735789,151.240666 L93.368993,152.762525 C94.335334,153.258289 95.2709976,153.674912 96.2905731,153.882315 C97.3002236,154.104271 98.3531835,154.123374 99.4458436,154.145206 C101.66906,154.166128 103.857989,154.553643 106,155.124908 L105.755482,156 Z" id="Fill-29" fill="#000"/><path d="M71,45 C68.9778918,46.1570417 66.9116447,47.2272374 65.1957493,48.5842058 C64.7801091,48.9225432 64.3745839,49.2825922 64.1051534,49.6752084 C63.8522749,50.0370666 63.679398,50.4875801 63.5423839,51.0439371 C63.2564013,52.105991 63.0320291,53.2232283 62.8288068,54.3377517 C62.0205152,58.8103194 61.4090091,63.3407845 60.7873878,67.8631078 C60.204388,72.3917636 59.5165585,76.9204193 59.1018378,81.4373147 C58.6641282,85.9668752 58.5547008,90.508196 58.3367655,95.0911305 C58.2769942,96.2382211 58.1997513,97.3889303 58.0802088,98.545972 C57.9661836,99.7066322 57.7464092,100.87453 57.5229566,101.989958 C57.0696144,104.240716 56.5905247,106.467953 56.1666084,108.706951 C55.3132585,113.17771 54.6419811,117.679226 54.3734701,122.202454 C54.1196721,126.711207 54.2888708,131.286 54.4341609,135.843605 C54.5104843,138.126025 54.6033596,140.413874 54.5996814,142.712579 C54.5969227,145.009474 54.5058865,147.328985 54.0580617,149.626785 L54.0571421,149.631308 L54.0313945,149.777861 L53.9118519,149.882799 C52.0221601,151.557298 49.9844193,152.993876 47.8363316,154.294756 C46.7595291,154.938864 45.6615767,155.552213 44.5259225,156.099524 L41.1299944,157.642849 C38.8807553,158.669622 36.5735841,159.736199 34.0751447,160.361309 C31.5767054,160.981896 28.9789538,161.098595 26.4510886,160.930331 C25.1839375,160.838962 23.9314994,160.699647 22.6827395,160.496101 C21.4321405,160.30703 20.1797024,160.021162 18.9511728,159.624023 C17.7244823,159.223265 16.5318154,158.656052 15.4586911,157.961284 C14.3828081,157.268326 13.4025592,156.506614 12.4075974,155.78923 C10.4489386,154.323705 8.35970263,153.036394 6.27598399,151.688472 L0,147.717078 C2.27682584,148.717616 4.49388041,149.845709 6.67599176,151.028081 C7.76842678,151.61791 8.85902268,152.203215 9.94318167,152.818374 C11.0291798,153.44077 12.0848325,154.11835 13.1184158,154.814927 C15.1745477,156.243362 17.094585,157.676321 19.3778477,158.366566 C21.6445584,159.080331 24.1190892,159.392434 26.5402857,159.563412 C28.9715973,159.714488 31.396472,159.56884 33.7303104,158.999818 C36.0705858,158.446174 38.3078706,157.454683 40.5745813,156.449622 L43.9695898,154.958766 C45.07214,154.43769 46.1654946,153.891284 47.2294233,153.290599 C49.3554416,152.094658 51.4078952,150.714169 53.2985067,149.208838 L53.1541361,149.461235 L53.1550556,149.456711 C53.549546,147.254804 53.6074782,144.985953 53.5752937,142.719816 C53.5440287,140.45006 53.4162101,138.171258 53.3058632,135.889742 C53.098043,131.321281 52.8304516,126.751917 53.0520651,122.131892 C53.3021849,117.529055 53.9605885,112.966927 54.7983059,108.457269 C55.2139462,106.201083 55.6856795,103.955753 56.1224696,101.723992 C56.342244,100.598613 56.5408685,99.515752 56.6456982,98.400324 C56.7551256,97.2839914 56.8259315,96.1549937 56.8792659,95.0205681 C57.0668558,90.4765334 57.2296175,85.8782199 57.6792814,81.3088551 C58.1197498,76.7259205 58.8241313,72.2153577 59.4255223,67.6821787 C60.0673738,63.1526182 60.695432,58.6257717 61.5313103,54.1034485 C61.7437282,52.9717369 61.9717786,51.8445485 62.2835088,50.7010765 C62.4260403,50.1501473 62.6338605,49.5006118 63.0577767,48.9324943 C63.4660605,48.3915163 63.9525068,47.9998047 64.4398726,47.6261861 C65.4385126,46.9142301 66.5134761,46.4049146 67.6095893,45.9679708 C68.7121395,45.5473106 69.8376786,45.201736 71,45" id="Fill-33" fill="#000"/><path d="M16.8921732,113 C16.829517,114.669287 16.7573896,116.333025 16.7297043,118.000462 C16.6794337,119.665125 16.64592,121.330713 16.6437343,122.994451 C16.627706,126.321002 16.720233,129.640155 16.8207743,132.97688 C16.9038301,136.309905 16.9985429,139.645704 17,142.987977 C16.9890716,146.324702 17.0058285,149.687321 16.6102205,153 C16.6619483,151.330713 16.6481056,149.66605 16.5941922,148.001387 C16.5592213,146.3358 16.5060365,144.670212 16.4397375,143.005549 C16.3064111,139.676223 16.1927558,136.344123 16.0929431,133.008323 C16.0106158,129.675298 15.9363027,126.320078 16.086386,122.97503 C16.2211696,119.632757 16.4615943,116.297882 16.8921732,113" id="Fill-35" fill="#000"/><path d="M41,151 C41.3613154,149.424218 41.730401,147.859316 42.1237686,146.305294 C42.5336478,144.735859 42.8211461,143.222636 43.2912446,141.612401 C43.8021368,140.042059 44.4985431,138.554224 45.2920771,137.119881 C46.0817261,135.683725 46.9850146,134.305596 48,133 L45.9787706,137.41908 C45.3357847,138.892409 44.6927987,140.365738 44.2217289,141.869894 C43.9711392,142.605198 43.8040794,143.385836 43.5797142,144.173727 C43.3495213,144.950738 43.1251561,145.728656 42.852227,146.49116 C42.3325933,148.027049 41.7177744,149.533018 41,151" id="Fill-37" fill="#000"/><path d="M31,152 C31.9211528,151.61194 32.8432258,151.254664 33.7413728,150.831157 C34.6496424,150.434701 35.5496298,150.023321 36.4404149,149.589552 L41.7759234,146.969216 C43.5639352,146.104478 45.319739,145.189366 47.1712469,144.403918 C47.4105074,144.309701 47.6368846,144.214552 47.8973104,144.130597 C48.1761409,144.038246 48.4135609,144.005597 48.6583427,143.960821 L50.1196721,143.69403 C51.0960388,143.530784 52.062283,143.337687 53,143 C52.1451039,143.532649 51.1696574,143.824627 50.2236583,144.13806 L48.7844146,144.535448 C48.2773665,144.64459 47.9212365,144.826493 47.4638809,145.057836 C45.7237211,145.976679 43.9614757,146.920709 42.1799055,147.806903 C40.3891329,148.680037 38.5817961,149.529851 36.7174049,150.246269 C34.8585352,150.969216 32.9600954,151.625 31,152" id="Fill-39" fill="#000"/><path d="M5,139 C6.87357775,139.388587 8.63861966,140.28797 10.2506438,141.406948 C11.8777918,142.552659 13.2380484,143.960928 14.7050616,145.224075 C16.1471649,146.519683 17.6221848,147.763734 19.1452451,148.933314 C19.904996,149.523355 20.6923257,150.072341 21.5018963,150.577409 C22.2963431,151.121622 23.1450578,151.552218 24,152 C22.1504425,151.511163 20.4014141,150.610825 18.7715971,149.548179 C17.1257667,148.499853 15.6071546,147.251983 14.1374725,145.95733 C12.6686801,144.661722 11.3093131,143.225764 9.8574238,142.004627 C9.1234724,141.391672 8.34237018,140.839821 7.53013064,140.342391 C6.72767711,139.819183 5.87985204,139.380949 5,139" id="Fill-41" fill="#000"/><path d="M71,45 C71,45 66.3234518,50.5143499 64.6736453,54.7980572 C63.0238388,59.0826878 60,68 60,68 C60,68 61.9536418,50.6556015 62.9086911,49.2615502 C63.8637403,47.8684221 71,45 71,45" id="Fill-43" fill="#000"/><g id="Group-47" transform="translate(75.000000, 31.000000)" fill="#000"><path d="M0.688617391,6.90268318 C1.39074783,5.63533738 2.18874783,4.41150561 3.12005217,3.27923458 C3.58022609,2.70901963 4.08148696,2.16509439 4.64118261,1.67012243 C5.20087826,1.17605701 5.80622609,0.707374766 6.54487826,0.388271963 L6.66266087,0.33841215 L6.79505217,0.374673832 C8.39561739,0.817972897 9.73231304,1.77346822 10.7576609,3.00999159 C11.2771826,3.63278598 11.6661391,4.31722523 12.061487,4.95724393 L13.2320087,6.91265514 C14.7814435,9.52077664 16.3363565,12.1198327 17.941487,14.6835336 C19.5502696,17.2454215 21.1992261,19.7792065 22.9075304,22.256786 C24.6286174,24.7280196 26.4629217,27.0859355 28.4077043,29.4075897 C32.2306174,34.0563374 36.4169217,38.7295617 38.7780522,44.4652533 C39.9367043,47.3172346 40.6735304,50.3197019 41.022313,53.3611505 C41.3720087,56.4062252 41.4167478,59.4676178 40.9684435,62.5417019 L40.959313,62.6015336 L40.9209652,62.674057 C39.5148783,65.3175336 38.1818348,68.0045243 37.0524,70.7830757 C35.9074435,73.5525617 34.8775304,76.3710009 33.9580957,79.2247953 C33.0313565,82.0785897 32.2014,84.9632065 31.4764435,87.8750196 C30.7560522,90.7904589 30.1735304,93.7231224 29.2769217,96.624057 C29.3280522,93.5798888 29.9945739,90.620029 30.690313,87.6864589 C31.3933565,84.7501692 32.2032261,81.8392626 33.1098783,78.9573654 C33.9964435,76.0691224 35.0747478,73.2398047 36.2260957,70.4431224 C37.3710522,67.6410009 38.7232696,64.9259075 40.1585739,62.2570477 L40.1110957,62.3884963 C40.9264435,56.5141037 40.2133565,50.3178888 37.9554,44.8024869 C37.3810957,43.424543 36.6807913,42.1018981 35.9184,40.815515 C35.1176609,39.5499822 34.2429652,38.3315897 33.3171391,37.1467393 C31.4353565,34.7987953 29.3426609,32.6094963 27.3084,30.3386084 C25.2869217,28.0640944 23.3266174,25.6699168 21.6356609,23.1207206 C19.9127478,20.5941879 18.3386609,17.9842533 16.8175304,15.3498421 C15.297313,12.7154308 13.8355304,10.0520103 12.3837913,7.38949626 L11.2899652,5.40054299 C10.9192696,4.7324215 10.570487,4.08333738 10.108487,3.54303832 C9.19087826,2.4497486 7.8980087,1.63114112 6.59053043,1.17333738 L6.84070435,1.15883271 C6.22166087,1.37187009 5.62909565,1.75533738 5.07305217,2.18050561 C4.51244348,2.60658037 3.99566087,3.10064579 3.48892174,3.60558972 C2.48457391,4.62816916 1.55418261,5.74049626 0.688617391,6.90268318" id="Fill-45"/></g><path d="M115.618953,100.035912 C116.157184,98.1397576 116.015898,96.1538231 115.852506,94.9992518 L115.671815,94 C115.671815,94 110.999779,103.109083 109.918512,106 C108.838206,108.890019 106,118 106,118 C107.793462,113.590902 111.866715,107.463415 114.477135,103.74293 C114.999987,102.046985 115.410388,100.772108 115.618953,100.035912" id="Fill-48" fill="#000"/><path d="M80.838755,32.2573867 C79.9734696,32.1736279 79.0706853,32.1210352 78.1932127,32.1181134 C77.3138652,32.1346703 76.4354551,32.1843412 75.6057936,32.3791291 C74.7948814,32.5670994 73.975532,32.9449879 73.208681,33.3861824 C72.4287054,33.8225073 71.6956033,34.3688873 71,35 C71.4415487,34.1458552 72.0940283,33.4212443 72.822443,32.7950012 C73.5714821,32.188237 74.3945814,31.6730231 75.3526765,31.384737 C76.2892097,31.0876855 77.2482422,30.9980831 78.1913378,31 C79.1391207,30.999057 80.0634668,31.0867116 81,31.2990303 L80.838755,32.2573867 Z" id="Fill-50" fill="#000"/><path d="M86,81 C86,81 83.1415996,85.0951518 82.5546329,86.882193 C81.9666862,88.6701405 82.9867736,90.5387404 84.6173455,90.4173086 C84.6173455,90.4173086 81.2503713,90.4952424 80.2195049,90.5931128 C79.1876586,90.6909832 77.7138724,91 77.7138724,91 C77.7138724,91 76.6251913,89.8255551 77.1367048,88.4861803 C77.1367048,88.4861803 79.2885894,87.6434073 81.7658045,85.2537381 C84.2430195,82.8640689 86,81 86,81" id="Fill-52" fill="#000"/><path d="M69,185.5 C69,185.776582 68.7759494,186 68.5,186 C68.2240506,186 68,185.776582 68,185.5 C68,185.223418 68.2240506,185 68.5,185 C68.7759494,185 69,185.223418 69,185.5" id="Fill-54" fill="#000"/><path d="M74,189.0006 C74,189.55249 73.7762894,190 73.4996651,190 C73.2237106,190 73,189.55249 73,189.0006 C73,188.44751 73.2237106,188 73.4996651,188 C73.7762894,188 74,188.44751 74,189.0006" id="Fill-56" fill="#000"/><path d="M71,167.898354 C71,170.604066 67.4291857,174 64.6179379,174 C61.8076361,174 60,171.205227 60,168.500484 C60,165.794773 63.1006965,163 65.9109984,163 C68.7213002,163 71,165.193611 71,167.898354" id="Fill-58" fill="#CDCDCD"/><path d="M82.7397036,206 C82.6748611,205.981424 81.1223457,205.517957 78.6147926,203.970588 C76.1220607,202.432508 65.3257802,192.993189 61.7399886,189.80743 C60.0633462,188.319505 57.5576457,186.486997 55.1353142,184.715789 C52.7592988,182.978947 50.5157475,181.337771 49.0669802,180.043034 C46.1092347,177.39969 44.0852216,173.593498 44,173.433746 L44.8188685,173 C44.8383212,173.037152 46.8530711,176.820124 49.6829842,179.350155 C51.0984039,180.614241 53.3243551,182.241486 55.6809178,183.964396 C58.1208494,185.749536 60.6450762,187.595046 62.3541399,189.112693 C66.8440217,193.100929 76.845518,201.787926 79.1001853,203.180186 C81.4891692,204.653251 82.9851789,205.104644 83,205.109288 L82.7397036,206 Z" id="Fill-60" fill="#000"/><path d="M47.7846118,170 C49.2656354,172.321697 51.0305526,174.533671 53.087632,176.351012 C53.6067252,176.8065 54.142356,177.206666 54.7156555,177.605909 C55.3054924,178.014373 55.8741982,178.440355 56.4318789,178.878324 C57.5490779,179.750574 58.6332019,180.654174 59.7044635,181.570682 L66.0640452,187.118597 C67.127038,188.035105 68.1955432,188.945159 69.2897735,189.808188 C70.3968662,190.67214 71.4993652,191.566519 72.5816517,192.459054 C74.7544935,194.245967 76.9172291,196.034725 79.1681645,197.701774 C81.4200187,199.359602 83.7389416,200.948277 86.3105205,201.993871 L94.0803822,205.266191 C95.3758185,205.805585 96.6730923,206.343134 97.9804724,206.835503 C99.2805025,207.354612 100.620039,207.571291 102,207.937341 C100.580533,208.146644 99.1289089,207.80549 97.8105038,207.301134 C96.4847488,206.81614 95.1801249,206.289656 93.8773386,205.761327 L86.0808332,202.560003 C83.4238106,201.506111 81.0470065,199.90545 78.7639149,198.256842 C76.4789857,196.596248 74.2896064,194.817632 72.1029834,193.051925 C71.0078344,192.164923 69.9181979,191.297283 68.8000802,190.44163 C67.6782875,189.57399 66.5978384,188.667625 65.5210644,187.757571 L59.1146265,182.269588 C58.0452025,181.360456 56.9702659,180.461467 55.8705232,179.60397 C55.3211112,179.173377 54.7643492,178.756615 54.197481,178.363826 C53.6168315,177.960895 53.025157,177.518315 52.4876888,177.046231 C50.3277095,175.132997 48.5462548,172.899816 47,170.480383 L47.7846118,170 Z" id="Fill-62" fill="#000"/><path d="M87,202.213767 C88.1069684,201.652562 89.2157367,201.115044 90.360504,200.634922 C90.9292877,200.402606 91.5286706,200.165733 92.1496529,200.077362 C92.7661353,199.983524 93.3952173,199.965303 94,200.077362 C93.3871175,200.046386 92.7796349,200.14569 92.2018514,200.315145 C91.621368,200.481867 91.095783,200.760647 90.5611983,201.057648 C89.5028285,201.65985 88.4678581,202.324914 87.453587,203 L87,202.213767 Z" id="Fill-64" fill="#000"/><path d="M88.5197325,198.390652 C88.9684227,197.822477 89.2000934,196.954202 89.0343527,196.187485 C88.9592657,195.779424 88.8164174,195.440897 88.5819997,195.061198 C88.3695586,194.682415 88.1104171,194.301801 87.8640953,193.924847 L84.7571445,189.384932 C83.7315668,187.856074 82.7398699,186.296107 81.8589719,184.664775 C80.9844838,183.037103 80.1805042,181.320682 79.776683,179.467021 C79.0221509,175.786231 79.0908279,172.084398 79.1274557,168.415503 C79.1457696,166.58746 79.2547372,164.728309 79.1741561,162.949672 C79.1704934,162.141784 78.5313387,161.467475 77.9233177,160.82702 C77.2896572,160.201203 76.5799941,159.622963 75.8529328,159.103279 L75.8959704,159.127068 C74.8978636,158.633917 73.9785065,158.052017 73.0957772,157.396008 C72.2240362,156.732679 71.3980799,155.992495 70.708562,155.123306 C70.0208756,154.261436 69.4558922,153.321796 68.9220424,152.381241 C68.653744,151.912794 68.390024,151.444346 68.1162314,151.003347 C67.8369446,150.571497 67.5658991,150.128667 67,150.047238 C67.2609729,149.95117 67.5906228,150.006981 67.8396917,150.16618 C68.0988332,150.318059 68.2966232,150.533069 68.4696894,150.752654 C68.8149062,151.194568 69.0722163,151.673995 69.3460089,152.136953 C69.8862685,153.065614 70.4485048,153.975975 71.1169617,154.794844 C71.778093,155.611882 72.5793256,156.316383 73.4290899,156.948604 C74.2843484,157.570761 75.2037055,158.137107 76.1450393,158.59 L76.1715944,158.602809 L76.1889926,158.613788 C76.9590915,159.153601 77.6815744,159.730011 78.3610196,160.385105 C78.6961637,160.716312 79.0194038,161.066733 79.2996063,161.469305 C79.58805,161.853579 79.8050695,162.393391 79.8233834,162.892946 C79.9277726,164.777716 79.8352874,166.58746 79.8371188,168.424652 C79.8362031,172.069759 79.8206363,175.770677 80.582494,179.283119 C80.978074,181.016923 81.7609926,182.65283 82.6354807,184.23933 C83.5200414,185.823085 84.5016657,187.359263 85.5153394,188.878973 L88.6250373,193.417972 C88.8796003,193.80865 89.1387418,194.185604 89.3759067,194.60739 C89.6249755,195.005387 89.851152,195.522326 89.9344802,196.020052 C90.1286074,197.053015 89.893274,198.131725 89.2028404,199 L88.5197325,198.390652 Z" id="Fill-66" fill="#000"/><path d="M83.4526981,172.987814 C81.1290781,171.484906 77.9391373,171.857464 77.905559,171.860389 C77.4383406,171.8955 77.0392382,171.545374 77.0027817,171.077239 C76.9653659,170.608129 77.3097836,170.197536 77.7712457,170.1595 C77.9324216,170.143895 80.6311595,169.410484 83.437348,171.225482 C83.8287753,171.479055 84.1041176,171.873068 83.9621293,172.353882 C83.8767444,172.642565 83.5927677,173.078515 83.4526981,172.987814" id="Fill-68" fill="#CDCDCD"/><path d="M77.8365435,177 C77.6091145,177 77.3816856,176.896845 77.2173251,176.695854 C76.9077159,176.315139 76.9316055,175.730242 77.2717934,175.383558 C77.3874191,175.266579 79.5069041,172.444186 83.5576241,173.098207 C84.0143932,173.172648 84.0392384,173.683104 83.9723475,174.191432 C83.9054567,174.698697 84.1414859,175.065587 83.6828056,174.999653 C80.4366872,174.458358 78.4194496,176.737328 78.3965156,176.760724 C78.2369331,176.921305 78.0362605,177 77.8365435,177" id="Fill-70" fill="#CDCDCD"/><path d="M84.3764988,180.839038 C81.8404004,178.964429 79.3196606,180.256305 79.2140698,180.312832 C78.7984261,180.532769 78.2954301,180.351886 78.0890481,179.908927 C77.8826662,179.465969 78.0468118,178.929485 78.4595758,178.705437 C78.6006834,178.628356 81.1722987,177.001434 84.3812983,178.966484 C84.7844631,179.213143 84.9198113,179.833902 84.9822058,180.326192 C85.1089148,181.327217 84.522406,180.946951 84.3764988,180.839038" id="Fill-72" fill="#CDCDCD"/><path d="M80.7907194,185 C80.4363333,185 80.1135888,184.770072 80.0240883,184.425615 C79.9174108,184.018686 80.175064,183.607419 80.5990616,183.504169 C83.430534,182.821327 85.9311256,183.026092 86.0811972,183.037372 C86.5160434,183.070343 86.7592318,183.407859 86.8631971,183.814788 C86.9870514,184.299805 87.1524918,184.622572 86.7176457,184.589601 C86.6832919,184.586998 83.5598126,184.356202 80.9841852,184.977441 C80.9190939,184.992191 80.8540026,185 80.7907194,185" id="Fill-74" fill="#CDCDCD"/><path d="M35.9213027,190 C35.9213027,190 36.0983716,192.266735 35.9213027,194.126405 C35.9213027,194.126405 32.9102278,195.886633 32.4702658,196.79184 C32.0303038,197.696117 31.6879103,199.807647 31.5415575,201.214714 C31.3952046,202.62271 30.9064583,213.833707 30.3689276,216.547469 C29.831397,219.26216 24.7487966,228.712929 22.5498899,229.56795 C20.3509831,230.422971 9.16040878,229.869066 8.427741,229.115346 C7.6941698,228.361627 6.71667715,225.396006 6.32640282,223.183174 C5.93522508,220.971273 6.00478787,214.939658 6.00478787,214.939658 L29.5919926,192.438668 L35.9213027,190 Z" id="Fill-76" fill="#CDCDCD"/><path d="M6.0024015,214.971532 C5.94874663,217.587931 6.79649343,222.981311 8.31224323,224.609229 C9.93083152,226.35061 13.3593771,226.044835 16.2164984,225.839061 C19.0736197,225.63425 25.4540769,220.513953 27.4545089,216.929264 C27.6423009,216.59368 27.8238332,216.141748 28,215.596544 C20.3917408,213.788815 13.283366,213.427269 6.0024015,214.971532" id="Fill-78" fill="#CDCDCD"/><path d="M36.4047206,184.260044 C36.4047206,184.260044 36.8031209,182.314192 36.7761894,181.769498 C36.7501866,181.224805 36.0202504,178.997996 35.6970726,176.520138 C35.3738947,174.043187 36.4864437,169.150915 36.2579904,168.86452 C36.0295371,168.578125 34.1703358,168.642474 34.1703358,168.642474 C34.1703358,168.642474 34.3003499,168.355173 34.1703358,168.005336 C34.0403217,167.6555 31.463257,166.032295 27.4513941,166.000574 C23.4395311,165.967947 20.2105386,167.336478 19.8836461,167.591152 C19.5576822,167.846732 19.8836461,168.927962 19.8836461,168.927962 C19.8836461,168.927962 20.1631764,176.211992 20.0006588,177.848792 C19.8381412,179.484685 18.4776367,185.031315 18.4776367,185.031315 C18.3801262,186.59561 15.6182557,194.862083 14.9263951,196.696458 C14.2336058,198.529928 6.22288128,212.71915 6.02507414,214.939615 C6.01207274,215.082812 6.00371469,215.24051 6,215.409991 C13.5612473,213.954454 20.9432608,214.295227 28.844402,216 C30.6079501,211.044285 31.7957216,197.945357 32.3334226,196.021256 C32.926844,193.897767 36.7771181,190.61873 36.7771181,190.61873 C37.4429759,186.615549 36.4047206,184.260044 36.4047206,184.260044" id="Fill-80" fill="#FF7475"/><path d="M19.8584922,169 C18.9507836,169.253039 18,170.080594 18,170.080594 C18,170.080594 18.2333884,173.168393 18.6147983,175.794237 C18.9946418,178.420081 18.8920449,180.848717 18.6727538,185 C18.6727538,185 19.8201162,179.488969 19.9571732,177.863575 C20.0942301,176.237281 19.8584922,169 19.8584922,169" id="Fill-82" fill="#000"/><path d="M6,220.123725 C6.4118057,221.27581 6.8163389,222.419513 7.32632344,223.468218 C7.57540681,223.988845 7.88176116,224.48712 8.22902336,224.841966 C8.59628496,225.2024 9.0717251,225.452003 9.58625496,225.628029 C10.6271325,225.967973 11.7907336,226.030374 12.9479713,226.011747 C13.5288628,226.002433 14.1124814,225.973561 14.7006454,225.932582 C15.2733554,225.886946 15.9242447,225.867387 16.3951395,225.767732 C17.4414715,225.506022 18.4878034,224.946278 19.4768643,224.347417 C20.4695615,223.736448 21.4268052,223.050972 22.3367777,222.304957 C23.2476592,221.561736 24.1212691,220.768222 24.9294264,219.92069 C25.7257659,219.074088 26.5057423,218.164155 27.0020908,217.184371 C27.4748038,216.212968 27.7729766,215.019903 28.036605,213.864092 C28.309324,212.701762 28.5211357,211.512423 28.726584,210.324946 C29.1302082,207.944404 29.4601982,205.544304 29.7747341,203.139547 L30.2565377,199.529618 C30.4310778,198.3142 30.5647102,197.140694 30.835611,195.870326 C31.007424,195.188575 31.3492318,194.612998 31.6928578,194.088646 C32.0428472,193.560568 32.4291991,193.075332 32.8310051,192.610586 C33.6364353,191.676438 34.4909548,190.822386 35.4027454,190 L36,190.70131 C35.1454804,191.498549 34.3109603,192.358189 33.5600739,193.257877 C32.8255507,194.151978 32.0819369,195.132694 31.8237629,196.130174 C31.4165025,198.411992 31.2065089,200.89964 30.8801551,203.290426 C30.5683464,205.701703 30.2410836,208.113911 29.8374595,210.521462 C29.6311021,211.725703 29.4201994,212.929013 29.1411169,214.128597 C28.8611254,215.331907 28.5893155,216.523109 28.0093331,217.732007 C27.4002606,218.902719 26.5675586,219.825691 25.7203115,220.716998 C24.8621557,221.598059 23.9494561,222.408337 22.9985758,223.170185 C22.0486046,223.931101 21.0513621,224.630548 20.0050302,225.261075 C18.9514257,225.878563 17.8696403,226.465317 16.6042241,226.769869 C15.9069725,226.899328 15.368807,226.891877 14.7597346,226.937513 C14.163389,226.972905 13.5624981,226.996189 12.957971,227 C11.7516439,227.002708 10.5098633,226.939376 9.28717312,226.528649 C8.68082785,226.320957 8.07993697,225.981012 7.60722402,225.47715 C7.12996576,224.953728 6.87451895,224.354868 6.65179843,223.767183 C6.22726584,222.580638 6.05181661,221.35125 6,220.123725" id="Fill-84" fill="#000"/><path d="M25.5092577,214.892347 L23.1065626,214.89145 C22.3123864,214.902215 21.4961231,214.905804 20.7413196,214.969498 L20.3677591,215 L20.27749,214.636672 C20.0220476,213.607692 19.8924058,212.586785 20.1113564,211.495007 C20.2477204,210.918168 20.4964406,210.484866 20.6875423,210.028239 L21.297339,208.664638 C22.1020786,206.846205 22.8770486,205.017006 23.5329401,203.163585 C23.8604058,202.234184 24.1504193,201.307473 24.3511241,200.360129 C24.5595113,199.399329 24.7438908,198.432249 24.9282702,197.460683 C25.11361,196.489118 25.293188,195.513964 25.5207814,194.536118 C25.752216,193.576215 26.0047775,192.534675 26.5896062,191.623216 C27.6747562,189.88911 28.836731,188.26804 29.7490253,186.524066 C30.2003709,185.660153 30.6094629,184.761253 30.7640728,183.874015 C30.8975558,182.949099 30.9590156,181.934472 31.0464038,180.96201 L31.5092731,175.059053 L31.7512712,172.104883 L31.8885955,170.623762 L31.9683012,169.880061 L32.0191976,169.497894 C32.0316817,169.427022 32.0316817,169.386653 32.0528085,169.290662 C32.0768162,169.191981 32.1056255,169.093299 32.138276,169 L32.9977533,169.401006 C33.0015945,169.426125 33.0006342,169.448553 32.9939121,169.470083 C32.9871899,169.494305 32.9775868,169.576839 32.9699043,169.627974 L32.9228491,169.980537 L32.8441037,170.70809 L32.7087001,172.177549 L32.466702,175.125439 L32.0038327,181.03019 C31.9135636,182.023286 31.8607465,182.982292 31.7128588,184.011272 C31.5227175,185.076137 31.080975,186.012716 30.6113835,186.917895 C29.6664387,188.723769 28.470853,190.390592 27.426036,192.063695 C26.9141909,192.853148 26.6904387,193.770887 26.459004,194.726305 C26.2381328,195.67634 26.0585549,196.647008 25.8732151,197.617677 C25.6888356,198.588345 25.5034958,199.564397 25.2922277,200.538654 C25.0828801,201.528161 24.7784619,202.49883 24.4461947,203.442585 C23.7758985,205.336376 22.993246,207.178134 22.1846652,209.007333 L21.5729479,210.375419 C21.3770447,210.83384 21.1360069,211.286879 21.0505394,211.679811 C20.8709614,212.531165 20.9804368,213.520672 21.2051492,214.405219 L20.7413196,214.072393 C21.582551,214.160309 22.3556004,214.306537 23.1497765,214.444691 L25.5092577,214.892347 Z" id="Fill-86" fill="#000"/><path d="M8,214.875039 C8.39536103,214.572968 8.79989516,214.538621 9.15122527,214.374816 C9.31817586,214.298197 9.47962259,214.186352 9.52090159,214.087716 C9.57502293,213.979393 9.62547504,213.762748 9.66216747,213.575164 C9.7979295,212.784319 9.90066833,211.953843 10.023588,211.133055 C10.2822697,209.495002 10.6335998,207.831409 11.2445289,206.26469 C11.8545407,204.714704 12.4379505,203.155911 13.0681431,201.613851 C13.6909972,200.069149 14.3239418,198.527969 14.9944961,197 L15,197.001761 C14.5285022,198.597543 14.0184773,200.177472 13.4974446,201.753878 C12.9855851,203.332926 12.4260254,204.896122 11.8921504,206.468125 C11.3426812,208.020754 11.0216223,209.619177 10.7253309,211.243139 C10.5620495,212.05424 10.4501376,212.867102 10.2391561,213.696697 C10.1776962,213.908939 10.1400865,214.10533 9.99148211,214.362486 C9.81535841,214.624927 9.57685755,214.728847 9.35762023,214.822198 C8.91547635,214.982481 8.46049011,215.100491 8,214.875039" id="Fill-88" fill="#000"/><path d="M18.224161,196.398439 C16.0406685,198.843253 14.1356586,201.316137 13.7306788,202.363785 C14.5264782,202.230679 15.5913202,200.570016 17.1461028,198.050047 C17.4651778,197.533014 17.8314533,196.974328 18.224161,196.398439 M13.7070785,204 C13.3606273,204 12.9990719,203.909451 12.6148603,203.717488 C12.2344247,203.527336 12.0106946,203.16333 12.0003105,202.717831 C11.9398939,200.231364 20.7125683,190.807058 23.7588849,189.10746 C24.1006161,188.917307 24.5339162,188.984313 24.7944627,189.270447 C25.0550091,189.553864 25.0691692,189.975821 24.829391,190.275537 C24.7869106,190.328056 20.6002313,195.559958 18.5677802,198.856835 C16.7222429,201.850374 15.3959104,204 13.7070785,204" id="Fill-90" fill="#CDCDCD"/><path d="M15.4336865,186.615777 C15.1890589,186.615777 14.9453374,186.625937 14.7034278,186.646257 C11.4091095,186.930739 6.99222233,189.109614 5.82163398,190.628084 C5.57610035,190.946741 5.58422297,191.090829 5.58422297,191.092676 C6.42233063,191.932268 9.92503543,190.718601 12.4827529,189.832827 C14.1217578,189.26571 15.8151244,188.679196 17.2819839,188.367005 C18.6383081,188.077904 19.8215808,187.912572 20.8118696,187.822979 C19.2707157,187.200443 17.3218492,186.615777 15.4336865,186.615777 M6.58632173,193 C5.72831308,193 5.0207051,192.795875 4.51332934,192.292489 C4.019544,191.802034 3.87367347,191.130546 4.11195887,190.449821 C4.93825654,188.097301 10.7984466,185.361469 14.5693357,185.035423 C19.3033327,184.633638 24.4069892,187.779567 24.6217179,187.913496 C24.9415458,188.113926 25.0801681,188.515711 24.9533242,188.875932 C24.8264803,189.235229 24.4713172,189.453209 24.0989397,189.404256 C24.0753829,189.399638 21.6662541,189.083752 17.605436,189.949206 C16.2337094,190.242001 14.5856442,190.811889 12.9928467,191.363304 C10.5157658,192.220445 8.26247379,193 6.58632173,193" id="Fill-92" fill="#CDCDCD"/><path d="M3.48023944,200 C2.72083546,200 1.9748802,199.898267 1.25492578,199.67097 C0.840705428,199.539908 1.02629766,199.228292 1.15361214,198.804861 C1.28092662,198.381429 1.30334114,198.011156 1.71666491,198.138552 C6.57971943,199.670054 13.3489048,194.114122 16.240378,191.740341 C16.6321839,191.418643 16.9585393,191.151937 17.205099,190.962217 C19.4322059,189.248329 23.8326247,188.073353 24.0191135,188.024778 C24.4396099,187.916629 24.8663824,188.172337 24.9748687,188.600351 C25.0833549,189.029281 24.8305191,189.467377 24.4109193,189.578275 C24.36878,189.589274 20.1261594,190.72209 18.1483021,192.243509 C17.9116047,192.42498 17.5995946,192.682521 17.2230307,192.991388 C14.5305984,195.202029 8.68578784,200 3.48023944,200" id="Fill-94" fill="#CDCDCD"/><path d="M28.1556183,195 C28.0610978,195 27.9656127,194.98437 27.8720566,194.95311 C21.0858667,192.643558 17.1893051,194.023589 17.1507253,194.038299 C16.7176669,194.195518 16.2286677,193.994168 16.0589165,193.583192 C15.8891653,193.171298 16.0984608,192.706997 16.5295903,192.542423 C16.7080219,192.475306 20.9961687,190.904957 28.43918,193.437926 C28.8789899,193.587789 29.1075753,194.047493 28.9503626,194.465824 C28.8269071,194.794972 28.5018722,195 28.1556183,195" id="Fill-96" fill="#CDCDCD"/><path d="M13.8483457,199 C13.5385332,199 13.2413067,198.821922 13.0912413,198.514332 C12.8801815,198.077232 13.0476739,197.545021 13.4659208,197.324447 C21.3128922,193.181095 27.0444246,194.066427 27.2845293,194.104876 C27.7473119,194.180761 28.0629334,194.635063 27.9893529,195.117695 C27.9167406,195.600327 27.4868757,195.94333 27.0221568,195.854291 C26.9689078,195.846196 21.5529969,195.03675 14.2298024,198.90489 C14.1078137,198.969646 13.9771116,199 13.8483457,199" id="Fill-98" fill="#CDCDCD"/><path d="M26.1765245,202 C25.9373846,202 25.6991863,201.891602 25.5363076,201.681703 C25.5127702,201.651154 23.1336115,198.653446 18.660567,197.705452 C18.2142982,197.61085 17.9262006,197.155577 18.0165842,196.688478 C18.1069677,196.222365 18.5409971,195.927718 18.9882074,196.015423 C24.0675749,197.092509 26.7075278,200.453845 26.8176828,200.595748 C27.1029559,200.967259 27.0474077,201.510236 26.6934054,201.808825 C26.5408832,201.937917 26.3582331,202 26.1765245,202" id="Fill-100" fill="#CDCDCD"/><path d="M26.1968364,204 C26.111473,204 26.0251918,203.985211 25.9398284,203.954646 C25.8801658,203.93394 19.9240065,201.809183 15.0068935,203.198409 C14.578241,203.318697 14.1385738,203.042627 14.0265918,202.582181 C13.9136918,202.120748 14.1706998,201.649457 14.6002702,201.528183 C19.9882584,200.014725 26.1931648,202.225261 26.4538443,202.319914 C26.8742359,202.472738 27.0991179,202.961778 26.9577635,203.412364 C26.8448636,203.773228 26.5318646,204 26.1968364,204" id="Fill-102" fill="#CDCDCD"/></g><path d="M57,5.40826695 C87.7202305,11.7038033 106.909652,12.6833968 114.568264,8.34704744 L115,-7 L59.2471314,-7 L57,5.40826695 Z" id="Path-4" fill="#7b3d16"/><path d="M114,25.1288886 C115.432992,24.5852557 115.261211,23.2280289 114.735187,20.2092894 C114.666653,19.8150164 114.595448,19.4031171 114.525134,18.9726637 C114.268797,17.3909333 113.989319,-3.29197848 114.304399,-7 L115.190896,-6.9183623 C114.886497,-3.34021894 115.162414,17.3352712 115.40273,18.8186653 C115.472154,19.2444802 115.543359,19.6526687 115.611003,20.0441586 C116.109435,22.9061166 116.50373,25.1669244 114.304399,26 L114,25.1288886 Z" id="Fill-31" fill="#000"/><path d="M57,6 C71.8819288,9.15147095 81.5781317,10.9464512 86.0886087,11.3849406 C99.6036717,12.6988177 109.240802,11.9076871 115,9.01154865" id="Path-5" stroke="#000" stroke-linecap="round" stroke-linejoin="round"/><path d="M102.983831,2 C101.693616,4.28105699 101.693616,5.26130873 102.983831,4.94075522" id="Path-6" stroke="#000"/><path d="M80,13 C75.7116429,19.9078262 70.3783096,23.5744929 64,24" id="Path-7" stroke="#000"/></g></g><g id="Body" transform="translate(74.000000, 0.000000) scale(1 1)"><g id="Body/Coffee 2" stroke="none" stroke-width="1" fill="none" fill-rule="evenodd"><g id="Group-92" transform="translate(35.000000, 52.000000)"><g id="Group-3" transform="translate(146.000000, 75.305000)" fill="#000"><path d="M1.3916,0.2904 C1.3916,0.2904 3.0856,2.1334 4.5186,2.8504 C5.9536,3.5664 6.2276,4.6424 5.9746,5.2744 C5.7216,5.9074 2.5876,5.9494 0.9916,5.5074 L1.3916,0.2904 Z" id="Fill-1"/></g><path d="M147.082,81.3396 C147.082,81.3396 149.528,81.9726 149.633,84.5666 C149.739,87.1596 146.639,87.3076 146.639,87.3076 L147.082,81.3396 Z" id="Fill-4" fill="#000"/><path d="M127.6333,65.4411 L128.7143,58.5571 C134.8993,55.7331 144.0033,56.4001 149.6363,59.7231 L150.3403,68.9131 L127.6333,65.4411 Z" id="Fill-6" fill="#474747"/><path d="M110.3047,94.2468 C110.3047,94.2468 114.2217,93.6928 117.1087,93.8508 C119.9947,94.0098 120.5877,94.3258 124.1457,93.6538 C127.7037,92.9808 131.4197,89.6208 132.9617,88.9098 L132.9617,77.6818 L110.3047,85.7468 L110.3047,94.2468 Z" id="Fill-8" fill="#7b3d16"/><path d="M128.0171,64.487 L128.0171,95.858 C132.2171,98.809 140.8741,99.972 146.2741,97.659 L149.5241,66.202 L128.0171,64.487 Z" id="Fill-10" fill="#CDCDCD"/><path d="M128.0171,95.8581 C129.3561,96.7051 130.8431,97.2651 132.3551,97.6701 C133.8711,98.0711 135.4251,98.3091 136.9811,98.4101 C140.0761,98.5971 143.2751,98.2771 145.9961,97.0231 L146.0011,97.0221 L145.5851,97.5871 L148.8351,66.1301 L150.2131,66.2731 L146.9621,97.7301 L146.9191,98.1541 L146.5461,98.2951 L146.5421,98.2961 C144.9751,98.8951 143.3471,99.1791 141.7311,99.2891 C140.1131,99.3981 138.4991,99.3141 136.9121,99.0981 C135.3251,98.8791 133.7611,98.5201 132.2531,98.0011 C130.7511,97.4791 129.2901,96.8001 128.0171,95.8581" id="Fill-12" fill="#000"/><path d="M110.3047,80.823 C110.3047,80.823 113.4237,81.258 115.1887,80.636 C116.9537,80.013 123.3147,74.347 124.8177,73.827 C126.3207,73.306 130.7547,72.961 131.9047,73.038 C133.0537,73.114 134.8167,73.689 137.6907,73.574 C140.5647,73.459 141.7147,72.961 142.0597,73.229 C142.4047,73.497 142.7107,76.717 140.0287,77.675 C137.3457,78.633 133.0157,78.211 132.4407,78.402 C132.4407,78.402 132.2487,79.169 131.2527,80.511 C130.2567,81.851 126.8457,85.914 124.9677,86.22 C123.0907,86.527 121.2127,86.488 121.2127,86.488 L110.3047,86.488 L110.3047,80.823 Z" id="Fill-14" fill="#7b3d16"/><path d="M142.0595,73.2292 C142.4615,73.6602 142.4925,74.2912 142.5065,74.8582 C142.4975,75.4412 142.3425,76.0352 142.0405,76.5692 C141.7345,77.0992 141.2795,77.5602 140.7395,77.8752 C140.1835,78.1812 139.6385,78.3492 139.0815,78.5042 C137.9705,78.7912 136.8455,78.8982 135.7355,78.9682 C135.1805,79.0062 134.6255,79.0192 134.0785,79.0242 L133.2675,79.0372 L132.8805,79.0472 C132.7665,79.0502 132.6355,79.0722 132.6595,79.0602 L132.6595,79.0592 L133.1125,78.5712 C132.8845,79.3762 132.5585,79.8752 132.2015,80.4522 C131.8445,81.0072 131.4425,81.5012 131.0395,81.9832 C130.2305,82.9482 129.3785,83.8752 128.4315,84.7262 C127.9595,85.1542 127.4535,85.5522 126.9135,85.9252 C126.3715,86.2842 125.7705,86.6632 124.9835,86.7502 C123.7125,86.8572 122.4465,86.7832 121.2125,86.4882 L124.8175,85.7102 C125.7195,85.4492 126.6575,84.5432 127.4815,83.7282 C128.3155,82.8722 129.1215,81.9652 129.8895,81.0332 C130.2695,80.5622 130.6385,80.0892 130.9745,79.6252 C131.2945,79.1742 131.6185,78.6052 131.7685,78.2342 L131.9375,77.8192 L132.2225,77.7462 L132.2265,77.7442 C132.5165,77.6682 132.6585,77.6752 132.8165,77.6622 L133.2495,77.6532 L134.0755,77.6582 L135.6915,77.6652 C136.7635,77.6662 137.8225,77.5892 138.8515,77.4362 C139.3575,77.3452 139.8725,77.2242 140.2935,77.0402 C140.7195,76.8392 141.0865,76.5322 141.3635,76.1402 C141.8915,75.3632 142.2635,74.2812 142.0595,73.2292" id="Fill-16" fill="#000"/><path d="M63.5893,25.281 C63.5893,25.281 68.5133,30.523 71.9793,33.061 C75.4443,35.6 78.6013,37.602 79.9873,41.607 C81.3743,45.611 82.0673,53.312 82.5283,57.548 C82.9913,61.783 82.0143,67.219 82.9483,69.676 C83.8823,72.134 84.3733,73.756 83.7833,74.885 C83.1943,76.016 82.1623,76.802 82.1623,76.802 L83.8333,78.621 C83.8333,78.621 83.4403,77.146 86.7333,77.589 C90.0253,78.031 92.8273,80.39 97.8893,79.898 C102.9513,79.407 105.6053,77.146 107.6693,76.95 C109.7333,76.753 115.1893,80.635 115.1893,80.635 C115.1893,80.635 113.4043,81.69 113.3603,87.031 C113.3173,92.371 114.0173,94.647 114.0173,94.647 C114.0173,94.647 113.4483,96.093 109.2023,97.844 C104.9563,99.594 104.1243,101.17 102.3733,103.578 C100.6223,105.985 100.0973,108.524 96.1573,110.582 C92.2173,112.638 81.7123,111.633 81.7123,111.633 L63.8133,112.544 L63.5893,25.281 Z" id="Fill-18" fill="#ff7475"/><path d="M81.7192,111.5525 C83.3562,111.4865 84.9802,111.4475 86.5972,111.4025 C88.2142,111.3625 89.8282,111.3165 91.4172,111.1345 C92.9912,110.9505 94.6042,110.6675 95.9032,110.0015 C97.2792,109.2645 98.4832,108.3015 99.3772,107.0535 C100.2872,105.8335 100.9792,104.2995 101.9992,102.9435 C102.9172,101.6485 103.9262,100.1725 105.3602,99.1475 C106.7362,98.1035 108.3762,97.4465 109.8062,96.8225 C110.5252,96.4945 111.2222,96.1295 111.8652,95.7115 C112.1842,95.5015 112.4902,95.2795 112.7662,95.0405 C112.9012,94.9215 113.0312,94.7985 113.1422,94.6745 C113.2442,94.5755 113.3762,94.3665 113.3652,94.3905 L113.3482,94.8535 C113.0082,93.5455 112.8932,92.3655 112.7842,91.1225 C112.6902,89.8955 112.6522,88.6695 112.6522,87.4475 C112.6502,86.2185 112.7132,84.9565 112.9622,83.7045 C113.0952,83.0775 113.2622,82.4505 113.5252,81.8355 C113.6582,81.5275 113.8082,81.2225 114.0052,80.9265 C114.1032,80.7785 114.2072,80.6315 114.3342,80.4895 C114.4742,80.3365 112.0112,79.3695 110.5612,78.6245 C109.8392,78.2585 109.0872,77.9155 108.3802,77.7395 C108.2082,77.7015 108.0342,77.6675 107.8942,77.6655 C107.7762,77.6545 107.6142,77.6875 107.4392,77.7135 C107.0932,77.7905 106.7312,77.9085 106.3572,78.0555 C104.8612,78.6545 103.2652,79.4225 101.5872,79.8855 C99.9032,80.3585 98.1812,80.6455 96.4032,80.6235 C94.6282,80.6205 92.8792,80.1755 91.2712,79.5915 C89.6612,79.0175 88.1322,78.3065 86.5912,78.1275 C85.1842,77.9485 83.9392,79.2145 83.0362,80.5245 C82.5672,81.1925 82.1482,81.9095 81.7182,82.6375 C81.4952,82.9965 81.3032,83.3805 81.0072,83.7145 C80.8662,83.8845 80.6942,84.0445 80.4972,84.1795 C80.3072,84.3065 80.0322,84.4375 79.7842,84.3565 L79.7822,84.3355 C80.5252,82.9485 81.3042,81.4455 82.2402,79.9825 C82.7202,79.2605 83.2652,78.5505 83.9852,77.9615 C84.6842,77.3725 85.6772,76.9405 86.6842,77.0375 C88.5162,77.2095 90.1012,77.9275 91.6702,78.4315 C93.2372,78.9525 94.8142,79.2935 96.4172,79.2895 C98.0112,79.2945 99.6452,79.0085 101.1952,78.5515 C102.7672,78.0985 104.2122,77.3795 105.8322,76.7065 C106.2402,76.5425 106.6832,76.4015 107.1592,76.2985 C107.4002,76.2615 107.6542,76.2105 107.9582,76.2285 C108.2402,76.2395 108.4812,76.2925 108.7192,76.3475 C109.6472,76.5875 110.4322,76.9675 111.2092,77.3635 C112.7492,78.1695 114.1772,79.0825 115.5902,80.0715 L115.5412,81.2325 C115.5682,81.2155 115.4372,81.3235 115.3812,81.4005 C115.3082,81.4835 115.2372,81.5845 115.1692,81.6875 C115.0322,81.8965 114.9162,82.1355 114.8112,82.3825 C114.6032,82.8795 114.4592,83.4255 114.3452,83.9805 C114.1352,85.1025 114.0732,86.2635 114.0702,87.4485 C114.0672,88.6415 114.1012,89.8315 114.1892,91.0135 C114.2822,92.1755 114.4202,93.4085 114.6862,94.4415 L114.7582,94.7195 L114.6682,94.9045 C114.4802,95.2945 114.3522,95.4075 114.1822,95.6095 C114.0212,95.7885 113.8542,95.9455 113.6842,96.0955 C113.3422,96.3885 112.9872,96.6435 112.6252,96.8805 C111.9002,97.3495 111.1482,97.7385 110.3852,98.0835 C109.6082,98.4385 108.8672,98.7175 108.1672,99.0655 C107.4632,99.4095 106.7892,99.7955 106.1772,100.2465 C104.9332,101.1265 104.0552,102.3885 103.0932,103.7335 C102.1382,104.9775 101.4812,106.4485 100.4412,107.8455 C99.4152,109.2415 97.9942,110.3425 96.4902,111.1165 C94.8612,111.9195 93.1762,112.0995 91.5282,112.2615 C88.2232,112.5245 84.9262,112.3955 81.7042,111.7115 L81.7192,111.5525 Z" id="Fill-20" fill="#000"/><path d="M72.0258,32.9968 C74.0918,33.8788 75.8878,35.1828 77.5648,36.7348 C79.2458,38.2708 80.4778,40.4378 81.0098,42.6398 C82.1418,47.0008 82.5568,51.3968 83.0538,55.7718 L83.2318,57.4098 C83.2908,57.9728 83.3338,58.5428 83.3558,59.1048 C83.3978,60.2308 83.3828,61.3468 83.3398,62.4508 C83.2818,64.6388 83.0708,66.8868 83.4118,68.8628 C83.4568,69.1188 83.5228,69.3008 83.6068,69.5658 L83.8848,70.3528 C84.0658,70.8828 84.2408,71.4188 84.3828,71.9798 C84.5198,72.5428 84.6428,73.1268 84.6288,73.7708 C84.6488,74.3968 84.3688,75.1658 83.9668,75.6198 C83.2378,76.5388 82.4488,77.2738 81.6798,78.0598 C80.9308,78.8508 80.0988,79.5698 79.5808,80.5478 C79.7808,79.4278 80.4748,78.4708 81.0998,77.5688 C81.7408,76.6668 82.4748,75.8098 83.0688,74.9708 C83.3538,74.5618 83.4468,74.2358 83.4458,73.7578 C83.4438,73.3008 83.3308,72.7988 83.1918,72.3008 C83.0478,71.7998 82.8668,71.2948 82.6758,70.7888 L82.3808,70.0288 C82.2898,69.7758 82.1638,69.4378 82.1078,69.1538 C81.8378,67.9698 81.8278,66.8358 81.8298,65.7188 C81.8368,64.6008 81.8798,63.5008 81.9068,62.4068 C81.9298,61.3138 81.9588,60.2288 81.9218,59.1578 C81.9018,58.6208 81.8648,58.0958 81.8128,57.5638 L81.6408,55.9218 C81.1698,51.5658 80.7608,47.1658 79.6968,42.9988 C79.1788,40.9268 78.2028,39.1098 76.7148,37.5778 C75.2768,36.0128 73.4008,34.8478 71.9308,33.1268 L72.0258,32.9968 Z" id="Fill-22" fill="#000"/><path d="M149.5009,66.4294 C149.1139,66.3194 148.7279,66.2084 148.3379,66.1074 L133.8969,64.9554 C131.8949,65.2064 129.9249,65.6474 128.0169,66.2564 L128.0169,67.8374 C131.5099,66.9734 135.1179,66.7314 138.6539,67.0994 C142.2599,67.4644 145.7779,68.4314 149.1569,69.7544 L149.5009,66.4294 Z" id="Fill-24" fill="#000"/><path d="M149.7856,61.6745 C141.6866,60.0245 134.4096,60.5145 127.9736,63.2735 L127.6326,65.4415 L130.8576,65.9345 C136.3246,64.1335 142.6146,63.7425 150.0666,65.3425 L149.7856,61.6745 Z" id="Fill-26" fill="#000"/><path d="M126.2934,67.5945 C133.3294,65.1515 141.3584,65.0275 151.0014,68.6645 L151.0014,65.2335 C151.0014,65.0405 150.8774,64.8665 150.6964,64.8025 C142.0024,61.7265 133.9854,61.3685 126.6454,63.8805 C126.4354,63.9515 126.2934,64.1535 126.2934,64.3745 L126.2934,67.5945 Z" id="Fill-28" fill="#474747"/><path d="M106.9311,91.9861 C106.4721,93.8811 105.8641,95.7151 105.1671,97.5131 C104.4611,99.3061 103.6941,101.0751 102.8631,102.8181 C102.0261,104.5591 101.1291,106.2691 100.0531,107.9231 C99.7751,108.3381 99.5031,108.7431 99.1191,109.1591 C98.7381,109.5211 98.3751,109.8471 97.9441,110.1281 C97.1171,110.6791 96.1101,111.1401 95.1011,111.0151 C96.0201,110.6751 96.7081,110.0451 97.3721,109.4211 C97.6931,109.1011 98.0231,108.7571 98.2991,108.4201 C98.5421,108.1071 98.7831,107.6951 99.0041,107.2901 C99.8861,105.6351 100.6741,103.8841 101.5131,102.1701 C103.1931,98.7301 104.8051,95.2521 106.9311,91.9861" id="Fill-30" fill="#000"/><path d="M128.9008,95.3923 C131.4418,94.5973 134.1358,94.3613 136.7998,94.5193 C139.4508,94.7093 142.1528,95.3063 144.4428,96.6913 C141.8668,96.0493 139.3228,95.6813 136.7338,95.5163 C134.1478,95.3323 131.5568,95.3763 128.9008,95.3923" id="Fill-32" fill="#000"/><path d="M74.9897,38.0993 C74.9897,38.0993 77.8517,48.1523 78.2007,59.1823 C78.5507,70.2133 77.5027,80.8253 78.2007,89.6913 C78.8997,98.5573 80.8467,107.1153 81.5107,111.8783 C82.5067,119.0283 86.5247,129.4973 85.9657,131.9923 C85.2077,135.3693 83.7607,136.4273 83.7607,136.4273 C83.7607,136.4273 85.2767,140.1283 83.2277,141.3103 C81.1797,142.4933 78.0277,139.7633 73.1147,138.4143 C68.2027,137.0663 59.7077,136.9123 55.1017,137.3223 C50.4967,137.7313 35.0427,139.7783 30.4377,139.8803 C25.8317,139.9833 20.8207,139.8803 20.8207,139.8803 C20.8207,139.8803 16.9367,78.7423 22.5597,56.3443 C28.1817,33.9473 34.2707,23.0983 34.2707,23.0983 L43.1707,18.5563 L63.5897,25.2813" id="Fill-34" fill="#ff7475"/><path d="M29.7426,137.4773 L34.2456,136.9473 C35.7446,136.7783 37.2456,136.5583 38.7096,136.2793 C40.1826,135.9963 41.6386,135.5643 43.1246,135.2113 C44.6006,134.8493 46.1216,134.4833 47.6556,134.5153 C46.1396,134.7053 44.7226,135.2633 43.2876,135.7513 C41.8586,136.2743 40.4126,136.7683 38.9216,137.1793 C37.4226,137.5983 35.9066,137.8193 34.3906,138.0583 C32.8696,138.2533 31.3526,138.4163 29.8146,138.4753 L29.7426,137.4773 Z" id="Fill-36" fill="#000"/><path d="M81.8383,142.4548 C80.5813,142.4548 79.2043,141.7758 77.6903,141.0288 C76.3173,140.3518 74.7613,139.5848 72.9313,139.0828 C67.9583,137.7178 59.3883,137.6378 55.1633,138.0118 C53.5473,138.1548 50.6093,138.4998 47.2063,138.8968 C41.0843,139.6138 33.4653,140.5058 30.4533,140.5728 C25.8853,140.6758 20.8563,140.5738 20.8063,140.5728 L20.1693,140.5598 L20.1293,139.9248 C20.0903,139.3118 16.3033,78.4208 21.8873,56.1758 C27.4673,33.9458 28.3753,36.0188 23.2313,56.5138 C18.0053,77.3288 21.0833,132.6198 21.4723,139.1988 C22.9673,139.2228 26.8393,139.2688 30.4213,139.1878 C33.3693,139.1228 40.9523,138.2348 47.0453,137.5218 C50.4583,137.1228 53.4053,136.7768 55.0403,136.6328 C59.4933,136.2348 68.1033,136.3198 73.2983,137.7468 C75.2553,138.2838 76.8743,139.0828 78.3033,139.7868 C80.5923,140.9158 81.8313,141.4688 82.8203,140.7508 C84.6093,139.4488 83.4833,136.3908 83.4713,136.3588 L84.7673,135.8708 C84.8303,136.0368 86.2683,139.9548 83.6353,141.8698 C83.0653,142.2858 82.4663,142.4548 81.8383,142.4548" id="Fill-38" fill="#000"/><path d="M77.1333,48.2966 C78.0183,51.9406 78.4573,55.6816 78.6043,59.4336 C78.7323,63.1776 78.7123,66.9236 78.6433,70.6606 C78.5303,78.1336 78.1573,85.6066 79.0993,92.9756 C80.0043,100.3616 81.3063,107.7236 82.7863,115.0256 C83.1663,116.8526 83.5483,118.6616 84.0733,120.4316 L85.7093,125.7756 C85.9793,126.6766 86.2443,127.5856 86.4513,128.5336 C86.6693,129.4806 86.7803,130.5066 86.7253,131.5036 C86.6173,133.5136 85.9363,135.5756 84.1803,137.0206 L84.1773,137.0226 L84.0233,137.1336 L83.8163,137.1506 C82.1023,137.2946 80.5183,137.1066 78.9113,136.8276 C77.3203,136.5466 75.7483,136.0876 74.2563,135.5516 C72.7933,135.0166 71.2923,134.5886 69.7773,134.1856 C68.2603,133.7906 66.7233,133.4476 65.1573,133.1836 C66.7473,133.0756 68.3463,133.1776 69.9323,133.3626 C71.5233,133.5366 73.0903,133.8786 74.6503,134.2586 C76.1713,134.6676 77.6613,135.0096 79.1843,135.2636 C80.6863,135.5166 82.2613,135.6846 83.7053,135.7026 L83.3443,135.8316 L83.3453,135.8316 C83.8843,135.4036 84.4203,134.6506 84.7343,133.9016 C85.0703,133.1356 85.2333,132.2896 85.2773,131.4326 C85.3933,129.7096 84.8453,127.9796 84.3313,126.1876 C83.7933,124.4116 83.2263,122.6206 82.7583,120.7926 C82.2823,118.9626 81.8893,117.1156 81.5223,115.2826 C80.0823,107.9316 78.8273,100.5576 77.9633,93.1056 C77.0603,85.6126 77.5433,78.0886 77.7283,70.6406 C77.8373,66.9086 77.8983,63.1806 77.8113,59.4566 C77.7473,55.7376 77.4043,52.0326 77.1333,48.2966" id="Fill-40" fill="#000"/><path d="M66.6259,26.0202 C66.2799,25.2292 64.9689,23.8372 62.6139,22.2452 C62.5769,22.6332 62.5389,23.0012 62.5009,23.3362 C61.9099,28.5592 61.0779,31.7912 61.0779,31.7912 C59.6789,33.9602 55.7559,33.2012 51.0829,30.6532 C45.9899,27.8762 41.8009,22.3472 41.8009,22.3472 C42.8009,20.3292 43.4439,18.0782 43.8499,15.8162 C42.5079,15.7762 41.5759,15.9032 41.2829,16.1692 C40.3559,17.0112 40.6509,17.2642 39.8519,19.4962 C39.0519,21.7262 37.4939,22.3162 37.4939,22.3162 C37.4939,22.3162 37.4939,26.4422 50.5439,33.0612 C59.7399,37.7262 66.0789,34.1452 66.0789,34.1452 C66.0789,34.1452 67.2159,27.3682 66.6259,26.0202" id="Fill-42" fill="#000"/><g id="Group-46" transform="translate(41.000000, 0.305000)" fill="#7b3d16"><path d="M21.5009,23.0316 C22.1929,16.9156 22.8129,1.2676 22.8129,1.2676 L2.9259,0.6946 C2.9259,0.6946 5.0509,13.4616 0.8009,22.0426 C0.8009,22.0426 4.9899,27.5716 10.0829,30.3476 C14.7559,32.8956 18.6789,33.6556 20.0779,31.4856 C20.0779,31.4856 20.9099,28.2546 21.5009,23.0316" id="Fill-44"/></g><path d="M41.4507,17.2302 C41.5287,17.3852 42.0637,18.2092 42.9877,19.3482 C43.3507,18.1952 43.6367,17.0072 43.8497,15.8162 C42.9647,15.7902 42.2627,15.8362 41.8007,15.9482 C41.7997,15.9502 41.2007,16.7312 41.4507,17.2302" id="Fill-47" fill="#000"/><path d="M66.6259,26.0202 C66.2799,25.2292 64.9689,23.8372 62.6139,22.2452 C62.5769,22.6332 62.5389,23.0012 62.5009,23.3362 C62.2409,25.6282 61.9359,27.5372 61.6739,28.9572 C64.3019,28.7082 65.8149,27.4892 66.6259,26.0202" id="Fill-49" fill="#000"/><path d="M66.6259,26.0202 C65.8149,27.4892 64.3019,28.7082 61.6739,28.9572 C59.8149,29.1322 57.4029,28.8272 54.2669,27.7622 C49.0429,25.9882 45.0459,21.8852 42.9869,19.3482 C42.0639,18.2092 41.7369,17.6862 41.6429,17.5412 C41.0499,16.6312 41.7989,15.9502 41.7999,15.9482 C41.5619,16.0052 41.3829,16.0792 41.2829,16.1692 C40.3559,17.0112 40.6509,17.2642 39.8519,19.4962 C39.0519,21.7262 37.4939,22.3162 37.4939,22.3162 C37.4939,22.3162 37.4939,26.4422 50.5439,33.0612 C59.7399,37.7262 66.0789,34.1452 66.0789,34.1452 C66.0789,34.1452 67.2159,27.3682 66.6259,26.0202" id="Fill-51" fill="#ff7475"/><path d="M26.209,125.5984 C28.296,125.4654 29.798,125.4194 29.798,125.4194 C29.798,125.4194 30.671,131.6794 31.743,135.8524 C32.814,140.0264 32.814,140.7594 32.814,143.1274 C32.814,145.4954 32.983,146.5114 32.814,148.3724 C32.645,150.2334 29.374,151.4174 29.374,151.4174 L26.209,125.5984 Z" id="Fill-53" fill="#7b3d16"/><path d="M29.7983,125.4197 C30.1953,127.7237 30.6583,130.0157 31.1523,132.2957 C31.6093,134.5857 32.3323,136.7907 32.8393,139.1077 C33.1003,140.2627 33.2003,141.4837 33.2113,142.6547 C33.2233,143.8267 33.2923,144.9667 33.3483,146.1507 C33.3733,146.7417 33.3783,147.3457 33.3483,147.9457 L33.3223,148.3957 C33.2933,148.5667 33.2683,148.7707 33.2043,148.9397 C33.0823,149.2867 32.8993,149.5977 32.6813,149.8537 C32.2563,150.3807 31.7333,150.7497 31.1973,151.0577 C30.6603,151.3707 30.1093,151.6067 29.5093,151.7927 L29.2373,151.0427 C30.2203,150.5647 31.2473,149.9697 31.8913,149.2087 C32.0553,149.0207 32.1653,148.8157 32.2393,148.6137 C32.2793,148.5097 32.2813,148.4177 32.3093,148.3047 L32.3513,147.8797 C32.4013,147.3137 32.4183,146.7477 32.4163,146.1707 C32.4063,145.0197 32.3813,143.8227 32.4153,142.6567 C32.4473,141.4897 32.4003,140.3687 32.1913,139.2317 C31.7863,136.9627 31.1403,134.6857 30.7713,132.3707 C30.3683,130.0637 30.0693,127.7417 29.7983,125.4197" id="Fill-55" fill="#000"/><path d="M8.6513,173.0837 C8.0473,170.4217 7.8803,167.7207 7.9693,165.0017 C8.0813,162.2877 8.4853,159.5627 9.3103,156.9027 C10.1283,154.2677 11.3573,151.5877 13.5213,149.5447 C14.5863,148.5307 15.8543,147.6837 17.2493,147.1587 C18.6443,146.6367 20.1093,146.4077 21.5523,146.3737 C24.3173,146.3827 27.3133,146.8257 29.7673,148.5647 C30.9803,149.4147 31.9843,150.5387 32.7353,151.7677 C33.4923,152.9987 34.0163,154.3237 34.4013,155.6567 C35.8863,161.0177 35.5003,166.4447 36.3423,171.5317 L35.0413,171.8127 C34.4133,169.1397 34.2403,166.4667 33.9603,163.8437 C33.6833,161.2267 33.3443,158.6227 32.5823,156.2067 C31.8343,153.8007 30.5553,151.6017 28.5773,150.3047 C26.6143,148.9777 24.0873,148.6317 21.5973,148.6877 C20.3893,148.7597 19.2113,148.9637 18.1213,149.3867 C17.0323,149.8127 16.0633,150.4847 15.2213,151.3067 C13.5383,152.9637 12.3863,155.2257 11.6363,157.6297 C10.1783,162.4867 9.9043,167.7457 9.5823,172.9867 L8.6513,173.0837 Z" id="Fill-57" fill="#000"/><path d="M29.374,151.4177 C29.374,151.4177 29.205,154.4067 29.374,156.7187 C29.543,159.0307 29.656,160.5537 28.697,160.6097 C27.738,160.6667 25.99,155.2527 25.99,155.2527 C25.99,155.2527 22.945,154.4067 20.971,153.8987 C18.997,153.3917 16.854,153.9557 15.67,152.7717 C14.485,151.5867 13.583,147.5827 13.696,145.3267 C13.809,143.0707 14.072,130.8897 13.686,128.4087 C13.417,126.6757 21.379,125.9057 26.209,125.5987" id="Fill-59" fill="#7b3d16"/><path d="M43.1709,18.5564 C43.1709,18.5564 33.8669,23.6794 27.0689,26.2144 C20.2729,28.7484 15.7159,32.3834 11.3119,37.7084 C6.9089,43.0344 6.1019,57.0894 3.9129,62.1584 C1.7239,67.2274 1.9549,73.7934 1.9549,80.8224 C1.9549,87.8494 1.9549,90.0374 2.6459,94.4154 C3.3369,98.7934 4.2589,106.3974 4.2589,115.1534 C4.2589,123.9094 2.1849,136.0044 7.7149,137.9634 C13.2449,139.9214 19.4659,133.0094 24.3049,132.6634 C29.1429,132.3184 33.8349,134.6854 36.6179,131.2524 C39.4009,127.8214 34.4839,119.1944 34.4839,119.1944 C34.4839,119.1944 36.3509,117.6124 36.2489,113.0054 C36.1469,108.3994 30.8229,101.3354 30.1069,93.9644 C29.3899,86.5934 26.8309,79.7354 29.2879,71.4424 C31.7449,63.1504 32.4609,60.3864 33.8949,58.6464 C35.3279,56.9064 37.7849,54.8584 37.7849,54.8584 C37.7849,54.8584 43.1079,47.0774 42.6979,35.7144 C42.2889,24.3514 43.1709,18.5564 43.1709,18.5564" id="Fill-61" fill="#ff7475"/><path d="M37.7846,54.8581 C36.9766,56.0791 36.0826,57.1881 35.2126,58.3021 L33.9186,59.9571 C33.4746,60.5251 33.2056,61.0031 32.9166,61.6481 C31.8486,64.1821 31.1316,66.9681 30.4436,69.7091 L29.9506,71.7981 C29.7776,72.4801 29.5786,73.1641 29.4676,73.8431 C29.1876,75.2001 29.0586,76.5851 29.0196,77.9731 C28.9336,80.7551 29.3096,83.5451 29.7636,86.3471 L30.4366,90.5851 C30.5476,91.2951 30.6376,92.0121 30.7256,92.7301 C30.8006,93.4611 30.8816,94.1701 30.9746,94.8361 C31.3706,97.5611 32.3516,100.2121 33.4446,102.8201 C34.5186,105.4461 35.8086,108.0091 36.5556,110.9001 C36.6436,111.2631 36.7006,111.6411 36.7716,112.0101 C36.7996,112.3921 36.8476,112.7891 36.8466,113.1601 C36.8486,113.9001 36.7956,114.6441 36.6896,115.3841 C36.4196,116.8611 36.0176,118.3371 34.8176,119.5671 L34.8076,119.5761 L34.9186,118.9471 C35.8566,120.5551 36.6276,122.2191 37.2436,123.9801 C37.8326,125.7351 38.3186,127.6071 38.0006,129.6301 C37.8406,130.6221 37.2656,131.6761 36.5116,132.3321 C35.7496,133.0371 34.7536,133.4891 33.7696,133.6571 C31.7876,133.9891 29.9396,133.6361 28.1596,133.4531 C27.2666,133.3551 26.3826,133.2611 25.5096,133.2551 C24.6146,133.2481 23.8046,133.2831 22.9936,133.5351 C21.3466,133.9741 19.7536,134.8651 18.1536,135.6981 C16.5586,136.5571 14.8996,137.3701 13.1436,137.9551 C11.3956,138.5161 9.4066,138.6801 7.7146,137.9631 C9.4976,138.4291 11.3006,138.0431 12.9376,137.3861 C14.5896,136.7121 16.1046,135.7401 17.6796,134.8431 C19.2546,133.9461 20.8156,132.9641 22.6606,132.3821 C23.1136,132.2181 23.6046,132.1431 24.0986,132.0751 C24.5826,132.0271 25.0496,132.0051 25.5196,132.0121 C26.4616,132.0081 27.3856,132.0951 28.2956,132.1841 C30.1056,132.3621 31.9036,132.6431 33.5166,132.3421 C35.0916,132.0721 36.4746,130.9231 36.7206,129.3881 C37.0126,127.8031 36.5876,126.0311 36.0926,124.3581 C35.5716,122.6731 34.8456,121.0171 34.0506,119.4421 L33.9056,119.1561 L34.1606,118.8121 L34.1616,118.8121 C34.5316,118.4251 34.8776,117.7881 35.0946,117.1801 C35.3206,116.5551 35.4626,115.8931 35.5536,115.2211 C35.6336,114.5461 35.6686,113.8621 35.6506,113.1731 C35.6436,112.8321 35.5926,112.5181 35.5646,112.1891 C35.4906,111.8591 35.4356,111.5311 35.3486,111.2021 C34.6176,108.5611 33.2536,106.0171 32.1396,103.3761 C31.0106,100.7351 29.9566,97.9911 29.5036,95.0561 C29.3936,94.3081 29.3076,93.6001 29.2306,92.9111 C29.1396,92.2121 29.0466,91.5141 28.9316,90.8141 L28.2266,86.5951 C27.7656,83.7671 27.4066,80.8611 27.5126,77.9271 C27.5636,76.4631 27.7126,74.9951 28.0176,73.5561 C28.1436,72.8261 28.3506,72.1371 28.5336,71.4361 L29.0396,69.3611 C29.7626,66.5751 30.4836,63.8071 31.6516,61.0801 C31.8086,60.7381 31.9706,60.3991 32.1806,60.0541 C32.3966,59.6891 32.6286,59.4051 32.8626,59.1231 C33.3266,58.5491 33.8306,58.0251 34.3516,57.5211 C35.4076,56.5271 36.5196,55.6021 37.7846,54.8581" id="Fill-63" fill="#000"/><g id="Group-67" transform="translate(0.000000, 165.305000)" fill="#000"><path d="M41.5727,30.0004 C42.9817,30.0004 44.1777,28.9114 44.2487,27.5054 C44.2727,27.0204 44.2227,26.5274 44.2857,26.0394 C46.2607,10.5414 34.3977,0.7124 22.1997,0.7124 C10.0017,0.7124 -1.2573,10.9044 0.1137,26.0394 C0.1577,26.5294 0.1257,27.0204 0.1507,27.5054 C0.2217,28.9114 1.4177,30.0004 2.8257,30.0004 L41.5727,30.0004 Z" id="Fill-65"/></g><path d="M19.2807,168.654 C22.2407,168.572 25.2057,168.879 28.1227,169.516 C31.0167,170.193 33.9727,171.099 36.4547,173.203 C38.8197,175.489 39.9127,178.388 40.8167,181.217 C41.6757,184.076 42.2137,187.006 42.3717,189.963 C41.4957,187.141 40.5937,184.359 39.5227,181.672 C38.9677,180.34 38.4057,179.014 37.7067,177.785 C37.0267,176.556 36.2527,175.369 35.2767,174.508 C34.3067,173.619 33.0647,172.935 31.7837,172.353 C30.5047,171.748 29.1397,171.291 27.7687,170.839 C25.0087,169.975 22.1637,169.297 19.2807,168.654" id="Fill-68" fill="#ff7475"/><path d="M11.1674,56.364 C11.9944,55.607 13.3474,55.46 14.4484,55.9 C15.5654,56.326 16.4594,57.141 17.1664,58.023 C18.5214,59.789 19.6804,61.617 20.8974,63.415 C22.1204,65.205 23.2844,67.028 24.5674,68.747 C25.2084,69.607 25.8694,70.443 26.5674,71.226 C27.2554,71.99 28.0794,72.74 28.8554,72.971 L28.7044,73.96 C28.0304,73.816 27.4764,73.518 27.0094,73.167 C26.7844,72.985 26.5524,72.807 26.3354,72.619 L25.7264,72.03 C24.9384,71.229 24.2274,70.379 23.5714,69.497 C22.2504,67.739 21.0144,65.938 19.8554,64.096 C18.6824,62.271 17.5444,60.406 16.3004,58.691 C15.6984,57.851 14.9854,57.108 14.1274,56.607 C13.2784,56.13 12.1964,55.938 11.1674,56.364" id="Fill-70" fill="#000"/><path d="M25.0727,126.5495 C25.4407,125.5215 26.1757,124.8125 26.8757,124.0845 C27.5777,123.3555 28.3127,122.6535 29.0827,121.9875 C29.8547,121.3245 30.6607,120.6955 31.5197,120.1245 C32.3847,119.5645 33.2967,119.0455 34.3217,118.7215 L34.6467,119.6665 C32.9107,120.3925 31.2887,121.5605 29.7567,122.7965 C28.9817,123.4095 28.2297,124.0605 27.4847,124.7195 C26.7397,125.3825 26.0587,126.0975 25.0727,126.5495" id="Fill-72" fill="#000"/><path d="M6.2314,99.0447 C7.3024,101.3467 8.2094,103.7167 9.0364,106.1147 C9.8744,108.5117 10.5724,110.9527 11.2064,113.4097 C11.8174,115.8727 12.3614,118.3537 12.7674,120.8577 C12.9694,122.1107 13.1554,123.3647 13.3254,124.6207 C13.4594,125.8837 13.6084,127.1417 13.6864,128.4077 L12.0134,121.0087 C11.4324,118.5527 10.8654,116.0957 10.2374,113.6547 C9.6324,111.2077 8.9634,108.7777 8.3044,106.3417 L6.2314,99.0447 Z" id="Fill-74" fill="#000"/><path d="M27.5122,126.5495 C27.8002,125.7475 28.3812,125.1305 29.0042,124.6165 C29.6312,124.0995 30.2942,123.6285 30.9872,123.1995 C31.6792,122.7675 32.4192,122.4175 33.1922,122.1155 C33.9702,121.8315 34.7932,121.5955 35.7412,121.6785 L35.6432,122.6735 C35.0012,122.6635 34.2632,122.8665 33.5592,123.1165 C32.8452,123.3635 32.1582,123.7095 31.4722,124.0565 C30.7872,124.4085 30.1222,124.8075 29.4902,125.2505 C28.8582,125.7005 28.2482,126.1425 27.5122,126.5495" id="Fill-76" fill="#000"/><path d="M38.4697,23.6286 C40.0397,25.5346 41.7637,27.2706 43.6617,28.7566 C45.5667,30.2326 47.6527,31.4526 49.8857,32.3326 C54.3467,34.1486 59.2277,34.6916 64.1507,34.8846 C59.2887,35.6546 54.1237,35.3376 49.4287,33.4586 C47.0947,32.5136 44.9117,31.1716 43.0537,29.4816 C41.1817,27.8086 39.6487,25.7966 38.4697,23.6286" id="Fill-78" fill="#000"/><path d="M8.4751,56.3396 C7.6311,57.7616 6.8761,59.2206 6.1001,60.6656 C5.3331,62.1146 4.5781,63.5686 3.8851,65.0356 C3.5571,65.7706 3.2141,66.5206 3.0091,67.2356 C2.8301,67.9766 2.7011,68.8006 2.5981,69.6016 L1.9661,74.4956 C1.7661,72.8476 1.6961,71.1896 1.7761,69.5256 C1.8341,68.6896 1.8761,67.8686 2.0751,67.0066 C2.2961,66.1316 2.6431,65.3766 3.0061,64.6186 C3.7341,63.1156 4.5741,61.6856 5.4771,60.2986 C6.3851,58.9156 7.3501,57.5596 8.4751,56.3396" id="Fill-80" fill="#000"/><path d="M15.6699,152.7712 C16.3669,153.3712 17.2969,153.4122 18.1669,153.4172 C19.0509,153.4172 19.9599,153.3552 20.8969,153.5102 L26.1829,154.5522 L26.1849,154.5522 L26.5509,154.6252 L26.6809,155.0292 C27.0719,156.2422 27.5109,157.4742 28.0289,158.6162 C28.1599,158.9002 28.2969,159.1772 28.4439,159.4322 C28.5739,159.6712 28.7919,159.9472 28.8329,159.9732 C28.8459,159.9862 28.7669,159.9322 28.6589,159.9492 C28.6679,159.9412 28.6909,159.9512 28.6779,159.9482 C28.6689,159.9542 28.6679,159.9842 28.7039,159.9172 C28.7759,159.8062 28.8339,159.5112 28.8509,159.2262 C28.9249,158.0312 28.7509,156.6852 28.7639,155.3542 C28.7619,154.0252 28.8149,152.7132 28.9079,151.3912 L28.9119,151.4842 C28.7979,150.4492 28.7609,149.4372 28.7829,148.4102 C28.8109,147.3862 28.9099,146.3542 29.1579,145.3432 C29.4099,144.4022 29.5269,143.4142 29.6209,142.4222 C29.7089,141.4292 29.7539,140.4272 29.7789,139.4182 C29.9599,140.4142 30.0399,141.4232 30.0629,142.4382 C30.0819,143.4542 30.0119,144.4742 29.8279,145.4962 C29.4569,147.3982 29.5669,149.4242 29.8359,151.3512 L29.8409,151.3912 L29.8399,151.4442 C29.8019,152.7352 29.8019,154.0412 29.8579,155.3282 C29.8929,156.6142 30.1259,157.8702 30.1039,159.2932 C30.0819,159.6562 30.0769,160.0322 29.8539,160.5102 C29.7539,160.7392 29.5119,161.0242 29.2009,161.1542 C29.0429,161.2312 28.8989,161.2472 28.7469,161.2692 C28.4749,161.2852 28.2349,161.1802 28.1149,161.0972 C27.6189,160.7432 27.4879,160.4382 27.2749,160.1262 C27.0889,159.8182 26.9319,159.5122 26.7829,159.2052 C26.1979,157.9742 25.7359,156.7442 25.2989,155.4762 L25.7959,155.9522 L25.7939,155.9522 L20.7339,154.2182 C19.9269,153.9652 19.0359,153.8982 18.1419,153.7792 C17.2669,153.6602 16.2769,153.4662 15.6699,152.7712" id="Fill-82" fill="#000"/><path d="M24.4155,147.4685 C24.8315,147.1895 25.1305,147.1885 25.4085,147.2335 C25.6835,147.3085 25.9175,147.4335 26.2085,147.8395 C25.8875,148.2275 25.5125,148.2675 25.1895,148.2085 C24.8695,148.1185 24.5825,147.9385 24.4155,147.4685" id="Fill-84" fill="#000"/><path d="M16.665,146.5183 C17.473,145.9863 18.384,145.8253 19.29,145.8043 C20.188,145.8203 21.152,145.9983 21.896,146.6303 C20.95,146.7693 20.146,146.7963 19.289,146.8043 C18.438,146.7913 17.591,146.7673 16.665,146.5183" id="Fill-86" fill="#000"/><path d="M66.0791,34.1452 C66.0161,32.4862 66.2311,30.8592 66.3731,29.2532 C66.4361,28.4522 66.5241,27.6462 66.5061,26.8592 C66.4971,26.6652 66.4841,26.4692 66.4491,26.2952 C66.4191,26.1352 66.3461,25.9822 66.2481,25.8042 C66.0631,25.4592 65.8551,25.1062 65.6651,24.7272 C66.0251,24.9552 66.3411,25.2302 66.6131,25.5622 C66.7401,25.7252 66.8811,25.9272 66.9451,26.1672 C67.0081,26.3902 67.0381,26.6032 67.0661,26.8162 C67.1551,27.6612 67.1451,28.4922 67.0671,29.3162 C66.8981,30.9662 66.5681,32.5652 66.0791,34.1452" id="Fill-88" fill="#000"/><path d="M66.8706,26.156 C66.4946,27.457 65.4046,28.556 64.1316,29.131 C62.8506,29.722 61.4496,29.82 60.1356,29.758 C57.4786,29.586 55.0206,28.852 52.6476,27.806 C50.2886,26.728 48.2156,25.17 46.3696,23.433 C44.5266,21.687 42.9446,19.687 41.6416,17.541 C42.4686,18.494 43.2296,19.476 44.1246,20.35 C45.0026,21.235 45.9306,22.063 46.8796,22.855 C48.7856,24.432 50.9016,25.738 53.1476,26.647 C54.2626,27.097 55.4486,27.443 56.6336,27.724 C57.8166,28.004 59.0146,28.198 60.1946,28.229 C62.5686,28.264 64.7776,27.735 66.3816,25.885 L66.8706,26.156 Z" id="Fill-90" fill="#000"/></g></g></g><g id="Head" transform="translate(112.000000, 0.000000) scale(1 1)"><g id="Head/Beanie" stroke="none" stroke-width="1" fill="none" fill-rule="evenodd"><g id="Group-23" transform="translate(24.000000, 12.000000)"><path d="M6.9505,39.3378 C7.1955,40.1158 7.8935,41.2858 10.3655,42.0598 C12.8365,42.8328 14.8935,42.4748 14.8935,42.4748 L12.4965,36.5508 L6.9505,39.3378 Z" id="Fill-1" fill="#000"/><path d="M43.7522,21.5751 C43.7522,21.5751 46.1162,19.5321 46.7132,18.3851 C47.3102,17.2371 47.2922,16.2291 47.0372,15.6681 C47.0372,15.6681 43.1322,16.3191 41.4572,17.3751 L43.7522,21.5751 Z" id="Fill-3" fill="#000"/><path d="M9.8079,29.956 C9.7349,29.319 9.6979,28.672 9.6979,28.016 C9.6979,18.324 17.8539,10.468 27.9149,10.468 C36.9349,10.468 45.0289,17.025 46.4819,25.315 C46.4819,25.315 50.5359,47.565 38.8979,54.216 C34.6039,56.67 22.1889,46.57 22.1889,46.57" id="Fill-5" fill="#7b3d16"/><g id="Group-9" transform="translate(22.000000, 24.987100)" fill="#000"><path d="M24.4812,0.3283 C25.2652,4.4703 25.5592,8.7233 25.2662,12.9533 C24.9742,17.1593 24.0682,21.4743 21.7152,25.1243 C20.5462,26.9363 18.9542,28.4943 17.0682,29.5953 C15.9532,30.1683 14.7562,30.0283 13.7022,29.8093 C12.6342,29.5613 11.6292,29.1683 10.6572,28.7243 C8.7082,27.8413 6.9202,26.6823 5.1752,25.4903 C3.4342,24.2893 1.7722,22.9773 0.1892,21.5833 C3.6262,24.0133 7.1532,26.3623 10.9492,28.0753 C11.8982,28.4903 12.8732,28.8523 13.8632,29.0663 C14.8422,29.2633 15.8902,29.3183 16.6742,28.8873 C18.4372,27.8763 19.9592,26.4283 21.0882,24.7103 C22.2182,22.9893 23.0432,21.0633 23.5952,19.0583 C24.1622,17.0573 24.5392,14.9943 24.7342,12.9093 C25.1242,8.7373 25.0122,4.5083 24.4812,0.3283" id="Fill-7"/></g><path d="M19.4514,42.1103 C18.9544,42.9613 17.7624,43.2803 16.8224,43.3103 C14.3184,43.3913 10.5054,40.2363 9.3424,36.0013 C8.1794,31.7663 9.9334,28.7733 12.4384,28.6923 C14.2894,28.6323 16.4894,30.0643 17.9814,32.5243" id="Fill-10" fill="#7b3d16"/><path d="M19.451,42.1103 C19.153,42.6773 18.556,43.0403 17.949,43.2303 C17.338,43.4233 16.678,43.5023 16.026,43.3943 C14.722,43.1853 13.588,42.4633 12.601,41.6463 C10.629,39.9893 9.204,37.6373 8.751,35.0603 C8.515,33.7793 8.509,32.4203 8.941,31.1293 C9.372,29.8703 10.412,28.6453 11.847,28.4003 C13.268,28.1473 14.58,28.7823 15.596,29.5523 C16.631,30.3443 17.414,31.3993 17.982,32.5243 C17.236,31.5043 16.343,30.6113 15.322,29.9393 C14.314,29.2733 13.084,28.8803 11.992,29.1133 C10.897,29.3603 10.072,30.2983 9.705,31.3983 C9.316,32.5023 9.289,33.7383 9.492,34.9303 C9.683,36.1323 10.106,37.2913 10.709,38.3543 C11.309,39.4153 12.043,40.4203 12.954,41.2463 C13.851,42.0763 14.909,42.7773 16.087,43.0763 C16.67,43.2213 17.3,43.2003 17.901,43.0583 C18.492,42.9133 19.095,42.6433 19.451,42.1103" id="Fill-12" fill="#000"/><path d="M6.9505,39.3378 C6.9505,39.3378 10.5175,38.7418 15.0325,36.0008 C19.5485,33.2608 31.8205,23.5938 36.0465,20.8148 C40.2725,18.0358 47.1655037,16.2998 47.1655037,16.2998 C47.1655037,16.2998 47.1765,15.2278 46.0015,14.1338 C44.8265,13.0408 43.0515,11.2928 41.8215,9.5708 C40.5925,7.8508 39.2805,4.8718 37.9965,4.8168 C36.7125,4.7628 33.8835,4.9588 30.7395,8.1038 C27.5945,11.2478 23.8785,17.7278 19.7335,21.3478 C15.5885,24.9688 9.6805,26.7318 7.9175,27.6848 C6.1555,28.6378 4.4875,28.5898 4.5825,30.3528 C4.6785,32.1148 5.5895,34.6788 6.1815,36.0008 C6.7745,37.3238 6.9505,39.3378 6.9505,39.3378" id="Fill-14" fill="#030067"/><g id="Group-18" transform="translate(0.000000, 0.987100)" fill="#030067"><path d="M5.9095,28.9142 C5.9095,28.9142 3.7575,26.5922 2.2565,24.3282 C0.7565,22.0642 -0.5485,21.6732 0.2345,19.6512 C1.0175,17.6292 1.6695,16.9112 1.8655,14.4332 C2.0605,11.9542 1.9305,10.1922 3.4305,8.5612 C4.9315,6.9312 9.1715,6.2142 12.8895,4.6482 C16.6075,3.0822 20.9125,-0.1138 24.0435,0.0172 C27.1755,0.1472 27.2765,1.6372 29.9645,2.4542 C32.6515,3.2722 34.6085,3.1262 36.7115,4.9372 C36.7115,4.9372 31.3075,11.2782 27.0825,17.2252 C22.8575,23.1712 19.8085,24.9442 14.2135,26.9262 C8.6175,28.9082 5.9095,28.9142 5.9095,28.9142" id="Fill-16"/></g><path d="M17.0237,23.3427 C15.2067,24.5837 13.2357,25.5997 11.2367,26.5297 C10.2447,26.9977 9.2127,27.4287 8.2757,27.9237 C7.3567,28.5177 6.1057,28.8417 5.4447,29.3737 L4.8177,28.5957 C5.3837,28.1907 5.9367,28.0477 6.4487,27.8607 C6.9757,27.6817 7.4307,27.5017 7.9407,27.2527 C8.9857,26.7987 10.0157,26.4627 11.0437,26.0687 C13.0947,25.2967 15.1177,24.4427 17.0237,23.3427" id="Fill-19" fill="#000"/><path d="M37.9749,5.3163 C36.3789,5.2893 34.8249,5.8263 33.4499,6.6643 C32.0689,7.5143 30.9009,8.6753 29.8039,9.9413 C28.7029,11.2083 27.6979,12.5803 26.6299,13.9063 C25.5589,15.2303 24.4369,16.5333 23.1709,17.6973 C24.0579,16.2243 24.9749,14.7983 25.9309,13.3873 C26.8949,11.9833 27.9009,10.6043 28.9789,9.2523 C30.0469,7.8993 31.3249,6.6243 32.8539,5.6893 C34.3669,4.7473 36.1949,4.1843 38.0169,4.3183 L37.9749,5.3163 Z" id="Fill-21" fill="#000"/></g></g></g><g id="Expressions" transform="translate(158.000000, 29.000000) scale(1 1)" fill="#000"><g id="Expressions/Confident" stroke="none" stroke-width="1" fill="none" fill-rule="evenodd"><g id="Group" transform="translate(19.000000, 7.000000)" fill="#000"><g id="Group-18"><path d="M0.017585448,4.63233625 C0.380950805,3.52891014 0.923821996,2.47790812 1.63916615,1.70112436 C2.35015661,0.916779447 3.17635231,0.413205815 4.00288291,0.0492617078 L4.00824129,0.0472453969 C4.4184925,-0.133718501 4.84850275,0.221152207 4.96873147,0.838647402 C5.08862529,1.45664667 4.85319133,2.10337838 4.44294012,2.28434227 C4.38064892,2.31156247 4.31400403,2.3266848 4.25238262,2.33071742 C3.51225595,2.36902733 2.77882726,2.51722618 2.10132669,2.92502504 C1.42315633,3.32475867 0.809621456,4.01685736 0.296221371,4.91209938 C0.235269763,5.0179557 0.128771898,5.03005356 0.0584431194,4.93831142 C-0.00116889303,4.86068345 -0.0159044467,4.73365587 0.017585448,4.63233625" id="Fill-9-Copy" transform="translate(2.500000, 2.500000) scale(-1, 1) translate(-2.500000, -2.500000)"/></g></g><g id="Group-12-Copy" transform="translate(7.000000, 4.000000)" fill="#000"><path d="M11.5379491,8.25091701 C11.6180931,9.32773995 12.0257588,10.3861031 12.5295974,11.3788312 C13.0467932,12.36797 13.6660391,13.3217275 14.3990894,14.1606238 C14.5850235,14.3667585 14.7757662,14.568791 14.9771947,14.7513381 C15.0744361,14.8492777 15.181829,14.9261937 15.2844133,15.0123395 C15.3736403,15.0866915 15.5472856,15.2225763 15.6642958,15.3584611 C15.7893205,15.5061397 15.9100707,15.681508 15.9693773,15.9096919 C16.0292181,16.1378758 15.9982291,16.3983644 15.9036592,16.5983458 C15.7091765,17.0039491 15.3992864,17.2157243 15.1113023,17.3905799 C14.5209083,17.7274716 13.8941823,17.866433 13.2695935,17.95463 C12.6439361,18.0310331 12.0033185,18.0166755 11.3840726,17.8674586 C11.2403477,17.8331028 11.1532579,17.6936286 11.1895899,17.5556927 C11.2216475,17.4316017 11.3434663,17.3516091 11.4716967,17.3623773 L11.4781082,17.3628901 C12.0327046,17.4080141 12.5985212,17.3551985 13.1451032,17.2444396 C13.6890137,17.1367573 14.2249098,16.9439547 14.653413,16.6850044 C14.8639246,16.5588623 15.0391727,16.3916984 15.085122,16.2676074 C15.1294683,16.1568484 15.1080966,16.0876241 14.9734547,15.9271262 C14.8965164,15.8455953 14.8345384,15.8050863 14.7004308,15.6907379 C14.5807491,15.5876706 14.4519845,15.4892182 14.3451258,15.3784593 C14.1175169,15.1656586 13.911814,14.9400385 13.7125226,14.7113418 C12.9329888,13.7873252 12.290234,12.7807522 11.8093701,11.6982887 C11.3236975,10.625568 10.9593095,9.46311197 11.0036558,8.2473276 C11.0084645,8.1058023 11.1324205,7.99504337 11.2798854,8.0001711 C11.4171988,8.00478606 11.5267289,8.10785339 11.5368805,8.23655937 L11.5379491,8.25091701 Z" id="Fill-1"/><path d="M2.00075166,11.7502749 C2.063031,11.0408329 2.4044141,10.3320317 2.92398533,9.85778861 C3.43605998,9.3732916 4.0876865,9.09579531 4.74796292,9.02081363 C5.40939267,8.94390934 6.09677215,9.07977358 6.68900262,9.43417416 C7.28526972,9.78152519 7.75524814,10.3781743 7.98418241,11.0459598 C8.03146858,11.1850284 7.96918923,11.3394779 7.84463053,11.39267 C7.74429158,11.4349673 7.63530272,11.3990787 7.57129339,11.3112796 L7.56610345,11.3042301 C6.87353402,10.3544621 5.85976463,9.92379812 4.82984873,10.012238 C3.80742943,10.0961919 2.81845644,10.7159123 2.39403421,11.8573 C2.35193798,11.9739382 2.23314589,12.0303347 2.12819366,11.9835512 C2.04227122,11.9450991 1.99325507,11.8470461 2.00075166,11.7502749" id="Fill-3" transform="translate(5.000000, 10.500000) scale(1, -1) translate(-5.000000, -10.500000)"/><path d="M6.53374389,20.2298502 C6.6133413,20.5089219 6.77522521,20.8224608 6.9709918,21.0648418 C7.16837186,21.3144498 7.40770189,21.521808 7.67499859,21.6774655 C7.9482113,21.8236725 8.23863427,21.9354123 8.54895659,21.9904484 C8.7000841,22.0265832 8.86304365,22.027695 9.01739808,22.0499318 L9.49767162,22.0510437 L9.54284852,22.0515996 C9.79616189,22.0521555 10.0010714,22.2650728 10,22.5269111 C9.99945796,22.7893053 9.79347279,23.0005548 9.54015942,23 C9.52617609,23 9.51219276,22.999443 9.49874726,22.9977752 L8.92650645,22.9427392 C8.73611806,22.9004892 8.54572967,22.8782525 8.3585682,22.8159894 C7.98209398,22.7120324 7.62014092,22.5363617 7.2888436,22.3139938 C6.96238668,22.0816193 6.67949319,21.7858699 6.46060033,21.4512061 C6.24116964,21.1098713 6.08573957,20.75853 6.00506653,20.3304717 C5.97656205,20.1803733 6.07121842,20.0347223 6.21642991,20.0052585 C6.35303627,19.9774626 6.48587788,20.0625183 6.52460094,20.1976068 L6.53374389,20.2298502 Z" id="Fill-5"/><path d="M0.0556765477,3.58091006 C0.874090172,2.55772659 1.97844198,1.63665308 3.31413354,1.04222724 C4.6441964,0.438423959 6.1104739,0.151890909 7.54973363,0.0081034153 L7.55873955,0.00706147694 C8.27302215,-0.0643113009 8.91525732,0.413417438 8.99237057,1.0750483 C9.06948382,1.73615819 8.55333163,2.33058403 7.83848616,2.4019568 C7.73041504,2.41289716 7.61727808,2.41029231 7.51370992,2.39726808 C6.28214939,2.23368376 5.03933145,2.18419169 3.8387288,2.4139391 C2.63812614,2.63483003 1.48705608,3.17090732 0.462069008,3.94142074 C0.340488992,4.03259034 0.161496191,4.01539836 0.0629938635,3.90338999 C-0.0203109621,3.80805262 -0.0191852212,3.67468451 0.0556765477,3.58091006" id="Fill-7"/><g id="Group-11" transform="translate(14.500000, 11.000000) scale(1, -1) translate(-14.500000, -11.000000) translate(12.000000, 10.000000)"><path d="M0.202625,1.7113 C0.335125,1.3438 0.55075,1.0143 0.86825,0.7128 C1.185125,0.4203 1.63825,0.1413 2.2345,0.0838 C2.37825,0.0593 2.528875,0.0773 2.6745,0.0828 C2.802625,0.1043 2.932625,0.1158 3.058875,0.1508 C3.31325,0.2088 3.555125,0.3103 3.766375,0.4368 C4.195125,0.6963 4.47075,1.0508 4.57075,1.4643 C4.59825,1.5768 4.507,1.6858 4.366375,1.7073 C4.267,1.7228 4.17075,1.6908 4.112625,1.6318 L4.081375,1.5998 C3.857625,1.3708 3.5595,1.1638 3.267,1.0398 C3.117,0.9753 2.962625,0.9258 2.796375,0.8968 C2.717625,0.8743 2.628875,0.8713 2.546375,0.8568 C2.47575,0.8638 2.407625,0.8433 2.337625,0.8558 C1.77075,0.8803 1.1295,1.3758 0.597,1.8653 L0.583875,1.8773 C0.50325,1.9513 0.362625,1.9593 0.270125,1.8948 C0.202625,1.8478 0.1795,1.7758 0.202625,1.7113" id="Fill-9"/></g></g></g></g></g></g></g></svg>