<svg viewBox="35.349397590361434 9.824999999999989 255.30120481927702 373.3499999999999" xmlns="http://www.w3.org/2000/svg" overflow="visible" xmlns:xlink="http://www.w3.org/1999/xlink" width="255.30120481927702px" height="373.3499999999999px"><g id="Master/Comp/Squiggle" stroke="none" stroke-width="1" fill="none" fill-rule="evenodd"><path d="M281,312 C268.396019,313.423812 258.665344,325.60301 253,336 C263.616413,329.699668 272.999463,321.387894 281,312 M265,271 C241.881595,277.085279 218.461925,298.640012 206,319 C228.22341,306.370805 246.568192,288.458706 265,271 M120.581177,44 C93.8471792,47.1393691 66.9322134,85.8195428 65,108 C82.0175766,99.5285268 97.1599505,88.4119573 110.077488,74.6163409 C115.291483,69.6466878 130.821341,49.1473665 120.581177,44 M173,57.3411208 C150.25319,51.4354123 94.0287943,123.899815 84,144 C119.665901,124.603965 155.216903,94.5145215 173,57.3411208 M153,300.730771 C153.655665,301.153769 154.31133,301.576767 154.966994,302 C155.112068,301.222108 155.005744,299.991527 155.447343,299.747626 C163.828984,296.103012 171.308761,290.614647 179.520283,286.505324 C193.727299,276.958067 207.146573,266.21369 220.086206,255.020866 C234.526663,241.200036 253.973799,230.205395 263,212 C221.384777,218.952244 170.770997,263.319161 153,300.730771 M261,136 C211.702046,148.58761 153.560756,202.433887 124,243 C148.523575,229.094129 170.72567,213.097606 193.603135,196.820471 C207.710751,188.307164 219.700281,177.427317 232.403584,166.90603 C241.550113,156.65756 255.290294,148.332508 261,136 M242,70.1174386 C229.485392,68.7350564 218.522851,79.9014308 207.904741,85.4920476 C167.719181,113.015393 133.631976,149.504056 107,190 C139.818452,171.36862 168.512981,146.064257 196.174458,120.527099 C204.062001,114.335979 210.667051,106.760119 218.24238,100.20601 C227.300606,90.9312416 237.681122,82.8716303 242,70.1174386 M186.460437,343.847483 C186.538969,342.436405 187.37774,339.387633 187.201517,337.184703 C179.823596,339.220928 172.531065,342.526388 165.163552,344.909522 C156.299686,347.978421 144.723888,347.622514 137.641405,340.728383 C131.805015,333.287011 135.346966,324.005721 136.550719,315.678963 C124.27287,317.075123 110.791032,322.558887 98.0405757,317.262667 C79.0218077,307.494283 93.2778413,277.904503 99.4732989,263.490146 C90.377387,262.521406 75.4072389,267.861197 71.3619306,256.670606 C67.4644598,238.564572 78.7199826,222.034427 86.9101826,206.882919 C49.1794392,213.165875 57.5820522,182.301885 68.5080746,159.319 C74.3470663,149.65907 63.7011073,153.602228 58.6954463,149.873846 C46.0670449,141.89376 56.270674,124.484148 53.8373863,113.889577 C45.9896963,113.152662 38.7267334,108.849809 39.0481914,100.143938 C38.0407672,74.8049143 52.9404263,50.1554461 73.2119105,35.7391953 C77.9559582,33.0463306 86.2353338,23.8353694 90.9084194,30.1962322 C69.3974653,31.3823524 36.9037191,83.6912257 46.7714613,104.881315 C55.3313734,119.001331 57.4072491,103.51357 60.2450203,96.0430731 C66.8799693,73.1596431 102.459854,24.8083716 128.922065,43.8057128 C138.924398,62.1755398 101.647339,94.0913856 86.1239234,102.858825 C79.01755,107.874676 70.9541355,111.423565 62.6579656,113.785149 C60.193218,117.027622 60.547082,122.487232 60.0054052,126.487694 C59.4008088,135.136734 58.6164419,151.616204 71.9334114,149.157296 C79.4991456,141.088884 83.8510098,129.553989 90.7681512,120.709591 C106.778602,99.5287369 125.22589,80.1435209 146.075951,63.7166199 C151.058904,60.3356208 156.268699,57.2255183 161.314808,53.9356864 C168.904197,49.3186026 184.59319,54.5009227 178.896832,65.3185571 C170.499896,84.0073508 156.073317,98.9417152 141.46129,112.94949 C128.631594,124.273398 115.046388,135.00839 100.085465,143.378008 C92.9906817,148.340817 81.2225766,148.334423 77.5143379,156.902005 C73.4638257,167.750186 56.0935055,203.784183 77.8107226,203.902345 C93.2664874,200.455279 94.6497737,195.559248 102.525375,182.88867 C112.461241,167.890844 123.312044,153.53403 135.11492,139.958885 C154.405473,117.214455 209.740001,66.7980699 238.504693,63.558439 C273.684116,71.7102037 211.668276,119.383997 201.187422,130.008641 C168.974685,157.580668 135.758073,184.327691 97.930348,203.690885 C86.2596974,220.827705 59.1777515,278.75508 104.348153,254.513378 C141.070526,205.392987 197.875861,143.31502 260.167743,130.583823 C299.132043,137.992516 193.445702,208.959873 182.397388,216.227908 C166.141882,228.290388 148.739155,238.727725 131.190011,248.788791 C124.215627,253.464364 114.292534,254.816716 110.629711,263.168101 C91.1766559,298.082281 86.7517007,330.927321 137.847195,307.396486 C143.45485,301.957714 145.24333,293.365742 149.944564,287.095573 C162.278946,268.003986 177.0258,249.951468 194.979428,235.900833 C209.864185,224.290163 226.310816,213.83104 244.734922,209.123026 C253.573952,204.6215 269.154137,201.460486 270.462913,215.151425 C263.4864,236.588494 222.496608,265.455805 203.807576,279.20547 C189.347882,289.538853 173.906783,298.421139 157.948843,306.219601 C154.057286,308.870789 147.118619,308.758784 145.836099,313.929027 C143.806112,322.772715 135.950616,343.900526 151.8946,342.206238 C208.875921,327.053783 184.869705,320.457306 222.733384,286.92792 C233.91487,277.595008 246.434463,270.010848 260.096071,264.924904 C265.035738,262.533246 268.645812,264.742096 272.046312,268.044715 C278.997988,274.839155 257.027437,290.823007 252.51851,296.119464 C236.3685,309.430579 218.970505,321.704283 200.197738,330.988652 C193.737356,334.048553 192.553473,348.696155 195.223774,354.515698 C202.217318,363.345652 230.574451,346.120032 239.942857,343.319188 C248.039387,340.00165 248.480061,328.596284 254.849612,322.793553 C261.656053,315.067077 270.088943,305.732981 281.508625,307.115644 C285.675751,307.809698 288.333988,313.633504 286.304711,317.338679 C278.446613,331.435489 263.099894,337.63533 250.470783,346.449655 C246.249725,351.404886 248.329858,359.725013 247.361227,365.86376 C241.554405,367.539578 243.800826,353.267537 243.121009,349.833732 C228.865686,357.121658 188.009302,375.65606 186.460437,343.847483" id="Background" fill="#FFD686"/><g transform="translate(3.000000, 7.000000) scale(1 1)" id="Master/Character/Standing"><g id="Master/Character/Standing" stroke="none" stroke-width="1" fill="none" fill-rule="evenodd"><g id="Bottom" transform="translate(71.000000, 158.000000) scale(1 1)"><g id="Bottom/Baggy Pants" stroke="none" stroke-width="1" fill="none" fill-rule="evenodd"><g id="Group-119" transform="translate(25.000000, 0.000000)"><path d="M29.8895,179.5327 C29.8895,179.5327 30.6495,173.1517 31.3325,167.9097 C32.0165,162.6687 34.5235,152.3377 34.5235,152.3377 L16.0645,152.3377 C16.0645,152.3377 15.7605,173.0757 16.0645,179.5327 L29.8895,179.5327 Z" id="Fill-1" fill="#7b3d16"/><path d="M15.9589,162.312 C15.9139,168.571 15.9019,176.085 16.0639,179.532 L29.8899,179.532 C29.8899,179.532 30.6489,173.151 31.3329,167.91 C31.5359,166.356 31.8989,164.356 32.3089,162.309 C26.9079,161.276 21.4569,161.294 15.9589,162.312" id="Fill-3" fill="#000"/><path d="M56.6991,168.517 C56.6991,168.517 56.2011,165.759 55.0141,164.189 C53.8271,162.619 52.4811,162.261 52.4811,162.261 C52.4811,162.261 53.6091,161.698 55.5121,161.699995 C56.9681,161.701 57.6571,162.121 57.6571,162.121 L57.3881,168.517 L56.6991,168.517 Z" id="Fill-5" fill="#FF0C0C"/><path d="M56.6991,168.517 C56.6991,168.517 55.9471,167.151 54.5411,166.119 C53.1361,165.086 50.8331,163.345 52.1031,162.465 C54.9331,160.505 56.8911,168.557 56.8911,168.557 L56.6991,168.517 Z" id="Fill-7" fill="#000"/><path d="M56.8387,147.5102 L56.8387,171.9122 C56.8387,171.9122 58.7527,174.3052 63.4567,174.3052 C68.1607,174.3052 71.8097,171.2752 71.8097,171.2752 L73.1037,147.5102 L56.8387,147.5102 Z" id="Fill-9" fill="#7b3d16"/><path d="M56.8387,157.725 L56.8387,171.913 C56.8387,171.913 58.7527,174.305 63.4567,174.305 C68.1597,174.305 71.8097,171.275 71.8097,171.275 L72.5477,157.717 C67.1727,158.286 61.9287,158.319 56.8387,157.725" id="Fill-11" fill="#000"/><path d="M94.7421,104.7026 C94.8881,100.1896 94.0601,95.9906 94.0601,95.9906 C94.0601,95.9906 94.5741,91.1996 94.7451,88.6336 C94.9161,86.0666 92.6921,68.6136 91.4941,55.9506 C90.2961,43.2886 90.2961,15.5686 90.2961,11.9746 C90.2961,10.0526 89.9631,4.6286 89.6531,0.0006 L47.4211,0.0006 L47.4211,49.3756 L55.3661,82.7956 C55.3661,82.7956 57.0991,101.0916 57.0991,108.1216 C57.0991,115.1506 56.2331,123.2386 53.8251,131.1356 C51.4181,139.0306 53.2471,150.6816 53.2471,150.6816 C58.6401,151.8386 68.9431,149.8156 74.1431,149.6236 C79.3431,149.4306 85.3131,150.6816 89.0691,150.7786 C92.8241,150.8756 96.1981,149.6906 96.1981,149.6906 C96.1981,149.6906 95.6161,141.1006 95.3251,131.7836 C95.0341,122.4656 94.5961,109.2166 94.7421,104.7026" id="Fill-13" fill="#474747"/><path d="M31.077,0.0004 C29.682,7.5314 27.642,18.6714 26.962,23.0454 C25.892,29.9204 24.365,40.7704 23.906,47.9504 C23.448,55.1324 22.225,67.9674 21.461,73.0104 C20.697,78.0524 19.628,83.0944 17.489,91.8044 C15.349,100.5134 12.905,111.9734 8.626,126.4884 C4.348,141.0044 2.667,150.6314 2.667,150.6314 C2.667,150.6314 7.556,151.8544 12.905,153.6874 C18.253,155.5204 25.281,159.3404 28.949,159.1874 C32.616,159.0344 37.047,157.5074 41.172,154.9094 C45.298,152.3124 49.729,150.3254 49.729,150.3254 C49.729,150.3254 51.665,130.6554 52.775,123.2174 C53.885,115.7794 54.44,105.6784 54.662,98.2394 C54.884,90.8024 60.435,70.5984 65.208,57.1644 C69.982,43.7324 70.662,37.5614 72.802,35.1154 C74.941,32.6714 82.428,33.7404 82.428,33.7404 L82.428,0.0004 L31.077,0.0004 Z" id="Fill-15" fill="#474747"/><path d="M89.6532,0.0004 L31.0772,0.0004 C30.5052,3.0894 29.8262,6.7734 29.1742,10.3674 C29.1742,10.3674 41.4312,12.3374 51.5702,11.1334 C61.7092,9.9284 70.1382,8.7074 76.9782,9.4394 C81.8692,9.9644 87.4832,11.8934 90.2962,12.9524 L90.2962,11.9754 C90.2962,10.0524 89.9632,4.6284 89.6532,0.0004" id="Fill-17" fill="#000"/><path d="M82.4276,33.7407 C79.7516,33.8947 77.0346,33.9107 74.6896,34.6827 C74.1356,34.9097 73.6286,35.1837 73.2826,35.5527 C72.9146,35.9947 72.6116,36.5327 72.3436,37.1037 C71.8196,38.2597 71.4256,39.5287 71.0386,40.7957 C69.5466,45.9027 68.0566,51.0737 66.2726,56.1247 C62.7096,66.1777 59.5726,76.3887 57.1086,86.7587 C56.5006,89.3497 55.9406,91.9557 55.5386,94.5747 C55.3336,95.8867 55.1906,97.1867 55.1326,98.5027 L54.9656,102.5117 C54.6966,107.8537 54.3786,113.1967 53.7966,118.5237 C52.3526,129.1287 51.0246,139.7117 50.5526,150.4057 L50.5526,150.4067 L50.5326,150.9317 L50.0676,151.0817 C48.0846,151.7167 46.1366,152.5457 44.2706,153.4917 C42.3866,154.4067 40.6506,155.6037 38.7646,156.6017 C36.9016,157.6207 34.9456,158.4987 32.8766,159.1047 C31.8426,159.4007 30.7776,159.6157 29.6916,159.7097 C29.1626,159.7607 28.5806,159.7727 28.0136,159.7047 C27.4546,159.6397 26.9196,159.5217 26.3896,159.3927 C22.2126,158.2327 18.5896,156.0457 14.6816,154.4837 C12.7466,153.6647 10.7336,153.0357 8.7306,152.3927 C6.7226,151.7617 4.7016,151.1707 2.6676,150.6317 C6.7526,151.6537 10.7946,152.8397 14.7776,154.2367 L20.6936,156.4657 C22.6616,157.1927 24.6496,157.8897 26.6366,158.3677 C27.1336,158.4697 27.6306,158.5597 28.1206,158.5977 C28.6016,158.6357 29.0746,158.6137 29.5946,158.5767 C30.6076,158.4857 31.6196,158.3237 32.6256,158.1057 C34.6406,157.6787 36.6276,157.0047 38.5086,156.0997 C40.3876,155.2037 42.0966,153.9487 43.9256,152.8737 L49.3896,149.5697 L48.9056,150.2447 L48.9056,150.2437 C50.5566,139.6737 51.4676,128.9967 52.9536,118.4317 C53.5076,113.1327 53.8546,107.8037 54.0506,102.4717 L54.1766,98.4727 C54.2216,97.1177 54.3576,95.7587 54.5516,94.4287 C54.9336,91.7617 55.4706,89.1337 56.0566,86.5177 C58.4496,76.0757 61.4556,65.7817 65.0216,55.6887 C66.8036,50.6627 68.2796,45.5617 69.7896,40.4157 C70.1856,39.1317 70.5816,37.8387 71.1616,36.5597 C71.4626,35.9237 71.8116,35.2857 72.3036,34.7007 C72.8736,34.0817 73.5786,33.7287 74.2696,33.4827 C75.6616,33.0457 77.0596,32.9737 78.4226,33.0427 C79.7846,33.1267 81.1316,33.3337 82.4276,33.7407" id="Fill-19" fill="#000"/><path d="M24.6478,110.4018 C24.5868,109.4258 23.9028,108.5178 22.7938,108.8268 C19.8558,109.6438 18.3498,117.8808 17.6998,120.9068 C18.1758,119.9838 20.5578,113.6038 21.8748,114.2368 C22.7018,114.6328 21.2898,118.7928 20.9198,120.4288 C19.8848,125.0088 19.2328,129.6418 18.4158,134.2638 C17.9938,136.6418 16.1858,145.7588 15.0308,147.5098 C16.0378,146.1928 18.0608,139.2388 18.5158,137.4088 C19.2798,134.3338 21.6908,123.5458 22.3468,121.2678 C22.8738,119.4348 23.4108,117.6058 23.8668,115.7538 C24.2868,114.0498 24.8158,112.1728 24.6478,110.4018" id="Fill-21" fill="#000"/><path d="M90.7841,114.5141 C90.7841,114.5141 93.0181,106.8181 94.7381,102.4071 C94.6241,98.8621 94.0601,95.9911 94.0601,95.9911 C94.0601,95.9911 90.6791,111.3611 90.7841,114.5141" id="Fill-23" fill="#000"/><path d="M59.204,109.81 C59.543,107.436 59.923,105.101 60.185,102.756 L60.562,99.221 C60.636,98.631 60.707,98.039 60.801,97.447 C60.914,96.865 60.962,96.233 61.283,95.703 C61.158,96.285 61.237,96.88 61.237,97.476 C61.253,98.072 61.256,98.669 61.248,99.268 C61.222,100.465 61.15,101.657 60.999,102.853 C60.687,105.239 60.123,107.588 59.204,109.81" id="Fill-25" fill="#000"/><path d="M91.1942,182.1674 C91.0352,182.1674 90.8792,182.0914 90.7812,181.9504 C90.7682,181.9314 89.3922,179.9474 87.1072,177.8554 C84.8482,175.7874 80.4242,174.1344 80.3802,174.1174 C80.1212,174.0214 79.9892,173.7334 80.0852,173.4754 C80.1812,173.2174 80.4672,173.0834 80.7282,173.1804 C80.9162,173.2494 85.3782,174.9174 87.7822,177.1174 C90.1572,179.2914 91.5482,181.2994 91.6062,181.3844 C91.7622,181.6114 91.7042,181.9224 91.4772,182.0794 C91.3902,182.1394 91.2922,182.1674 91.1942,182.1674" id="Fill-27" fill="#000"/><path d="M51.1937,187.9379 C50.5257,188.1219 45.1187,197.2389 45.0667,198.0869 C45.0127,198.9349 45.5957,200.2079 47.0807,200.2079 C48.5647,200.2079 67.5107,200.3959 68.3847,200.0579 C70.1697,199.3689 71.0917,196.4439 73.6887,196.4439 C76.2867,196.4439 78.0357,200.9499 81.7987,200.9499 C85.5627,200.9499 98.5487,200.8959 102.8947,199.3589 C107.2417,197.8219 109.5737,195.7959 109.9977,195.0599 C110.4217,194.3239 110.2357,188.4929 110.2357,188.4929 L51.1937,187.9379 Z" id="Fill-29" fill="#CDCDCD"/><path d="M88.9154,180.6537 C88.9154,180.6537 82.9724,176.4167 79.9544,171.2677 C76.9364,166.1207 74.7014,162.4987 72.6384,162.5917 C70.5744,162.6837 67.5564,165.0167 67.2774,165.8007 C66.9994,166.5847 68.4854,168.9067 68.4854,168.9067 L87.7644,181.3777 L88.9154,180.6537 Z" id="Fill-31" fill="#CDCDCD"/><path d="M62.7025,170.4536 C60.8875,170.4536 57.4795,167.3556 55.5765,167.7986 C53.6725,168.2406 53.2295,168.1516 53.7615,170.8516 C54.2925,173.5526 55.8855,175.7656 55.1775,178.5546 C54.4695,181.3436 51.3705,183.4676 51.1935,187.9376 C51.1935,187.9376 52.2785,190.1076 56.3485,190.1076 C60.4195,190.1076 65.3715,188.6826 72.0875,188.6826 C78.8045,188.6826 87.2165,195.0596 97.4595,195.0596 C107.7035,195.0596 109.8745,190.5156 109.8745,190.5156 C109.8745,190.5156 110.6885,188.2086 109.8745,187.5986 C109.0605,186.9866 107.0935,185.9696 102.2085,184.7486 C97.3245,183.5276 89.6465,182.6466 83.2735,176.4976 C76.9005,170.3486 75.5685,165.8016 73.1035,165.8016 C70.6385,165.8016 67.9925,166.8076 66.4645,168.0366 C64.9365,169.2666 63.7855,170.4536 62.7025,170.4536" id="Fill-33" fill="#CDCDCD"/><path d="M70.4408,198.3051 C70.4408,198.3051 67.2228,197.4751 63.6598,195.2511 C60.0958,193.0271 58.7558,191.8871 57.1588,191.9151 C55.5628,191.9441 56.0468,194.6531 56.0468,194.6531 C56.0468,194.6531 51.4708,190.3101 48.8738,190.3101 C46.2768,190.3101 45.3048,197.5121 45.0658,198.0871 C44.8278,198.6611 45.3778,200.0041 46.7758,200.1881 C48.1738,200.3711 66.3288,200.2411 67.0478,200.1881 C67.7678,200.1341 68.1358,200.2421 68.6788,199.9661 C69.4058,199.5961 70.4408,198.3051 70.4408,198.3051" id="Fill-35" fill="#FF0C0C"/><path d="M54.2767,168.1323 C55.5757,167.7983 57.8597,170.0563 58.7217,171.2423 C59.5847,172.4293 59.7467,173.0753 60.8247,173.0223 C61.9027,172.9683 64.7607,170.6363 66.5937,170.5623 C66.5937,170.5623 64.5777,171.8133 63.4567,174.3053 C62.3347,176.7963 61.5797,178.1983 59.8547,178.1983 C57.7417,178.1983 56.7807,172.3753 55.7567,170.4873 C54.7327,168.6013 54.2767,168.1323 54.2767,168.1323" id="Fill-37" fill="#FF0C0C"/><path d="M76.4769,198.0864 C76.4769,198.0864 78.6929,200.3454 80.4419,200.7434 C82.1909,201.1414 95.9009,201.4284 96.3159,201.2694 C96.7299,201.1084 95.0399,199.4824 93.8929,199.1644 C92.7449,198.8454 91.3729,198.4624 90.0019,197.5694 C88.6309,196.6774 88.1219,196.2314 85.8569,196.2634 C83.5939,196.2944 81.3619,198.2724 79.5439,198.3664 C77.7269,198.4624 76.6369,197.6404 76.4769,198.0864" id="Fill-39" fill="#474747"/><path d="M99.4135,200.4799 C99.2455,200.1349 98.7805,199.2139 99.4135,198.4089 C100.0465,197.6029 105.9145,194.4389 107.1815,194.0649 C108.4465,193.6909 110.1725,194.1609 110.5175,194.4439 C110.8635,194.7259 111.1225,195.6669 110.4035,196.2609 C109.6845,196.8549 108.2985,197.9149 105.5945,199.0369 C102.8905,200.1589 99.4135,200.4799 99.4135,200.4799" id="Fill-41" fill="#474747"/><path d="M103.0722,184.9702 C103.0722,184.9702 104.0172,185.3982 103.9492,185.9712 C103.8822,186.5442 102.5002,187.3532 99.8362,187.4542 C97.1732,187.5562 95.7912,186.5772 95.7912,186.5772 C95.7912,186.5772 95.3162,185.4112 95.7912,184.9702 C96.2662,184.5292 99.1362,185.3342 99.6142,184.1542 L103.0722,184.9702 Z" id="Fill-43" fill="#FF7475"/><path d="M79.4603,176.0102 C80.4463,175.5882 80.6253,174.5732 80.5543,173.6492 C77.4733,170.1572 75.9783,167.4932 74.5573,166.3792 L74.0463,166.3792 C74.0463,166.3792 71.6873,166.5192 70.6233,167.6642 C69.5603,168.8102 70.7463,171.1022 72.1163,172.4102 C73.4873,173.7192 77.4553,176.8692 79.4603,176.0102" id="Fill-45" fill="#FF7475"/><path d="M109.8744,190.5151 C109.8744,190.5151 107.7034,195.0601 97.4594,195.0601 C87.2164,195.0601 78.8044,188.6831 72.0874,188.6831 C65.3724,188.6831 60.4194,190.1081 56.3494,190.1081 C52.2784,190.1081 51.1934,187.9381 51.1934,187.9381" id="Fill-47" fill="#CDCDCD"/><path d="M97.4599,195.56 C91.7079,195.56 86.5259,193.582 81.9559,191.837 C78.2239,190.414 75.0009,189.183 72.0879,189.183 C68.3469,189.183 65.1579,189.629 62.3449,190.023 C60.1019,190.336 58.1659,190.608 56.3489,190.608 C52.0199,190.608 50.7959,188.261 50.7469,188.162 L51.6409,187.714 C51.6799,187.788 52.6799,189.608 56.3489,189.608 C58.0959,189.608 60.0009,189.341 62.2059,189.033 C65.0519,188.634 68.2769,188.183 72.0879,188.183 C75.1849,188.183 78.6469,189.504 82.3119,190.904 C86.8019,192.618 91.8919,194.56 97.4599,194.56 C107.2749,194.56 109.4029,190.342 109.4229,190.299 L110.3259,190.731 C110.2309,190.928 107.8989,195.56 97.4599,195.56" id="Fill-49" fill="#000"/><path d="M51.1937,187.9379 L51.2957,186.8759 C51.2957,186.8759 53.4777,188.5539 56.6407,188.0359 C59.8027,187.5179 63.6447,183.9239 65.7137,185.0809 C66.5947,185.5739 66.5877,188.2689 64.9707,189.2809 C64.9707,189.2809 62.2137,189.4589 60.3997,189.7839 C58.5847,190.1099 55.5197,190.6269 53.7887,189.7559 C52.0587,188.8849 51.1937,187.9379 51.1937,187.9379" id="Fill-51" fill="#000"/><path d="M110.2362,188.4926 L110.2232,188.4926 C110.2052,188.1166 110.1162,187.7796 109.8742,187.5976 C109.6142,187.4026 109.2352,187.1656 108.6812,186.8936 C108.5662,187.0396 108.4702,187.2226 108.4252,187.4616 C108.2522,188.3696 108.6222,189.3386 108.4252,190.6196 C108.2282,191.9016 106.3302,193.4256 106.3302,193.4256 C107.8742,192.9986 109.7672,191.2816 110.2752,190.8016 C110.2692,189.5406 110.2362,188.4926 110.2362,188.4926" id="Fill-53" fill="#000"/><path d="M94.35,195.06 C94.35,195.06 91.846,188.972 95.58,188.772 C98.332,188.623 99.792,190.864 101.554,192.487 C103.315,194.111 106.33,193.425 106.33,193.425 C106.33,193.425 103.921,194.798 100.398,195.06 C96.875,195.322 94.35,195.06 94.35,195.06" id="Fill-55" fill="#000"/><path d="M53.3612,182.3032 C54.2232,183.0332 55.2402,183.6952 56.2562,183.9752 C57.2632,184.2852 58.2962,184.0732 59.4722,183.7002 C60.6402,183.3422 61.8932,182.9602 63.1592,182.7702 C64.4352,182.5952 65.6872,182.4792 66.9822,182.5492 C68.3152,182.6302 69.5092,183.0502 70.7072,183.4382 C71.8942,183.8522 73.0582,184.3082 74.2142,184.7752 C76.5312,185.6962 78.8312,186.6392 81.1482,187.5082 C83.4662,188.3772 85.8012,189.1782 88.1662,189.8232 C90.5232,190.4722 92.9242,190.9532 95.3122,191.0592 C97.7022,191.1572 100.1902,191.0432 102.5642,190.6912 C103.7552,190.5162 104.9392,190.2822 106.0592,189.8992 C106.6152,189.7042 107.1762,189.5102 107.6862,189.2382 C108.1792,188.9852 108.7232,188.6312 109.0252,188.3272 L109.8562,188.8822 C109.3802,189.5562 108.8682,189.9072 108.3012,190.2902 C107.7432,190.6582 107.1532,190.9462 106.5522,191.2072 C105.3432,191.7012 104.0932,192.0262 102.8382,192.2862 C101.5792,192.5262 100.3092,192.6602 99.0442,192.7372 C98.4102,192.7922 97.7782,192.8012 97.1452,192.8192 C96.5172,192.8582 95.8702,192.8152 95.2242,192.7722 C92.6452,192.6042 90.1472,192.0472 87.7292,191.3232 C85.3242,190.5532 82.9872,189.6352 80.6872,188.6572 C78.3852,187.6842 76.1322,186.6212 73.8582,185.6292 C72.7192,185.1392 71.5772,184.6642 70.4242,184.2352 C69.2742,183.8292 68.0942,183.4022 66.9362,183.3132 C65.7542,183.2332 64.5052,183.3702 63.3452,183.6752 C62.1692,183.9732 61.0772,184.4482 59.9112,184.9432 C59.3222,185.1742 58.6922,185.4092 57.9892,185.5122 C57.2942,185.6292 56.5222,185.5692 55.8442,185.3582 C55.1582,185.1492 54.5512,184.7982 54.0142,184.3882 C53.4662,183.9792 53.0092,183.5182 52.5982,182.9492 L53.3612,182.3032 Z" id="Fill-57" fill="#000"/><path d="M58.5043,181.7162 C60.5383,179.5452 62.7883,177.5652 65.3583,175.9702 C66.0063,175.5802 66.6713,175.2022 67.3923,174.9082 C68.1123,174.6182 68.8723,174.3562 69.7563,174.3492 C70.6933,174.3392 71.4903,174.8132 72.1133,175.2612 C72.7553,175.7282 73.3123,176.2502 73.8483,176.7832 C75.9533,178.9382 77.7903,181.2282 79.8593,183.3202 C81.9273,185.4012 84.1773,187.3152 86.7723,188.7642 C84.0113,187.6562 81.5253,185.8892 79.3243,183.8812 C77.0863,181.9032 75.1243,179.6322 73.0593,177.5822 C72.5403,177.0762 72.0073,176.5912 71.4473,176.1932 C70.8823,175.7902 70.3083,175.5022 69.7433,175.5052 C69.1393,175.4932 68.4593,175.6942 67.8103,175.9472 C67.1593,176.2092 66.5063,176.5142 65.8723,176.8622 C63.3343,178.2702 60.9143,179.9832 58.5043,181.7162" id="Fill-59" fill="#000"/><path d="M82.4276,179.6118 C83.5586,181.8508 87.3376,183.3558 87.3376,183.3558 C86.7126,180.0168 90.2876,181.2658 90.2876,181.2658 C90.2876,181.2658 90.2806,181.2568 90.2796,181.2548 C87.9856,180.1908 85.6796,178.7508 83.5156,176.7158 C82.3256,177.0318 81.6606,178.0928 82.4276,179.6118" id="Fill-61" fill="#FF7475"/><path d="M90.6517,190.31 C89.8487,189.823 89.1317,189.215 88.4767,188.532 C87.8487,187.827 87.2117,187.082 86.9647,185.981 C86.8317,185.449 86.9867,184.651 87.5397,184.234 C88.1247,183.777 88.8137,183.85 89.2957,183.949 C90.3037,184.184 91.1287,184.599 91.9667,184.992 C93.6247,185.782 95.2557,186.56 96.9977,187.006 C98.7287,187.46 100.5737,187.552 102.3627,187.07 C100.6807,187.837 98.7097,187.995 96.8587,187.664 C94.9937,187.35 93.2377,186.624 91.5597,185.891 C90.7197,185.543 89.8787,185.139 89.0877,184.973 C88.6927,184.892 88.3577,184.918 88.2057,185.063 C88.0237,185.229 87.9237,185.448 87.9847,185.811 C88.1027,186.527 88.5797,187.331 89.0637,188.067 C89.5537,188.821 90.1057,189.55 90.6517,190.31" id="Fill-63" fill="#000"/><path d="M102.2084,184.7485 C100.0184,184.2385 97.8034,183.8365 95.6264,183.2515 C93.4554,182.6625 91.3084,181.9315 89.2884,180.9155 C87.2684,179.9025 85.3714,178.6335 83.6834,177.1205 C82.0024,175.6045 80.4544,173.9555 79.0094,172.2175 C78.2874,171.3485 77.5964,170.4545 76.9114,169.5615 C76.2244,168.6765 75.5584,167.7605 74.7894,167.0025 C74.4044,166.6375 73.9854,166.2955 73.5244,166.1895 C73.0994,166.0905 72.4964,166.1565 71.9714,166.2165 C70.8924,166.3565 69.8284,166.6565 68.8314,167.0945 C67.8114,167.5325 66.9464,168.0975 66.1074,168.8565 C65.6804,169.2195 65.2574,169.5935 64.7954,169.9495 C64.3324,170.2985 63.8364,170.6625 63.1644,170.8365 C62.4384,170.9995 61.7954,170.7545 61.2574,170.5465 C60.7084,170.3185 60.2014,170.0515 59.7004,169.7845 C58.7064,169.2575 57.7304,168.6885 56.7474,168.3885 L57.0364,167.4315 C58.2034,167.8165 59.1694,168.4245 60.1504,168.9625 C60.6374,169.2325 61.1224,169.4985 61.6084,169.7115 C62.0964,169.9165 62.5814,170.0745 62.9714,169.9825 C63.8504,169.7555 64.7234,168.9205 65.5864,168.2335 C66.4264,167.4935 67.4754,166.8255 68.5374,166.4035 C69.6084,165.9585 70.7364,165.6625 71.8904,165.5335 C72.4784,165.4885 73.0174,165.4025 73.6924,165.5565 C74.3394,165.7275 74.8114,166.1515 75.2264,166.5565 C76.0454,167.3945 76.6864,168.3235 77.3614,169.2245 C78.0284,170.1285 78.6974,171.0275 79.3974,171.9005 C80.7944,173.6485 82.3034,175.3155 83.9364,176.8435 C85.5704,178.3635 87.4184,179.6525 89.4014,180.6925 C91.3844,181.7365 93.5054,182.5035 95.6604,183.1315 C97.8194,183.7545 100.0274,184.1975 102.2084,184.7485" id="Fill-65" fill="#000"/><path d="M78.3461,175.7827 C78.9231,175.3547 79.4971,175.0387 80.1191,174.7627 C80.7351,174.4897 81.3861,174.2927 82.0491,174.1857 C82.1791,174.1657 82.3021,174.2547 82.3231,174.3847 C82.3421,174.5047 82.2691,174.6167 82.1561,174.6507 L82.1501,174.6527 C81.5551,174.8337 80.9871,175.0937 80.4591,175.4197 C79.9361,175.7367 79.4211,176.1287 79.0101,176.5317 L78.9961,176.5447 C78.7981,176.7387 78.4801,176.7347 78.2861,176.5367 C78.0931,176.3387 78.0961,176.0207 78.2941,175.8277 C78.3101,175.8117 78.3291,175.7957 78.3461,175.7827" id="Fill-67" fill="#000"/><path d="M80.7352,178.6606 C81.0422,177.9036 81.5462,177.3246 82.1192,176.8496 C82.6972,176.3876 83.3762,176.0226 84.1312,175.9226 C84.2622,175.9046 84.3822,175.9966 84.4002,176.1276 C84.4162,176.2486 84.3392,176.3596 84.2232,176.3896 L84.2162,176.3916 C83.6072,176.5536 83.0592,176.9376 82.6172,177.3966 C82.1792,177.8566 81.8262,178.4176 81.6852,178.9726 C81.6172,179.2406 81.3442,179.4036 81.0762,179.3356 C80.8082,179.2666 80.6462,178.9946 80.7142,178.7256 C80.7192,178.7046 80.7272,178.6816 80.7352,178.6606" id="Fill-69" fill="#000"/><path d="M83.6981,180.7211 C83.8331,180.4061 83.9751,180.1571 84.1391,179.8941 C84.3021,179.6371 84.4821,179.3921 84.6781,179.1601 C85.0681,178.6971 85.5381,178.2951 86.0631,177.9981 C86.1781,177.9331 86.3241,177.9731 86.3891,178.0881 C86.4481,178.1921 86.4211,178.3221 86.3301,178.3941 L86.3241,178.3991 C85.9031,178.7321 85.5511,179.1411 85.2741,179.5971 C85.1351,179.8251 85.0111,180.0611 84.9051,180.3051 C84.8021,180.5431 84.7041,180.8111 84.6491,181.0321 L84.6471,181.0391 C84.5801,181.3091 84.3071,181.4721 84.0391,181.4051 C83.7691,181.3381 83.6061,181.0661 83.6731,180.7971 C83.6791,180.7721 83.6881,180.7441 83.6981,180.7211" id="Fill-71" fill="#000"/><path d="M79.4315,175.9037 C77.7475,178.7207 75.7395,183.7787 75.7815,186.5677 C75.7925,187.2807 75.9475,187.7807 76.2165,187.9737 C76.6265,188.2677 77.2305,188.5527 77.7775,188.2477 C78.5515,187.8147 79.2915,186.1217 79.0515,182.6607 C78.8535,179.8147 79.1195,177.4997 79.4315,175.9037 M77.2715,189.3807 C76.7435,189.3807 76.1845,189.1807 75.6345,188.7867 C75.0845,188.3927 74.7975,187.6507 74.7815,186.5827 C74.7235,182.7627 78.2215,174.7997 80.2505,173.2517 C80.4295,173.1147 80.6765,173.1157 80.8555,173.2507 C81.0345,173.3847 81.1015,173.6237 81.0195,173.8327 C81.0055,173.8667 79.6815,177.3077 80.0495,182.5917 C80.2875,186.0257 79.6545,188.3447 78.2645,189.1207 C77.9535,189.2947 77.6195,189.3807 77.2715,189.3807" id="Fill-73" fill="#000"/><path d="M82.6918,174.2084 C82.6918,174.7304 81.9208,174.9224 81.3368,174.9224 C80.7538,174.9224 80.1758,174.1714 80.1758,173.6484 C80.1758,173.1264 80.6118,173.1374 81.1958,173.1374 C81.7798,173.1374 82.6918,173.6864 82.6918,174.2084" id="Fill-75" fill="#000"/><g id="Group-79" transform="translate(0.000000, 169.058000)" fill="#CDCDCD"><path d="M32.3256,22.6934 C32.3256,22.6934 32.5406,21.5474 32.1276,19.6664 C31.7146,17.7854 30.7956,17.8224 31.3916,15.6904 C31.9886,13.5584 33.0436,10.9434 32.9516,9.6134 C32.8606,8.2834 31.1626,7.1354 29.4196,6.5394 C27.6766,5.9434 26.8026,5.8644 26.8026,5.8644 C26.8026,5.8644 27.2116,3.2854 27.0306,2.0114 C26.8476,0.7384 26.2426,0.2384 25.2266,0.1024 C24.2106,-0.0346 20.6646,0.5564 19.0736,0.5564 C17.4816,0.5564 14.5726,-0.2156 12.9346,0.7844 C11.2986,1.7844 12.9346,10.4744 12.9346,10.4744 C12.9346,10.4744 11.9146,10.9444 10.8996,12.7854 C9.8836,14.6274 9.4656,16.4724 8.5096,18.2974 C7.5536,20.1234 6.4786,21.4974 6.2396,22.0344 C6.0006,22.5724 6.2396,24.0644 6.2396,24.0644 C6.2396,24.0644 3.4916,26.8734 2.9536,28.0684 C2.4156,29.2624 2.6556,34.9984 2.6556,34.9984 C2.6556,34.9984 0.0266,39.2984 0.0266,40.3744 C0.0266,41.4494 -0.0334,43.5404 0.0266,44.3774 C0.0866,45.2134 2.8936,46.2284 4.8056,46.3484 C6.7176,46.4674 11.2576,46.1094 15.5586,46.3484 C19.8596,46.5874 26.6706,46.5874 28.4626,46.0494 C30.2546,45.5114 31.8076,44.4364 32.2256,43.6604 C32.6446,42.8834 32.3456,39.1204 32.1066,38.5824 C31.8676,38.0454 31.2706,37.4474 31.2706,37.4474 C31.2706,37.4474 33.1406,36.2694 34.1446,35.8684 C35.1486,35.4654 36.0526,35.3324 36.3866,35.0314 C36.7216,34.7304 36.4876,30.1454 36.3866,29.7114 C36.2866,29.2754 34.7466,29.3764 34.7466,29.3764 L34.7466,26.0024 C34.7466,26.0024 34.5146,23.2914 32.3256,22.6934" id="Fill-77"/></g><path d="M19.0731,169.6147 C17.7191,169.7077 16.3591,169.5057 15.0551,169.6017 C14.4081,169.6507 13.7651,169.7757 13.2551,170.0687 C12.8281,170.2367 12.7371,170.9317 12.6601,171.5497 C12.5411,172.8307 12.6611,174.1707 12.7291,175.4987 C12.8181,176.8307 12.9011,178.1717 12.9351,179.5317 C12.4911,178.2437 12.1921,176.9177 12.0051,175.5717 C11.8211,174.2237 11.7301,172.8617 11.8851,171.4617 C11.9271,171.1087 11.9951,170.7567 12.1251,170.3947 C12.1961,170.2157 12.2761,170.0317 12.4121,169.8547 C12.5311,169.6737 12.7831,169.5107 12.9301,169.4517 C13.6171,169.1077 14.3501,169.0687 15.0401,169.0687 C16.4351,169.0747 17.7361,169.4537 19.0731,169.6147" id="Fill-80" fill="#000"/><path d="M32.3256,191.7514 C32.3256,191.7514 34.0756,192.0224 34.6336,194.4434 C34.6336,194.4434 31.6706,195.3104 30.4356,197.1384 C29.2006,198.9674 31.1216,205.9174 29.7956,207.6084 C28.4696,209.3004 21.7946,211.2664 14.1126,211.2664 C6.4316,211.2664 3.2766,211.3574 1.9056,209.9864 C0.5336,208.6144 0.7006,207.5764 0.7006,207.5764 L2.6556,204.0564 C2.6556,204.0564 2.5916,208.8894 7.2546,209.1174 C7.2546,209.1174 8.3516,205.4144 9.4496,204.8654 C10.5466,204.3164 18.3196,204.0884 19.5996,204.5914 C20.8796,205.0944 21.3826,208.8894 21.3826,208.8894 C21.3826,208.8894 25.7266,208.6604 27.2356,205.0944 C28.7436,201.5274 27.9006,197.2254 28.7896,195.5834 C29.9786,193.3894 32.3256,191.7514 32.3256,191.7514" id="Fill-82" fill="#000"/><path d="M36.3866,204.0893 C36.7206,203.7873 36.4876,199.2033 36.3866,198.7683 C36.2856,198.3333 34.7466,198.4343 34.7466,198.4343 C34.7466,198.4343 34.0466,198.5513 32.6406,200.5873 C31.2346,202.6243 31.8686,206.1393 31.8686,206.1393 L31.8686,206.1393 C32.5036,205.7583 33.4996,205.1843 34.1446,204.9263 C35.1486,204.5243 36.0526,204.3913 36.3866,204.0893" id="Fill-84" fill="#FF0C0C"/><path d="M4.3734,197.2036 C5.4194,196.8816 6.7024,197.1436 7.4994,198.0686 C7.8784,198.5206 8.1044,199.0556 8.3644,199.5086 C8.4914,199.7326 8.6334,199.9456 8.7834,200.0556 C8.8574,200.1146 8.9274,200.1416 9.0024,200.1476 C9.0714,200.1646 9.2504,200.1676 9.3724,200.1766 C11.5444,200.2946 13.7334,200.3246 15.8964,200.2896 C16.9764,200.2686 18.0604,200.2256 19.0944,200.1066 C19.5854,200.0476 20.1614,199.9316 20.4084,199.7786 C20.7724,199.5336 21.2064,199.1706 21.5984,198.8196 C22.4134,198.1156 23.2404,197.3686 24.2394,196.7666 C24.4914,196.6186 24.7584,196.4806 25.0564,196.3816 C25.3414,196.2726 25.7404,196.2596 25.9944,196.3146 C26.5504,196.3926 27.1434,196.5376 27.5764,196.9186 C27.0334,196.7896 26.5034,196.8106 25.9754,196.8376 C25.6834,196.8546 25.5264,196.8866 25.3054,197.0016 C25.0974,197.1106 24.8934,197.2586 24.6964,197.4216 C23.9124,198.0966 23.2174,198.9376 22.4204,199.7106 C22.0054,200.0976 21.6304,200.4776 21.0854,200.8436 C20.3734,201.2316 19.8304,201.2546 19.2474,201.3466 C18.1074,201.4816 16.9984,201.4746 15.8904,201.4466 C13.6774,201.3776 11.4924,201.1606 9.3054,200.9006 C9.1564,200.8776 9.0584,200.8796 8.8614,200.8306 C8.6694,200.7916 8.4844,200.6846 8.3574,200.5626 C8.0894,200.3146 7.9594,200.0356 7.8364,199.7786 C7.6024,199.2586 7.4264,198.7616 7.1454,198.3356 C6.8824,197.9036 6.4444,197.6176 5.9494,197.4106 C5.4644,197.2086 4.9144,197.1056 4.3734,197.2036" id="Fill-86" fill="#000"/><path d="M2.6552,204.0561 C3.6832,204.6751 4.4952,205.3941 5.4882,205.8971 C5.9832,206.1421 6.4832,206.3601 6.9982,206.5061 C7.5232,206.6531 8.0772,206.7471 8.6332,206.8371 C10.8662,207.1731 13.1672,207.2441 15.4522,207.2791 C17.7322,207.2881 20.0232,207.2131 22.2092,206.7231 C24.3832,206.2521 26.4722,205.2691 27.8052,203.5441 L28.5902,204.1641 C27.0582,206.1181 24.7062,207.1771 22.4162,207.6551 C20.1002,208.1561 17.7562,208.2111 15.4412,208.1871 C13.1292,208.1281 10.8172,208.0701 8.4952,207.7221 C7.3582,207.5501 6.1152,207.2521 5.0972,206.6001 C4.0882,205.9781 3.0762,205.2251 2.6552,204.0561" id="Fill-88" fill="#000"/><path d="M22.0614,196.1205 C22.0614,196.7595 20.4934,198.5035 19.4534,199.1995 C18.4144,199.8955 16.9454,200.0945 15.3594,200.0945 C13.6774,200.0945 10.8954,199.8725 9.8444,199.1155 C8.9144,198.4445 8.0454,196.5165 8.0454,195.9165 C8.0454,194.6385 10.2854,197.3045 15.0484,197.2665 C19.7224,197.2305 22.0614,194.8415 22.0614,196.1205" id="Fill-90" fill="#FF7475"/><path d="M21.806,193.4252 C21.806,193.4252 23.431,192.1052 25.695,192.4952 C27.959,192.8862 29.075,187.3092 27.582,186.6062 C26.09,185.9042 25.178,186.6062 25.178,186.6062 C25.178,186.6062 23.876,191.7912 21.806,193.4252" id="Fill-92" fill="#FF7475"/><path d="M8.5067,194.4438 C9.9227,194.5748 10.0757,194.0008 10.0757,194.0008 C10.0757,194.0008 10.0707,187.8628 10.4857,184.8528 C10.7957,182.5938 10.7317,182.3018 10.6797,182.2978 C9.8307,183.9878 9.3867,185.6798 8.5097,187.3558 C7.5537,189.1808 6.4787,190.5548 6.2397,191.0918 C6.0007,191.6308 6.2397,193.1228 6.2397,193.1228 C6.2397,193.1228 7.0897,194.3128 8.5067,194.4438" id="Fill-94" fill="#FF7475"/><g id="Group-98" transform="translate(1.000000, 211.058000)" fill="#474747"><path d="M27.4623,4.0499 C28.2483,2.3089 22.6423,0.9239 20.3833,0.7499 C18.1253,0.5759 15.8663,1.0109 13.0003,1.1849 C10.1333,1.3589 4.7473,0.2359 3.0093,0.7099 C1.2723,1.1849 0.0563,3.3529 0.4903,4.0499 C0.9243,4.7459 7.1903,4.8089 9.2353,4.7669 C11.2793,4.7239 14.0483,4.8949 16.9883,4.9799 C19.9273,5.0649 27.0743,4.9089 27.4623,4.0499" id="Fill-96"/></g><path d="M24.7069,175.2748 C24.7069,175.2748 25.7139,180.1638 25.1819,183.2638 C24.6349,186.4598 27.8219,184.8438 28.6069,181.3698 C29.3919,177.8948 27.4139,176.2708 26.5799,175.7308 C25.7459,175.1908 25.0989,175.2748 25.0989,175.2748" id="Fill-99" fill="#FF7475"/><path d="M20.1776,175.7221 C21.1476,177.0761 22.1576,178.9391 22.5536,181.1771 C23.0616,184.0431 24.1166,190.0081 26.4196,190.0671 C26.9336,190.0871 27.2986,189.9261 27.5196,189.5941 C27.8486,189.1041 28.3786,187.4301 26.2006,182.4991 C24.8386,179.4131 22.2016,177.1241 20.1776,175.7221 M26.4796,191.0681 C26.4516,191.0681 26.4226,191.0681 26.3936,191.0671 C23.5156,190.9931 22.3946,186.0131 21.5696,181.3511 C20.7936,176.9741 17.3766,174.0611 17.3426,174.0321 C17.1506,173.8701 17.1076,173.5921 17.2416,173.3811 C17.3766,173.1691 17.6456,173.0891 17.8736,173.1951 C18.1456,173.3211 24.5736,176.3391 27.1156,182.0951 C28.3176,184.8171 29.5076,188.4241 28.3506,190.1511 C28.0686,190.5731 27.5156,191.0681 26.4796,191.0681" id="Fill-101" fill="#000"/><path d="M16.6732,174.0346 C16.5732,174.0546 16.4612,174.0826 16.3382,174.1236 C12.4152,175.4216 10.9802,176.7386 10.4652,177.6146 C9.1592,179.8426 6.8512,183.1646 5.2592,185.3086 C3.8622,187.1936 2.5812,190.1636 2.9772,191.4126 C3.0552,191.6596 3.1882,191.8016 3.4082,191.8746 C4.9932,192.4006 6.0792,191.0136 8.0222,188.3146 C9.3042,186.5356 10.5792,183.2626 11.5102,180.8716 C11.9662,179.6996 12.3272,178.7736 12.5982,178.2436 C13.4232,176.6316 14.2802,175.8396 15.6712,174.8606 C16.0992,174.5596 16.4292,174.2726 16.6732,174.0346 M4.0662,192.9886 C3.7572,192.9886 3.4352,192.9356 3.0952,192.8236 C2.5692,192.6496 2.1982,192.2666 2.0232,191.7156 C1.4532,189.9176 3.1032,186.5386 4.4572,184.7136 C6.0332,182.5896 8.3162,179.3046 9.6032,177.1086 C10.4772,175.6186 12.6372,174.2956 16.0232,173.1746 C17.2432,172.7706 17.8562,173.1666 17.9662,173.2506 C18.1722,173.4066 18.2252,173.6946 18.0872,173.9146 C18.0662,173.9486 17.5462,174.7636 16.2462,175.6796 C14.9632,176.5826 14.2232,177.2646 13.4882,178.6986 C13.2402,179.1836 12.8702,180.1346 12.4422,181.2346 C11.4912,183.6756 10.1902,187.0166 8.8342,188.8986 C7.2152,191.1456 5.8882,192.9886 4.0662,192.9886" id="Fill-103" fill="#000"/><path d="M32.3256,191.7514 C32.4106,190.8014 32.2746,189.8524 32.0686,188.9334 C31.9626,188.4724 31.8156,188.0324 31.6016,187.6174 C31.3966,187.2064 31.1146,186.7804 31.0336,186.2564 C30.9606,185.7404 31.0446,185.2374 31.1646,184.7674 C31.2836,184.2984 31.4176,183.8404 31.5526,183.3824 C31.8236,182.4674 32.1136,181.5604 32.3436,180.6494 C32.5416,179.7584 32.8256,178.7674 32.4336,178.0964 C32.0346,177.3734 31.2506,176.8244 30.4466,176.4204 C28.8176,175.6054 26.9036,175.3654 25.0526,175.1694 L25.1936,175.1554 C25.1116,175.1734 25.0186,175.3444 25.0106,175.6694 C25.0016,175.9734 25.0466,176.3114 25.0996,176.6474 C25.2026,177.3344 25.3756,178.0164 25.4546,178.7774 C25.4186,180.2724 25.4746,181.6194 25.5166,183.0654 L25.5266,185.2064 C25.5016,185.9164 25.5566,186.6444 25.3466,187.3884 C24.8986,188.7804 24.2546,190.0474 23.5746,191.3034 C24.0746,189.9744 24.6176,188.6384 24.9286,187.2844 C25.0756,186.6434 24.9886,185.9234 24.9686,185.2194 L24.8326,183.0934 C24.7646,181.6974 24.6756,180.1974 24.6906,178.8514 C24.6116,178.1974 24.4256,177.4964 24.3006,176.7784 C24.2456,176.4134 24.1986,176.0424 24.2126,175.6344 C24.2256,175.4304 24.2426,175.2124 24.3506,174.9724 C24.4256,174.7304 24.6976,174.4884 24.9776,174.3994 L25.0476,174.3774 L25.1196,174.3864 C27.0286,174.6144 28.9806,174.8664 30.7726,175.7794 C31.6406,176.2404 32.5136,176.8184 33.0426,177.7824 C33.3046,178.2764 33.3236,178.8944 33.2376,179.3694 C33.1646,179.8674 33.0416,180.3384 32.9086,180.8034 C32.6376,181.7304 32.3156,182.6274 32.0136,183.5274 C31.7346,184.4284 31.3426,185.3344 31.3966,186.2094 C31.4336,186.6434 31.6626,187.0514 31.8576,187.4974 C32.0546,187.9414 32.1846,188.4204 32.2636,188.8934 C32.4256,189.8364 32.4896,190.8104 32.3256,191.7514" id="Fill-105" fill="#000"/><path d="M6.2396,193.1225 C6.6466,193.3915 7.0516,193.6525 7.4746,193.8575 C7.9046,194.0685 8.3006,194.2345 8.7066,194.1265 C9.1526,194.0705 9.6336,193.9265 10.1816,193.9315 C10.7216,193.9265 11.2806,194.0885 11.7306,194.2965 C12.5976,194.7145 13.4116,194.8815 14.3426,194.8545 C15.2816,194.8375 16.1276,194.7125 16.9586,194.3285 C18.6406,193.6485 20.2466,192.4045 22.3146,191.9735 C23.3496,191.7715 24.4296,191.8205 25.4036,192.2055 C26.3736,192.5755 27.2366,193.3145 27.5756,194.2565 C26.1556,192.9035 24.2336,192.6465 22.5346,192.9865 C20.8006,193.4105 19.2586,194.6025 17.3676,195.3545 C16.4236,195.7485 15.3186,195.8705 14.3356,195.8365 C13.3326,195.8395 12.2246,195.5455 11.3756,195.0765 C10.9576,194.8715 10.5786,194.7345 10.1526,194.6995 C9.7336,194.6655 9.2626,194.7305 8.7476,194.7395 C8.5146,194.7505 8.1536,194.6955 7.9326,194.5725 C7.6896,194.4595 7.4786,194.3175 7.2786,194.1685 C6.8886,193.8535 6.5406,193.5085 6.2396,193.1225" id="Fill-107" fill="#000"/><path d="M12.3485,180.5981 C13.1175,180.2911 13.8575,180.0771 14.6265,179.8851 C15.3905,179.6981 16.1615,179.5461 16.9395,179.4431 C18.4925,179.2251 20.0655,179.1791 21.6215,179.2931 C21.7525,179.3031 21.8515,179.4181 21.8425,179.5491 C21.8325,179.6761 21.7225,179.7731 21.5965,179.7711 C20.0725,179.7451 18.5495,179.8761 17.0605,180.1711 C16.3155,180.3141 15.5805,180.5021 14.8585,180.7231 C14.1415,180.9431 13.4125,181.2051 12.7635,181.5071 L12.7445,181.5161 C12.4945,181.6331 12.1965,181.5251 12.0795,181.2741 C11.9635,181.0241 12.0715,180.7261 12.3225,180.6101 C12.3305,180.6061 12.3395,180.6011 12.3485,180.5981" id="Fill-109" fill="#000"/><path d="M11.8353,182.5014 C12.6883,182.3894 13.4783,182.3894 14.2923,182.4434 C15.0983,182.4984 15.8993,182.6234 16.6813,182.8184 C18.2493,183.1894 19.7353,183.8774 21.0483,184.7864 C21.1573,184.8614 21.1843,185.0104 21.1093,185.1184 C21.0373,185.2234 20.8963,185.2524 20.7893,185.1874 L20.7833,185.1844 C19.4723,184.3814 18.0273,183.8094 16.5243,183.5404 C15.7763,183.3974 15.0143,183.3204 14.2543,183.3134 C13.5033,183.3014 12.7173,183.3534 12.0213,183.4834 L11.9933,183.4894 C11.7213,183.5404 11.4603,183.3614 11.4083,183.0904 C11.3573,182.8184 11.5363,182.5574 11.8073,182.5064 C11.8163,182.5044 11.8263,182.5024 11.8353,182.5014" id="Fill-111" fill="#000"/><path d="M12.0853,184.1635 C13.4603,183.3305 14.8953,182.6385 16.3933,182.0595 C17.8913,181.4885 19.4603,181.0545 21.0983,180.8925 C21.3743,180.8655 21.6183,181.0665 21.6453,181.3425 C21.6723,181.6175 21.4713,181.8615 21.1963,181.8895 C21.1883,181.8905 21.1793,181.8905 21.1703,181.8915 L21.1613,181.8915 C19.6453,181.9555 18.1183,182.2825 16.6373,182.7565 C15.1593,183.2345 13.7013,183.8425 12.3303,184.5735 L12.3213,184.5785 C12.2053,184.6405 12.0603,184.5965 11.9983,184.4795 C11.9393,184.3675 11.9783,184.2285 12.0853,184.1635" id="Fill-113" fill="#000"/><path d="M11.3837,185.8022 C13.0267,185.5742 14.6527,185.4462 16.2997,185.4382 C17.9377,185.4412 19.6077,185.5312 21.2057,186.0672 C21.3307,186.1102 21.3977,186.2442 21.3557,186.3692 C21.3157,186.4902 21.1877,186.5572 21.0667,186.5242 L21.0547,186.5202 C19.5407,186.1002 17.9147,186.0922 16.3217,186.1762 C14.7257,186.2692 13.1187,186.4852 11.5607,186.7852 L11.5477,186.7882 C11.2757,186.8412 11.0137,186.6632 10.9607,186.3932 C10.9087,186.1212 11.0857,185.8592 11.3577,185.8062 C11.3657,185.8052 11.3757,185.8032 11.3837,185.8022" id="Fill-115" fill="#000"/><path d="M11.3778,188.8813 C12.8548,188.2513 14.3868,187.8463 15.9628,187.5983 C17.5348,187.3463 19.1458,187.2963 20.7498,187.4423 C21.0248,187.4673 21.2278,187.7103 21.2028,187.9853 C21.1778,188.2603 20.9338,188.4633 20.6588,188.4383 C20.6498,188.4383 20.6418,188.4373 20.6328,188.4363 L20.6238,188.4343 C19.1238,188.2133 17.5838,188.1723 16.0568,188.3303 C14.5338,188.4823 12.9988,188.8013 11.5668,189.3193 L11.5528,189.3243 C11.4288,189.3693 11.2918,189.3063 11.2468,189.1823 C11.2038,189.0633 11.2628,188.9313 11.3778,188.8813" id="Fill-117" fill="#000"/></g></g></g><g id="Body" transform="translate(74.000000, 0.000000) scale(1 1)"><g id="Body/Shirt" stroke="none" stroke-width="1" fill="none" fill-rule="evenodd"><g id="Group-92" transform="translate(25.000000, 52.000000)"><g id="Group-3" transform="translate(89.000000, 58.880000)" fill="#7b3d16"><path d="M1.576,24.2375 C1.576,24.2375 6.093,19.9095 10.239,19.5115 C14.385,19.1135 24.576,18.4985 31.503,15.4565 C38.43,12.4155 44.174,7.6845 45.019,7.0085 C45.864,6.3335 53.382,3.0385 54.649,2.8695 C55.916,2.7005 56.761,2.8695 56.761,2.8695 C56.761,2.8695 58.666,2.4395 60.668,2.2615 C62.67,2.0845 70.944,1.6385 74.591,1.4175 C78.239,1.1945 81.486,0.6165 81.842,1.0165 C82.198,1.4175 81.753,3.3295 79.84,3.9975 C77.928,4.6645 74.28,5.1975 74.28,5.1975 C74.28,5.1975 76.771,5.0195 77.038,7.0215 C77.305,9.0235 75.169,9.9575 75.169,9.9575 C75.169,9.9575 76.237,11.9145 73.879,13.9165 C73.879,13.9165 74.324,15.0285 73.479,17.0305 C72.634,19.0325 71.433,19.5655 69.965,19.6995 C68.497,19.8325 65.116,20.0995 61.913,20.5005 C58.711,20.9005 53.818,21.3445 49.102,20.6775 C49.102,20.6775 47.456,20.8115 45.455,22.3685 C43.453,23.9255 32.54,35.1965 19.632,41.3345 C6.723,47.4725 0.766,46.5695 0.766,46.5695 L1.576,24.2375 Z" id="Fill-1"/></g><path d="M77.7665,25.2464 C77.7665,25.2464 81.0515,28.0054 84.4015,30.0414 C87.7515,32.0774 94.2545,37.0044 95.0425,37.6614 C95.8305,38.3184 95.6995,45.1494 97.0785,51.1274 C98.4585,57.1044 100.8235,66.4334 102.0055,70.3744 C103.1875,74.3154 103.5265,78.3004 103.5265,78.3004 C103.5265,78.3004 99.5905,78.8504 97.3565,80.3614 C95.1235,81.8724 92.4805,83.1174 92.4805,83.1174 L79.3005,83.1174 L77.7665,25.2464 Z" id="Fill-4" fill="#ffa200"/><path d="M91.3099,49.0901 C91.3099,49.0901 93.3379,58.4811 93.2309,66.1641 C93.1239,73.8481 92.4839,81.2121 93.7649,87.4021 C95.0449,93.5911 95.5789,94.4441 95.0449,97.3261 C94.5119,100.2071 92.3609,102.3501 92.3609,104.5861 C92.3609,106.8231 96.8339,111.1371 96.9139,115.0511 C96.9939,118.9651 94.4919,125.0351 91.3099,125.0351 C88.1279,125.0351 80.3789,123.6771 75.7469,123.4381 C71.1139,123.1981 33.7289,126.6111 27.8649,125.4941 C22.0009,124.3771 20.8839,124.3771 20.0459,122.1441 C19.2079,119.9091 19.9529,116.0931 21.1629,115.1621 C22.3729,114.2321 26.4689,109.9501 26.3749,108.5541 C26.2829,107.1571 22.2549,105.9831 21.5839,103.1301 C20.9129,100.2781 23.4299,88.3631 23.5979,82.1541 C23.7659,75.9451 25.4439,30.4701 25.4439,30.4701 C25.4439,30.4701 28.3139,29.9601 30.4879,28.7421 C32.6629,27.5251 38.5769,24.4811 41.8819,23.1761 C45.1859,21.8711 47.9699,20.3931 47.9699,20.3931 L73.1629,23.5281 C73.1629,23.5281 87.9219,39.7101 89.2339,42.5531 C90.5459,45.3961 91.3099,49.0901 91.3099,49.0901" id="Fill-6" fill="#ffa200"/><path d="M52.4774,20.3929 L73.1204,23.8209 C73.1204,23.8209 74.7704,27.9759 75.5574,30.9699 C76.3434,33.9639 76.0084,42.4589 76.0394,45.8599 C76.0714,49.2599 75.8314,56.6529 75.8314,56.6529 C75.8314,56.6529 72.0934,50.6329 70.9304,49.0209 C69.7674,47.4089 59.6244,35.0439 59.6244,35.0439 L52.4774,20.3929 Z" id="Fill-8" fill="#000"/><g id="Group-12" transform="translate(52.000000, 0.880000)" fill="#7b3d16"><path d="M21.1776,22.4562 C21.8696,16.3402 22.4896,0.6922 22.4896,0.6922 L2.6026,0.1192 C2.6026,0.1192 4.7276,12.8862 0.4776,21.4672 C0.4776,21.4672 4.6666,26.9962 9.7596,29.7722 C14.4326,32.3202 18.3556,33.0802 19.7546,30.9102 C19.7546,30.9102 20.5866,27.6792 21.1776,22.4562" id="Fill-10"/></g><path d="M56.9686,35.9105 C56.9686,35.9105 55.0096,41.8975 53.9216,44.4005 C53.9216,44.4005 55.1146,44.9455 56.5746,45.5535 C58.0346,46.1615 61.2586,49.6895 64.1786,51.2105 C67.0976,52.7305 71.2146,54.9215 73.0496,57.1105 C74.8846,59.3005 75.5566,64.8245 75.5566,64.8245 L76.0396,57.7195 C76.0396,57.7195 73.9106,52.8525 70.9296,49.0205 C67.9496,45.1885 63.6016,36.8395 63.6016,36.8395 L56.9686,35.9105 Z" id="Fill-13" fill="#ffa200"/><path d="M75.557,40.6204 C75.557,40.6204 75.977,44.3844 76.071,49.2604 C76.165,54.1364 75.699,57.8864 75.557,60.0424 C75.415,62.1994 75.557,64.8244 75.557,64.8244 C75.557,64.8244 77.009,61.5434 78.04,57.7924 C79.072,54.0424 79.304,52.3534 80.922,48.8854 C82.541,45.4154 85.059,43.1654 85.059,43.1654 C85.059,43.1654 80.691,40.5684 77.819,36.5164 C77.819,36.5164 76.944,37.2664 76.304,38.1574 C75.663,39.0494 75.557,40.6204 75.557,40.6204" id="Fill-15" fill="#ffa200"/><path d="M54.6918,14.8216 C54.6918,14.8216 52.1288,14.4536 51.2898,15.5946 C50.4498,16.7366 47.7528,20.1536 46.2538,21.0526 C46.2538,21.0526 47.0048,28.0666 46.8688,32.2616 C46.7338,36.4586 45.4748,38.7366 45.4748,38.7366 C45.4748,38.7366 45.9298,39.3856 47.3768,38.7366 C48.8218,38.0876 49.9738,37.8506 51.3898,37.7326 C52.8068,37.6156 57.3808,38.8546 59.5358,38.8546 C61.6898,38.8546 64.4638,38.5896 64.4638,38.5896 C64.4638,38.5896 60.1318,29.6756 57.5528,25.4986 C54.9738,21.3206 53.3948,20.1706 53.3948,20.1706 C53.9398,18.6046 54.3958,16.8686 54.6918,14.8216" id="Fill-17" fill="#ffa200"/><path d="M55.5443,40.1028 C55.1883,41.6048 54.8383,43.0978 54.3793,44.5998 L54.1283,43.9468 L56.7883,45.0278 C57.8513,45.5248 58.5153,46.1728 59.2833,46.7898 C60.7563,48.0388 62.2063,49.2808 63.7563,50.2908 C65.3453,51.2218 67.1313,52.1238 68.7613,53.1568 C70.3783,54.2068 72.0223,55.4148 73.0493,57.1108 C71.5253,55.9018 69.8893,54.9818 68.2373,54.0268 C66.5843,53.0418 64.9013,52.2578 63.1433,51.2908 C61.4183,50.2648 59.9753,48.9378 58.5103,47.7048 C58.1463,47.3958 57.7803,47.0888 57.4163,46.8028 C57.0603,46.5158 56.6773,46.2248 56.3523,46.0748 L53.7133,44.8558 L53.2223,44.6278 L53.4623,44.2018 C54.2043,42.8848 54.8763,41.4878 55.5443,40.1028" id="Fill-19" fill="#000"/><path d="M74.6029,54.8069 C73.6739,53.5159 72.7779,52.2259 71.8339,50.9819 C71.3599,50.3569 70.8919,49.7529 70.3899,49.1409 C69.8909,48.5079 69.4259,47.8599 68.9769,47.2029 C68.0709,45.8919 67.2309,44.5459 66.4449,43.1709 C65.6429,41.8059 64.8949,40.4119 64.1879,38.9959 L65.0669,38.5189 C66.6639,41.2279 68.2269,43.9539 69.8829,46.6019 C70.3009,47.2609 70.7339,47.9089 71.1909,48.5299 C71.6519,49.1649 72.1189,49.8319 72.5219,50.5169 C73.3409,51.8869 74.0459,53.3169 74.6029,54.8069" id="Fill-21" fill="#000"/><path d="M46.4794,23.4368 C46.7784,26.0048 47.0414,28.5788 47.1354,31.1758 C47.1834,32.4738 47.1414,33.7918 46.9644,35.0988 C46.7674,36.4118 46.5014,37.6848 45.9154,38.9728 L45.9124,38.9778 L45.8834,38.4498 C45.8414,38.4028 45.9804,38.5098 46.0844,38.5128 C46.2064,38.5328 46.3554,38.5288 46.5134,38.4968 C46.8364,38.4418 47.1414,38.2898 47.5484,38.1188 C48.3194,37.7958 49.1394,37.5488 49.9694,37.4078 C50.3834,37.3328 50.7984,37.2848 51.2104,37.2478 C51.6564,37.2038 52.1184,37.2468 52.5214,37.2938 C53.3474,37.3998 54.1434,37.5498 54.9384,37.6958 C56.5184,37.9728 58.1174,38.3298 59.6324,38.3538 C61.2174,38.3428 62.8264,38.2328 64.4164,38.0908 L64.0144,38.8078 C62.4344,35.5868 60.8144,32.3758 59.1074,29.2258 C58.2464,27.6538 57.3794,26.0928 56.3944,24.6158 C55.4194,23.1618 54.3384,21.6538 53.1044,20.5778 L53.1004,20.5748 L52.7794,20.3208 L52.9224,20.0058 C53.6754,18.3568 54.2644,16.6168 54.6914,14.8218 C54.5944,16.6638 54.3264,18.5138 53.8674,20.3348 L53.6894,19.7668 L53.7064,19.7798 C55.1894,21.0738 56.1964,22.5478 57.2294,24.0638 C58.2384,25.5798 59.1204,27.1668 59.9854,28.7488 C61.7054,31.9208 63.3264,35.1338 64.9134,38.3708 L65.2334,39.0228 L64.5114,39.0868 C62.8884,39.2308 61.2764,39.3418 59.6354,39.3538 C57.9184,39.3218 56.3494,38.9548 54.7564,38.6788 C53.9664,38.5348 53.1754,38.3858 52.4004,38.2868 C52.0034,38.2418 51.6574,38.2078 51.3004,38.2438 C50.9084,38.2788 50.5214,38.3248 50.1424,38.3918 C49.3814,38.5228 48.6474,38.7438 47.9314,39.0418 C47.5954,39.1798 47.1704,39.3978 46.6944,39.4798 C46.2234,39.5378 45.6434,39.6398 45.0654,39.0248 L44.8574,38.8018 L45.0374,38.4948 L45.0384,38.4928 C45.5944,37.4578 45.9684,36.1978 46.2254,34.9728 C46.4764,33.7298 46.6004,32.4608 46.6354,31.1748 C46.7084,28.6048 46.6124,26.0168 46.4794,23.4368" id="Fill-23" fill="#000"/><g id="Group-27" transform="translate(1.000000, 28.880000)" fill="#ffa200"><path d="M27.0116,0.9191 C29.0666,1.3111 34.5576,10.4421 36.1236,12.3011 C37.6896,14.1601 39.0596,16.8031 39.2546,19.9341 C39.4506,23.0651 38.9616,26.8821 37.7866,30.6011 C36.6126,34.3181 33.9146,43.4191 33.7466,47.1381 C33.5796,50.8561 34.2086,60.2501 33.7466,60.9361 C33.7466,60.9361 29.4746,61.8141 26.2556,60.9361 C23.0376,60.0571 19.6496,57.1771 14.6526,57.1771 C9.6556,57.1771 4.8276,57.9391 -0.0004,56.7531 C-0.0004,56.7531 0.6776,50.1471 1.7786,46.3351 C2.8796,42.5241 11.6886,20.5031 12.7896,16.0991 C13.8906,11.6941 16.5706,6.0851 18.2096,4.6651 C21.0376,2.2161 27.0116,0.9191 27.0116,0.9191" id="Fill-25"/></g><path d="M74.8456,123.4378 C74.8456,123.4378 74.9936,121.8688 75.7466,119.7888 C76.4986,117.7088 75.5386,102.2958 76.8716,98.1358 C76.2776,98.2168 78.7536,117.2978 79.1246,118.1518 C79.5246,119.0728 75.7466,123.4378 75.7466,123.4378 L74.8456,123.4378 Z" id="Fill-28" fill="#000"/><path d="M37.1898,64.8245 L54.9688,74.6635 C54.9688,74.6635 54.1038,83.2835 53.3258,84.6915 C52.5478,86.0985 47.7728,94.7615 47.7728,94.7615 L34.7488,79.9865 C34.3488,75.1265 35.5878,70.0045 37.1898,64.8245" id="Fill-30" fill="#870CF7"/><path d="M40.9447,39.0247 C42.9887,33.3137 40.6077,26.9467 39.3727,24.2607 C36.1407,25.7397 32.1817,27.7947 30.4877,28.7427 C29.6957,29.1857 28.8127,29.5347 28.0087,29.7997 C27.9947,29.8027 27.0437,30.0117 25.7297,30.4137 C25.5477,30.4517 25.4437,30.4697 25.4437,30.4697 C25.4437,30.4697 25.4437,30.4817 25.4427,30.5017 C23.4727,31.1217 20.8277,32.1437 19.2097,33.5447 C17.5697,34.9647 14.8897,40.5747 13.7897,44.9787 C13.7397,45.1767 13.6697,45.4217 13.5907,45.6887 L18.5197,50.6707 L29.8737,50.6707 C29.8737,50.6707 38.2717,46.4917 40.9447,39.0247" id="Fill-32" fill="#870CF7"/><path d="M95.0453,97.3255 C95.2553,96.1925 95.2973,95.3705 95.1963,94.4175 L93.7643,87.4015 L93.7643,87.4005 C93.4593,85.9275 93.2693,84.3845 93.1493,82.7895 C93.1913,82.7675 93.2433,82.7415 93.2883,82.7185 L93.0033,79.9075 L83.5453,80.8625 L73.9153,89.1795 C73.9153,89.1795 70.6103,93.0405 74.4893,97.3465 C78.3683,101.6535 83.5453,103.4345 83.5453,103.4345 L83.5453,117.0975 L94.2443,123.2395 C95.8933,121.1415 96.9673,117.6325 96.9143,115.0505 C96.8343,111.1365 92.3613,106.8235 92.3613,104.5875 C92.3613,102.3495 94.5113,100.2075 95.0453,97.3255" id="Fill-34" fill="#870CF7"/><path d="M58.4808,113.6058 L44.2118,113.6058 L46.1418,105.2078 C46.1418,105.2078 40.6478,98.0888 32.1828,98.1355683 C26.9558,98.1658 23.4248,99.8658 21.4858,101.1638 C21.4558,102.0018 21.4788,102.6828 21.5838,103.1298 C22.2548,105.9838 26.2828,107.1578 26.3758,108.5538 C26.4688,109.9508 22.3738,114.2318 21.1638,115.1628 C19.9538,116.0928 19.2088,119.9098 20.0458,122.1438 C20.8838,124.3768 22.0008,124.3768 27.8648,125.4948 C32.2638,126.3328 54.4048,124.6208 67.1468,123.8138 C64.5778,117.5548 58.4808,113.6058 58.4808,113.6058" id="Fill-36" fill="#870CF7"/><path d="M53.9212,100.428 L65.6932,94.344 L69.4312,99.777 C69.4312,99.777 70.4012,103.963 65.7652,107.556 C61.1292,111.149 53.9212,106.948 53.9212,106.948 L53.9212,100.428 Z" id="Fill-38" fill="#870CF7"/><path d="M61.7181,71.5032 L68.2701,78.3662 C68.2701,78.3662 81.1701,74.2082 85.5681,70.8262 C89.9661,67.4452 90.6461,54.8072 90.6461,54.8072 L88.8021,51.7612 L61.7181,71.5032 Z" id="Fill-40" fill="#870CF7"/><path d="M95.0428,37.6614 C94.2538,37.0044 87.7508,32.0774 84.4008,30.0414 C83.3108,29.3794 82.2298,28.6404 81.2648,27.9444 C81.0968,27.4724 80.9388,27.0264 80.7908,26.6134 C80.5788,28.8784 80.1898,33.2604 80.2768,34.2004 C80.3938,35.4814 86.7128,46.0414 87.6528,46.7824 C88.3428,47.3264 93.7838,48.3174 96.6188,48.8044 C95.7188,43.5014 95.7298,38.2334 95.0428,37.6614" id="Fill-42" fill="#870CF7"/><path d="M5.0951,82.1927 C4.9931,82.3327 6.9411,79.4237 8.9011,72.2737 C10.8621,65.1237 15.0131,52.8397 16.5711,53.8787 C18.1281,54.9167 15.4171,66.7377 15.1291,69.7367 C14.8411,72.7357 14.3221,77.4637 14.3221,77.4637 C14.3221,77.4637 13.8001,72.0817 13.9631,68.0047 C14.1261,63.9277 12.9851,64.9067 12.4951,66.0477 C12.0061,67.1887 8.9441,76.8977 5.0951,82.1927" id="Fill-44" fill="#000"/><path d="M8.8495,79.9114 C10.7255,79.4994 12.6135,79.2534 14.5045,79.0574 C16.3965,78.8554 18.2925,78.7474 20.1875,78.6654 C20.5935,78.6164 21.3205,78.6824 21.7895,78.8214 C22.3045,78.9504 22.7765,79.1154 23.2365,79.2954 C24.1455,79.6804 25.0195,80.0924 25.8515,80.5744 C27.5245,81.5184 29.1085,82.5964 30.5555,83.8724 C28.7345,83.2454 26.9865,82.5254 25.2515,81.8294 C24.3815,81.4884 23.5205,81.1404 22.6595,80.8624 C22.2345,80.7114 21.8055,80.5794 21.4005,80.4904 C20.9555,80.3894 20.7295,80.3834 20.1905,80.3954 C18.3075,80.4404 16.4225,80.4594 14.5345,80.3844 C12.6455,80.3154 10.7545,80.1964 8.8495,79.9114" id="Fill-46" fill="#000"/><path d="M29.8734,35.0442 C30.7014,34.1062 31.6144,33.2622 32.5594,32.4572 C33.4994,31.6482 34.4914,30.9012 35.5074,30.1872 C36.5314,29.4852 37.5834,28.8162 38.6944,28.2452 C39.8004,27.6742 40.9544,27.1482 42.1864,26.8952 C41.1134,27.5342 40.1094,28.2282 39.0954,28.9152 L36.0764,31.0082 C34.0504,32.3922 32.0404,33.8032 29.8734,35.0442" id="Fill-48" fill="#000"/><path d="M79.7967,24.0423 C79.3037,23.2083 75.4947,20.2043 73.5827,18.6753 C73.4537,20.4783 73.3177,22.1033 73.1777,23.3363 C73.1587,23.5013 73.1387,23.6593 73.1197,23.8203 C73.8747,25.8323 75.1427,28.7433 75.2717,29.8073 C75.4617,31.3783 75.5567,40.6203 75.5567,40.6203 C76.0807,38.3343 78.5107,36.6183 78.5107,36.6183 C78.5107,36.6183 79.4157,36.2373 80.9217,37.3333 C82.4287,38.4293 86.0377,39.4303 86.0377,39.4303 C83.7027,35.7613 80.4157,25.0913 79.7967,24.0423" id="Fill-50" fill="#ffa200"/><path d="M73.9154,18.9407 C75.6074,20.0857 77.2704,21.2607 78.8394,22.5877 C79.2314,22.9307 79.6174,23.2447 79.9934,23.6847 C80.3564,24.2157 80.4774,24.6827 80.6844,25.1617 L81.7634,28.0247 C82.4814,29.9277 83.1874,31.8317 83.9374,33.7117 C84.7054,35.5787 85.4524,37.4837 86.4584,39.1607 L86.4594,39.1617 L87.0784,40.2347 L85.9034,39.9117 C84.5654,39.5437 83.2674,39.1127 81.9974,38.5027 C81.6794,38.3547 81.3644,38.1877 81.0584,37.9917 C80.9074,37.8987 80.7454,37.7747 80.6094,37.6797 C80.4844,37.5867 80.3574,37.4957 80.2264,37.4147 C79.9654,37.2527 79.6914,37.1197 79.4134,37.0367 C79.1544,36.9527 78.8104,36.9367 78.6614,36.9767 L78.7344,36.9367 C78.0734,37.3697 77.4474,37.9347 76.8934,38.5327 C76.3384,39.1397 75.8664,39.8257 75.5574,40.6207 C75.6444,39.7667 76.0194,38.9487 76.5044,38.2277 C77.0004,37.5037 77.5934,36.8787 78.2864,36.3017 L78.3224,36.2727 L78.3604,36.2607 C79.3004,35.9817 80.0104,36.3117 80.6754,36.6397 C80.8394,36.7277 80.9944,36.8257 81.1464,36.9267 C81.2944,37.0187 81.4064,37.0957 81.5504,37.1727 C81.8274,37.3237 82.1174,37.4687 82.4164,37.6027 C83.6174,38.1267 84.9034,38.5577 86.1714,38.9477 L85.6154,39.6987 L85.6154,39.6967 C84.5164,37.8837 83.7314,35.9957 82.9924,34.0857 C82.2524,32.1777 81.5734,30.2537 80.9284,28.3217 L79.9434,25.4377 C79.7744,24.9757 79.6054,24.4477 79.4064,24.1287 C79.1444,23.7777 78.7634,23.4117 78.4084,23.0657 L73.9154,18.9407 Z" id="Fill-52" fill="#000"/><path d="M76.8978,68.0071 C77.3948,70.3571 77.7498,72.6731 78.2798,74.9161 C78.4028,75.4841 78.5798,75.9891 78.6858,76.6831 C78.7758,77.3211 78.8098,77.9431 78.8118,78.5541 C78.8158,79.7761 78.7478,80.9741 78.6518,82.1591 C78.2868,86.9051 77.6418,91.5671 77.5518,96.2511 C77.4968,98.5851 77.6138,100.9251 77.7948,103.2711 C77.9708,105.6141 78.2488,107.9531 78.6018,110.2821 C78.9378,112.6221 79.3738,114.9111 79.6978,117.3121 L79.7428,117.7861 C79.7368,117.9791 79.7678,118.1401 79.7208,118.3601 C79.6538,118.7941 79.5118,119.0711 79.3808,119.3791 C79.0978,119.9591 78.8098,120.4971 78.4938,121.0231 C77.8828,122.0871 77.2528,123.0961 76.6658,124.2081 L74.8268,122.6681 C75.7408,121.9541 76.5598,121.0901 77.2778,120.1981 C77.6218,119.7431 77.9738,119.2841 78.2198,118.8061 C78.4988,118.2731 78.5568,118.0911 78.4638,117.4481 C78.1658,115.1611 77.7298,112.7991 77.4038,110.4571 C76.7728,105.7511 76.1398,101.0371 76.1578,96.2351 C76.1668,91.4541 76.7098,86.7121 77.1578,82.0381 C77.2628,80.8691 77.3378,79.7041 77.3438,78.5631 C77.3478,77.9911 77.3188,77.4291 77.2498,76.8981 L76.9208,75.1941 C76.5188,72.8011 76.4818,70.3821 76.8978,68.0071" id="Fill-54" fill="#000"/><path d="M91.3099,49.0901 C93.1459,55.2041 94.0769,61.6401 93.8169,68.0681 C93.7499,71.2581 93.6189,74.4361 93.6179,77.6011 C93.6199,80.7621 93.7539,83.9231 94.3539,86.9801 C94.6619,88.5261 95.0199,90.0741 95.3669,91.6321 C95.5369,92.4141 95.7119,93.2011 95.8269,94.0311 C95.9389,94.8611 95.9559,95.7481 95.8419,96.5831 C95.7449,97.3991 95.5569,98.2651 95.2549,99.0541 C94.9609,99.8481 94.5839,100.5811 94.2229,101.2921 C93.8609,102.0011 93.5009,102.6891 93.2769,103.3671 C93.1599,103.7061 93.0859,104.0401 93.0639,104.3641 C93.0429,104.5361 93.0599,104.6771 93.0799,104.8041 C93.0829,104.9351 93.1639,105.1071 93.1969,105.2571 C94.3149,107.9331 96.7329,110.4431 97.4789,113.8581 C97.6569,114.7301 97.6549,115.6231 97.5569,116.4441 C97.4659,117.2791 97.3149,118.1011 97.0879,118.9021 C96.6519,120.5041 95.9939,122.0531 94.9889,123.4501 C94.4899,124.1451 93.8559,124.7991 93.0269,125.2681 C92.8309,125.3981 92.5989,125.4831 92.3619,125.5601 C92.1339,125.6551 91.8839,125.6931 91.6279,125.7151 C91.3579,125.7551 91.1499,125.7471 90.9479,125.7391 C90.7379,125.7361 90.5319,125.7281 90.3289,125.7131 C88.6979,125.6161 87.1179,125.4131 85.5309,125.2201 C82.3689,124.8321 79.2139,124.3671 76.0849,124.1541 C74.5619,124.0841 72.9789,124.1771 71.3919,124.2561 L66.6329,124.5311 L57.1049,125.1501 C50.7489,125.5591 44.3899,125.9301 38.0149,126.1651 C36.4199,126.2181 34.8259,126.2661 33.2249,126.2721 C31.6179,126.2691 30.0369,126.2981 28.3749,126.0981 C27.5249,126.0281 26.7959,125.8181 25.9979,125.6871 C25.2159,125.5341 24.4329,125.3881 23.6419,125.2101 C22.8539,125.0221 22.0479,124.8551 21.2429,124.4181 C20.8459,124.2011 20.4569,123.8881 20.1829,123.5031 C19.9089,123.1201 19.7309,122.7141 19.5779,122.3191 L20.5139,121.9681 C20.7849,122.6771 21.1239,123.2221 21.7369,123.5231 C22.3359,123.8491 23.1099,124.0221 23.8669,124.1911 C24.6299,124.3551 25.4139,124.4931 26.1949,124.6381 C26.9679,124.7571 27.7839,124.9741 28.5239,125.0191 C30.0259,125.1871 31.6409,125.1521 33.2129,125.1371 C34.7949,125.1161 36.3829,125.0541 37.9689,124.9861 C44.3169,124.7001 50.6649,124.2441 57.0159,123.8121 L66.5459,123.1691 L71.3209,122.8821 C72.9109,122.8001 74.5129,122.6971 76.1699,122.7701 C79.3959,122.9821 82.5479,123.4421 85.7039,123.8191 C87.2779,124.0081 88.8579,124.2041 90.4059,124.2921 C90.6009,124.3061 90.7909,124.3141 90.9799,124.3161 C91.1749,124.3231 91.3659,124.3251 91.4889,124.2971 C91.6319,124.2841 91.7759,124.2721 91.9159,124.2041 C92.0589,124.1571 92.2029,124.1121 92.3379,124.0171 C92.8929,123.7011 93.4129,123.1981 93.8339,122.6001 C94.6869,121.4091 95.3029,119.9831 95.7059,118.5211 C95.9169,117.7901 96.0559,117.0411 96.1389,116.2961 C96.2319,115.5381 96.2269,114.8191 96.0889,114.1321 C95.8169,112.7191 95.0649,111.3411 94.2779,110.0001 C93.4959,108.6281 92.5419,107.3801 91.8919,105.7141 C91.8319,105.4781 91.7419,105.2801 91.7149,105.0121 C91.6749,104.7441 91.6639,104.4881 91.6899,104.2631 C91.7239,103.7931 91.8309,103.3451 91.9739,102.9331 C92.2549,102.0991 92.6459,101.3741 93.0079,100.6681 C93.7599,99.2521 94.3519,97.9301 94.5039,96.4161 C94.7279,94.9521 94.4049,93.4821 94.0659,91.9171 C93.7269,90.3661 93.3729,88.8121 93.0649,87.2341 C92.4499,84.0341 92.3289,80.7981 92.3379,77.6001 C92.3499,74.3981 92.4939,71.2131 92.5719,68.0381 C92.6959,64.8621 92.5319,61.7421 92.2529,58.5801 C91.9929,55.4251 91.6429,52.2701 91.3099,49.0901" id="Fill-56" fill="#000"/><path d="M34.7469,89.8157 C34.7459,89.8157 30.4739,90.6947 27.2559,89.8157 C25.9229,89.4517 24.5599,88.7447 23.0669,88.0417 C22.3149,94.0597 21.0909,101.0357 21.5839,103.1297 C22.2549,105.9837 26.2829,107.1577 26.3749,108.5537 C26.3889,108.7547 26.3079,109.0217 26.1679,109.3247 L26.3049,109.3837 C29.1679,104.3487 26.2329,104.2117 26.2329,100.0607 C26.2329,95.9107 34.7449,89.8177 34.7469,89.8157" id="Fill-58" fill="#000"/><g id="Group-62" transform="translate(0.000000, 172.880000)" fill="#000"><path id="Fill-60"/></g><g id="Group-65" transform="translate(6.000000, 85.880000)" fill="#7b3d16"><path d="M24.1893,55.9806 C23.6223,53.8276 17.5833,47.7416 16.8103,44.9386 C16.0363,42.1346 17.6563,26.8346 18.2593,18.7446 C18.7123,12.6716 18.5973,6.7466 18.4273,2.8066 C15.9743,1.6466 13.2253,0.1766 9.6523,0.1766 C6.5023,0.1766 3.4193,0.4776 0.3623,0.4046 C0.2113,5.6976 1.8213,17.5516 2.5093,22.7146 C3.2793,28.4936 4.5213,41.8476 4.7643,45.4946 C5.0073,49.1406 5.9803,54.8116 6.5473,59.5116 C7.1143,64.2106 7.4213,68.8066 7.3873,69.7096 C7.3543,70.6116 8.0893,71.6466 9.0923,73.4516 C10.0943,75.2556 11.4643,78.1306 12.3003,79.2666 C13.1363,80.4026 14.4393,80.1016 14.4393,80.1016 C14.4393,80.1016 15.9093,83.4776 17.2133,84.4806 C18.5163,85.4826 19.3723,84.6566 19.3723,84.6566 C19.3723,84.6566 20.7893,88.0376 21.6393,88.0009015 C23.2263,87.5456 22.4323,84.8826 21.7483,82.6716 C21.0643,80.4626 20.2223,78.0826 20.1083,77.0056 C19.9953,75.9286 20.1083,75.1346 19.9953,70.8846 C19.8823,66.6346 19.6553,59.8906 19.6553,59.8906 C19.8823,60.6846 21.8093,62.3286 22.0313,62.7246 C22.2543,63.1216 22.5453,65.1046 23.0563,67.4276 C23.5653,69.7516 26.3993,73.2656 27.2493,72.9256 C28.0993,72.5856 26.1163,68.1086 25.6623,65.5586 C25.2093,63.0076 24.7553,58.1346 24.1893,55.9806" id="Fill-63"/></g><path d="M1.0003,85.6331 C3.8823,85.9601 6.7033,85.8991 9.5693,85.7631 L13.8853,85.5361 C15.3123,85.4751 16.8343,85.4321 18.3193,85.7171 C21.3063,86.2301 23.8933,87.8501 26.4513,88.8551 C28.9573,89.8171 31.8963,89.6601 34.6183,89.2131 L34.6233,89.2121 L34.2363,89.4711 C34.2163,89.4621 34.2053,89.4661 34.2103,89.4701 L34.2273,89.3041 C34.2423,89.1881 34.2503,89.0571 34.2523,88.9131 C34.2653,88.6401 34.2633,88.3531 34.2633,88.0681 L34.2243,86.3331 L34.0953,82.8361 C34.0193,80.4881 33.8573,78.1771 33.9713,75.7511 C34.1753,73.2821 34.7463,71.0181 35.2953,68.7181 C35.8743,66.4361 36.4803,64.1651 37.1763,61.9221 L38.2223,58.5771 C38.5493,57.4841 38.8183,56.3721 39.0333,55.2511 C39.4523,53.0071 39.6543,50.7191 39.4913,48.4641 C39.4103,47.3381 39.2513,46.2341 38.8203,45.3111 C38.6103,44.8991 38.2843,44.3421 38.0103,43.8391 C37.7253,43.3251 37.4373,42.8151 37.1673,42.2921 C36.0683,40.2161 35.0233,38.1101 34.1623,35.9111 C35.6643,37.7491 36.9823,39.6791 38.2473,41.6401 C38.5683,42.1261 38.8713,42.6241 39.1773,43.1211 C39.4803,43.6341 39.7873,44.0641 40.1103,44.6931 C40.6843,45.8961 40.8553,47.1541 40.9613,48.3491 C41.1653,50.7621 40.9793,53.1751 40.5693,55.5301 C40.3593,56.7091 40.0913,57.8771 39.7633,59.0291 L38.7563,62.3941 C38.1153,64.6331 37.4543,66.8671 36.8813,69.1181 C36.3263,71.3591 35.7503,73.6531 35.5573,75.8511 C35.4543,78.0991 35.5223,80.4681 35.5493,82.7951 L35.5913,86.3121 C35.5953,86.9021 35.5853,87.4901 35.5663,88.0871 C35.5553,88.3861 35.5443,88.6831 35.5183,88.9931 C35.5093,89.1431 35.4933,89.3031 35.4653,89.4761 C35.4493,89.5681 35.4473,89.6291 35.4203,89.7441 C35.3793,89.8871 35.3233,90.0291 35.2583,90.1591 L35.1563,90.3611 L34.8713,90.4191 L34.8643,90.4201 C33.3883,90.7041 31.9363,90.8451 30.4403,90.8501 C28.9693,90.8411 27.3943,90.6701 25.9843,90.0811 C24.5833,89.5331 23.3163,88.8451 22.0253,88.2651 C20.7393,87.6811 19.4333,87.1951 18.0853,86.9041 C16.7403,86.6101 15.3623,86.6091 13.9163,86.6321 L9.6033,86.7431 C6.7283,86.8211 3.7293,86.6741 1.0003,85.6331" id="Fill-66" fill="#000"/><path d="M29.8734,100.7923 C34.2534,100.1533 38.5484,99.3383 42.6734,97.9463 C46.8054,96.5763 50.7134,94.6583 54.4994,92.3563 C51.2904,95.4273 47.2774,97.6543 43.0374,99.0463 C38.7884,100.4323 34.2964,101.0383 29.8734,100.7923" id="Fill-68" fill="#000"/><path d="M28.8226,114.8216 C30.0666,113.1416 31.7876,111.8416 33.7106,110.9456 C34.6846,110.4996 35.7196,110.2156 36.6956,109.9596 L39.6586,109.1706 C41.6346,108.6556 43.6046,108.1396 45.5606,107.5806 C47.5076,106.9986 49.4836,106.4716 51.2886,105.4966 C50.5036,106.1696 49.5736,106.6486 48.6546,107.1116 C47.7336,107.5816 46.7776,107.9716 45.8186,108.3466 C43.8966,109.0876 41.9396,109.7176 39.9756,110.3016 C38.0336,110.9036 35.9746,111.3706 34.1806,112.0546 C32.3456,112.7726 30.5886,113.7346 28.8226,114.8216" id="Fill-70" fill="#000"/><path d="M58.3026,106.1888 C60.1126,105.6828 61.9606,105.3408 63.8166,105.0698 C65.6756,104.8058 67.5476,104.6318 69.4286,104.5528 C71.3086,104.5028 73.1996,104.4878 75.0836,104.6838 C76.9596,104.9148 78.8416,105.3378 80.5586,106.1888 C78.6436,106.1808 76.8216,106.1108 74.9816,106.0348 C73.1446,105.9588 71.3026,105.8858 69.4546,105.8928 C67.6066,105.8898 65.7546,105.9358 63.8966,105.9908 L58.3026,106.1888 Z" id="Fill-72" fill="#000"/><path d="M92.5287,105.8948 L92.4267,104.9008 C95.4417,104.5918 100.6617,103.4508 108.4167,99.7628 C118.9177,94.7698 128.2187,86.2388 132.1907,82.5958 C133.1077,81.7548 133.7687,81.1488 134.1477,80.8538 C136.2427,79.2238 137.9887,79.0658 138.0617,79.0598 L138.1177,79.0548 L138.1727,79.0628 C141.7237,79.5648 145.8717,79.5048 150.8517,78.8838 C153.5057,78.5518 156.3147,78.3088 157.9917,78.1628 L158.9197,78.0818 C160.2307,77.9618 161.2597,77.5138 162.0187,75.7158 C162.7577,73.9638 162.4157,72.9848 162.4127,72.9748 L162.2927,72.6478 L162.5557,72.4158 C164.5527,70.7188 163.7627,69.1388 163.7287,69.0728 L163.4827,68.6008 L163.9677,68.3798 C164.0407,68.3468 165.7557,67.5648 165.5427,65.9678 C165.3407,64.4598 163.3967,64.5698 163.3137,64.5768 L163.2437,63.5788 C164.2707,63.5058 166.2727,63.8828 166.5337,65.8348 C166.7677,67.5958 165.4917,68.6358 164.7957,69.0658 C165.0577,69.9828 164.9847,71.5198 163.4397,72.9658 C163.5387,73.4898 163.5907,74.5618 162.9397,76.1048 C161.9287,78.4998 160.3857,78.9528 159.0097,79.0778 L158.0787,79.1598 C156.4077,79.3038 153.6117,79.5468 150.9757,79.8758 C145.9367,80.5058 141.7237,80.5668 138.0967,80.0618 C137.8287,80.0998 136.4237,80.3508 134.7617,81.6428 C134.4147,81.9128 133.7657,82.5078 132.8667,83.3328 C128.8617,87.0058 119.4827,95.6088 108.8467,100.6658 C100.9627,104.4158 95.6207,105.5798 92.5287,105.8948" id="Fill-74" fill="#000"/><path d="M170.8997,60.7249 C170.8567,61.4759 170.4237,62.2099 169.7997,62.6999 C169.1487,63.2029 168.3837,63.3739 167.6857,63.5929 C166.2507,63.9879 164.8137,64.3119 163.3487,64.5489 L163.2797,64.5539 C161.7327,64.7129 160.1897,64.8589 158.6417,64.9679 L158.5357,63.9739 C160.1147,63.8219 161.6987,63.7039 163.2797,63.6019 L163.2117,63.6069 C164.6437,63.3979 166.0957,63.1999 167.5067,62.8879 C168.2117,62.7159 168.9187,62.5769 169.4907,62.2459 C170.0747,61.9119 170.5817,61.3999 170.8997,60.7249" id="Fill-76" fill="#000"/><path d="M83.5448,107.5559 C84.6338,107.4949 85.6928,107.5909 86.7418,107.7499 C87.8008,107.9229 88.8048,108.1149 89.8968,108.5499 C90.5328,108.8269 90.9578,109.2489 91.3438,109.6219 C91.7268,110.0169 92.0858,110.4169 92.4048,110.8489 C93.0568,111.6959 93.6308,112.5969 94.0598,113.6059 C93.1428,113.0089 92.3308,112.3409 91.5438,111.6649 L90.3758,110.6779 C89.9878,110.3549 89.6258,110.0529 89.2938,109.9139 C88.4428,109.5609 87.4108,109.2329 86.4508,108.8579 C85.4728,108.4859 84.4978,108.0839 83.5448,107.5559" id="Fill-78" fill="#000"/><path d="M85.5677,93.4173 C86.5877,95.4833 87.6737,97.5173 88.8497,99.4793 C89.4427,100.4563 90.0477,101.4283 90.7177,102.3253 C91.0517,102.7683 91.3897,103.2223 91.7597,103.5903 C92.1037,104.0013 92.5377,104.2853 92.7827,104.3963 L92.1337,106.0193 C91.7827,105.8063 91.4037,105.5653 91.2107,105.3173 L90.8627,104.9473 L90.5847,104.5693 C90.2007,104.0673 89.9117,103.5513 89.6157,103.0343 C89.0317,102.0013 88.5467,100.9423 88.0737,99.8823 C87.1417,97.7553 86.3197,95.5973 85.5677,93.4173" id="Fill-80" fill="#000"/><path d="M75.1,64.6224 C75.874,62.8174 76.56,60.9464 77.147,59.0634 C77.734,57.1824 78.17,55.2404 78.722,53.3004 C79.281,51.3454 80.029,49.4664 80.989,47.6544 C81.985,45.8534 83.217,44.2334 84.725,42.7944 L84.726,42.7924 L84.803,43.5954 C83.806,42.8794 82.909,42.1124 82.037,41.2944 C81.171,40.4784 80.36,39.6084 79.611,38.6964 C80.481,39.4954 81.397,40.2334 82.355,40.9074 C83.306,41.5794 84.309,42.2114 85.314,42.7354 L85.923,43.0534 L85.392,43.5384 L85.391,43.5394 C84.014,44.8534 82.795,46.4434 81.867,48.1354 C80.958,49.8484 80.218,51.6964 79.683,53.5764 C79.142,55.4744 78.704,57.4294 78.102,59.3584 C77.501,61.2844 76.813,63.1654 76.014,65.0264 L75.1,64.6224 Z" id="Fill-82" fill="#000"/><path d="M141.5003,72.3704 C142.1163,71.6924 142.7613,71.0714 143.3963,70.4574 C144.0473,69.8344 144.6273,69.2534 145.1123,68.5014 C145.6353,67.7724 146.1323,66.9964 146.9003,66.3474 C147.2843,66.0364 147.7803,65.7394 148.3733,65.7144 C148.9353,65.6964 149.3773,65.8044 149.8363,65.9014 C151.6173,66.3194 153.3063,67.0124 154.9613,67.0334 C155.7813,67.0324 156.6023,66.8904 157.1743,66.4414 C157.7593,66.0114 158.0333,65.2654 158.0883,64.4554 L158.0893,64.4434 L158.5723,64.9714 C157.4373,64.9214 156.3273,64.8154 155.2023,64.6144 C154.6423,64.5094 154.0803,64.3824 153.5153,64.1734 C152.9653,63.9624 152.4723,63.7324 151.9623,63.5024 L150.4623,62.8324 C149.9773,62.6324 149.4463,62.4264 149.0463,62.3944 L145.7303,62.2484 L145.6943,62.2454 L145.6633,62.2394 C145.1733,62.1594 144.5763,62.1574 144.0293,62.2104 C143.7203,62.2394 143.5393,62.2704 143.2533,62.3654 C142.9873,62.4414 142.7083,62.5474 142.4363,62.6424 C141.3373,63.0484 140.2413,63.5024 139.1543,63.9684 C138.0673,64.4364 136.9853,64.9204 135.9223,65.4294 C135.4073,65.6834 134.8383,65.9564 134.4173,66.2244 L133.0293,67.3084 C129.2293,70.2214 125.1573,72.8064 120.7593,74.7684 C116.2863,76.6744 111.5193,77.5254 106.7883,78.1364 C104.4183,78.4384 102.0343,78.6434 99.6713,78.8534 C97.4033,78.9974 95.3133,80.1584 93.4073,81.4744 L92.8313,80.6574 C93.8243,79.9604 94.8703,79.3254 95.9913,78.8154 C97.0983,78.3084 98.3493,77.9294 99.5793,77.8584 C101.9553,77.6464 104.3133,77.4444 106.6633,77.1434 C111.3463,76.5424 116.0533,75.6894 120.3553,73.8534 C124.6523,71.9364 128.6733,69.3884 132.4183,66.5164 L133.8433,65.4054 C134.4263,65.0344 134.9393,64.8044 135.4883,64.5284 C136.5713,64.0104 137.6613,63.5224 138.7593,63.0504 C139.8583,62.5784 140.9613,62.1204 142.0943,61.7024 C142.3823,61.6014 142.6603,61.4964 142.9663,61.4074 C143.2443,61.3094 143.6513,61.2344 143.9353,61.2144 C144.5713,61.1604 145.1743,61.1474 145.8593,61.2594 L145.7923,61.2504 L149.1033,61.3954 C149.8083,61.4644 150.3133,61.7004 150.8483,61.9104 L152.3763,62.5934 C152.8743,62.8174 153.3843,63.0534 153.8663,63.2374 C154.3383,63.4124 154.8593,63.5324 155.3843,63.6304 C156.4353,63.8204 157.5323,63.9254 158.6043,63.9714 L158.6323,63.9724 C158.8963,63.9834 159.1013,64.2074 159.090723,64.4724 L159.0883,64.4984 L159.0863,64.5134 C159.0483,65.0044 158.9743,65.5064 158.7703,65.9924 C158.5653,66.4744 158.2373,66.9274 157.8153,67.2584 C156.9583,67.9274 155.9013,68.1084 154.9463,68.0904 C152.9853,68.0184 151.2943,67.2804 149.6023,66.8524 C149.1913,66.7444 148.7493,66.6424 148.4123,66.6454 C148.0963,66.6414 147.7643,66.8044 147.4503,67.0404 C146.8193,67.5294 146.2913,68.2584 145.7523,68.9664 C144.6523,70.4894 143.1643,71.6254 141.5003,72.3704" id="Fill-84" fill="#000"/><path d="M157.4271,69.5589 C156.1911,69.5589 155.1051,69.5209 154.5101,69.4099 C152.2841,68.9969 151.8251,67.2989 151.8061,67.2269 L152.7741,66.9739 C152.7871,67.0209 153.1151,68.1329 154.6931,68.4269 C156.5511,68.7739 164.0651,68.3429 164.1401,68.3379 L164.1981,69.3359 C163.9791,69.3489 160.2981,69.5589 157.4271,69.5589" id="Fill-86" fill="#000"/><path d="M162.5287,73.303 C159.9207,73.303 153.4127,72.439 152.2077,71.14 C151.9517,70.864 151.9227,70.593 151.9437,70.414 C152.0797,69.248 154.0567,68.567 154.4507,68.442 L154.7537,69.395 C153.9277,69.657 152.9757,70.199 152.9367,70.532 C153.4127,71.264 160.1047,72.435 162.8587,72.296 L162.8997,73.296 C162.7877,73.3 162.6627,73.303 162.5287,73.303" id="Fill-88" fill="#000"/><path d="M156.641,72.6487 C155.448,72.7407 154.233,72.8857 153.078,73.1147 C152.791,73.1737 152.508,73.2437 152.249,73.3307 C152.122,73.3737 151.997,73.4227 151.907,73.4747 C151.806,73.5157 151.783,73.6067 151.822,73.4767 C151.793,73.3757 151.912,73.6667 152.135,73.7987 C152.338,73.9627 152.584,74.1127 152.833,74.2547 C153.861,74.8047 155.018,75.1847 156.182,75.4867 C157.355,75.7767 158.539,76.0057 159.738,76.3367 C158.499,76.4647 157.258,76.3427 156.045,76.0917 C154.829,75.8467 153.622,75.5317 152.456,74.9927 C152.166,74.8477 151.877,74.6987 151.598,74.4847 C151.458,74.3827 151.319,74.2597 151.186,74.1007 C151.06,73.9407 150.907,73.7107 150.931,73.3437 C151.034,72.9057 151.287,72.7997 151.44,72.6867 C151.613,72.5817 151.772,72.5157 151.932,72.4547 C152.249,72.3357 152.559,72.2517 152.869,72.1757 C154.106,71.8897 155.327,71.7627 156.569,71.6517 L156.641,72.6487 Z" id="Fill-90" fill="#000"/></g></g></g><g id="Head" transform="translate(112.000000, 0.000000) scale(1 1)"><g id="Head/Pink Hair" stroke="none" stroke-width="1" fill="none" fill-rule="evenodd"><g id="Group-31" transform="translate(14.000000, 3.000000)"><path d="M68.1908,53.1089 C67.4558,47.7479 61.4998,42.0559 61.3008,37.1589 L40.3678,37.1589 L40.3678,61.0649 L63.8548,61.0649 C65.4318,57.1249 62.9438,52.5649 62.9438,52.5649 C66.5238,53.8389 67.6618,61.0649 67.6618,61.0649 C67.6618,61.0649 68.9258,58.4689 68.1908,53.1089" id="Fill-1" fill="#000"/><g id="Group-5" transform="translate(0.000000, 33.369900)" fill="#870cf7"><path d="M28.5501,27.6951 L28.5501,19.2371 L34.5671,19.2371 L34.5671,0.4631 L15.7721,0.4631 C12.8901,6.9071 7.2041,7.7411 2.8821,13.6551 C-1.4399,19.5691 0.3801,27.6951 0.3801,27.6951 C0.3801,27.6951 1.6831,14.2391 13.1301,13.1371 C13.1301,13.1371 4.8051,17.3981 4.8051,27.6951 L28.5501,27.6951 Z" id="Fill-3"/></g><g id="Group-8" transform="translate(7.000000, 0.369900)" fill="#870cf7"><path d="M27.5673,16.8572 C27.5673,22.5882 16.9093,23.1772 11.0873,22.4222 C5.3513,21.6792 0.8033,16.7392 0.8033,11.0072 C0.8033,5.2762 5.4923,0.6292 11.2753,0.6292 C20.7723,0.6292 27.5673,11.1262 27.5673,16.8572" id="Fill-6"/></g><path d="M50.852,63.3316 L50.386,63.1516 C55.986,48.6946 54.61,30.5696 47.254,21.8866 L47.636,21.5636 C55.224,30.5196 56.607,48.4776 50.852,63.3316" id="Fill-9" fill="#00BFF9"/><path d="M20.8808,39.3394 C20.8078,38.7014 20.7708,38.0544 20.7708,37.3984 C20.7708,27.7064 28.9268,19.8504 38.9878,19.8504 C48.0078,19.8504 56.1008,26.4074 57.5538,34.6974 C57.5538,34.6974 61.6088,56.9474 49.9708,63.5984 C45.6758,66.0524 33.2618,55.9524 33.2618,55.9524" id="Fill-11" fill="#7b3d16"/><path d="M57.5541,34.6988 C58.3381,38.8408 58.6321,43.0928 58.3391,47.3238 C58.0471,51.5298 57.1411,55.8448 54.7881,59.4948 C53.6191,61.3068 52.0271,62.8648 50.1411,63.9648 C49.0261,64.5378 47.8291,64.3978 46.7751,64.1798 C45.7071,63.9318 44.7021,63.5378 43.7301,63.0948 C41.7811,62.2108 39.9931,61.0528 38.2481,59.8608 C36.5071,58.6588 34.8451,57.3468 33.2621,55.9528 C36.6991,58.3828 40.2261,60.7328 44.0221,62.4448 C44.9711,62.8608 45.9461,63.2218 46.9361,63.4358 C47.9141,63.6338 48.9631,63.6888 49.7471,63.2568 C51.5101,62.2458 53.0321,60.7978 54.1611,59.0798 C55.2911,57.3598 56.1161,55.4328 56.6681,53.4288 C57.2341,51.4278 57.6111,49.3638 57.8071,47.2788 C58.1971,43.1078 58.0851,38.8778 57.5541,34.6988" id="Fill-13" fill="#000"/><path d="M28.998,41.9165 C35.552,40.1595 38.498,33.1135 36.739,25.0015 L23.423,25.0015 L23.423,41.9165 L28.998,41.9165 Z" id="Fill-15" fill="#870cf7"/><path d="M62.5419,38.4019 C62.1089,25.7369 51.6479,15.5989 38.7969,15.5989 C25.9469,15.5989 15.4849,25.7369 15.0529,38.4019 C17.3613757,41.8006333 19.2673423,43.5 20.7708,43.5 C23.3568979,43.5 27.5852645,41.8006333 33.4559,38.4019 C39.7299,30.8219 36.7389,25.0019 36.7389,25.0019 C41.2129,27.2379 40.3679,38.4019 40.3679,38.4019 L62.5419,38.4019 Z" id="Fill-17" fill="#870cf7"/><path d="M62.5419,38.4019 C62.2339,32.8089 59.8629,27.4399 56.0719,23.4279 C52.2799,19.4279 47.0929,16.7399 41.6119,16.1609 C38.8809,15.8619 36.0989,15.9979 33.4269,16.6349 C30.7509,17.2399 28.1719,18.3139 25.8749,19.8309 C21.2579,22.8289 17.6869,27.4269 15.9419,32.7449 C17.2819,27.3069 20.7739,22.3959 25.4829,19.2359 C27.8319,17.6459 30.4809,16.5059 33.2429,15.8469 C36.0119,15.2039 38.8859,15.0859 41.7019,15.4139 C47.3539,16.0399 52.6929,18.8659 56.4639,23.0659 C60.2919,27.2339 62.4479,32.8129 62.5419,38.4019" id="Fill-19" fill="#000"/><path d="M30.5238,51.4927 C30.5238,51.4927 30.2298,53.4627 31.3468,55.4817 C32.2368,57.0907 34.1478,58.4187 34.1208,61.0647 L28.1268,61.0647 L28.1268,51.4807 L30.5238,51.4927 Z" id="Fill-21" fill="#870cf7"/><path d="M36.7387,25.0015 C37.8657,25.5035 38.6347,26.5675 39.1577,27.6555 C39.6837,28.7595 40.0467,29.9415 40.2607,31.1425 C40.6937,33.5445 40.8497,35.9805 40.7177,38.4285 L40.3677,38.0505 C44.0637,38.0475 47.7597,37.9575 51.4547,38.0245 C55.1507,38.0465 58.8457,38.1575 62.5417,38.4015 C58.8457,38.6465 55.1507,38.7585 51.4547,38.7785 C47.7597,38.8475 44.0637,38.7565 40.3677,38.7535 L39.9937,38.7535 L40.0167,38.3755 C40.1637,36.0045 40.1577,33.5825 39.8087,31.2195 C39.6327,30.0375 39.3607,28.8695 38.9187,27.7645 C38.4707,26.6755 37.8077,25.6055 36.7387,25.0015" id="Fill-23" fill="#000"/><path d="M30.5238,51.4927 C30.0268,52.3437 28.8348,52.6627 27.8958,52.6937 C25.3908,52.7737 21.5778,49.6187 20.4148,45.3847 C19.2518,41.1487 21.0068,38.1557 23.5108,38.0747 C25.3618,38.0147 27.5628,39.4467 29.0548,41.9067" id="Fill-25" fill="#7b3d16"/><path d="M30.5238,51.4937 C30.2258,52.0607 29.6288,52.4237 29.0218,52.6127 C28.4108,52.8067 27.7508,52.8847 27.0988,52.7767 C25.7948,52.5687 24.6608,51.8457 23.6738,51.0287 C21.7018,49.3727 20.2768,47.0197 19.8238,44.4427 C19.5878,43.1617 19.5818,41.8027 20.0128,40.5117 C20.4448,39.2527 21.4848,38.0277 22.9198,37.7827 C24.3398,37.5297 25.6528,38.1657 26.6688,38.9347 C27.7038,39.7267 28.4868,40.7827 29.0548,41.9067 C28.3088,40.8867 27.4158,39.9937 26.3948,39.3217 C25.3868,38.6557 24.1568,38.2637 23.0648,38.4957 C21.9698,38.7437 21.1448,39.6807 20.7778,40.7807 C20.3888,41.8847 20.3618,43.1207 20.5648,44.3137 C20.7558,45.5147 21.1778,46.6737 21.7818,47.7367 C22.3818,48.7987 23.1158,49.8027 24.0268,50.6297 C24.9238,51.4587 25.9818,52.1607 27.1598,52.4597 C27.7428,52.6037 28.3728,52.5827 28.9738,52.4417 C29.5648,52.2967 30.1678,52.0257 30.5238,51.4937" id="Fill-27" fill="#000"/><path d="M28.9984,41.9165 C30.6274,41.3505 32.0974,40.4345 33.2744,39.2435 C34.4434,38.0425 35.3124,36.5845 35.8874,35.0205 C36.4694,33.4565 36.7394,31.7865 36.8524,30.1095 C36.9554,28.4275 36.8874,26.7275 36.7384,25.0015 C37.8514,28.2675 37.9144,31.9935 36.6164,35.2995 C35.9744,36.9445 34.9724,38.4685 33.6404,39.6315 C32.3294,40.8125 30.6914,41.6005 28.9984,41.9165" id="Fill-29" fill="#000"/></g></g></g><g id="Expressions" transform="translate(158.000000, 29.000000) scale(1 1)" fill="#000"><g id="Expressions/Wink" stroke="none" stroke-width="1" fill="none" fill-rule="evenodd"><g id="Group-12-Copy" transform="translate(7.000000, 5.000000)" fill="#000"><path d="M11.5379491,7.25091701 C11.6180931,8.32773995 12.0257588,9.38610306 12.5295974,10.3788312 C13.0467932,11.36797 13.6660391,12.3217275 14.3990894,13.1606238 C14.5850235,13.3667585 14.7757662,13.568791 14.9771947,13.7513381 C15.0744361,13.8492777 15.181829,13.9261937 15.2844133,14.0123395 C15.3736403,14.0866915 15.5472856,14.2225763 15.6642958,14.3584611 C15.7893205,14.5061397 15.9100707,14.681508 15.9693773,14.9096919 C16.0292181,15.1378758 15.9982291,15.3983644 15.9036592,15.5983458 C15.7091765,16.0039491 15.3992864,16.2157243 15.1113023,16.3905799 C14.5209083,16.7274716 13.8941823,16.866433 13.2695935,16.95463 C12.6439361,17.0310331 12.0033185,17.0166755 11.3840726,16.8674586 C11.2403477,16.8331028 11.1532579,16.6936286 11.1895899,16.5556927 C11.2216475,16.4316017 11.3434663,16.3516091 11.4716967,16.3623773 L11.4781082,16.3628901 C12.0327046,16.4080141 12.5985212,16.3551985 13.1451032,16.2444396 C13.6890137,16.1367573 14.2249098,15.9439547 14.653413,15.6850044 C14.8639246,15.5588623 15.0391727,15.3916984 15.085122,15.2676074 C15.1294683,15.1568484 15.1080966,15.0876241 14.9734547,14.9271262 C14.8965164,14.8455953 14.8345384,14.8050863 14.7004308,14.6907379 C14.5807491,14.5876706 14.4519845,14.4892182 14.3451258,14.3784593 C14.1175169,14.1656586 13.911814,13.9400385 13.7125226,13.7113418 C12.9329888,12.7873252 12.290234,11.7807522 11.8093701,10.6982887 C11.3236975,9.62556797 10.9593095,8.46311197 11.0036558,7.2473276 C11.0084645,7.1058023 11.1324205,6.99504337 11.2798854,7.0001711 C11.4171988,7.00478606 11.5267289,7.10785339 11.5368805,7.23655937 L11.5379491,7.25091701 Z" id="Fill-1"/><path d="M0.0556765477,3.58091006 C0.874090172,2.55772659 1.97844198,1.63665308 3.31413354,1.04222724 C4.6441964,0.438423959 6.1104739,0.151890909 7.54973363,0.0081034153 L7.55873955,0.00706147694 C8.27302215,-0.0643113009 8.91525732,0.413417438 8.99237057,1.0750483 C9.06948382,1.73615819 8.55333163,2.33058403 7.83848616,2.4019568 C7.73041504,2.41289716 7.61727808,2.41029231 7.51370992,2.39726808 C6.28214939,2.23368376 5.03933145,2.18419169 3.8387288,2.4139391 C2.63812614,2.63483003 1.48705608,3.17090732 0.462069008,3.94142074 C0.340488992,4.03259034 0.161496191,4.01539836 0.0629938635,3.90338999 C-0.0203109621,3.80805262 -0.0191852212,3.67468451 0.0556765477,3.58091006" id="Fill-7"/></g><g id="Group" transform="translate(10.000000, 5.000000)" fill="#000"><g id="Group-18"><path d="M9.01758545,6.63233625 C9.3809508,5.52891014 9.923822,4.47790812 10.6391661,3.70112436 C11.3501566,2.91677945 12.1763523,2.41320581 13.0028829,2.04926171 L13.0082413,2.0472454 C13.4184925,1.8662815 13.8485027,2.22115221 13.9687315,2.8386474 C14.0886253,3.45664667 13.8531913,4.10337838 13.4429401,4.28434227 C13.3806489,4.31156247 13.314004,4.3266848 13.2523826,4.33071742 C12.512256,4.36902733 11.7788273,4.51722618 11.1013267,4.92502504 C10.4231563,5.32475867 9.80962146,6.01685736 9.29622137,6.91209938 C9.23526976,7.0179557 9.1287719,7.03005356 9.05844312,6.93831142 C8.99883111,6.86068345 8.98409555,6.73365587 9.01758545,6.63233625" id="Fill-9-Copy" transform="translate(11.500000, 4.500000) scale(-1, 1) rotate(41.000000) translate(-11.500000, -4.500000)"/><path d="M2.99717249,9.15029338 C3.21141031,10.0039316 2.96204216,10.7117838 2.44040055,10.7311473 C1.91826112,10.7510167 1.32177824,10.0745789 1.10754042,9.22094061 C0.893302607,8.36730235 1.14267076,7.65945019 1.66481361,7.64009015 C2.1864518,7.6202173 2.78293468,8.29665512 2.99717249,9.15029338" id="Fill-11" transform="translate(2.052360, 9.185619) rotate(20.000000) translate(-2.052360, -9.185619)"/></g></g><g id="Group-12-Copy" transform="translate(18.000000, 12.000000)" fill="#000"><path d="M0.53794908,0.250917013 C0.618093068,1.32773995 1.02575882,2.38610306 1.52959735,3.37883125 C2.04679322,4.36797003 2.66603909,5.32172748 3.39908943,6.16062383 C3.58502348,6.3667585 3.77576617,6.568791 3.97719473,6.75133812 C4.0744361,6.84927773 4.18182904,6.92619366 4.28441335,7.01233949 C4.37364032,7.08669155 4.54728563,7.22257635 4.66429585,7.35846115 C4.78932047,7.50613972 4.91007074,7.68150803 4.96937729,7.90969193 C5.02921814,8.13787584 4.99822913,8.39836444 4.90365922,8.59834584 C4.70917648,9.00394914 4.3992864,9.21572432 4.11130234,9.39057985 C3.52090829,9.7274716 2.89418231,9.86643304 2.2695935,9.95462996 C1.64393611,10.0310331 1.0033185,10.0166755 0.384072625,9.86745858 C0.24034774,9.8331028 0.153257941,9.69362859 0.189589882,9.5556927 C0.221647477,9.43160168 0.343466338,9.35160912 0.471696717,9.36237735 L0.478108236,9.36289012 C1.03270463,9.40801413 1.59852118,9.35519853 2.14510318,9.2444396 C2.6890137,9.13675731 3.22490983,8.94395472 3.65341302,8.68500445 C3.86392456,8.55886233 4.03917275,8.39169839 4.08512197,8.26760737 C4.12946831,8.15684844 4.10809658,8.08762411 3.97345468,7.92712621 C3.89651645,7.84559533 3.83453843,7.80508628 3.70043083,7.69073794 C3.58074914,7.5876706 3.45198447,7.48921822 3.34512582,7.37845929 C3.11751689,7.16565856 2.91181399,6.94003852 2.71252261,6.71134184 C1.93298876,5.78732521 1.29023398,4.78075215 0.809370051,3.69828872 C0.323697487,2.62556797 -0.0406905091,1.46311197 0.00365583063,0.247327603 C0.00846446988,0.105802303 0.132420504,-0.0049566271 0.279885441,0.000171101153 C0.417198806,0.00478605658 0.526728922,0.107853395 0.536880494,0.236559374 L0.53794908,0.250917013 Z" id="Fill-1"/><g id="Group-11" transform="translate(1.000000, 1.000000)"><path d="M0.202625,1.7113 C0.335125,1.3438 0.55075,1.0143 0.86825,0.7128 C1.185125,0.4203 1.63825,0.1413 2.2345,0.0838 C2.37825,0.0593 2.528875,0.0773 2.6745,0.0828 C2.802625,0.1043 2.932625,0.1158 3.058875,0.1508 C3.31325,0.2088 3.555125,0.3103 3.766375,0.4368 C4.195125,0.6963 4.47075,1.0508 4.57075,1.4643 C4.59825,1.5768 4.507,1.6858 4.366375,1.7073 C4.267,1.7228 4.17075,1.6908 4.112625,1.6318 L4.081375,1.5998 C3.857625,1.3708 3.5595,1.1638 3.267,1.0398 C3.117,0.9753 2.962625,0.9258 2.796375,0.8968 C2.717625,0.8743 2.628875,0.8713 2.546375,0.8568 C2.47575,0.8638 2.407625,0.8433 2.337625,0.8558 C1.77075,0.8803 1.1295,1.3758 0.597,1.8653 L0.583875,1.8773 C0.50325,1.9513 0.362625,1.9593 0.270125,1.8948 C0.202625,1.8478 0.1795,1.7758 0.202625,1.7113" id="Fill-9"/></g></g><path d="M13.5337439,24.2298502 C13.6133413,24.5089219 13.7752252,24.8224608 13.9709918,25.0648418 C14.1683719,25.3144498 14.4077019,25.521808 14.6749986,25.6774655 C14.9482113,25.8236725 15.2386343,25.9354123 15.5489566,25.9904484 C15.7000841,26.0265832 15.8630437,26.027695 16.0173981,26.0499318 L16.4976716,26.0510437 L16.5428485,26.0515996 C16.7961619,26.0521555 17.0010714,26.2650728 17,26.5269111 C16.999458,26.7893053 16.7934728,27.0005548 16.5401594,27 C16.5261761,27 16.5121928,26.999443 16.4987473,26.9977752 L15.9265064,26.9427392 C15.7361181,26.9004892 15.5457297,26.8782525 15.3585682,26.8159894 C14.982094,26.7120324 14.6201409,26.5363617 14.2888436,26.3139938 C13.9623867,26.0816193 13.6794932,25.7858699 13.4606003,25.4512061 C13.2411696,25.1098713 13.0857396,24.75853 13.0050665,24.3304717 C12.976562,24.1803733 13.0712184,24.0347223 13.2164299,24.0052585 C13.3530363,23.9774626 13.4858779,24.0625183 13.5246009,24.1976068 L13.5337439,24.2298502 Z" id="Fill-5" fill="#000"/></g></g></g></g></g></svg>