<svg viewBox="35.349397590361434 14.737500000000011 255.30120481927702 368.4375" xmlns="http://www.w3.org/2000/svg" overflow="visible" xmlns:xlink="http://www.w3.org/1999/xlink" width="255.30120481927702px" height="368.4375px"><g id="Master/Comp/Squiggle" stroke="none" stroke-width="1" fill="none" fill-rule="evenodd"><path d="M281,312 C268.396019,313.423812 258.665344,325.60301 253,336 C263.616413,329.699668 272.999463,321.387894 281,312 M265,271 C241.881595,277.085279 218.461925,298.640012 206,319 C228.22341,306.370805 246.568192,288.458706 265,271 M120.581177,44 C93.8471792,47.1393691 66.9322134,85.8195428 65,108 C82.0175766,99.5285268 97.1599505,88.4119573 110.077488,74.6163409 C115.291483,69.6466878 130.821341,49.1473665 120.581177,44 M173,57.3411208 C150.25319,51.4354123 94.0287943,123.899815 84,144 C119.665901,124.603965 155.216903,94.5145215 173,57.3411208 M153,300.730771 C153.655665,301.153769 154.31133,301.576767 154.966994,302 C155.112068,301.222108 155.005744,299.991527 155.447343,299.747626 C163.828984,296.103012 171.308761,290.614647 179.520283,286.505324 C193.727299,276.958067 207.146573,266.21369 220.086206,255.020866 C234.526663,241.200036 253.973799,230.205395 263,212 C221.384777,218.952244 170.770997,263.319161 153,300.730771 M261,136 C211.702046,148.58761 153.560756,202.433887 124,243 C148.523575,229.094129 170.72567,213.097606 193.603135,196.820471 C207.710751,188.307164 219.700281,177.427317 232.403584,166.90603 C241.550113,156.65756 255.290294,148.332508 261,136 M242,70.1174386 C229.485392,68.7350564 218.522851,79.9014308 207.904741,85.4920476 C167.719181,113.015393 133.631976,149.504056 107,190 C139.818452,171.36862 168.512981,146.064257 196.174458,120.527099 C204.062001,114.335979 210.667051,106.760119 218.24238,100.20601 C227.300606,90.9312416 237.681122,82.8716303 242,70.1174386 M186.460437,343.847483 C186.538969,342.436405 187.37774,339.387633 187.201517,337.184703 C179.823596,339.220928 172.531065,342.526388 165.163552,344.909522 C156.299686,347.978421 144.723888,347.622514 137.641405,340.728383 C131.805015,333.287011 135.346966,324.005721 136.550719,315.678963 C124.27287,317.075123 110.791032,322.558887 98.0405757,317.262667 C79.0218077,307.494283 93.2778413,277.904503 99.4732989,263.490146 C90.377387,262.521406 75.4072389,267.861197 71.3619306,256.670606 C67.4644598,238.564572 78.7199826,222.034427 86.9101826,206.882919 C49.1794392,213.165875 57.5820522,182.301885 68.5080746,159.319 C74.3470663,149.65907 63.7011073,153.602228 58.6954463,149.873846 C46.0670449,141.89376 56.270674,124.484148 53.8373863,113.889577 C45.9896963,113.152662 38.7267334,108.849809 39.0481914,100.143938 C38.0407672,74.8049143 52.9404263,50.1554461 73.2119105,35.7391953 C77.9559582,33.0463306 86.2353338,23.8353694 90.9084194,30.1962322 C69.3974653,31.3823524 36.9037191,83.6912257 46.7714613,104.881315 C55.3313734,119.001331 57.4072491,103.51357 60.2450203,96.0430731 C66.8799693,73.1596431 102.459854,24.8083716 128.922065,43.8057128 C138.924398,62.1755398 101.647339,94.0913856 86.1239234,102.858825 C79.01755,107.874676 70.9541355,111.423565 62.6579656,113.785149 C60.193218,117.027622 60.547082,122.487232 60.0054052,126.487694 C59.4008088,135.136734 58.6164419,151.616204 71.9334114,149.157296 C79.4991456,141.088884 83.8510098,129.553989 90.7681512,120.709591 C106.778602,99.5287369 125.22589,80.1435209 146.075951,63.7166199 C151.058904,60.3356208 156.268699,57.2255183 161.314808,53.9356864 C168.904197,49.3186026 184.59319,54.5009227 178.896832,65.3185571 C170.499896,84.0073508 156.073317,98.9417152 141.46129,112.94949 C128.631594,124.273398 115.046388,135.00839 100.085465,143.378008 C92.9906817,148.340817 81.2225766,148.334423 77.5143379,156.902005 C73.4638257,167.750186 56.0935055,203.784183 77.8107226,203.902345 C93.2664874,200.455279 94.6497737,195.559248 102.525375,182.88867 C112.461241,167.890844 123.312044,153.53403 135.11492,139.958885 C154.405473,117.214455 209.740001,66.7980699 238.504693,63.558439 C273.684116,71.7102037 211.668276,119.383997 201.187422,130.008641 C168.974685,157.580668 135.758073,184.327691 97.930348,203.690885 C86.2596974,220.827705 59.1777515,278.75508 104.348153,254.513378 C141.070526,205.392987 197.875861,143.31502 260.167743,130.583823 C299.132043,137.992516 193.445702,208.959873 182.397388,216.227908 C166.141882,228.290388 148.739155,238.727725 131.190011,248.788791 C124.215627,253.464364 114.292534,254.816716 110.629711,263.168101 C91.1766559,298.082281 86.7517007,330.927321 137.847195,307.396486 C143.45485,301.957714 145.24333,293.365742 149.944564,287.095573 C162.278946,268.003986 177.0258,249.951468 194.979428,235.900833 C209.864185,224.290163 226.310816,213.83104 244.734922,209.123026 C253.573952,204.6215 269.154137,201.460486 270.462913,215.151425 C263.4864,236.588494 222.496608,265.455805 203.807576,279.20547 C189.347882,289.538853 173.906783,298.421139 157.948843,306.219601 C154.057286,308.870789 147.118619,308.758784 145.836099,313.929027 C143.806112,322.772715 135.950616,343.900526 151.8946,342.206238 C208.875921,327.053783 184.869705,320.457306 222.733384,286.92792 C233.91487,277.595008 246.434463,270.010848 260.096071,264.924904 C265.035738,262.533246 268.645812,264.742096 272.046312,268.044715 C278.997988,274.839155 257.027437,290.823007 252.51851,296.119464 C236.3685,309.430579 218.970505,321.704283 200.197738,330.988652 C193.737356,334.048553 192.553473,348.696155 195.223774,354.515698 C202.217318,363.345652 230.574451,346.120032 239.942857,343.319188 C248.039387,340.00165 248.480061,328.596284 254.849612,322.793553 C261.656053,315.067077 270.088943,305.732981 281.508625,307.115644 C285.675751,307.809698 288.333988,313.633504 286.304711,317.338679 C278.446613,331.435489 263.099894,337.63533 250.470783,346.449655 C246.249725,351.404886 248.329858,359.725013 247.361227,365.86376 C241.554405,367.539578 243.800826,353.267537 243.121009,349.833732 C228.865686,357.121658 188.009302,375.65606 186.460437,343.847483" id="Background" fill="#FFD686"/><g transform="translate(3.000000, 7.000000) scale(1 1)" id="Master/Character/Standing"><g id="Master/Character/Standing" stroke="none" stroke-width="1" fill="none" fill-rule="evenodd"><g id="Bottom" transform="translate(71.000000, 158.000000) scale(1 1)"><g id="Bottom/Shorts and Sandals" stroke="none" stroke-width="1" fill="none" fill-rule="evenodd"><g id="Group-88" transform="translate(49.000000, -1.000000)"><g id="Group-11" transform="translate(28.000000, 55.753000)"><path d="M45.5312,125.999 C45.5312,125.999 45.9522,127.538 45.6572,128.857 L43.2792,127.104 L45.5312,125.999 Z" id="Fill-1" fill="#000"/><path d="M2.1083,122.3154 C2.4443,121.3274 4.5443,121.2024 7.1513,121.6894 C9.7583,122.1754 17.8953,125.1674 22.5553,126.4184 C27.2143,127.6694 43.4463,131.8424 46.9103,132.9564 C50.3743,134.0684 53.0773,135.3934 53.3643,136.7814 C53.6513,138.1684 47.2953,138.8364 38.6983,136.0584 C30.1013,133.2814 24.1513,131.1114 17.2333,130.2944 C10.3153,129.4784 0.9953,125.5844 2.1083,122.3154" id="Fill-3" fill="#474747"/><path d="M44.1288,136.0146 C41.2158,135.3376 38.7058,134.4976 36.0478,133.6096 C33.5408,132.7706 30.9478,131.9036 27.7308,131.0646 C24.8938,130.3246 22.3358,129.8056 19.8608,129.3026 C16.5868,128.6386 13.4948,128.0116 10.3798,126.9736 C8.0628,126.2016 2.7908,124.4416 1.7768,123.0976 L0.5518,126.0086 C2.2718,127.2736 5.1748,128.4006 9.4318,129.8196 C12.7198,130.9146 15.8988,131.5606 19.2648,132.2436 C21.6988,132.7376 24.2168,133.2476 26.9738,133.9666 C30.0928,134.7816 32.6358,135.6316 35.0958,136.4536 C37.8228,137.3666 40.3988,138.2276 43.4498,138.9366 C46.4968,139.6446 49.1208,139.8206 50.9758,139.8206 C52.7258,139.8206 53.1038,139.7416 53.1918,139.7276 L53.4248,136.6856 C53.3868,136.6916 49.4958,137.2626 44.1288,136.0146" id="Fill-5" fill="#000"/><path d="M12.099,3.3389 C12.099,3.3389 16.216,19.6559 19.111,25.6159 C22.006,31.5759 23.962,35.8339 24.091,37.5369 C24.219,39.2389 23.349,44.1159 23.349,44.1159 C23.349,44.1159 17.753,53.9399 17.132,61.4009 C16.51,68.8609 14.332,95.9689 12.81,101.1919 C11.287,106.4129 7.806,111.0149 7.682,113.1279 C7.557,115.2419 8.801,117.9779 11.038,118.5999 C13.277,119.2209 17.007,120.3399 20.116,122.5779 C23.224,124.8169 28.986,130.2279 30.809,131.4069 C32.742,132.6569 50.117,137.3579 51.451,136.3809 C51.451,136.3809 52.657,134.6239 51.451,133.2389 C50.245,131.8559 43.963,127.8089 41.834,125.9989 C39.704,124.1889 34.593,118.5449 31.399,115.2439 C28.204,111.9429 27.246,110.0269 26.82,107.6849 C26.394,105.3419 26.288,100.6569 26.927,98.9529 C27.566,97.2499 38.301,71.1299 40.242,66.0009 C42.182,60.8709 44.123,50.0579 44.123,50.0579 C44.123,50.0579 46.341,47.8399 47.312,45.7609 C48.282,43.6809 49.807,35.7779 49.53,34.5309 C49.253,33.2829 47.728,23.3019 46.896,16.7859 C46.064,10.2709 44.678,0.9819 44.678,0.9819 L12.099,3.3389 Z" id="Fill-7" fill="#ffcba7"/><path d="M51.4511,133.2392 C50.2451,131.8552 43.9631,127.8082 41.8341,125.9992 C39.7041,124.1882 34.5931,118.5452 31.3991,115.2442 C28.2041,111.9432 27.2461,110.0272 26.8201,107.6842 C26.3941,105.3422 26.2881,100.6572 26.9271,98.9532 C27.2371,98.1252 29.9371,91.5192 32.8501,84.3642 C25.7201,83.9772 19.5111,81.7702 15.5161,79.9582 C14.6571,89.0552 13.6371,98.3532 12.8101,101.1912 C11.2871,106.4132 7.8051,111.0142 7.6811,113.1282 C7.5571,115.2422 8.8001,117.9772 11.0381,118.5992 C13.2771,119.2202 17.0071,120.3402 20.1161,122.5782 C23.2241,124.8162 28.9951,130.2142 30.8091,131.4072 C32.7261,132.6672 50.0961,137.3442 51.4511,136.3812 C51.4511,136.3812 52.6571,134.6242 51.4511,133.2392" id="Fill-9" fill="#CDCDCD"/></g><g id="Group-18" transform="translate(42.000000, 138.753000)" fill="#FF0C0C"><g id="Group-14"><path d="M15.2098948,6.55039895 C8.29189483,6.55039895 4.75116833,5.2770784 1,2.13640421 L1.148,0.2243 C6.56341192,4.17970653 10.0268948,4.96139895 17.5938948,4.47139895 L16.904923,6.55039895 C16.904923,6.55039895 16.3399136,6.55039895 15.2098948,6.55039895 Z" id="Fill-12"/><path d="M14.2098948,11.550399 C7.29189483,11.550399 4.19146683,10.4228299 0.440298504,7.28215571 L0.588298504,5.3700515 C6.00371042,9.32545803 8.33862422,9.96139895 15.9056242,9.47139895 L15.2166524,11.550399 C15.2166524,11.550399 14.8810665,11.550399 14.2098948,11.550399 Z" id="Fill-12-Copy"/></g></g><g id="Group-43" transform="translate(5.000000, 57.753000)"><path d="M55.8236,82.8633 C48.5896,82.4713 42.3066,80.2263 38.3096,78.4133 L38.7226,77.5033 C42.6416,79.2813 48.7986,81.4813 55.8776,81.8653 L55.8236,82.8633 Z" id="Fill-19" fill="#000"/><path d="M68.6996,6.0107 L72.1996,27.5437 L72.6216,30.2337 L72.8276,31.5787 L72.9306,32.2517 C72.9576,32.4347 73.0186,32.8177 72.9996,33.0267 C72.9206,34.9387 72.5686,36.7047 72.2256,38.5137 C71.8446,40.3157 71.4956,42.0807 70.7916,43.8827 C69.9666,45.6407 68.7696,47.0687 67.4056,48.3397 L67.4276,48.3167 C66.6246,49.1667 65.8306,50.0287 65.1656,51.0317 C65.2846,50.4327 65.5496,49.8747 65.8276,49.3337 C66.1196,48.7987 66.4516,48.2847 66.8196,47.7997 L66.8416,47.7767 C67.9716,46.4177 69.1616,45.0207 69.8976,43.4807 C70.5356,41.8957 70.9316,40.0757 71.3136,38.3267 C71.6666,36.5697 72.0316,34.7487 72.1166,33.0237 C72.1256,32.7777 72.1096,32.7077 72.0746,32.4417 L71.9776,31.7647 L71.7826,30.4097 L71.4026,27.6997 L69.9436,16.8597 C69.4816,13.2447 69.0846,9.6327 68.6996,6.0107" id="Fill-21" fill="#000"/><path d="M55.4999,114.3935 C54.1799,113.6075 53.1589,112.5125 52.1809,111.3575 C51.2149,110.2045 50.3199,108.9195 49.7919,107.4425 C49.2579,105.9635 49.1019,104.4295 48.9839,102.9325 C48.8979,101.4235 48.8889,99.9185 49.0559,98.3835 C49.0959,97.9995 49.1639,97.6105 49.2579,97.2135 C49.3699,96.7825 49.5199,96.4535 49.6549,96.1095 L50.4829,94.0395 L52.1409,89.9015 L55.4639,81.6265 C57.6589,76.1025 59.9329,70.6085 62.1999,65.1125 C63.3929,62.4005 64.0829,59.5475 64.8429,56.6765 C65.5869,53.8085 66.3089,50.9285 67.1239,48.0575 C66.8599,51.0325 66.3759,53.9755 65.7619,56.8945 C65.1139,59.7905 64.3819,62.7415 63.2289,65.5005 C61.0419,71.0275 58.8609,76.5555 56.6019,82.0555 L53.2439,90.3155 L51.5619,94.4445 L50.7189,96.5085 C50.5789,96.8535 50.4239,97.2055 50.3509,97.4955 C50.2719,97.8205 50.2079,98.1645 50.1679,98.5185 C49.9999,99.9385 50.0019,101.4165 50.0649,102.8735 C50.1289,104.3345 50.2379,105.7955 50.6749,107.1385 C51.1049,108.4865 51.8929,109.7135 52.7919,110.8625 C53.6839,112.0205 54.7719,113.0265 55.4999,114.3935" id="Fill-23" fill="#000"/><path d="M74.4511,134.3808 C74.2651,133.8988 74.4231,133.6848 74.4711,133.3908 C74.5251,133.1098 74.5321,132.8328 74.4951,132.5808 C74.4701,132.3258 74.3791,132.0988 74.2481,131.8988 C74.1381,131.6938 73.9531,131.5108 73.7311,131.3118 C72.8091,130.5208 71.7431,129.7768 70.7061,129.0378 C69.6561,128.3068 68.6061,127.5658 67.5871,126.7768 C66.5921,125.9658 65.4681,125.2698 64.8341,123.9988 C66.1811,124.3668 67.1561,125.1588 68.2511,125.8448 C69.3251,126.5478 70.3801,127.2818 71.4161,128.0518 C72.4561,128.8258 73.4961,129.5668 74.4931,130.4888 C74.7391,130.7278 75.0161,131.0068 75.2001,131.3778 C75.3781,131.7388 75.4761,132.1458 75.4701,132.5338 C75.4621,132.9248 75.3671,133.2908 75.2341,133.6248 C75.0951,133.9458 74.9821,134.3208 74.4511,134.3808" id="Fill-25" fill="#000"/><path d="M38.2523,10.9746 C39.0293,13.5916 39.8393,16.1986 40.7433,18.7646 C41.2003,20.0436 41.6723,21.3206 42.2173,22.5476 C42.7633,23.7566 43.4053,25.0006 43.9863,26.2316 C45.1573,28.7146 46.3693,31.1616 47.2873,33.8236 C47.3963,34.1616 47.5013,34.5006 47.5773,34.8706 C47.6673,35.2316 47.6973,35.6556 47.6913,36.0126 C47.6833,36.7406 47.6163,37.4286 47.5423,38.1206 C47.3873,39.4996 47.1823,40.8556 46.9513,42.2186 L46.9503,42.2236 L46.9333,42.3216 L46.8793,42.4186 C44.5733,46.6346 42.5503,51.1066 41.3273,55.7436 C41.0113,56.9026 40.8103,58.0796 40.6703,59.2576 L40.3323,62.8956 L39.6523,70.1816 C39.1893,75.0386 38.7023,79.8936 38.1563,84.7436 C37.8883,87.1686 37.5643,89.5886 37.2273,92.0066 C36.8503,94.4156 36.4913,96.8436 35.8103,99.1906 C36.0733,97.9986 36.2423,96.7936 36.3893,95.5826 C36.5523,94.3766 36.6783,93.1646 36.8093,91.9536 L37.5343,84.6786 C38.0023,79.8266 38.4113,74.9676 38.7963,70.1066 L39.3583,62.8146 L39.6393,59.1626 C39.7653,57.9166 39.9583,56.6816 40.2653,55.4816 C40.8353,53.0666 41.6713,50.7396 42.6213,48.4696 C43.5743,46.1976 44.6243,43.9876 45.8173,41.8136 L45.7473,42.0086 L45.7483,42.0046 C45.9833,40.6726 46.1963,39.3236 46.3553,37.9856 C46.4323,37.3186 46.5003,36.6446 46.5113,36.0036 C46.5153,35.6776 46.5013,35.4146 46.4293,35.1106 C46.3693,34.8086 46.2753,34.4936 46.1763,34.1806 C45.3283,31.6606 44.1293,29.1766 42.9833,26.7096 C42.4053,25.4616 41.7983,24.2726 41.2253,22.9836 C40.6693,21.7066 40.2013,20.4126 39.7473,19.1136 C38.8503,16.5126 38.0543,13.8876 37.2923,11.2546 L38.2523,10.9746 Z" id="Fill-27" fill="#000"/><path d="M65.664,36.2314 C65.519,36.9104 65.343,37.5544 65.132,38.1994 C64.918,38.8384 64.672,39.4734 64.331,40.0454 C64.685,38.7704 64.7,37.4344 64.667,36.1524 L64.667,36.1384 C64.66,35.8604 64.88,35.6284 65.158,35.6224 C65.436,35.6144 65.668,35.8354 65.675,36.1134 C65.676,36.1534 65.672,36.1944 65.664,36.2314" id="Fill-29" fill="#000"/><path d="M40.9823,128.1387 C40.9823,128.1387 47.5673,114.3327 56.5513,114.0877 C56.5513,114.0877 59.3693,117.1917 62.7983,119.6827 C66.2293,122.1727 68.3673,123.2227 68.5313,123.9987 C68.6943,124.7747 61.4103,127.0327 59.3283,132.2187 L40.9823,128.1387 Z" id="Fill-31" fill="#000"/><path d="M30.8256,112.7627 C31.4236,114.1167 32.2316,115.5167 33.4996,116.0677 C34.8496,116.5757 36.3516,116.9247 37.7866,117.4187 C39.2336,117.8957 40.6506,118.5167 41.9906,119.2597 C42.6626,119.6277 43.3206,120.0267 43.9526,120.4717 C44.5916,120.9307 45.1866,121.3657 45.7816,122.0087 L45.0106,122.6457 C44.0856,121.6737 42.7666,120.8427 41.5166,120.0947 C40.2426,119.3387 38.8966,118.7287 37.5096,118.1857 C36.1206,117.6297 34.6856,117.2447 33.2466,116.6137 C32.4996,116.2337 31.9576,115.5987 31.5816,114.9237 C31.2016,114.2447 30.9486,113.5127 30.8256,112.7627" id="Fill-33" fill="#000"/><path d="M26.2743,129.6191 C26.2743,129.6191 26.6153,131.9801 26.5133,133.7761 C26.5133,133.7761 25.1783,137.0611 24.3573,141.0131 C23.5363,144.9651 22.7153,154.0451 21.6373,156.4601 C20.5593,158.8741 17.9333,160.5961 16.3483,160.8321 C12.3193,161.4321 6.7023,160.3371 3.8793,158.8871 C1.0563,157.4361 0.7623,154.8931 0.7623,154.8931 L0.7743,151.0021 L26.2743,129.6191 Z" id="Fill-35" fill="#000"/><path d="M25.8857,127.4805 C25.8857,127.4805 26.5367,129.0665 26.1537,131.3645 C25.7707,133.6625 24.3517,137.9095 23.1977,142.6505 C22.0437,147.3905 22.3627,150.8365 20.1927,154.6025 C18.0227,158.3675 13.7037,159.3715 10.8107,158.6865 C5.3607,157.3965 0.9657,153.1715 0.7737,151.0015 C1.0767,149.0455 3.2967,144.1135 3.2967,144.1135 L25.8857,127.4805 Z" id="Fill-37" fill="#474747"/><path d="M38.3769,0.9531 C38.3769,0.9531 35.5949,9.2991 35.0089,15.5961 C34.4229,21.8921 33.3979,42.2461 32.5199,47.2241 C31.6409,52.2031 29.0049,55.7181 29.7379,60.6961 C30.4699,65.6751 30.0689,84.4181 29.7569,89.6891 C29.4449,94.9611 25.4909,113.4111 25.7839,116.3391 C26.0769,119.2671 26.4139,121.2891 26.4139,121.9631 C26.4139,122.6361 25.7689,124.4651 25.7689,124.4651 C25.7689,124.4651 26.0379,128.4101 25.7689,130.0941 C25.4999,131.7781 22.7089,137.0221 21.7939,140.1501 C20.8799,143.2771 20.8799,149.9661 19.4849,152.3721 C18.0899,154.7771 14.7699,156.9421 12.8449,156.3651 C10.9199,155.7881 10.2469,155.0661 8.9479,153.8151 C7.6479,152.5641 3.2699,149.7731 2.7889,148.1381 C2.3079,146.5021 2.5479,143.9031 3.4619,142.3151 C4.3769,140.7271 6.7819,136.4451 8.2739,133.8471 C9.7659,131.2491 11.5939,126.3891 12.2199,124.9451 C12.8449,123.5021 13.5669,122.2511 13.5669,122.2511 C13.5669,122.2511 13.1339,121.5291 13.4219,119.7971 C13.7109,118.0651 14.0479,115.9481 13.9999,113.8311 C13.9519,111.7141 11.0499,87.4571 10.2379,80.0291 C9.4249,72.6011 8.2649,52.8711 8.1479,46.7201 C8.0329,40.5681 5.1309,29.8911 3.7379,20.3741 C2.3459,10.8571 1.3009,0.9531 1.3009,0.9531 L38.3769,0.9531 Z" id="Fill-39" fill="#ffcba7"/><path d="M12.0961,96.2363 C13.0471,104.4823 13.9721,112.6423 14.0001,113.8313 C14.0481,115.9483 13.7111,118.0653 13.4221,119.7973 C13.1341,121.5293 13.5671,122.2513 13.5671,122.2513 C13.5671,122.2513 12.8451,123.5023 12.2201,124.9453 C11.5941,126.3883 9.7651,131.2493 8.2741,133.8463 C6.7821,136.4453 4.3761,140.7273 3.4621,142.3153 C2.5481,143.9033 2.3071,146.5023 2.7881,148.1373 C3.2701,149.7733 7.6481,152.5643 8.9481,153.8153 C10.2461,155.0663 10.9201,155.7883 12.8451,156.3653 C14.7691,156.9423 18.0901,154.7773 19.4851,152.3723 C20.8801,149.9653 20.8801,143.2773 21.7941,140.1503 C22.7081,137.0223 25.4991,131.7783 25.7681,130.0933 C26.0371,128.4103 25.7681,124.4653 25.7681,124.4653 C25.7681,124.4653 26.4131,122.6353 26.4131,121.9633 C26.4131,121.2893 26.0761,119.2673 25.7841,116.3403 C25.5661,114.1643 27.6901,103.4303 28.9261,95.8893 C23.5221,97.4323 17.9031,97.4793 12.0961,96.2363" id="Fill-41" fill="#CDCDCD"/></g><g id="Group-50" transform="translate(17.000000, 158.753000)" fill="#FF0C0C"><g id="Group-46"><path d="M0.521047779,2 L0.521047779,5.68434189e-14 C4.79706888,2.22907263 11,1.74343085 16.1185472,0.394770768 L15.7298512,2.22907263 C15.7298512,2.22907263 11.8745,3.4248 7.9145,3.4248 C3.8705,3.4248 0.521047779,2 0.521047779,2 Z" id="Fill-44"/><path d="M1.52104778,7 L1.52104778,5 C5.79706888,7.22907263 10,6.74343085 15.1185472,5.39477077 L14.7298512,7.22907263 C14.7298512,7.22907263 11.8745,8.4248 7.9145,8.4248 C3.8705,8.4248 1.52104778,7 1.52104778,7 Z" id="Fill-44-Copy"/></g></g><g id="Group-87" transform="translate(0.000000, 0.753000)"><path d="M14.3139,125.7851 C14.8409,130.2431 15.2669,134.7041 15.8829,139.1381 C16.5129,143.5761 17.0079,148.0321 17.5779,152.4801 C18.1299,156.9311 18.6049,161.3891 19.0109,165.8591 L19.2639,169.2211 C19.2979,169.7791 19.3379,170.3491 19.3309,170.9351 C19.3069,171.5061 19.2639,172.0651 19.2179,172.6281 C19.1069,173.7491 18.9939,174.8691 18.7379,175.9831 C18.6059,176.5291 18.4749,177.0691 18.4089,177.6191 C18.3409,178.1631 18.3189,178.7391 18.5669,179.2511 C18.2639,178.7681 18.2149,178.1671 18.2289,177.6051 C18.2509,177.0371 18.3399,176.4751 18.4269,175.9231 C18.5909,174.8331 18.5959,173.7061 18.6389,172.5941 C18.6569,172.0371 18.6709,171.4761 18.6659,170.9271 C18.6459,170.3911 18.5799,169.8451 18.5179,169.2871 L18.0989,165.9561 C17.5429,161.5111 16.9809,157.0631 16.4949,152.6061 C16.0269,148.1471 15.4649,143.6991 15.0759,139.2291 C14.6209,134.7591 14.4209,130.2701 14.3139,125.7851" id="Fill-51" fill="#000"/><path d="M35.0209,119.3115 C35.5169,121.9035 35.5029,124.5285 35.5449,127.1375 C35.5739,129.7495 35.5679,132.3595 35.5419,134.9695 C35.5159,137.5815 35.4699,140.1905 35.3969,142.8015 C35.3569,144.1085 35.3169,145.4125 35.2479,146.7235 C35.1619,148.0615 34.9799,149.3545 34.7899,150.6525 C34.0059,155.8275 33.0299,160.9505 32.1859,166.0895 C31.9769,167.3745 31.7639,168.6575 31.5859,169.9405 C31.4319,171.2195 31.1919,172.5195 31.3409,173.7085 C31.4709,175.0005 31.6339,176.2865 31.7939,177.5845 L31.9009,178.5795 C31.9119,178.7525 31.9289,178.9265 31.9079,179.1565 C31.8869,179.3525 31.8529,179.5275 31.8149,179.6985 C31.6599,180.3745 31.4589,180.9945 31.2399,181.6305 L31.2669,181.4305 C31.3629,183.0255 31.4389,184.6005 31.3649,186.2255 C31.3349,186.6355 31.3229,187.0385 31.2059,187.4905 C31.0979,187.9155 30.9609,188.2955 30.8179,188.6755 C30.5299,189.4305 30.2149,190.1595 29.8989,190.8845 C29.2679,192.3345 28.6199,193.7705 28.0439,195.2205 C27.7609,195.9455 27.4879,196.6745 27.2839,197.4025 C27.0849,198.1195 26.9539,198.8875 26.8369,199.6565 C26.6059,201.1975 26.4479,202.7705 26.2359,204.3435 C26.0049,205.9185 25.8089,207.5045 25.1789,209.0865 C24.4259,210.6705 23.2079,211.8255 21.8369,212.7505 C21.1409,213.1985 20.3909,213.5855 19.5479,213.7945 C19.1259,213.8945 18.6809,213.9525 18.2139,213.9095 C17.7129,213.8395 17.3509,213.6985 16.9589,213.5535 C16.1809,213.2625 15.4289,212.7975 14.8129,212.2495 C14.1829,211.7115 13.6699,211.1205 13.0809,210.6535 C11.8759,209.6745 10.5799,208.7485 9.3729,207.6895 C8.7719,207.1515 8.1699,206.6115 7.6809,205.8745 C7.5629,205.6865 7.4489,205.4725 7.3799,205.2315 C7.3229,205.0245 7.2759,204.8175 7.2409,204.6095 C7.1719,204.1945 7.1419,203.7795 7.1339,203.3665 C7.1219,201.7395 7.4879,200.0245 8.3869,198.6455 L13.0889,190.4315 C14.6059,187.7125 15.7439,184.7495 17.2189,181.9455 C16.2679,184.9655 15.2039,187.9405 13.7229,190.7845 L9.0739,199.0405 C8.2469,200.3295 7.9499,201.8385 7.9609,203.3545 C7.9699,203.7295 8.0009,204.1035 8.0639,204.4665 C8.0959,204.6485 8.1379,204.8255 8.1859,204.9985 C8.2269,205.1375 8.2989,205.2745 8.3909,205.4205 C8.7789,206.0005 9.3599,206.5365 9.9379,207.0405 C11.1119,208.0565 12.3949,208.9585 13.6469,209.9605 C14.2989,210.4745 14.8319,211.0795 15.4069,211.5595 C15.9769,212.0545 16.5909,212.4265 17.2929,212.6875 C17.6389,212.8175 18.0259,212.9455 18.3089,212.9775 C18.6309,213.0045 18.9769,212.9615 19.3209,212.8775 C20.0119,212.7035 20.6859,212.3555 21.3099,211.9465 C22.5389,211.1205 23.6729,209.9815 24.2639,208.6955 C24.7989,207.3325 25.0059,205.7505 25.2149,204.2095 C25.4139,202.6545 25.5599,201.0825 25.7859,199.5005 C25.9039,198.7095 26.0209,197.9155 26.2499,197.1125 C26.4769,196.3215 26.7619,195.5715 27.0569,194.8285 C27.6519,193.3465 28.3109,191.9075 28.9449,190.4655 C29.2619,189.7475 29.5769,189.0275 29.8539,188.3075 C29.9919,187.9505 30.1219,187.5865 30.2089,187.2475 C30.2969,186.9345 30.3189,186.5415 30.3449,186.1665 C30.4239,184.6375 30.3569,183.0535 30.2699,181.4995 L30.2639,181.3955 L30.2969,181.2975 C30.4999,180.7015 30.6979,180.0775 30.8309,179.4815 C30.8639,179.3325 30.8889,179.1875 30.9029,179.0595 C30.9139,178.9635 30.9029,178.8115 30.8919,178.6605 L30.7859,177.7085 C30.6219,176.4205 30.4509,175.1195 30.3139,173.8165 L30.2659,173.3185 C30.2519,173.1275 30.2489,172.9465 30.2549,172.7765 C30.2619,172.4285 30.2879,172.0965 30.3179,171.7645 C30.3779,171.1015 30.4589,170.4485 30.5469,169.7975 C30.7249,168.4975 30.9249,167.2055 31.1419,165.9165 C32.0039,160.7645 32.9969,155.6415 33.7909,150.5025 C33.9799,149.2195 34.1729,147.9305 34.2659,146.6655 C34.3469,145.3735 34.3979,144.0705 34.4509,142.7705 C34.5469,140.1675 34.6179,137.5625 34.6679,134.9575 C34.7169,132.3525 34.7479,129.7475 34.7419,127.1425 C34.7399,124.5365 34.6479,121.9425 34.7909,119.3295 L35.0209,119.3115 Z" id="Fill-53" fill="#000"/><path d="M29.2475,105.0576 C29.7085,106.2686 29.7715,107.5696 29.5515,108.8406 C29.3115,110.0966 28.7265,111.3706 27.6735,112.1536 C28.0615,110.9206 28.3615,109.8266 28.5695,108.6576 C28.8015,107.4976 28.9205,106.3116 29.2475,105.0576" id="Fill-55" fill="#000"/><path d="M25.5111,154.6055 C22.6651,154.6055 19.8201,154.3125 16.9941,153.7255 L17.1981,152.7475 C22.7141,153.8915 28.3071,153.8925 33.8241,152.7475 L34.0281,153.7255 C31.2021,154.3125 28.3561,154.6055 25.5111,154.6055" id="Fill-57" fill="#000"/><path d="M11.934,190.3603 C12.26,190.0813 17.384,187.3333 21.856,188.3573 C26.328,189.3823 30.017,193.2953 30.017,193.2953 C30.017,193.2953 28.052,199.3043 27.772,201.9133 C27.493,204.5213 27.772,205.5923 27.306,205.7333 C26.84,205.8733 22.415,201.7263 17.198,201.4473 C11.98,201.1683 6.724,203.3573 6.301,202.6123 C5.878,201.8663 8.58,196.3233 9.791,194.5063 C11.002,192.6893 11.934,190.3603 11.934,190.3603" id="Fill-59" fill="#000"/><path d="M6.3012,202.6123 C6.3012,202.6123 6.9162,204.0523 7.2412,204.3503 L7.5462,202.1293 L6.3012,202.6123 Z" id="Fill-61" fill="#000"/><path d="M69.331,0.2471 C69.331,3.4281 67.307,17.9321 68.075,21.3411 C68.842,24.7511 70.988,27.6831 71.015,29.5461 C71.03,30.5831 69.381,31.2601 69.381,31.2601 C69.381,31.2601 70.022,32.2521 70.158,33.9671 C70.158,33.9671 70.97,33.3801 71.375,34.1921 C71.782,35.0041 71.136,40.3531 73.179,45.0231 C75.222,49.6931 75.878,54.4351 76.316,58.0111 C76.316,58.0111 72.741,63.3371 62.818,65.6001 C52.894,67.8611 38.812,65.2341 38.812,65.2341 C38.812,65.2341 36.321,54.8481 35.116,49.8161 C33.91,44.7861 29.915,38.4241 28.879,32.9501 C27.844,27.4761 27.8659634,0.2471 27.8659634,0.2471 L69.331,0.2471 Z" id="Fill-63" fill="#870CF7"/><path d="M37.6879,60.5449 L38.8129,65.2339 C38.8129,65.2339 52.8949,67.8609 62.8179,65.5999 C72.7409,63.3379 76.3159,58.0109 76.3159,58.0109 C76.1699,56.8239 75.9949,55.4999 75.7579,54.1009 C73.6579,55.8139 70.2659,58.0289 64.8719,60.4079 C54.1459,65.1409 40.2919,61.3339 37.6879,60.5449" id="Fill-65" fill="#FFF"/><path d="M76.0746,54.4873 C74.1236,56.0153 72.0096,57.2763 69.8406,58.4043 C67.6536,59.5083 65.4656,60.5623 63.1296,61.3563 C58.4446,62.8733 53.4706,63.0443 48.6486,62.5833 C53.4826,62.8803 58.4286,62.5303 62.9666,60.8833 C65.2066,60.0383 67.3746,58.9023 69.4836,57.7443 C71.5836,56.5593 73.6166,55.2483 75.4426,53.7133 L76.0746,54.4873 Z" id="Fill-67" fill="#000"/><path d="M71.6156,37.3896 C71.7476,39.1536 71.9936,40.9136 72.4806,42.6056 C72.9336,44.3016 73.8346,45.8426 74.4156,47.5416 C75.6416,50.8966 76.3096,54.4326 76.8116,57.9446 L76.8116,57.9506 L76.8406,58.1436 L76.7306,58.2896 C75.6526,59.7326 74.3566,60.8096 72.9656,61.8036 C71.5736,62.7836 70.0736,63.5946 68.5196,64.2656 C65.4156,65.6126 62.0886,66.4146 58.7396,66.7506 C55.3906,67.0786 52.0306,67.0706 48.6916,66.8746 C45.3486,66.6636 42.0326,66.3036 38.7206,65.7256 L38.9046,64.7436 C42.1466,65.3086 45.4546,65.6686 48.7506,65.8766 C52.0506,66.0696 55.3636,66.0766 58.6376,65.7566 C61.9016,65.4286 65.1206,64.6486 68.1216,63.3486 C69.6206,62.7016 71.0616,61.9206 72.3896,60.9856 C73.7026,60.0586 74.9836,58.9596 75.9006,57.7326 L75.8196,58.0716 L75.8186,58.0656 C75.4846,54.5546 74.9926,51.0636 73.9426,47.7016 C73.4576,46.0226 72.6246,44.4266 72.2396,42.6686 C71.8266,40.9326 71.6646,39.1576 71.6156,37.3896" id="Fill-69" fill="#000"/><path d="M43.851,58.1103 C42.428,62.7513 41.207,67.5203 40.67,72.3023 C40.24,77.1443 40.016,82.0553 39.662,86.9363 C39.315,91.8243 38.996,96.7093 38.484,101.6053 C38.331,102.8253 38.224,104.0723 37.907,105.3003 C37.61,106.5233 37.211,107.7063 36.796,108.8643 C35.93,111.1633 35.016,113.3913 34.797,115.8103 L34.427,115.8053 C34.264,113.2883 35.062,110.8283 35.784,108.5183 C36.158,107.3593 36.504,106.2063 36.747,105.0393 C36.991,103.8813 37.122,102.6843 37.257,101.4733 C37.739,96.6253 38.034,91.7313 38.355,86.8493 C38.678,81.9593 38.974,77.0873 39.428,72.1733 C39.692,69.6913 40.224,67.2753 40.821,64.8833 C41.43,62.4943 42.119,60.1373 42.903,57.7943 L43.851,58.1103 Z" id="Fill-71" fill="#000"/><g id="Group-75" fill="#870CF7"><path d="M56.4179,31.0439 C56.4179,31.0439 47.7549,32.1059 46.8719,37.5849 C45.9879,43.0649 46.8719,66.5179 46.8719,66.5179 C46.8719,66.5179 44.5729,68.7869 35.1159,68.7869 C25.6579,68.7869 14.3439,61.2729 11.9579,61.6269 C9.5709,61.9809 7.1849,67.3729 0.1129,65.4279 C0.1129,65.4279 -0.1081,63.6629 0.1129,62.0299 C0.3349,60.3969 1.1289,57.6159 0.8199,55.5419 C0.5109,53.4679 0.0489,52.8939 0.0149,51.2169 C-0.0191,49.5389 0.0149,37.3199 0.0149,34.2799 C0.0149,32.4709 0.8669,22.0659 2.3249,11.9239 C3.2179,5.7169 5.3909,0.2469 5.3909,0.2469 L55.9529,0.2469 L56.4179,31.0439 Z" id="Fill-73"/></g><path d="M35.1156,64.4062 C25.6576,64.4062 14.3446,56.8932 11.9576,57.2472 C9.5896,57.5972 7.2166,62.8982 0.2736,61.0832 C0.2096,61.4242 0.1516,61.7482 0.1136,62.0302 C-0.1084,63.6632 0.1136,65.4272 0.1136,65.4272 C7.1846,67.3732 9.5716,61.9802 11.9576,61.6272 C14.3446,61.2732 25.6576,68.7872 35.1156,68.7872 C44.5726,68.7872 46.8716,66.5172 46.8716,66.5172 C46.8716,66.5172 46.8076,64.8242 46.7316,62.2512 C46.1236,62.7072 43.3066,64.4062 35.1156,64.4062" id="Fill-76" fill="#FFF"/><path d="M56.4784,31.541 C54.8524,31.786 53.1924,32.247 51.6914,32.938 C50.1804,33.613 48.8144,34.621 47.9824,35.96 C47.1984,37.298 47.2304,39.053 47.1044,40.75 C47.0274,42.456 46.9964,44.171 46.9864,45.888 C46.9554,52.753 47.1354,59.632 47.3714,66.499 L47.3794,66.727 L47.2224,66.874 C46.6994,67.329 46.2494,67.529 45.7404,67.774 C45.2444,68.002 44.7364,68.181 44.2244,68.333 C43.2004,68.64 42.1614,68.853 41.1204,69.02 C39.0334,69.339 36.9444,69.458 34.8444,69.441 C32.6964,69.441 30.6034,69.035 28.5644,68.526 C26.5224,68.011 24.5424,67.312 22.6124,66.524 C20.6794,65.745 18.7854,64.888 16.9054,64.036 C15.9654,63.61 15.0284,63.191 14.0914,62.813 C13.6304,62.646 13.1464,62.437 12.7114,62.349 C12.6034,62.323 12.4824,62.284 12.3844,62.27 C12.3004,62.27 12.2184,62.266 12.1344,62.257 C12.0524,62.23 11.9634,62.274 11.8764,62.293 C11.7904,62.308 11.6984,62.333 11.6014,62.388 C10.8254,62.731 10.0354,63.478 9.1764,64.074 C8.3214,64.694 7.3844,65.267 6.3584,65.63 C4.2954,66.409 2.0334,66.155 0.1134,65.428 C2.1574,65.765 4.2514,65.68 6.0284,64.824 C6.9164,64.402 7.7284,63.841 8.5064,63.201 C9.3024,62.57 10.0044,61.833 11.0954,61.269 C11.2254,61.193 11.3784,61.139 11.5444,61.097 C11.7074,61.054 11.8634,60.989 12.0424,61.009 C12.2174,61.01 12.3934,61.016 12.5674,61.026 C12.7234,61.05 12.8514,61.09 12.9944,61.121 C13.5734,61.241 14.0444,61.447 14.5554,61.624 C15.5384,62.009 16.4924,62.425 17.4374,62.842 C19.3314,63.676 21.2114,64.503 23.1194,65.249 C25.0224,66.005 26.9594,66.647 28.9154,67.179 C30.8714,67.687 32.8684,68.092 34.8624,68.107 C36.8914,68.131 38.9424,68.056 40.9504,67.816 C41.9534,67.685 42.9484,67.51 43.9124,67.251 C44.3924,67.118 44.8674,66.972 45.3204,66.791 C45.7534,66.62 46.2504,66.374 46.5204,66.162 L46.3724,66.536 C46.1354,59.653 45.9554,52.774 45.9864,45.88 C45.9964,44.156 46.0274,42.432 46.1054,40.702 C46.1594,39.833 46.1864,38.975 46.3084,38.091 C46.3664,37.223 46.6824,36.264 47.1204,35.454 C48.1124,33.854 49.6604,32.756 51.2714,32.031 C52.8964,31.287 54.5854,30.815 56.3564,30.548 L56.4784,31.541 Z" id="Fill-81" fill="#000"/><path d="M68.0155,20.1816 L69.2645,23.5296 L69.8815,25.1996 C70.0715,25.6946 70.3225,26.1446 70.6675,26.5766 C70.9945,27.0176 71.4685,27.4286 71.7955,28.1516 C71.9545,28.5096 72.0035,28.9326 71.9705,29.3006 C71.9615,29.3916 71.9675,29.4746 71.9125,29.6606 C71.8655,29.7956 71.8085,29.9056 71.7525,29.9936 C71.6395,30.1716 71.5245,30.3076 71.4085,30.4326 C70.4825,31.3796 69.5035,32.0286 68.5135,32.7196 L65.5595,34.7176 C65.0745,35.0526 64.5925,35.3916 64.1355,35.7436 C63.9065,35.9186 63.6835,36.0986 63.4825,36.2826 C63.2905,36.4416 63.0755,36.7156 63.0785,36.7296 C63.0895,36.7256 63.0915,36.5696 63.0125,36.4886 C62.9455,36.4146 62.9205,36.4306 62.9535,36.4346 C63.0015,36.4506 63.1565,36.4656 63.1575,36.4576 C63.3265,36.4296 63.6135,36.3036 63.8615,36.1846 L65.4465,35.3976 C66.5205,34.9106 67.6825,34.3346 68.9185,34.4106 C68.3325,34.5466 67.8195,34.8256 67.3155,35.1276 C66.8115,35.4266 66.3185,35.7446 65.8245,36.0706 C65.3215,36.3846 64.8345,36.7236 64.2935,37.0196 C64.0115,37.1656 63.7655,37.3206 63.3545,37.4296 C63.0635,37.4836 62.9155,37.4526 62.6765,37.4026 C62.5665,37.3706 62.3995,37.3206 62.2355,37.1356 C62.0565,36.9426 62.0435,36.6196 62.0945,36.4736 C62.2995,35.9226 62.5455,35.7786 62.7725,35.5266 C63.0055,35.3036 63.2425,35.1056 63.4805,34.9126 C63.9575,34.5296 64.4415,34.1726 64.9275,33.8216 L67.8365,31.7556 C68.7745,31.0626 69.7805,30.3696 70.5225,29.6156 C70.6095,29.5236 70.6855,29.4286 70.7305,29.3566 L70.7675,29.2886 C70.7585,29.3326 70.7685,29.2666 70.7715,29.2086 C70.7895,28.9876 70.7695,28.8006 70.6885,28.6136 C70.5345,28.2356 70.1175,27.8116 69.7275,27.3106 C69.3335,26.8116 68.9825,26.2186 68.7745,25.5926 L68.2005,23.9006 L67.8365,19.9879438 L68.0155,20.1816 Z" id="Fill-83" fill="#000"/><path d="M9.0688,49.0244 C9.5758,49.7334 9.8928,50.5104 10.1648,51.3044 C10.4188,52.1044 10.6818,52.9014 10.9168,53.7074 C11.1668,54.5084 11.3748,55.3254 11.6008,56.1334 C11.8278,56.9434 12.0188,57.7654 12.1988,58.5914 C11.8178,57.8374 11.4468,57.0794 11.1118,56.3084 C10.7758,55.5384 10.4218,54.7734 10.1098,53.9954 C9.7828,53.2204 9.4838,52.4364 9.1748,51.6574 C8.8848,50.8704 8.6398,50.0674 8.5858,49.1964 L9.0688,49.0244 Z" id="Fill-85" fill="#000"/></g></g></g></g><g id="Body" transform="translate(74.000000, 0.000000) scale(1 1)"><g id="Body/Puffy Jacket" stroke="none" stroke-width="1" fill="none" fill-rule="evenodd"><g id="Group-56" transform="translate(9.000000, 53.000000)"><g id="Group-3" transform="translate(1.000000, 132.605000)" fill="#ffcba7"><path d="M15.0263,5.2917 C15.0263,5.2917 14.5763,10.6327 14.9143,16.4237 C15.2513,22.2147 16.3193,29.3547 15.0823,29.4677 C13.8453,29.5797 11.3723,18.7287 11.0903,18.7287 C10.8103,18.7287 10.1913,26.2627 10.1353,31.3787 C10.0793,36.4947 10.5123,40.7707 9.1233,40.9927 C8.3233,41.1207 7.7173,39.5307 7.7173,39.5307 C7.7173,39.5307 7.2113,40.2617 6.0873,39.9247 C4.9633,39.5877 4.0633,34.7517 4.0633,34.7517 C4.0633,34.7517 3.6133,37.6197 2.3203,37.6757 C1.0273,37.7317 0.7463,31.7167 0.5773,26.8247 C0.4083,21.9337 2.3763,0.9627 2.3763,0.9627 L15.0263,5.2917 Z" id="Fill-1"/></g><path d="M8.7177,172.1359 C8.5177,172.4729 8.1707,172.7779 7.7317,172.7969 C7.2997,172.8189 6.8867,172.5829 6.6067,172.2699 C6.0527,171.6299 5.7747,170.8499 5.4977,170.0949 C4.9617,168.5679 4.6837,166.9809 4.4087,165.4059 C4.1277,163.8269 3.9997,162.2309 3.8497,160.6409 C3.7537,159.0459 3.6787,157.4489 3.7317,155.8489 L4.3677,160.5889 C4.5347,162.1709 4.7847,163.7409 4.9927,165.3139 C5.2177,166.8839 5.5147,168.4429 5.9107,169.9659 C6.1237,170.7179 6.3747,171.4799 6.8107,172.1009 C7.0247,172.3999 7.3557,172.6319 7.7307,172.6539 C8.1037,172.6729 8.4727,172.4459 8.7177,172.1359" id="Fill-4" fill="#000"/><path d="M133.8632,132.7765 C133.8632,132.7765 137.5832,139.8025 142.8402,143.4975 C148.0972,147.1905 150.5122,148.6825 152.6432,150.4595 C154.7752,152.2345 158.0802,156.4595 160.2182,157.4875 C162.3562,158.5155 163.1782,157.9805 163.3842,157.6105 C163.3842,157.6105 165.0292,159.6255 166.2212,159.5435 C167.4142,159.4615 165.9332,156.0885 164.1652,153.8695 C162.3982,151.6485 158.7792,146.5085 158.7792,146.5085 C158.7792,146.5085 163.0552,149.7985 165.1522,151.9365 C167.2492,154.0745 170.1202,157.0685 171.3122,156.4115 C172.5052,155.7535 168.5702,151.2455 166.9252,149.5155 C165.0442,147.5385 161.3282,144.1665 161.5752,144.0425 C161.8222,143.9195 166.1802,146.9625 167.6602,148.2775 C169.1402,149.5925 170.6622,151.3615 171.9782,151.6895 C173.2932,152.0185 173.8692,151.1965 173.5812,150.4565 C173.2932,149.7165 169.1402,145.0295 168.4012,144.3715 C167.6602,143.7135 166.1392,142.6445 166.1392,142.6445 C166.1392,142.6445 168.4832,143.1375 169.2642,141.9045 C170.0452,140.6715 164.2072,138.2045 160.9172,136.1485 C157.6282,134.0915 154.7912,130.8435 151.9132,128.8295 C149.0352,126.8145 141.4692,122.1695 141.4692,122.1695 L133.8632,132.7765 Z" id="Fill-6" fill="#ffcba7"/><path d="M158.7792,146.509 C159.9502,147.209 161.0572,147.996 162.1412,148.817 C163.2302,149.633 164.2702,150.508 165.2582,151.468 L168.0812,154.365 C168.5522,154.839 169.0392,155.3 169.5622,155.7 C169.8212,155.902 170.0852,156.107 170.3762,156.245 C170.6612,156.378 170.9852,156.511 171.3002,156.389 L171.3252,156.433 C171.0192,156.65 170.6122,156.585 170.2842,156.486 C169.9392,156.388 169.6302,156.224 169.3212,156.059 C168.7232,155.699 168.1792,155.277 167.6472,154.845 C166.5852,153.978 165.6332,152.993 164.6832,152.046 C163.7472,151.103 162.7302,150.213 161.7452,149.29 C160.7522,148.375 159.7472,147.469 158.7792,146.509" id="Fill-8" fill="#000"/><path d="M110.0263,60.2463 C108.6663,60.2463 113.0103,63.4193 114.1453,66.3503 C115.2793,69.2803 117.0553,75.8043 119.5703,79.9643 C122.0863,84.1243 124.3563,86.5823 124.1663,89.5133 C123.9773,92.4443 122.2763,94.2403 122.2763,94.2403 C122.2763,94.2403 124.9223,92.5383 127.1923,94.2403 C129.4613,95.9423 131.1633,100.0083 133.9993,102.6543 C136.8363,105.3023 141.1843,108.4223 141.7523,112.4873 C142.3193,116.5533 141.3743,120.9603 135.7013,126.1313 C130.0283,131.3023 126.4353,132.3673 122.6533,132.3083 C118.8723,132.2473 108.2483,119.5963 108.2483,119.5963 L108.2483,59.8663 C108.2483,59.8663 111.8043,60.2463 110.0263,60.2463" id="Fill-10" fill="#ff7475"/><path d="M87.3412,19.2765 C87.3412,19.2765 92.2852,18.6335 92.9472,20.0805 C93.6092,21.5265 94.4932,27.3185 95.1352,31.9755 C95.1352,31.9755 101.4842,31.5715 105.1802,34.0625 C105.1802,34.0625 103.8942,38.4015 105.1802,43.3835 C106.4662,48.3655 110.8052,57.8475 110.4032,65.9645 C110.0022,74.0805 108.9572,97.7045 109.0372,100.5975 L87.4512,100.5975 L87.3412,19.2765 Z" id="Fill-12" fill="#000"/><path d="M71.9106,25.1916 L71.9106,11.3746 C71.9106,11.3746 70.2826,9.1586 69.2056,8.5056 C68.1306,7.8546 62.7856,5.2916 61.5256,5.3346 C60.2656,5.3786 48.2756,10.8956 46.5356,12.2866 C44.7966,13.6766 39.1916,19.1956 37.1486,20.5866 C35.1066,21.9766 33.3686,24.0616 33.3256,25.4096 C33.2816,26.7556 33.8466,28.9286 33.9336,30.7966 C34.0206,32.6656 34.1076,33.7086 34.4546,34.3606 C34.8026,35.0116 42.3636,37.6196 42.3636,37.6196 L71.9106,37.6196 L71.9106,25.1916 Z" id="Fill-14" fill="#ff7475"/><path d="M73.831,13.9328 C73.831,13.9328 69.667,11.0298 69.063,10.6668 C68.459,10.3038 59.437,10.7468 59.437,10.7468 C56.215,13.5268 48.884,15.2578 48.884,15.2578 C48.219,15.4758 45.008,15.8878 43.691,17.0398 C42.374,18.1928 46.243,13.6648 47.643,12.5118 C49.042,11.3598 52.664,9.1368 53.899,8.3968 C55.134,7.6558 60.096,5.3188 61.525,5.33372812 C62.955,5.3498 68.46,8.1218 69.206,8.5058 C69.952,8.8898 71.911,11.3738 71.911,11.3738 L73.831,13.9328 Z" id="Fill-16" fill="#000"/><path d="M87.3412,34.9758 C87.3412,34.9758 99.0672,35.6458 99.4492,37.6198 C99.8312,39.5918 98.4942,47.8238 99.4492,51.3928 C100.4042,54.9608 101.1672,60.0198 100.9762,62.4068 C100.7852,64.7928 98.6852,66.3208 98.6852,66.3208 C98.6852,66.3208 100.7552,66.9828 101.3972,69.0898 C102.0382,71.1968 102.7372,76.6158 103.7612,79.5858 C104.7862,82.5558 105.8142,84.5718 105.4402,87.6338 C105.0672,90.6958 102.9762,92.3388 102.9762,92.3388 C102.9762,92.3388 107.3072,93.0898 109.1002,97.7918 C110.8922,102.4958 113.1322,110.7098 114.1032,114.6678 C115.0742,118.6258 116.4932,125.9448 117.0162,131.1718 C117.5382,136.3998 117.6882,140.2838 117.6882,140.2838 C117.6882,140.2838 115.4952,142.6428 110.4062,143.1068 C110.4062,143.1068 110.5872,150.6168 110.4062,151.5508 C110.2252,152.4848 102.8552,156.4298 96.3152,157.4678 C89.7752,158.5058 75.3152,156.5338 68.5832,157.4678 C61.8512,158.4018 41.2262,162.0358 35.6042,162.1388 C29.9832,162.2428 27.5952,159.2328 27.5952,159.2328 C27.5952,159.2328 27.1792,151.3428 29.3602,147.5018 C29.3602,147.5018 26.8682,146.5678 25.8302,143.8698 C24.7922,141.1698 24.8962,131.3088 23.8582,128.4018 L58.9562,36.0798 L87.3412,34.9758 Z" id="Fill-18" fill="#ff7475"/><path d="M139.8022,117.0539 C139.8022,117.0539 145.5012,121.4589 145.5492,123.0399 C145.5962,124.6199 142.0052,129.9439 140.2812,132.0709 C138.5572,134.1989 133.4812,138.4399 131.5172,138.2099 C129.5542,137.9809 124.2862,131.4679 124.2862,131.4679 L139.8022,117.0539 Z" id="Fill-20" fill="#ff7475"/><path d="M66.5741,31.9758 C70.7781,36.9128 76.7231,49.6758 75.3391,53.9428 C73.9551,58.2098 69.6661,62.3488 66.5741,66.1498 C63.4831,69.9498 61.4711,71.9608 59.6831,72.4828 C57.8941,73.0038 54.4671,72.8558 54.4671,72.8558 C54.4671,72.8558 56.5531,75.1648 55.0631,78.9648 C53.5731,82.7648 49.2511,88.2798 46.4941,92.2288 C43.7371,96.1768 41.4281,100.7648 37.7761,101.7118 C37.7761,101.7118 39.1171,103.9268 38.1491,107.0558 C37.1801,110.1858 33.7531,115.0288 32.4111,118.1588 C31.0701,121.2888 29.5801,126.6528 27.6431,128.6638 C25.7051,130.6758 21.8311,130.3778 17.8821,129.7068 C13.9321,129.0378 2.7561,121.7348 0.8191,118.0088 C-1.1189,114.2838 0.8931,106.6088 1.6381,104.3728 C2.3831,102.1378 7.0031,91.9078 8.6421,90.4288 C10.2821,88.9498 11.5481,88.5778 11.5481,88.5778 C11.5481,88.5778 10.4301,85.5968 11.1761,83.1378 C11.9211,80.6788 17.2851,71.3658 19.0741,67.8628 C20.8621,64.3608 24.3541,57.0588 26.3341,55.3448 C28.3131,53.6308 30.0271,53.3328 30.0271,53.3328 C30.0271,53.3328 30.0991,48.8518 33.3231,44.0188 C36.5461,39.1868 51.9331,27.9988 55.5851,27.1048 C59.2361,26.2108 64.4671,29.4998 66.5741,31.9758" id="Fill-22" fill="#ff7475"/><path d="M3.8359,119.6857 C3.8359,119.6857 -0.1941,128.3697 1.4369,132.3027 C3.0679,136.2377 7.0029,138.0607 9.6409,138.8757 C12.2799,139.6917 19.6799,140.2107 22.2109,137.5327 C24.7429,134.8547 25.7619,127.8897 25.7619,127.8897 L3.8359,119.6857 Z" id="Fill-24" fill="#ff7475"/><path d="M89.3481,22.3361 C90.0401,16.2211 90.6601,0.5721 90.6601,0.5721 L70.7731,0.0001 C70.7731,0.0001 72.8981,12.7661 68.6481,21.3471 C68.6481,21.3471 72.8371,26.8761 77.9301,29.6521 C82.6031,32.2011 86.5261,32.9601 87.9251,30.7901 C87.9251,30.7901 88.7571,27.5601 89.3481,22.3361" id="Fill-26" fill="#ffcba7"/><path d="M88.7455,36.0803 C88.7455,36.0803 89.1235,31.3503 89.6515,29.9163 C90.1805,28.4823 91.4625,23.6163 90.8215,21.9193 C90.8215,21.9193 87.6985,22.2583 83.3075,20.1573 C78.9155,18.0583 70.5155,11.3113 68.5425,10.8033 C66.5695,10.2943 59.6335,10.5483 59.0605,10.6113 C58.4875,10.6763 46.5365,16.3143 46.5365,16.3143 L46.5365,36.0803 L88.7455,36.0803 Z" id="Fill-28" fill="#ff7475"/><path d="M35.2172,147.2951 C40.9752,147.0591 46.7402,146.7331 52.4162,145.9261 C53.8302,145.7101 55.2412,145.4601 56.6072,145.0961 C57.9672,144.7471 59.3682,144.3041 60.7512,143.9211 C63.5262,143.1301 66.3142,142.3711 69.1232,141.6841 C74.7092,140.2701 80.5402,139.3311 86.3382,139.4351 C89.2292,139.4641 92.1072,139.5661 94.9822,139.5671 C97.8462,139.5461 100.7552,139.6181 103.5352,138.8181 C102.2012,139.3811 100.7542,139.6361 99.3212,139.8251 C97.8842,140.0001 96.4402,140.1241 94.9962,140.1861 C92.1082,140.3041 89.2212,140.3241 86.3492,140.4151 C83.4702,140.4561 80.6312,140.6091 77.8092,141.0771 C76.3982,141.3011 74.9902,141.5621 73.5882,141.8601 C72.1822,142.1371 70.7802,142.4451 69.3822,142.7701 C66.5852,143.4221 63.8012,144.1471 61.0262,144.9061 C59.6262,145.2731 58.2782,145.7011 56.8372,146.0321 C55.4052,146.3621 53.9662,146.5691 52.5252,146.7411 C46.7632,147.3951 40.9812,147.4771 35.2172,147.2951" id="Fill-30" fill="#000"/><path d="M51.1342,99.1457 C54.8182,99.3217 58.4942,99.4497 62.1662,99.4577 C65.8382,99.4387 69.5032,99.3307 73.1572,99.0627 C76.8092,98.7757 80.4502,98.3757 84.0692,97.7927 C87.6902,97.2257 91.2922,96.5147 94.8872,95.6747 C91.4432,97.0057 87.8712,98.0207 84.2432,98.7587 C80.6132,99.4827 76.9312,99.9707 73.2372,100.1987 C69.5432,100.4447 65.8362,100.4767 62.1452,100.2797 C58.4542,100.1077 54.7752,99.7377 51.1342,99.1457" id="Fill-32" fill="#000"/><path d="M68.705,69.3781 L73.872,68.8851 C75.586,68.7121 77.291,68.5151 78.992,68.3001 C80.69,68.0621 82.381,67.8101 84.07,67.5171 C85.763,67.2351 87.432,66.8721 89.153,66.5381 C87.624,67.3921 85.967,67.9991 84.283,68.4751 C82.589,68.9081 80.869,69.2501 79.132,69.4311 C77.398,69.6311 75.655,69.7301 73.913,69.7301 C72.173,69.7291 70.43,69.6301 68.705,69.3781" id="Fill-34" fill="#000"/><path d="M90.4364,39.8107 L90.9154,46.2517 C91.0034,47.3227 91.1144,48.3737 91.2704,49.4227 C91.4354,50.4867 91.5844,51.5537 91.7224,52.6237 C92.0204,54.7587 92.2334,56.9077 92.3804,59.0637 C92.5024,61.2177 92.5614,63.3987 92.2954,65.5577 C92.0464,63.4067 91.6924,61.2907 91.4044,59.1617 C91.1234,57.0317 90.8284,54.9027 90.5924,52.7637 C90.4634,51.6967 90.3384,50.6277 90.2334,49.5537 C90.1094,48.4687 90.0724,47.3697 90.0704,46.2887 C90.0674,44.1207 90.1964,41.9607 90.4364,39.8107" id="Fill-36" fill="#000"/><path d="M93.0107,71.4836 C93.6597,77.0366 94.8937,82.5216 97.0657,87.6396 C99.2277,92.7896 101.3527,97.9686 103.3907,103.1866 C104.4167,105.7946 105.3837,108.4246 106.2647,111.0896 C107.1517,113.7526 107.9787,116.4386 108.6467,119.1786 C109.8567,124.6566 110.7907,130.2386 110.7207,135.8516 C110.5087,133.0606 110.0747,130.2996 109.5537,127.5616 C109.0447,124.8216 108.4267,122.1006 107.6947,119.4156 C106.3087,114.0346 104.2647,108.8256 102.3477,103.5856 C100.4047,98.3486 98.2357,93.1976 96.2997,87.9386 C94.2477,82.6826 93.2407,77.0676 93.0107,71.4836" id="Fill-38" fill="#000"/><path d="M102.976,92.339 C105.1,92.796 107.021,94.125 108.244,95.942 C108.867,96.846 109.266,97.882 109.641,98.896 C110.021,99.913 110.37,100.942 110.717,101.971 C112.073,106.098 113.309,110.261 114.384,114.473 C115.432,118.699 116.268,122.964 116.943,127.265 C117.292,129.413 117.52,131.589 117.671,133.755 L118.185,140.264 L118.202,140.475 L118.052,140.622 C117.499,141.167 116.94,141.528 116.332,141.884 C115.728,142.226 115.097,142.507 114.452,142.747 C113.806,142.979 113.144,143.168 112.476,143.31 C111.808,143.457 111.131,143.549 110.454,143.622 L110.923,143.095 C110.972,145.052 111.011,147.006 111.018,148.968 L111.008,150.445 L110.979,151.201 C110.976,151.32 110.957,151.478 110.937,151.627 C110.893,151.816 110.701,152.147 110.615,152.194 C109.765,153.013 108.925,153.432 108.044,153.934 C104.533,155.788 100.813,157.202 96.887,157.946 C94.903,158.31 92.911,158.349 90.946,158.346 C88.978,158.337 87.018,158.266 85.064,158.175 C81.155,158.001 77.257,157.743 73.374,157.728 C71.423,157.725 69.527,157.808 67.604,158.112 L61.813,158.974 L50.214,160.692 C46.344,161.249 42.469,161.782 38.566,162.122 C37.59,162.202 36.611,162.268 35.626,162.286 C34.64,162.275 33.654,162.193 32.689,161.99 C30.777,161.575 28.901,160.702 27.595,159.233 C28.949,160.655 30.834,161.451 32.727,161.797 C33.684,161.964 34.654,162.012 35.621,161.99 C36.59,161.94 37.558,161.843 38.526,161.73 C42.395,161.241 46.252,160.617 50.108,160.002 L61.668,158.066 C63.595,157.738 65.522,157.415 67.46,157.126 C69.397,156.805 71.417,156.7 73.372,156.694 C77.306,156.686 81.212,156.921 85.111,157.068 C87.06,157.148 89.007,157.206 90.946,157.202 C92.885,157.187 94.818,157.142 96.685,156.816 C100.445,156.127 104.126,154.752 107.524,152.974 C108.344,152.53 109.254,152.015 109.814,151.475 C109.921,151.367 109.824,151.458 109.88,151.433 C109.89,151.339 109.904,151.254 109.909,151.129 L109.938,150.421 L109.955,148.968 C109.958,147.023 109.928,145.068 109.89,143.119 L109.88,142.642 L110.359,142.592 C110.999,142.527 111.637,142.443 112.263,142.309 C112.891,142.179 113.506,142.005 114.107,141.793 C114.704,141.574 115.287,141.318 115.837,141.009 C116.376,140.706 116.931,140.328 117.323,139.944 L117.191,140.302 L116.747,133.831 C116.628,131.669 116.435,129.525 116.121,127.385 C115.513,123.106 114.742,118.835 113.764,114.626 C112.732,110.422 111.644,106.222 110.391,102.075 C110.073,101.04 109.752,100.005 109.399,98.982 C109.049,97.955 108.688,96.939 108.101,96.035 C106.95,94.225 105.086,92.853 102.976,92.339" id="Fill-40" fill="#000"/><path d="M72.7177,42.4377 C73.4407,44.0227 74.1047,45.6367 74.6507,47.2957 C75.1807,48.9567 75.6557,50.6577 75.7027,52.4377 C75.6937,52.8817 75.6827,53.3317 75.5667,53.7757 C75.4537,54.2177 75.3007,54.6257 75.1327,55.0367 C74.8077,55.8607 74.3747,56.6317 73.9277,57.3897 C73.0137,58.8967 71.9287,60.2827 70.8197,61.6307 L67.4527,65.6287 C66.3617,66.9717 65.2737,68.3547 64.0817,69.6497 C63.4857,70.2977 62.8637,70.9297 62.1757,71.5107 C61.4877,72.0837 60.7187,72.6257 59.7867,72.9147 C57.9717,73.3747 56.2257,73.3487 54.4467,73.3267 L54.8177,72.5397 C55.8787,73.8647 56.2077,75.5047 56.0447,77.0837 C55.8647,78.6787 55.1587,80.0797 54.4657,81.3927 C53.0217,84.0237 51.2987,86.4387 49.5927,88.8507 L47.0367,92.4537 L44.5847,96.1237 C43.7567,97.3547 42.8787,98.5797 41.8377,99.7027 C40.7917,100.8057 39.5017,101.8257 37.9137,102.2397 L38.2427,101.4307 C39.2907,103.4807 39.1787,105.7977 38.4037,107.7787 C37.6267,109.7317 36.5577,111.4677 35.5297,113.2197 C34.5047,114.9677 33.4147,116.6827 32.6147,118.5047 C31.8317,120.3547 31.1827,122.2837 30.4077,124.1667 C30.0207,125.1097 29.6097,126.0467 29.1147,126.9507 C28.8677,127.4027 28.5977,127.8457 28.2807,128.2627 C27.9747,128.6697 27.5877,129.1007 27.0997,129.3487 C26.1507,129.8557 25.1187,130.0567 24.0967,130.1967 C23.0707,130.3217 22.0347,130.3487 21.0057,130.2847 C18.9467,130.1607 16.9007,129.7317 14.9817,128.9637 C13.0637,128.2117 11.2527,127.1227 9.8327,125.6357 C11.6297,126.6187 13.4007,127.5197 15.2667,128.2237 C17.1317,128.9137 19.0737,129.4177 21.0587,129.6207 C23.0137,129.7997 25.1287,129.8077 26.8747,128.9407 C27.3047,128.7287 27.6087,128.3847 27.9037,127.9807 C28.1947,127.5857 28.4477,127.1577 28.6787,126.7157 C29.1447,125.8337 29.5347,124.9037 29.9037,123.9657 C30.6417,122.0857 31.2607,120.1597 32.0237,118.2567 C32.8067,116.3407 33.8577,114.5927 34.8347,112.8187 C35.8097,111.0507 36.8277,109.2847 37.5107,107.4467 C37.8337,106.5337 38.0257,105.5947 37.9847,104.6487 C37.9617,103.7237 37.7197,102.7357 37.3107,101.9957 L36.9667,101.3727 L37.6397,101.1847 C38.9277,100.8267 40.0557,99.9677 41.0197,98.9337 C41.9797,97.8867 42.8227,96.7037 43.6327,95.4837 C44.4447,94.2647 45.2317,93.0107 46.0977,91.7957 L48.6957,88.2057 C50.4167,85.8197 52.1477,83.4327 53.5677,80.9007 C54.2567,79.6267 54.9067,78.3327 55.0667,76.9727 C55.2397,75.6377 54.9027,74.1687 54.1167,73.1707 L53.4747,72.3557 L54.4877,72.3837 C56.1797,72.4307 57.9647,72.4377 59.5407,72.0607 C61.0427,71.6007 62.3217,70.3227 63.5067,69.1107 C64.6997,67.8627 65.7937,66.5257 66.9247,65.1857 L70.3667,61.2517 C71.4997,59.9367 72.5787,58.5807 73.5237,57.1367 C73.9827,56.4097 74.4277,55.6687 74.7677,54.8797 C74.9407,54.4917 75.1067,54.0837 75.2197,53.6857 C75.3387,53.2887 75.3637,52.8607 75.3847,52.4367 C75.3937,50.7197 74.9767,49.0067 74.4987,47.3427 C74.0057,45.6757 73.3927,44.0427 72.7177,42.4377" id="Fill-42" fill="#000"/><path d="M41.7704,36.4582 C44.3424,33.7082 47.0944,31.0832 50.2174,28.9172 C53.2254,26.6962 56.5964,24.5822 60.4974,23.9652 C62.4314,23.6622 64.4314,23.7792 66.3184,24.3002 C68.2234,24.7822 69.9274,25.7502 71.5414,26.7482 C73.1484,27.7702 74.6564,28.9062 76.2374,29.9062 C77.0264,30.4022 77.8104,30.9272 78.7034,31.1982 L80.0214,31.5632 C80.4524,31.7162 80.8654,31.8052 81.2914,32.2332 C80.7914,32.4992 80.2624,32.4892 79.7994,32.3342 C79.3154,32.2252 78.8944,31.9612 78.4624,31.7452 C77.6484,31.2242 76.7644,30.8662 75.9604,30.3582 C74.3294,29.3942 72.7544,28.3572 71.1114,27.4782 C69.4814,26.5792 67.7854,25.8342 66.0324,25.3832 C64.2764,24.9502 62.4484,24.8382 60.6524,25.0502 C58.8574,25.2942 57.1044,25.8842 55.4524,26.7002 C53.7974,27.5182 52.2214,28.5192 50.6374,29.5362 C47.4734,31.5282 44.5934,33.9642 41.7704,36.4582" id="Fill-44" fill="#000"/><path d="M112.8837,99.7629 C113.5277,99.3669 114.1157,98.9589 114.7077,98.5529 L116.4547,97.3199 C117.0297,96.8979 117.6147,96.4919 118.2187,96.0959 C118.8357,95.7139 119.4497,95.3249 120.1757,95.0299 C119.8287,95.7289 119.3537,96.3109 118.8397,96.8549 C118.3027,97.3719 117.7377,97.8669 117.0967,98.2599 C116.4737,98.6739 115.8067,99.0309 115.1017,99.3019 C114.3967,99.5639 113.6527,99.7819 112.8837,99.7629" id="Fill-46" fill="#000"/><path d="M127.3564,131.5021 C128.7564,130.6081 130.0884,129.6481 131.3874,128.6571 C132.6834,127.6611 133.9194,126.6061 135.1024,125.4991 C136.2824,124.3881 137.3744,123.1971 138.4064,121.9501 C139.4724,120.7221 140.3444,119.3611 141.3014,117.9821 C140.8524,119.5871 140.1444,121.1451 139.1934,122.5361 C138.2334,123.9171 137.1444,125.2251 135.8774,126.3331 C134.6394,127.4681 133.2924,128.4811 131.8674,129.3551 C130.4404,130.2261 128.9354,130.9721 127.3564,131.5021" id="Fill-48" fill="#000"/><path d="M146.101,137.3595 C147.568,137.8705 149.085,138.2315 150.613,138.4245 C152.135,138.6075 153.702,138.6065 155.113,138.1595 L155.115,138.1585 L155.255,138.1175 L155.414,138.2105 C157.363,139.3455 159.309,140.5525 161.416,141.4065 C162.473,141.8175 163.548,142.1945 164.664,142.4175 C165.781,142.6205 166.924,142.7335 168.075,142.6065 C166.949,142.8515 165.77,142.9055 164.608,142.7785 C163.448,142.6435 162.306,142.3665 161.197,141.9995 C160.088,141.6305 159.012,141.1695 157.966,140.6505 C156.929,140.1105 155.922,139.5265 155.009,138.7675 L155.308,138.8195 L155.305,138.8205 C153.704,139.1975 152.094,139.0615 150.559,138.7655 C149.02,138.4535 147.528,137.9765 146.101,137.3595" id="Fill-50" fill="#000"/><path d="M154.8735,148.5715 C156.0345,149.2505 157.1235,150.0355 158.1695,150.8805 C159.2185,151.7245 160.2155,152.6345 161.0595,153.7585 C161.8255,154.8575 162.5695,155.9475 163.3495,157.0095 C163.7405,157.5385 164.1535,158.0495 164.6125,158.5075 C165.0575,158.9775 165.5655,159.4125 166.2205,159.5185 L166.2225,159.5685 C165.5155,159.6435 164.8685,159.2235 164.3275,158.8325 C163.7885,158.4045 163.3095,157.9185 162.8505,157.4205 C161.9395,156.4175 161.1645,155.3115 160.3945,154.2295 C159.6535,153.2035 158.6895,152.2765 157.7585,151.3415 L154.8735,148.5715 Z" id="Fill-52" fill="#000"/><path d="M8.7177,172.1359 C8.3057,170.8759 7.9777,169.5899 7.7047,168.2929 C7.4087,166.9989 7.2287,165.6849 7.0427,164.3719 C6.8477,163.0599 6.7817,161.7339 6.6947,160.4109 C6.6587,159.0859 6.6477,157.7609 6.7547,156.4359 C6.9367,157.7509 7.0557,159.0649 7.2127,160.3739 C7.3177,161.6869 7.5057,162.9899 7.6307,164.2999 C7.7647,165.6109 7.9707,166.9089 8.1337,168.2179 L8.7177,172.1359 Z" id="Fill-54" fill="#000"/></g></g></g><g id="Head" transform="translate(112.000000, 0.000000) scale(1 1)"><g id="Head/Ponytail" stroke="none" stroke-width="1" fill="none" fill-rule="evenodd"><g id="Group-19" transform="translate(8.000000, 10.000000)"><g id="Group-3" transform="translate(0.000000, 0.835600)" fill="#ff7475"><path d="M14.2859,0.1641 C6.3959,0.1641 -0.0001,6.8791 -0.0001,15.1611 C-0.0001,20.5021 2.6689,25.1791 6.6749,27.8361 C5.6819,26.4901 5.0949,24.8551 5.0949,23.0881 C5.0949,19.1851 7.9399,15.9201 11.7659,15.0371 C9.9689,16.5711 8.8279,18.8181 8.8279,21.3291 C8.8279,24.1311 10.2469,26.6051 12.4179,28.1261 C12.4169,28.0781 12.4109,28.0321 12.4109,27.9841 C12.4109,24.2921 15.5949,21.2981 19.5239,21.2981 C20.5799,21.2981 21.5759,21.5251 22.4759,21.9141 C22.5339,22.2991 22.5739,22.6881 22.5739,23.0881 C22.5739,25.3221 21.6379,27.3471 20.1239,28.8381 C25.0999,26.4931 28.5719,21.2581 28.5719,15.1611 C28.5719,6.8791 22.1759,0.1641 14.2859,0.1641" id="Fill-1"/></g><path d="M26.1395,31.8044 C26.0665,31.1674 26.0295,30.5204 26.0295,29.8644 C26.0295,20.1724 34.1855,12.3164 44.2465,12.3164 C53.2665,12.3164 61.3605,18.8734 62.8125,27.1634 C62.8125,27.1634 66.8675,49.4134 55.2295,56.0644 C50.9355,58.5184 38.5205,48.4184 38.5205,48.4184" id="Fill-4" fill="#ffcba7"/><g id="Group-8" transform="translate(16.000000, 1.835600)" fill="#ff7475"><path d="M18.3133,32.5371 C18.3133,32.5371 23.4583,33.1101 25.2353,28.0331 C27.0123,22.9561 28.9583,19.4021 33.2733,17.9641 C37.5883,16.5261 40.8883,17.9641 40.8883,17.9641 C40.8883,17.9641 42.0093,20.4531 43.3593,20.8701 C44.7093,21.2871 46.8373,20.6201 48.0893,19.1591 C49.3413,17.6991 51.3863,12.5001 49.2043,7.1891 C47.0223,1.8801 42.7303,0.4971 39.2393,0.3511 C35.7473,0.2061 27.3823,4.2071 24.8363,4.4981 C22.2903,4.7891 20.6173,3.1881 16.7623,3.7701 C12.9063,4.3521 9.3063,8.3531 9.3063,8.3531 C9.3063,8.3531 4.9053,9.2991 2.7953,14.2451 C0.6863,19.1911 2.3593,23.7011 1.9233,27.9931 C1.4863,32.2851 -1.2777,35.9221 3.2323,41.5961 C7.7423,47.2691 17.5353,45.5371 17.5353,45.5371 L18.3133,32.5371 Z" id="Fill-6"/></g><path d="M62.8133,27.1637 C63.5973,31.3067 63.8913,35.5587 63.5973,39.7887 C63.3063,43.9957 62.3993,48.3097 60.0473,51.9607 C58.8783,53.7727 57.2853,55.3297 55.4003,56.4307 C54.2853,57.0037 53.0883,56.8637 52.0333,56.6457 C50.9653,56.3977 49.9613,56.0037 48.9893,55.5597 C47.0393,54.6767 45.2513,53.5177 43.5063,52.3257 C41.7653,51.1247 40.1033,49.8127 38.5203,48.4187 C41.9583,50.8487 45.4853,53.1987 49.2803,54.9107 C50.2303,55.3257 51.2043,55.6877 52.1953,55.9017 C53.1733,56.0997 54.2213,56.1537 55.0063,55.7227 C56.7683,54.7117 58.2913,53.2637 59.4193,51.5457 C60.5493,49.8257 61.3753,47.8987 61.9273,45.8937 C62.4933,43.8927 62.8703,41.8297 63.0653,39.7437 C63.4553,35.5737 63.3443,31.3437 62.8133,27.1637" id="Fill-9" fill="#000"/><path d="M35.783,43.9587 C35.286,44.8097 34.094,45.1287 33.154,45.1587 C30.65,45.2397 26.837,42.0847 25.674,37.8507 C24.511,33.6147 26.265,30.6217 28.77,30.5407 C30.621,30.4807 32.821,31.9127 34.313,34.3727" id="Fill-11" fill="#ffcba7"/><path d="M35.783,43.9587 C35.485,44.5267 34.887,44.8887 34.281,45.0787 C33.67,45.2727 33.01,45.3507 32.357,45.2427 C31.054,45.0347 29.92,44.3117 28.933,43.4947 C26.961,41.8377 25.536,39.4857 25.083,36.9087 C24.846,35.6277 24.841,34.2677 25.272,32.9777 C25.704,31.7187 26.744,30.4937 28.178,30.2487 C29.599,29.9957 30.912,30.6307 31.928,31.4017 C32.962,32.1927 33.746,33.2477 34.313,34.3727 C33.567,33.3527 32.675,32.4597 31.654,31.7877 C30.646,31.1217 29.415,30.7287 28.323,30.9617 C27.229,31.2087 26.403,32.1467 26.036,33.2467 C25.648,34.3507 25.621,35.5867 25.824,36.7787 C26.014,37.9807 26.437,39.1407 27.04,40.2027 C27.64,41.2637 28.375,42.2687 29.286,43.0957 C30.183,43.9247 31.24,44.6267 32.418,44.9257 C33.002,45.0697 33.631,45.0487 34.233,44.9077 C34.824,44.7617 35.426,44.4917 35.783,43.9587" id="Fill-13" fill="#000"/><path d="M34.3133,34.3727 C34.3133,34.3727 34.9033,35.2847 35.1713,36.4307 C35.1713,36.4307 39.0403,34.1087 40.5783,31.2747 L34.3133,34.3727 Z" id="Fill-15" fill="#ff7475"/><path d="M25.3064,10.1891 C23.2014,10.8401 21.3784,12.2461 20.1494,14.0251 C18.9154,15.8111 18.2474,17.9421 18.0624,20.0911 C17.8614,22.2531 18.1604,24.4271 18.2964,26.6371 C18.3614,27.7441 18.3864,28.8671 18.2654,29.9931 C18.1444,31.1211 17.8714,32.2081 17.6224,33.2741 C17.3714,34.3401 17.1474,35.3981 17.0984,36.4571 C17.0444,37.5141 17.1814,38.5661 17.5124,39.5641 C18.1804,41.5461 19.4604,43.4181 21.0914,44.7301 C22.7614,46.0481 24.8654,46.7661 26.9914,47.1611 C29.1374,47.5021 31.3434,47.6001 33.5354,47.3731 C31.3734,47.8041 29.1334,47.8901 26.9214,47.6281 C25.8224,47.4591 24.7114,47.2701 23.6554,46.8721 C23.1114,46.7181 22.6124,46.4401 22.0924,46.2181 C21.6154,45.9141 21.0954,45.6661 20.6594,45.2961 L19.9924,44.7591 C19.7714,44.5791 19.5934,44.3511 19.3914,44.1481 C18.9784,43.7431 18.6544,43.2831 18.3204,42.8311 C17.6844,41.9021 17.0904,40.9171 16.7424,39.8161 C16.3884,38.7221 16.2484,37.5551 16.3184,36.4161 C16.3814,35.2741 16.6294,34.1711 16.8914,33.0991 C17.1524,32.0271 17.4244,30.9741 17.5474,29.9131 C17.6714,28.8491 17.6594,27.7641 17.6044,26.6741 C17.4934,24.4981 17.2724,22.2661 17.5324,20.0371 C17.7904,17.8241 18.5154,15.6141 19.8874,13.8351 C21.2364,12.0611 23.1564,10.7011 25.3064,10.1891" id="Fill-17" fill="#000"/></g></g></g><g id="Expressions" transform="translate(158.000000, 29.000000) scale(1 1)" fill="#000"><g id="Expressions/Wink" stroke="none" stroke-width="1" fill="none" fill-rule="evenodd"><g id="Group-12-Copy" transform="translate(7.000000, 5.000000)" fill="#000"><path d="M11.5379491,7.25091701 C11.6180931,8.32773995 12.0257588,9.38610306 12.5295974,10.3788312 C13.0467932,11.36797 13.6660391,12.3217275 14.3990894,13.1606238 C14.5850235,13.3667585 14.7757662,13.568791 14.9771947,13.7513381 C15.0744361,13.8492777 15.181829,13.9261937 15.2844133,14.0123395 C15.3736403,14.0866915 15.5472856,14.2225763 15.6642958,14.3584611 C15.7893205,14.5061397 15.9100707,14.681508 15.9693773,14.9096919 C16.0292181,15.1378758 15.9982291,15.3983644 15.9036592,15.5983458 C15.7091765,16.0039491 15.3992864,16.2157243 15.1113023,16.3905799 C14.5209083,16.7274716 13.8941823,16.866433 13.2695935,16.95463 C12.6439361,17.0310331 12.0033185,17.0166755 11.3840726,16.8674586 C11.2403477,16.8331028 11.1532579,16.6936286 11.1895899,16.5556927 C11.2216475,16.4316017 11.3434663,16.3516091 11.4716967,16.3623773 L11.4781082,16.3628901 C12.0327046,16.4080141 12.5985212,16.3551985 13.1451032,16.2444396 C13.6890137,16.1367573 14.2249098,15.9439547 14.653413,15.6850044 C14.8639246,15.5588623 15.0391727,15.3916984 15.085122,15.2676074 C15.1294683,15.1568484 15.1080966,15.0876241 14.9734547,14.9271262 C14.8965164,14.8455953 14.8345384,14.8050863 14.7004308,14.6907379 C14.5807491,14.5876706 14.4519845,14.4892182 14.3451258,14.3784593 C14.1175169,14.1656586 13.911814,13.9400385 13.7125226,13.7113418 C12.9329888,12.7873252 12.290234,11.7807522 11.8093701,10.6982887 C11.3236975,9.62556797 10.9593095,8.46311197 11.0036558,7.2473276 C11.0084645,7.1058023 11.1324205,6.99504337 11.2798854,7.0001711 C11.4171988,7.00478606 11.5267289,7.10785339 11.5368805,7.23655937 L11.5379491,7.25091701 Z" id="Fill-1"/><path d="M0.0556765477,3.58091006 C0.874090172,2.55772659 1.97844198,1.63665308 3.31413354,1.04222724 C4.6441964,0.438423959 6.1104739,0.151890909 7.54973363,0.0081034153 L7.55873955,0.00706147694 C8.27302215,-0.0643113009 8.91525732,0.413417438 8.99237057,1.0750483 C9.06948382,1.73615819 8.55333163,2.33058403 7.83848616,2.4019568 C7.73041504,2.41289716 7.61727808,2.41029231 7.51370992,2.39726808 C6.28214939,2.23368376 5.03933145,2.18419169 3.8387288,2.4139391 C2.63812614,2.63483003 1.48705608,3.17090732 0.462069008,3.94142074 C0.340488992,4.03259034 0.161496191,4.01539836 0.0629938635,3.90338999 C-0.0203109621,3.80805262 -0.0191852212,3.67468451 0.0556765477,3.58091006" id="Fill-7"/></g><g id="Group" transform="translate(10.000000, 5.000000)" fill="#000"><g id="Group-18"><path d="M9.01758545,6.63233625 C9.3809508,5.52891014 9.923822,4.47790812 10.6391661,3.70112436 C11.3501566,2.91677945 12.1763523,2.41320581 13.0028829,2.04926171 L13.0082413,2.0472454 C13.4184925,1.8662815 13.8485027,2.22115221 13.9687315,2.8386474 C14.0886253,3.45664667 13.8531913,4.10337838 13.4429401,4.28434227 C13.3806489,4.31156247 13.314004,4.3266848 13.2523826,4.33071742 C12.512256,4.36902733 11.7788273,4.51722618 11.1013267,4.92502504 C10.4231563,5.32475867 9.80962146,6.01685736 9.29622137,6.91209938 C9.23526976,7.0179557 9.1287719,7.03005356 9.05844312,6.93831142 C8.99883111,6.86068345 8.98409555,6.73365587 9.01758545,6.63233625" id="Fill-9-Copy" transform="translate(11.500000, 4.500000) scale(-1, 1) rotate(41.000000) translate(-11.500000, -4.500000)"/><path d="M2.99717249,9.15029338 C3.21141031,10.0039316 2.96204216,10.7117838 2.44040055,10.7311473 C1.91826112,10.7510167 1.32177824,10.0745789 1.10754042,9.22094061 C0.893302607,8.36730235 1.14267076,7.65945019 1.66481361,7.64009015 C2.1864518,7.6202173 2.78293468,8.29665512 2.99717249,9.15029338" id="Fill-11" transform="translate(2.052360, 9.185619) rotate(20.000000) translate(-2.052360, -9.185619)"/></g></g><g id="Group-12-Copy" transform="translate(18.000000, 12.000000)" fill="#000"><path d="M0.53794908,0.250917013 C0.618093068,1.32773995 1.02575882,2.38610306 1.52959735,3.37883125 C2.04679322,4.36797003 2.66603909,5.32172748 3.39908943,6.16062383 C3.58502348,6.3667585 3.77576617,6.568791 3.97719473,6.75133812 C4.0744361,6.84927773 4.18182904,6.92619366 4.28441335,7.01233949 C4.37364032,7.08669155 4.54728563,7.22257635 4.66429585,7.35846115 C4.78932047,7.50613972 4.91007074,7.68150803 4.96937729,7.90969193 C5.02921814,8.13787584 4.99822913,8.39836444 4.90365922,8.59834584 C4.70917648,9.00394914 4.3992864,9.21572432 4.11130234,9.39057985 C3.52090829,9.7274716 2.89418231,9.86643304 2.2695935,9.95462996 C1.64393611,10.0310331 1.0033185,10.0166755 0.384072625,9.86745858 C0.24034774,9.8331028 0.153257941,9.69362859 0.189589882,9.5556927 C0.221647477,9.43160168 0.343466338,9.35160912 0.471696717,9.36237735 L0.478108236,9.36289012 C1.03270463,9.40801413 1.59852118,9.35519853 2.14510318,9.2444396 C2.6890137,9.13675731 3.22490983,8.94395472 3.65341302,8.68500445 C3.86392456,8.55886233 4.03917275,8.39169839 4.08512197,8.26760737 C4.12946831,8.15684844 4.10809658,8.08762411 3.97345468,7.92712621 C3.89651645,7.84559533 3.83453843,7.80508628 3.70043083,7.69073794 C3.58074914,7.5876706 3.45198447,7.48921822 3.34512582,7.37845929 C3.11751689,7.16565856 2.91181399,6.94003852 2.71252261,6.71134184 C1.93298876,5.78732521 1.29023398,4.78075215 0.809370051,3.69828872 C0.323697487,2.62556797 -0.0406905091,1.46311197 0.00365583063,0.247327603 C0.00846446988,0.105802303 0.132420504,-0.0049566271 0.279885441,0.000171101153 C0.417198806,0.00478605658 0.526728922,0.107853395 0.536880494,0.236559374 L0.53794908,0.250917013 Z" id="Fill-1"/><g id="Group-11" transform="translate(1.000000, 1.000000)"><path d="M0.202625,1.7113 C0.335125,1.3438 0.55075,1.0143 0.86825,0.7128 C1.185125,0.4203 1.63825,0.1413 2.2345,0.0838 C2.37825,0.0593 2.528875,0.0773 2.6745,0.0828 C2.802625,0.1043 2.932625,0.1158 3.058875,0.1508 C3.31325,0.2088 3.555125,0.3103 3.766375,0.4368 C4.195125,0.6963 4.47075,1.0508 4.57075,1.4643 C4.59825,1.5768 4.507,1.6858 4.366375,1.7073 C4.267,1.7228 4.17075,1.6908 4.112625,1.6318 L4.081375,1.5998 C3.857625,1.3708 3.5595,1.1638 3.267,1.0398 C3.117,0.9753 2.962625,0.9258 2.796375,0.8968 C2.717625,0.8743 2.628875,0.8713 2.546375,0.8568 C2.47575,0.8638 2.407625,0.8433 2.337625,0.8558 C1.77075,0.8803 1.1295,1.3758 0.597,1.8653 L0.583875,1.8773 C0.50325,1.9513 0.362625,1.9593 0.270125,1.8948 C0.202625,1.8478 0.1795,1.7758 0.202625,1.7113" id="Fill-9"/></g></g><path d="M13.5337439,24.2298502 C13.6133413,24.5089219 13.7752252,24.8224608 13.9709918,25.0648418 C14.1683719,25.3144498 14.4077019,25.521808 14.6749986,25.6774655 C14.9482113,25.8236725 15.2386343,25.9354123 15.5489566,25.9904484 C15.7000841,26.0265832 15.8630437,26.027695 16.0173981,26.0499318 L16.4976716,26.0510437 L16.5428485,26.0515996 C16.7961619,26.0521555 17.0010714,26.2650728 17,26.5269111 C16.999458,26.7893053 16.7934728,27.0005548 16.5401594,27 C16.5261761,27 16.5121928,26.999443 16.4987473,26.9977752 L15.9265064,26.9427392 C15.7361181,26.9004892 15.5457297,26.8782525 15.3585682,26.8159894 C14.982094,26.7120324 14.6201409,26.5363617 14.2888436,26.3139938 C13.9623867,26.0816193 13.6794932,25.7858699 13.4606003,25.4512061 C13.2411696,25.1098713 13.0857396,24.75853 13.0050665,24.3304717 C12.976562,24.1803733 13.0712184,24.0347223 13.2164299,24.0052585 C13.3530363,23.9774626 13.4858779,24.0625183 13.5246009,24.1976068 L13.5337439,24.2298502 Z" id="Fill-5" fill="#000"/></g></g></g></g></g></svg>