<svg viewBox="35.349397590361434 19.650000000000034 255.30120481927702 363.52499999999986" xmlns="http://www.w3.org/2000/svg" overflow="visible" xmlns:xlink="http://www.w3.org/1999/xlink" width="255.30120481927702px" height="363.52499999999986px"><g id="Master/Comp/Squiggle" stroke="none" stroke-width="1" fill="none" fill-rule="evenodd"><path d="M281,312 C268.396019,313.423812 258.665344,325.60301 253,336 C263.616413,329.699668 272.999463,321.387894 281,312 M265,271 C241.881595,277.085279 218.461925,298.640012 206,319 C228.22341,306.370805 246.568192,288.458706 265,271 M120.581177,44 C93.8471792,47.1393691 66.9322134,85.8195428 65,108 C82.0175766,99.5285268 97.1599505,88.4119573 110.077488,74.6163409 C115.291483,69.6466878 130.821341,49.1473665 120.581177,44 M173,57.3411208 C150.25319,51.4354123 94.0287943,123.899815 84,144 C119.665901,124.603965 155.216903,94.5145215 173,57.3411208 M153,300.730771 C153.655665,301.153769 154.31133,301.576767 154.966994,302 C155.112068,301.222108 155.005744,299.991527 155.447343,299.747626 C163.828984,296.103012 171.308761,290.614647 179.520283,286.505324 C193.727299,276.958067 207.146573,266.21369 220.086206,255.020866 C234.526663,241.200036 253.973799,230.205395 263,212 C221.384777,218.952244 170.770997,263.319161 153,300.730771 M261,136 C211.702046,148.58761 153.560756,202.433887 124,243 C148.523575,229.094129 170.72567,213.097606 193.603135,196.820471 C207.710751,188.307164 219.700281,177.427317 232.403584,166.90603 C241.550113,156.65756 255.290294,148.332508 261,136 M242,70.1174386 C229.485392,68.7350564 218.522851,79.9014308 207.904741,85.4920476 C167.719181,113.015393 133.631976,149.504056 107,190 C139.818452,171.36862 168.512981,146.064257 196.174458,120.527099 C204.062001,114.335979 210.667051,106.760119 218.24238,100.20601 C227.300606,90.9312416 237.681122,82.8716303 242,70.1174386 M186.460437,343.847483 C186.538969,342.436405 187.37774,339.387633 187.201517,337.184703 C179.823596,339.220928 172.531065,342.526388 165.163552,344.909522 C156.299686,347.978421 144.723888,347.622514 137.641405,340.728383 C131.805015,333.287011 135.346966,324.005721 136.550719,315.678963 C124.27287,317.075123 110.791032,322.558887 98.0405757,317.262667 C79.0218077,307.494283 93.2778413,277.904503 99.4732989,263.490146 C90.377387,262.521406 75.4072389,267.861197 71.3619306,256.670606 C67.4644598,238.564572 78.7199826,222.034427 86.9101826,206.882919 C49.1794392,213.165875 57.5820522,182.301885 68.5080746,159.319 C74.3470663,149.65907 63.7011073,153.602228 58.6954463,149.873846 C46.0670449,141.89376 56.270674,124.484148 53.8373863,113.889577 C45.9896963,113.152662 38.7267334,108.849809 39.0481914,100.143938 C38.0407672,74.8049143 52.9404263,50.1554461 73.2119105,35.7391953 C77.9559582,33.0463306 86.2353338,23.8353694 90.9084194,30.1962322 C69.3974653,31.3823524 36.9037191,83.6912257 46.7714613,104.881315 C55.3313734,119.001331 57.4072491,103.51357 60.2450203,96.0430731 C66.8799693,73.1596431 102.459854,24.8083716 128.922065,43.8057128 C138.924398,62.1755398 101.647339,94.0913856 86.1239234,102.858825 C79.01755,107.874676 70.9541355,111.423565 62.6579656,113.785149 C60.193218,117.027622 60.547082,122.487232 60.0054052,126.487694 C59.4008088,135.136734 58.6164419,151.616204 71.9334114,149.157296 C79.4991456,141.088884 83.8510098,129.553989 90.7681512,120.709591 C106.778602,99.5287369 125.22589,80.1435209 146.075951,63.7166199 C151.058904,60.3356208 156.268699,57.2255183 161.314808,53.9356864 C168.904197,49.3186026 184.59319,54.5009227 178.896832,65.3185571 C170.499896,84.0073508 156.073317,98.9417152 141.46129,112.94949 C128.631594,124.273398 115.046388,135.00839 100.085465,143.378008 C92.9906817,148.340817 81.2225766,148.334423 77.5143379,156.902005 C73.4638257,167.750186 56.0935055,203.784183 77.8107226,203.902345 C93.2664874,200.455279 94.6497737,195.559248 102.525375,182.88867 C112.461241,167.890844 123.312044,153.53403 135.11492,139.958885 C154.405473,117.214455 209.740001,66.7980699 238.504693,63.558439 C273.684116,71.7102037 211.668276,119.383997 201.187422,130.008641 C168.974685,157.580668 135.758073,184.327691 97.930348,203.690885 C86.2596974,220.827705 59.1777515,278.75508 104.348153,254.513378 C141.070526,205.392987 197.875861,143.31502 260.167743,130.583823 C299.132043,137.992516 193.445702,208.959873 182.397388,216.227908 C166.141882,228.290388 148.739155,238.727725 131.190011,248.788791 C124.215627,253.464364 114.292534,254.816716 110.629711,263.168101 C91.1766559,298.082281 86.7517007,330.927321 137.847195,307.396486 C143.45485,301.957714 145.24333,293.365742 149.944564,287.095573 C162.278946,268.003986 177.0258,249.951468 194.979428,235.900833 C209.864185,224.290163 226.310816,213.83104 244.734922,209.123026 C253.573952,204.6215 269.154137,201.460486 270.462913,215.151425 C263.4864,236.588494 222.496608,265.455805 203.807576,279.20547 C189.347882,289.538853 173.906783,298.421139 157.948843,306.219601 C154.057286,308.870789 147.118619,308.758784 145.836099,313.929027 C143.806112,322.772715 135.950616,343.900526 151.8946,342.206238 C208.875921,327.053783 184.869705,320.457306 222.733384,286.92792 C233.91487,277.595008 246.434463,270.010848 260.096071,264.924904 C265.035738,262.533246 268.645812,264.742096 272.046312,268.044715 C278.997988,274.839155 257.027437,290.823007 252.51851,296.119464 C236.3685,309.430579 218.970505,321.704283 200.197738,330.988652 C193.737356,334.048553 192.553473,348.696155 195.223774,354.515698 C202.217318,363.345652 230.574451,346.120032 239.942857,343.319188 C248.039387,340.00165 248.480061,328.596284 254.849612,322.793553 C261.656053,315.067077 270.088943,305.732981 281.508625,307.115644 C285.675751,307.809698 288.333988,313.633504 286.304711,317.338679 C278.446613,331.435489 263.099894,337.63533 250.470783,346.449655 C246.249725,351.404886 248.329858,359.725013 247.361227,365.86376 C241.554405,367.539578 243.800826,353.267537 243.121009,349.833732 C228.865686,357.121658 188.009302,375.65606 186.460437,343.847483" id="Background" fill="#FFD686"/><g transform="translate(3.000000, 7.000000) scale(1 1)" id="Master/Character/Standing"><g id="Master/Character/Standing" stroke="none" stroke-width="1" fill="none" fill-rule="evenodd"><g id="Bottom" transform="translate(71.000000, 158.000000) scale(1 1)"><g id="Bottom/Wide Jeans" stroke="none" stroke-width="1" fill="none" fill-rule="evenodd"><polygon id="Path-3" fill="#2C3DFF" points="59 24.3617628 64.4493508 0.029150795 113.72905 2.27373675e-13 115 26"/><g id="Group-72" transform="translate(8.000000, 0.000000)"><path d="M119.6625,193.3755 C119.6625,193.3755 119.6615,193.4665 119.6125,193.6245 L119.3375,193.4515 L119.6625,193.3755 Z" id="Fill-1" fill="#000"/><path d="M116.659153,189.3445 C116.659153,189.3445 116.679153,189.5135 116.610153,189.6555 L116.338153,189.4515 L116.659153,189.3445 Z" id="Fill-3" fill="#000"/><path d="M86,183.833601 C86,183.833601 86.9898432,188.701634 86.5106023,192.156524 C86.5106023,192.156524 89.8309872,197.807162 94.7390413,197.982474 C105.329383,198.362153 108,192.447095 108,192.447095 C108,192.447095 101.962937,183.691221 101.654223,180 L86,183.833601 Z" id="Fill-5" fill="#CDCDCD"/><path d="M104,185.656759 C102.910802,183.567105 102.003138,181.468268 101.803451,180 L86,184.871098 L86.1906096,187.719884 C86.1906096,187.719884 92.8669879,189.120809 104,185.656759" id="Fill-7" fill="#000"/><path d="M101.56981,206.870679 C108.035882,206.610801 121.6881,207.074524 128.593027,206.599208 C135.648781,206.114232 145.113865,203.656501 148,202.872037 C146.414864,202.532939 139.254018,201.990963 136.621855,201.28765 C133.749342,200.520576 124.924541,195.16168 120.220705,193.569565 C120.220705,193.569565 114.895075,190.490639 111.741345,189.001896 C108.587615,187.513152 104.916209,185.768395 104.193216,186.025375 C103.469249,186.281389 103.158839,189.155504 104.606772,192.081788 C104.606772,192.081788 103.208466,195.418659 97.883809,195.778044 C92.5601253,196.13743 90.5867328,195.575166 89.1962111,194.314419 C87.8056894,193.054639 87.2335224,191.925281 86.2623953,191.988077 C86.2623953,191.988077 85.4226331,193.0643 85.2795913,194.5144 C85.1375226,195.963534 85.1015189,197.626173 84.9594502,198.758429 C84.8164084,199.888753 84.3181949,201.232583 84.2111569,202.682683 C84.1148226,203.998496 84.0175153,206.239823 84,206.644614 C84.3006796,206.754749 84.7317511,206.849425 85.3584102,206.870679 C87.0933998,206.929611 95.1037387,207.129591 101.56981,206.870679" id="Fill-9" fill="#000"/><path d="M123.470631,204 C120.785666,204 116.003843,202.527566 111.768683,201.223356 C109.790236,200.61567 107.329265,199.85677 106.767801,199.835034 C106.332641,199.866221 105.960634,200.0335 104.955129,200.513601 C103.949623,200.992756 102.431005,201.717632 99.8762919,202.602227 C94.7579849,204.374252 92.4183848,203.993384 92,203.900767 L92.6423786,201.132628 C92.661127,201.135463 94.5379382,201.435999 98.8688133,199.936157 C101.263672,199.106377 102.634277,198.452382 103.634848,197.975117 C104.725214,197.455323 105.513633,197.080126 106.60992,197.005465 C107.459517,196.94687 108.867619,197.353254 112.674526,198.525153 C116.404466,199.673425 121.518826,201.267775 123.612724,201.161926 C126.680551,201.04001 127.714672,200.019324 127.724539,200.008928 L130,201.821591 C129.830278,202.024783 128.209037,203.816655 123.736069,203.995275 C123.650221,203.99811 123.561413,204 123.470631,204" id="Fill-13" fill="#CDCDCD"/><path d="M84.5575046,198 C84.5575046,198 90.904937,198.844466 93.6558212,201.878817 C96.4067053,204.913168 98,209 98,209 L84,209 L84.5575046,198 Z" id="Fill-15" fill="#000"/><path d="M98.0704365,209 C98.0545635,208.958685 96.4722222,204.831134 93.8105159,201.809247 C91.2063492,198.85425 85.0615079,197.982704 85,197.97385 L85.1359127,197 C85.4027778,197.036396 91.7113095,197.932535 94.5565476,201.16198 C97.3402778,204.3206 98.9325397,208.478646 99,208.653742 L98.0704365,209 Z" id="Fill-17" fill="#CDCDCD"/><g id="Group-21" transform="translate(82.000000, 203.000000)" fill="#CDCDCD"><path d="M68.2482943,3.0993 C68.2482943,3.0993 67.1571086,1.9643 66.8771657,1.7653 C66.8771657,1.7653 67.0457229,0.6593 66.5134371,0.3183 C66.46908,0.2893 66.3527657,0.2583 66.2058943,0.2273 C63.2822657,1.0383 53.6952086,3.5823 46.5468086,4.0843 C39.5531657,4.5773 25.7226086,4.0973 19.1725371,4.3663 C12.6234514,4.6333 4.50806571,4.4263 2.75053714,4.3663 C2.11672286,4.3433 1.68005143,4.2453 1.37546571,4.1313 C1.31336571,4.1093 0.857965714,3.8903 0.734751429,4.2033 C0.610551429,4.5173 1.26013714,12.4533 1.26013714,12.4533 C1.26013714,12.4533 3.11130857,12.8543 7.33903714,12.8543 C11.56578,12.8543 23.5274229,12.8053 30.3002657,12.8543 C37.0740943,12.9033 47.8824514,13.3413 54.55968,12.4143 C61.2369086,11.4893 68.39418,8.8583 68.39418,8.8583 L68.2482943,3.0993 Z" id="Fill-19"/></g><path d="M93.3204116,210 C89.4603981,210 86.0045796,209.912611 84.4989285,209.857194 C83.8449389,209.833748 82.3727249,209.585435 82,209.436234 L82.3402713,208.43659 C82.5723638,208.529307 83.9314819,208.77016 84.5323655,208.791474 C87.0037576,208.880995 94.7572217,209.061101 100.880137,208.791474 C103.709503,208.668917 107.87045,208.691297 112.277258,208.720071 C118.151362,208.753108 124.226089,208.790409 128.177563,208.494139 C135.289822,207.960213 144.914778,205.225577 147.694971,204.399645 C147.868057,204.351687 148.307656,204.138544 148.567285,204 L149,204.958082 C148.88002,205.020959 148.267335,205.341741 147.945749,205.430195 C145.152771,206.259325 135.448156,209.016341 128.24542,209.557726 C124.257559,209.857194 118.16513,209.819893 112.27234,209.78579 C107.878317,209.758082 103.727205,209.73357 100.920459,209.857194 C98.4992221,209.9627 95.8242573,210 93.3204116,210" id="Fill-22" fill="#474747"/><path d="M111.416373,192.634932 C110.958089,192.907986 110.875229,193.42611 111.182116,193.818732 C111.499232,194.224073 112.666424,193.838235 112.846464,193.731388 C112.867946,193.71782 114.445343,192.816403 116.549563,192.250791 C116.640606,192.226199 116.972043,192.224503 116.999663,192.10324 C117.027283,191.982825 115.349636,191.181471 114.86987,191 C113.025481,191.690267 111.496163,192.587444 111.416373,192.634932" id="Fill-24" fill="#CDCDCD"/><path d="M115.353291,194.089906 C114.942432,194.46568 114.880996,195.144011 115.216018,195.603769 C115.406088,195.864334 115.682554,196 115.96094,196 C116.174049,196 116.389078,195.920323 116.566668,195.758816 C117.181997,195.195693 118.727517,193.815343 119.791142,193.491252 C119.865058,193.468641 120.01673,193.44926 119.998491,193.388964 C119.980252,193.327591 118.690079,192.403769 118.07571,192 C116.780737,192.805384 115.538562,193.920861 115.353291,194.089906" id="Fill-26" fill="#CDCDCD"/><path d="M121.919052,194 C120.559918,194.838276 119.402538,195.973139 119.337583,196.036933 C118.92817,196.443201 118.884867,197.149412 119.242119,197.614997 C119.436984,197.870173 119.709598,198 119.985165,198 C120.214475,198 120.443786,197.909345 120.629794,197.724678 C121.139592,197.22216 122.729021,195.827644 123.94545,195.429211 C124.124568,195.372132 123.813572,195.151651 123.715155,195.109121 C123.221104,194.900951 122.544981,194.493565 121.919052,194" id="Fill-28" fill="#CDCDCD"/><path d="M124.955533,195 C123.753025,195.673629 123.256381,196.530896 123.156849,196.665796 C122.858253,197.071366 122.99841,197.607485 123.471695,197.86423 C123.64029,197.955614 123.828182,198 124.014042,198 C124.350216,198 124.679281,197.857267 124.872251,197.597041 C125.1028,197.288947 125.886867,196.416014 126.743045,196.094865 C126.928906,196.024369 126.89539,196.08007 127,195.944299 C126.505387,195.682332 125.667491,195.322019 124.955533,195" id="Fill-30" fill="#CDCDCD"/><path d="M36.622875,168.5545 C36.622875,168.5545 36.542875,168.6075 36.377875,168.6615 C36.376875,168.5335 36.376875,168.4685 36.377875,168.3385 C36.475875,168.4255 36.523875,168.4685 36.622875,168.5545" id="Fill-32" fill="#000"/><path d="M36.6585,164.5245 C36.6585,164.5245 36.5035,164.6395 36.3415,164.6675 C36.3775,164.5335 36.3955,164.4655 36.4345,164.3325 C36.5235,164.4085 36.5685,164.4475 36.6585,164.5245" id="Fill-34" fill="#000"/><path d="M26.6339544,135 C26.6339544,135 23.2448264,138.704559 20.1394347,140.383386 C20.1394347,140.383386 17.4945011,146.427358 20.2641216,150.476868 C26.2373126,159.210091 33.0892027,157.934847 33.0892027,157.934847 C33.0892027,157.934847 37.7438539,147.9127 40,145.393482 C35.0351041,141.279477 31.5625242,139.110097 26.6339544,135" id="Fill-36" fill="#CDCDCD"/><path d="M17.8607078,161.484294 C21.8849966,166.603018 27.3884307,178.106843 32.6960097,183.42661 C38.1205171,188.863653 45.6399933,195.13345 48,197 C47.3120707,195.517797 43.536255,189.343595 41.9966965,186.845335 C40.3177983,184.120407 37.8077334,173.456235 36.4981344,168.668641 C36.4981344,168.668641 37.2152958,162.521048 37.8252727,159.106266 C38.4342753,155.690498 38.0883618,151.664701 37.4140742,151.22418 C36.7397866,150.784643 33.9831975,152.236295 31.8365853,155.134672 C31.8365853,155.134672 27.5151033,155.901396 24.0657129,151.773107 C20.6163225,147.646789 19.9020843,145.69647 20.1018371,143.80134 C20.3006155,141.905224 20.8794116,140.756123 20.2518953,140 C20.2518953,140 18.87896,139.965746 17.6171067,140.725572 C16.3542791,141.484413 14.9813437,142.460065 13.9777075,143.026731 C12.9730969,143.595369 11.58652,144.000412 10.3441548,144.788818 C9.21774366,145.504296 7.33909262,146.779542 7,147.010151 C7.08867077,147.322557 7.26698671,147.730557 7.6216698,148.254847 C8.60289469,149.705513 13.8354445,156.364585 17.8607078,161.484294" id="Fill-38" fill="#000"/><path d="M35.5467307,187 L35,186.177729 C35.0193942,186.163464 36.9098633,184.627948 37.6154414,183.718049 C38.6618027,182.370015 39.0893979,180.023435 39.0940155,180 L40,180.196652 C39.9806058,180.303639 39.5197636,182.831587 38.3173255,184.381368 C37.5424825,185.378894 35.6280015,186.934789 35.5467307,187" id="Fill-40" fill="#CDCDCD"/><path d="M36.5940882,182 C36.2971528,181.963328 33.6077374,181.537136 30.845338,178.032452 C29.2066942,175.955015 28.1729189,171.288711 27.0851554,165.856252 C26.7412302,164.139591 26.3133232,162.003677 26.0923712,161.560636 C25.9044121,161.305912 25.5444903,161.109665 24.5367094,160.588324 C23.5339274,160.069956 22.0202565,159.286952 19.8297327,157.811139 C15.2527277,154.723727 14.114975,152.546184 14,152.307318 L16.7074114,151.027752 L15.3537057,151.66704 L16.6934145,151 C16.7024125,151.016849 17.6552054,152.748377 21.516366,155.352112 C23.5619213,156.730793 24.9266246,157.436487 25.923408,157.951882 C27.0841556,158.552515 27.923973,158.985644 28.586829,159.917319 C29.0567268,160.577421 29.3246686,161.766793 30.0275158,165.276433 C30.7633558,168.954567 31.8761139,174.512901 33.2078244,176.200818 C35.1953923,178.722288 36.9270159,179.042427 37,179.054321 L36.5940882,182 Z" id="Fill-42" fill="#CDCDCD"/><path d="M14.6591626,142 C14.6591626,142 17.7366845,147.443713 16.8343061,151.388945 C15.9309239,155.333221 14.1211484,159 14.1211484,159 C10.2928156,154.63948 8.36258909,152.459698 5,148.099178 C8.86446806,145.659124 10.7956983,144.440054 14.6591626,142" id="Fill-44" fill="#000"/><path d="M14.947534,160 L14,159.579051 C14.018846,159.541502 15.874128,155.79249 16.792346,151.825099 C17.6822951,147.974308 14.6051654,142.523715 14.5748024,142.469368 L15.4951144,142 C15.6301773,142.236166 18.7868789,147.832016 17.814217,152.034585 C16.870871,156.115613 15.0250119,159.843874 14.947534,160" id="Fill-46" fill="#CDCDCD"/><path d="M46.8488525,200.545988 C46.8488525,200.545988 47.1037055,199.020687 47.0939035,198.685003 C47.0939035,198.685003 48.0535233,198.18344 47.9976516,197.567037 C47.9927506,197.515016 47.946681,197.405085 47.883948,197.269633 C45.5098937,195.410611 37.9446789,189.166102 32.4888632,183.750989 C27.1496917,178.452677 21.6134993,166.995251 17.5652565,161.897172 C13.5160336,156.798112 8.25233788,150.165898 7.2642922,148.721083 C6.90847813,148.198908 6.72812059,147.792553 6.63990222,147.481407 C6.62029814,147.418589 6.52521835,146.926842 6.20469162,147.00929 C5.8841649,147.092721 0,152.226135 0,152.226135 C0,152.226135 0.64889508,153.943816 3.31308968,157.336973 C5.97728429,160.728167 14.6413079,170.297126 17.5632961,175.759353 C20.4843042,181.222562 27.1663552,190.075001 31.9017209,194.881565 C36.6380669,199.687147 42.379122,204 42.379122,204 C44.1621132,202.613095 45.0697821,201.920133 46.8488525,200.545988" id="Fill-48" fill="#CDCDCD"/><path d="M47.5466618,199 C47.4308952,198.93883 46.8394154,198.61917 46.5903713,198.40705 C43.9150924,196.217774 36.700595,190.00019 31.5154182,184.790916 C28.3546979,181.614048 25.0850207,176.184761 22.1996109,171.394794 C20.1790457,168.040337 18.2713287,164.872348 16.6155743,162.798505 L14.51621,160.172163 C10.8126513,155.541039 6.98359766,150.753045 6.15474763,149.522749 C5.78799122,148.980116 5.10798398,147.654119 5,147.271316 L5.93488835,147 C6.00201353,147.236785 6.62073256,148.467082 6.95733128,148.965317 C7.76380625,150.162069 11.7533766,155.150343 15.2720979,159.550601 L17.3714622,162.17793 C19.0680754,164.302091 20.9923305,167.496718 23.0294337,170.879786 C25.8856587,175.622396 29.1232325,180.99742 32.2002896,184.08944 C37.3582272,189.273062 44.5386756,195.460061 47.2071446,197.645391 C47.3404222,197.756878 47.7490102,197.992676 48,198.126855 L47.5466618,199 Z" id="Fill-50" fill="#474747"/><path d="M34.3740106,161.048224 C33.970843,160.880152 33.409288,161.16657 33.0898136,161.671777 C32.76044,162.191903 33.4317862,162.833358 33.5829741,162.898995 C33.6018726,162.907945 34.9256664,163.507631 36.1909649,164.743799 C36.2458605,164.797502 36.3574515,165.052095 36.4897409,164.990436 C36.6220303,164.927782 36.9388049,163.080989 37,162.586721 C35.7877972,161.643931 34.444205,161.077064 34.3740106,161.048224" id="Fill-52" fill="#CDCDCD"/><path d="M34.2844674,165.026731 C33.8580915,164.91106 33.3308036,165.181526 33.1044335,165.630601 C32.976248,165.885757 32.9698842,166.142615 33.0644323,166.340786 C33.1353435,166.491328 33.2671654,166.606149 33.4480797,166.65718 C34.0753705,166.831537 35.8490578,167.284864 36.6390805,167.890435 C36.6936276,167.932962 36.7881757,168.031622 36.8236313,167.989946 C36.8590869,167.949121 36.9281798,166.602747 37,165.980165 C35.8336028,165.439234 34.4772002,165.079463 34.2844674,165.026731" id="Fill-54" fill="#CDCDCD"/><path d="M37.6006953,170.275997 C36.0222623,169.417432 34.3756188,169.049335 34.283961,169.027624 C33.7020404,168.898346 33.1350408,169.235851 33.0210014,169.767766 C32.9591857,170.057901 33.0369883,170.349024 33.2128434,170.57304 C33.3599222,170.758569 33.5837378,170.913505 33.8491192,170.992454 C34.5781187,171.203641 36.7384723,172.002007 37.8799319,172.969125 C38.0483265,173.113206 38.0014318,172.712543 37.965195,172.599055 C37.7861425,172.024705 37.6369321,171.170088 37.6006953,170.275997" id="Fill-56" fill="#CDCDCD"/><path d="M38.3643383,174.67937 C37.0576472,173.970316 36.0119119,174.015192 35.8350737,174.002228 C35.3036031,173.965329 34.9298531,174.391161 35.0111031,174.950625 C35.0388237,175.152072 35.1210296,175.342549 35.2386031,175.5061 C35.4527208,175.802287 35.7805884,176.011713 36.1189707,176.039636 C36.5204413,176.073543 37.7363236,176.291943 38.5268383,176.858389 C38.699853,176.982049 38.8241177,176.982049 39,177 C38.9130147,176.439538 38.5153677,175.511087 38.3643383,174.67937" id="Fill-58" fill="#CDCDCD"/><path d="M79.0116521,24 L79.0116521,88.3849007 L64.2448614,94.8900397 C64.2448614,94.8900397 52.6038805,98.266596 35.3350623,114.57404 C18.0672295,130.881483 17,137.538543 17,137.538543 C23.5975084,141.687444 31.1637026,150.854623 40.5746369,161.178358 C49.9845859,171.503073 58.2731062,172 58.2731062,172 L94.858483,123.508927 C94.858483,123.508927 101.337739,97.5324768 102.653299,93.212053 C103.969844,88.8916291 106.803964,81.424 107.107479,71.9598411 C107.410994,62.494702 108.967001,39.2773245 107.0858,26.9070728 C106.937984,25.9328212 106.820717,24.9615099 106.724144,24 L79.0116521,24 Z" id="Fill-60" fill="#2C3DFF"/><path d="M105.727732,0 C107.534147,28.0446347 108.263509,44.4667293 107.91582,49.2662837 C107.367624,56.8336689 107.435766,66.1755894 107.055563,74.6868527 C106.738727,78.971528 105.908232,83.2000851 104.772423,87.3095141 C104.21556,89.3652131 103.554045,91.3923607 102.937655,93.3899724 C102.347188,95.3718316 101.830649,97.4354069 101.299709,99.4714153 C99.2153123,107.652861 97.1001921,115.834307 94.9313058,124 L94,123.762728 C95.8203667,115.504489 97.7012204,107.263972 99.7568138,99.0598817 C100.275273,97.0051672 100.769729,94.9632516 101.367877,92.8947537 C101.975626,90.8508691 102.618899,88.8621181 103.182483,86.8448158 C104.311571,82.8190719 105.132464,78.7125966 105.456021,74.5568947 C105.61828,72.4962731 105.650923,70.3637807 105.755575,68.2470409 L106.034967,61.9076511 C106.230829,57.6840166 106.404609,53.4623512 106.50542,49.2397013 C106.68016,40.7835717 105.964879,8.49944898 104.772423,0.0974684871 L105.727732,0 Z" id="Fill-62" fill="#000"/><path d="M96.7967005,30.8078397 L94.462731,0.203944587 L52.320399,0 C50.2759323,8.03019255 47.5627422,18.7458229 48.0596203,27.5857659 C48.6880827,38.7856391 59.7048323,92.0031206 59.14118,108.719544 C58.5775278,125.434963 56.3239009,166.935175 58.3899711,184.035376 C58.3899711,184.035376 61.2966097,184.274484 64.4074986,185.392663 C67.5183875,186.511846 76.4307699,188.661804 86.6884547,187.801821 C96.9461395,186.940833 103,182.468117 103,182.468117 C103,182.468117 100.58042,146.245348 100.110055,135.011317 C99.7067329,125.378514 91.6117454,56.918939 91.6117454,33.1615362 C91.6117454,30.4933306 94.7838149,30.8078397 96.7967005,30.8078397 Z" id="Fill-64" fill="#2C3DFF"/><path d="M58,16 C58.8512813,15.2980223 59.4879277,14.4409449 60.0779144,13.580846 C60.6585691,12.7096686 61.1541994,11.795184 61.5896904,10.8535067 C62.0168864,9.91787218 62.4067546,8.91073064 62.8173604,7.93380333 C63.2175974,6.95184032 63.630277,5.97894159 63.9962968,5 L65,5.25077825 C64.8123241,6.34554111 64.4836321,7.39397546 64.0979114,8.41118843 C63.7121908,9.43041567 63.2901792,10.4154001 62.758258,11.4094488 C62.2263368,12.3893975 61.5699896,13.3139535 60.7850689,14.1257096 C60.0053325,14.9304157 59.0700637,15.6414576 58,16" id="Fill-66" fill="#000"/><path d="M59.5392075,101.595289 C59.7572202,103.542603 59.9229494,105.508061 59.9051927,107.485614 L59.7858282,113.347717 L59.1771682,136.752788 C58.9709932,144.549103 58.71944,152.343403 58.6572916,160.136694 C58.5793594,167.923937 58.5221434,175.730331 59.1653304,183.458107 L58.7164806,183.019659 C60.6914197,183.2283 62.5963185,183.64155 64.4706364,184.266465 C66.2749139,184.917586 68.1137184,185.376192 69.9909957,185.760213 C73.7356855,186.520189 77.5543615,186.919329 81.3730375,186.987868 C83.2838553,187.010042 85.1927,186.945535 87.0966124,186.795354 C88.9916464,186.62199 90.8748426,186.329691 92.7284443,185.898299 C94.582046,185.467914 96.4040803,184.893395 98.165939,184.173736 C99.917933,183.453068 101.664008,182.599354 103.194043,181.548086 L103.202922,181.542038 L102.999706,181.984518 L100.864957,148.850936 C100.496012,143.347654 100.18231,137.761723 99.7679876,132.324965 C99.1346654,126.904334 98.8334942,121.526036 97.509634,116.179992 C93.0371156,67.2611721 90.4414477,39.1288766 89.7226303,31.783105 L89.7216439,31.770002 L89.6506171,31.0372391 L90.2286962,30.8165031 C91.0030854,30.5211805 91.6936235,30.3589043 92.4324994,30.2208183 C93.1624969,30.0887798 93.8964403,30.017217 94.6274242,30.004114 C95.3574217,29.9839554 96.0854462,30.0383835 96.7967005,30.1563109 C97.5099278,30.2571036 97.4635631,30.5786323 96.7730249,30.6401159 C96.0844597,30.6854726 95.4067459,30.7933208 94.7477752,30.9666842 C94.0888045,31.135008 93.446604,31.3527202 92.8290656,31.617805 C92.223365,31.879866 92.4863362,31.7610091 92,32.0906012 L91.6117454,32.5197631 C92.278608,39.8588152 94.7108485,67.6256147 98.908467,115.820162 C100.20076,121.202492 100.476282,126.605988 101.089875,132.184864 C101.477563,137.784906 101.7449,143.248878 102.078331,148.787436 L103.984216,181.915979 L104,182.201222 L103.780014,182.359467 L103.769163,182.368538 C102.100034,183.512535 100.347053,184.358186 98.5319243,185.109092 C96.7197548,185.850926 94.8503694,186.439555 92.9494165,186.881027 C91.0484636,187.323507 89.1179162,187.621854 87.177504,187.799249 C85.2410377,187.952454 83.299639,188.017969 81.3592268,187.995795 C77.4784023,187.926248 73.6064562,187.521061 69.797645,186.747981 C67.9006381,186.360937 65.9888339,185.88318 64.1608807,185.223995 C62.3763328,184.626295 60.4901771,184.219092 58.6365754,184.02557 L58.2331039,183.982229 L58.1867391,183.585106 C57.177567,175.780728 57.0345269,167.944096 57,160.12863 C57.0217026,152.310141 57.173621,144.497699 57.4833767,136.693321 C57.7734027,128.888942 58.2321174,121.093635 58.6730753,113.301352 L58.9769121,107.464447 C59.0479389,105.540315 58.980858,103.600055 58.8368315,101.664836 C58.5320082,97.7943961 57.9776047,93.93202 57.3432961,90.0807311 C58.282428,93.8654968 59.0883847,97.6966272 59.5392075,101.595289 Z" id="Fill-68" fill="#000"/><path d="M92.7062495,7 C93.0333632,8.21365671 93.0290704,9.35152303 92.9672536,10.5136423 L92.8685185,13.9959578 C92.7989747,16.3222174 92.7534707,18.6525191 92.5929188,20.9969684 L92.5233749,21 C92.2151497,18.6767721 92.076062,16.3373755 92.0193966,13.9929262 C91.9884882,12.8217121 91.9962153,11.6474664 92.0305579,10.4732207 C92.0468707,9.30200664 92.1361616,8.10552909 92.7062495,7" id="Fill-70" fill="#000"/></g></g></g><g id="Body" transform="translate(74.000000, 0.000000) scale(1 1)"><defs><polygon id="bodywaving-path-1" points="0.0134 0.566 22.0254 0.566 22.0254 32.627497 0.0134 32.627497"/><polygon id="bodywaving-path-3" points="0 171.434 132.722 171.434 132.722 1 0 1"/></defs><g id="Body/Waving" stroke="none" stroke-width="1" fill="none" fill-rule="evenodd"><g id="Group-33" transform="translate(29.000000, 52.000000)"><path d="M55.6567,155.7778 C74.8247209,155.7778 84.3406,155.7778 91.0524204,152.349522 C92.4759004,151.622434 92.5216,144.8617 92.2986,138.8997 C91.8806,127.7327 89.2456,114.9017 87.5616,103.6927 C84.9776,86.4987 83.2966,74.6267 84.0396,62.2357 C84.3316,57.3637 84.7386,51.7747 84.3076,46.7967 L84.3406,36.2537 C83.3646,35.1327 79.2076,31.4557 78.0766,30.7927 C73.5486,28.1437 69.0266,23.3637 69.0266,23.3637 C69.0266,23.3637 68.2546,24.6267 63.5886,24.8827 C58.9226,25.1387 46.9796,19.6857 46.9796,19.6857 C43.0986,23.7817 21.6166,28.5557 17.1996,32.8627 C17.1996,32.8627 19.0806,73.3377 19.6996,79.8737 C20.3166,86.4097 18.6696,111.8537 17.8456,120.7097 C17.0216,129.5667 18.3506,154.2627 18.3506,154.2627 C24.7496,156.2027 40.3198973,155.7778 55.6567,155.7778 Z" id="Fill-1" fill="#ff0c0c"/><path d="M89.336,49.8614 C89.367,47.5734 89.031,43.6634 86.873,39.7444 C85.51,37.2674 83.395,35.0024 80.584,32.8644 L73.678,33.0614 L73.678,80.8404 L81.983,80.8404 L88.266,75.6854 C88.266,75.6854 87.327,70.8744 87.529,65.7474 C87.676,62.0024 89.318,51.1204 89.336,49.8674 C89.336,49.8664 89.337,49.8614 89.337,49.8614 L89.336,49.8614 Z" id="Fill-3" fill="#ff0c0c"/><g id="Group-7" transform="translate(48.000000, 0.434000)"><mask id="bodywaving-mask-2" fill="#ffffff"><use xlink:href="#bodywaving-path-1" fill="#ffffff"/></mask><g id="Clip-6"/><path d="M20.7134,22.902 C21.4054,16.787 22.0254,1.139 22.0254,1.139 L2.1384,0.566 C2.1384,0.566 4.2634,13.332 0.0134,21.914 C0.0134,21.914 4.2024,27.443 9.2954,30.219 C13.9694,32.767 17.8914,33.527 19.2904,31.356 C19.2904,31.356 20.1224,28.126 20.7134,22.902" id="Fill-5" fill="#7b3d16" mask="url(#bodywaving-mask-2)"/></g><mask id="bodywaving-mask-4" fill="#ffffff"><use xlink:href="#bodywaving-path-3" fill="#ffffff"/></mask><g id="Clip-9"/><polygon id="Fill-8" fill="#ff0c0c" mask="url(#bodywaving-mask-4)" points="62.05 34.289 67.486 34.289 67.486 25.145 62.05 25.145"/><path d="M33.2125,54.3496 C33.2125,54.3496 28.4825,57.9486 28.5855,62.3696 C28.6885,66.7906 27.3515,76.0446 27.5575,81.5976 C27.7625,87.1506 28.2765,93.0116 28.2765,93.0116 C28.2765,93.0116 17.9945,97.0216 9.8715,97.0216 C1.7485,97.0216 0.0005,93.8336 0.0005,93.8336 C0.0005,93.8336 0.3085,87.6636 2.0565,79.1296 C3.8045,70.5956 5.8605,67.3046 6.8895,60.1076 C7.9175,52.9096 9.1515,41.3936 11.4135,37.7936 C13.6755,34.1956 19.5025,31.2456 20.2885,30.8646 C21.0745,30.4836 29.5105,36.1496 31.2585,40.3656 C33.0065,44.5806 33.2125,54.3496 33.2125,54.3496" id="Fill-10" fill="#ff0c0c" mask="url(#bodywaving-mask-4)"/><path d="M11.4952,70.46 C11.3912,70.71 11.2822,70.95 11.1842,71.21 C10.8252,72.187 10.5132,73.244 10.3752,74.464 C10.2392,75.663 10.2872,77.116 10.8992,78.574 C11.5032,80.041 12.6672,81.249 13.8672,81.942 C15.0992,82.702 16.5902,83.062 17.8952,83.0690035 C20.5422,83.071 22.5272,82.208 24.3002,81.355 C30.1242,76.427 36.1322,71.462 42.5572,67.126 C46.0382,63.966 49.4712,60.798 52.9222,57.667 C58.0682,53.074 63.2502,48.552 68.7452,44.439 C73.3182,40.975 78.1042,37.795 83.1842,35.079 C82.7832,34.694 82.3592,34.314 81.9142,33.939 C76.6272,35.925 71.5852,38.59 66.7672,41.539 C60.7862,45.263 55.1102,49.439 49.6682,53.837 C44.1832,58.183 38.9572,62.806 33.6532,67.173 C30.9902,69.331 28.3482,71.497 25.6422,73.364 C24.2922,74.291 22.9202,75.149 21.5772,75.798 C20.2512,76.455 18.8872,76.868 18.0382,76.823 C17.6092,76.808 17.3572,76.726 17.1102,76.566 C16.8172,76.378 16.7242,76.267 16.6572,76.124 C16.4632,75.872 16.5032,74.628 17.0032,73.329 C17.9772,70.667 19.8652,67.846 21.8452,65.206 C25.8192,59.827 30.5482,54.812 35.2842,49.837 C43.6182,41.257 52.3462,32.96 61.1082,24.657 C60.3632,24.519 59.5582,24.325 58.7232,24.095 C54.9492,26.806 51.2532,29.622 47.5892,32.487 C44.8672,34.67 42.1642,36.884 39.4902,39.137 C36.8322,41.409 34.2212,43.74 31.6392,46.115 C30.9122,46.778 30.2072,47.468 29.4942,48.148 C28.1342,49.648 26.7842,51.153 25.4502,52.674 C20.4892,58.392 15.6962,64.287 11.4952,70.46" id="Fill-11" fill="#FF7475" mask="url(#bodywaving-mask-4)"/><path d="M36.9815,77.8369 C38.6375,76.4459 40.3005,75.0659 42.0115,73.7599 L44.5595,71.7709 L47.1715,69.8419 C48.9025,68.5429 50.7065,67.3249 52.4755,66.0659 C54.2815,64.8519 56.0665,63.6089 57.8885,62.4099 C61.5035,59.9759 65.1925,57.6389 68.8865,55.3039 C72.5795,52.9669 76.2955,50.6569 80.0435,48.3979 L85.6835,45.0349 L88.4095,43.4209 C88.2555,42.9159 88.0745,42.4049 87.8675,41.8859 C72.9575,49.0049 58.3425,56.7369 44.4165,65.8839 C43.7915,66.2889 43.1745,66.7089 42.5575,67.1259 C40.8805,68.6479 39.1965,70.1669 37.4865,71.6789 C34.8525,74.0109 32.1355,76.2799 29.1445,78.3939 C27.6435,79.4459 26.0805,80.4659 24.3065,81.3529 C24.3045,81.3529 24.3025,81.3549 24.3005,81.3549 C23.9985,81.6099 23.6945,81.8659 23.3935,82.1209 C20.0445,84.9109 16.7555,87.7819 13.3635,90.0509 C11.6825,91.1709 9.9425,92.1259 8.3875,92.5499 C6.7925,92.9669 5.7495,92.8169 4.6425,92.1039 C4.1075,91.7529 3.4035,91.0829 3.2465,90.7879 C3.0025,90.4049 2.8305,89.9189 2.7905,89.2309 C2.7005,87.8639 3.1385,86.0049 3.8085,84.1999 C5.2065,80.5399 7.3465,76.8379 9.6415,73.2629 C10.2445,72.3209 10.8635,71.3879 11.4955,70.4599 C12.1755,68.8309 12.9905,67.3879 13.8515,66.0109 C14.8505,64.4329 15.9205,62.9549 17.0255,61.5249 C19.2595,58.6849 21.6555,56.0599 24.0965,53.5019 C25.8565,51.6649 27.6615,49.8899 29.4935,48.1479 C33.9975,43.1789 38.6315,38.3149 43.3465,33.5259 C46.9605,29.8639 50.6245,26.2469 54.3315,22.6729 C53.7575,22.4649 53.1955,22.2549 52.6515,22.0459 C48.9615,25.2549 45.3075,28.5059 41.6895,31.8039 C35.2015,37.7299 28.8325,43.7959 22.6745,50.1069 C19.5925,53.2599 16.5335,56.4469 13.5785,59.7519 C13.0405,60.3509 12.5075,60.9549 11.9745,61.5599 C9.9485,64.4809 7.9905,67.4379 6.1805,70.4109 L5.1695,69.7779 C5.1095,69.8579 5.0465,69.9339 4.9865,70.0129 C4.6855,70.4189 4.3865,70.8269 4.0895,71.2369 C3.4155,73.4499 2.7145,75.9189 2.0565,79.1299 C0.3085,87.6649 0.0005,93.8339 0.0005,93.8339 C0.0005,93.8339 1.7485,97.0219 9.8715,97.0219 C11.2905,97.0219 12.7755,96.8879 14.2595,96.6859 C15.1445,96.1749 15.9865,95.6359 16.7905,95.0849 C20.6205,92.3739 23.9055,89.4119 27.1855,86.4779 C30.4495,83.5379 33.6725,80.6259 36.9815,77.8369" id="Fill-12" fill="#FF7475" mask="url(#bodywaving-mask-4)"/><path d="M15.8306,56.1406 C19.2416,51.4836 22.8186,46.9386 26.5596,42.5286 C28.3986,40.2946 30.3506,38.1616 32.2606,35.9866 C34.2396,33.8776 36.1676,31.7136 38.2216,29.6736 C41.3836,26.3766 44.7126,23.2486 48.1026,20.1826 C47.3956,19.8756 46.9796,19.6856 46.9796,19.6856 C46.5926,20.0936 46.0246,20.5086 45.3226,20.9306 C42.4476,23.3116 39.6146,25.7466 36.8916,28.3056 C34.7136,30.2536 32.6606,32.3286 30.5516,34.3546 C28.5126,36.4446 26.4286,38.4986 24.4546,40.6566 C20.4446,44.9126 16.5886,49.3196 12.8856,53.8586 C10.7296,56.5006 8.6366,59.1706 6.5946,61.9036 C6.0766,64.7486 5.3906,67.0246 4.6406,69.4476 L5.1696,69.7786 C7.3396,66.9236 9.6326,64.2116 11.9746,61.5596 C13.2376,59.7366 14.5226,57.9246 15.8306,56.1406" id="Fill-13" fill="#FF7475" mask="url(#bodywaving-mask-4)"/><path d="M87.5289,65.7471 C87.5899,64.2051 87.9039,61.4521 88.2539,58.6611 C63.2319,79.4101 40.3079,102.4711 19.1699,126.9351 L19.7239,127.4371 C40.8159,105.3661 63.3669,84.7051 87.5159,66.2471 C87.5199,66.0811 87.5219,65.9151 87.5289,65.7471" id="Fill-14" fill="#FF7475" mask="url(#bodywaving-mask-4)"/><path d="M59.6021,121.0615 C68.3921,113.0205 77.4261,105.2345 86.6811,97.7695 C85.9501,92.7805 85.3251,88.2315 84.8511,83.9635 C73.7571,93.5775 63.0991,103.6075 52.8031,114.0045 C40.6521,126.3235 28.9951,139.1465 18.2751,152.7865 C18.3221,153.7195 18.3511,154.2625 18.3511,154.2625 C20.1021,154.7935 22.5941,155.1845 25.5971,155.4365 C36.2491,143.3605 47.7211,131.9715 59.6021,121.0615" id="Fill-15" fill="#FF7475" mask="url(#bodywaving-mask-4)"/><path d="M89.6949,125.8408 C87.6519,127.5708 85.4319,129.1648 83.1989,130.6108 C81.7469,131.5268 80.2679,132.3918 78.7529,133.1178 C77.2319,133.9138 75.7709,134.3378 74.0889,134.7108 C70.7619,135.4328 67.2659,135.7918 63.7869,136.0358 C61.9149,136.1568 59.0429,136.1668 56.7299,136.1688 C66.9109,127.1878 77.4789,118.6648 88.4549,110.7038 C88.3329,109.5968 88.2079,108.4928 88.0689,107.4048 L87.3449,106.4288 C68.1559,120.9878 50.3219,137.2488 33.7529,154.6268 L34.9269,155.7778 C35.2139,155.7778 35.5029,155.7768 35.7939,155.7748 C41.7699,149.8358 47.8939,144.0498 54.1649,138.4348 L63.8679,138.2408 C67.4119,138.2198 70.9469,138.1728 74.5769,137.8508 C76.3699,137.6998 78.3409,137.2998 80.1089,136.8408 C81.8949,136.3618 83.6459,135.8308 85.3769,135.2558 C86.9629,134.7358 90.2040999,133.6638 91.7690999,133.1178 C91.6570999,130.5558 90.9149725,127.898463 90.7609725,125.259463" id="Fill-16" fill="#FF7475" mask="url(#bodywaving-mask-4)"/><path d="M69.6744,132.1895 C71.2364,134.5575 85.4694,125.5775 89.5104,122.9585 C89.2914,119.6185 89.0284,116.2685 88.6984,112.9715 C84.7944,116.1055 68.0634,129.7475 69.6744,132.1895" id="Fill-17" fill="#FF7475" mask="url(#bodywaving-mask-4)"/><path d="M87.5982,70.1231 C82.3832,73.8491 77.5382,77.9541 72.8282,82.1651 C66.1902,88.1081 59.9812,94.4421 53.9342,100.9011 C47.8782,107.3561 42.0542,114.0031 36.3802,120.7691 C30.7062,127.5441 25.1682,134.3841 19.8112,141.4541 L23.3572,144.1591 C28.7472,137.3121 34.4022,130.5851 40.1412,123.9851 C45.8902,117.3841 51.7802,110.9081 57.8732,104.6501 C63.9572,98.3881 70.1882,92.2671 76.7592,86.6011 C79.2872,84.4211 81.8542,82.2761 84.4712,80.2211 C84.4302,79.7801 84.3852,79.3351 84.3482,78.8991 L88.2662,75.6851 C88.2662,75.6851 87.8042,73.3111 87.5982,70.1231" id="Fill-18" fill="#FF7475" mask="url(#bodywaving-mask-4)"/><path d="M68.107,38.2266 C69.132,42.1496 69.763,46.1666 70.163,50.2116 C70.573,54.2606 70.5,58.3656 70.353,62.3976 C70.104,70.4876 69.533,78.5406 69.147,86.5906 C68.964,90.6216 68.865,94.6156 69.025,98.6276 C69.169,102.6476 69.411,106.6806 69.632,110.7116 C69.849,114.7456 70.024,118.7846 70.16,122.8256 C70.277,126.8646 70.32,130.9206 70.025,134.9526 C70.083,130.9116 69.737,126.8876 69.438,122.8646 C69.136,118.8406 68.748,114.8226 68.401,110.7976 C68.066,106.7736 67.711,102.7506 67.452,98.7046 C67.145,94.6496 67.245,90.5586 67.364,86.5216 C67.615,78.4296 68.144,70.3666 68.639,62.3196 C68.88,58.2866 69.032,54.3036 68.898,50.2886 C68.791,46.2746 68.501,42.2546 68.107,38.2266" id="Fill-19" fill="#000" mask="url(#bodywaving-mask-4)"/><path d="M132.5743,30.5069 C131.5813,29.6689 128.8293,32.9549 128.1813,33.9629 C127.5333,34.9719 124.8693,38.1399 124.4373,37.7069 C124.0053,37.2759 125.0133,35.6919 125.6613,34.3959 C126.3093,33.0989 127.4053,31.3039 128.5573,29.8639 C129.7093,28.4239 130.8293,26.4649 129.5663,25.5459 C129.0693,25.1849 126.0943,29.1389 125.1893,30.3629 C124.2853,31.5869 122.2053,35.0429 121.6293,35.5339 C121.0533,36.0259 120.3333,36.3389 120.6213,35.5339 C120.9093,34.7299 122.1333,29.9309 122.6373,28.5989 C123.1413,27.2659 125.7973,21.7499 124.5013,21.5339 C123.2053,21.3189 121.7013,24.6749 120.6213,26.7629 C119.5413,28.8509 116.8773,35.2589 116.3013,34.8419 C115.7243,34.4249 116.9493,29.4269 117.3083,27.6899 C117.6693,25.9509 119.2533,20.7859 118.1733,20.858134 C117.0933,20.9299 115.1483,26.2589 114.2843,28.9949 C113.4203,31.7309 112.3233,34.8939 111.5313,37.0539 C111.2453,37.7689 110.9743,38.8899 110.7613,39.9099 C110.2683,38.4769 109.9203,36.0639 109.8503,34.8419 C109.7623,33.3009 107.5543,31.0849 106.8483,32.1449 C106.1413,33.2049 107.5543,36.4719 107.5543,38.9449 C107.5543,41.4169 107.8203,44.9489 107.9963,47.3329 C108.1733,49.7179 109.7083,53.6209 108.5873,56.2719 C107.4653,58.9229 96.7593,67.1829 92.2723,71.6689 C87.7853,76.1549 84.3413,78.8289 84.3413,78.8289 C84.3413,78.8289 85.0623,85.4269 85.7463,91.1829 C86.4293,96.9389 87.0543,100.3029 87.0543,100.3029 C87.0543,100.3029 90.1353,100.9819 93.1903,98.8129 C96.2453,96.6439 103.6693,86.5489 108.0083,79.7919 C112.3453,73.0339 118.5193,59.1869 118.5193,59.1869 C118.5193,59.1869 121.6233,56.7139 122.5413,55.2119 C123.4593,53.7109 124.3653,49.7329 125.3013,47.6449 C125.9313,46.2399 126.4243,44.8719 126.6613,43.7399 L126.6653,43.7409 C126.9873,42.5309 126.9573,40.8039 127.3183,39.9399 C127.6783,39.0749 129.5503,36.6989 130.1983,35.5339 C130.8463,34.3689 133.3523,31.1639 132.5743,30.5069" id="Fill-20" fill="#7b3d16" mask="url(#bodywaving-mask-4)"/><path d="M108.587,56.2725 C108.046,57.5735 107.031,58.5945 106.108,59.6205 C105.166,60.6475 104.139,61.5835 103.135,62.5405 C101.095,64.4195 98.998,66.2275 96.943,68.0755 C95.918,69.0005 94.89,69.9205 93.885,70.8565 C92.881,71.7885 91.934,72.7795 90.959,73.7685 C89.993,74.7605 89.004,75.7375 87.976,76.6865 C86.93,77.6225 85.914,78.5805 84.557,79.2805 L84.125,78.3775 C85.233,77.7955 86.266,76.8365 87.257,75.9165 C88.252,74.9755 89.211,73.9855 90.187,73.0065 C92.104,71.0205 94.165,69.0895 96.279,67.3165 L102.607,61.9455 C103.669,61.0615 104.697,60.1435 105.739,59.2415 C106.257,58.7875 106.762,58.3195 107.253,57.8385 C107.747,57.3585 108.229,56.8665 108.587,56.2725" id="Fill-21" fill="#000" mask="url(#bodywaving-mask-4)"/><path d="M116.8834,51.1729 C116.7144,49.2449 116.2704,47.3509 115.3034,45.7749 C114.2854,44.2479 112.7384,43.0299 111.3924,41.6129 C111.2204,41.4349 111.0494,41.2469 110.8884,41.0279 C110.7274,40.7819 110.6104,40.5359 110.5264,40.2959 C110.3484,39.8139 110.2294,39.3339 110.1224,38.8529 C109.9144,37.8899 109.7764,36.9249 109.6754,35.9519 L109.6134,35.2209 C109.5984,34.9619 109.5924,34.7369 109.5524,34.5359 C109.4624,34.1089 109.2554,33.6849 108.9984,33.3009 C108.7404,32.9169 108.4414,32.5479 108.0724,32.2649 C107.7344,31.9889 107.2024,31.7369 106.8484,32.1459 C106.9594,31.9229 107.2274,31.7899 107.4874,31.8179 C107.7494,31.8309 107.9884,31.9389 108.2054,32.0659 C108.6354,32.3289 109.0094,32.6729 109.3204,33.0689 C109.6254,33.4679 109.8854,33.9109 110.0304,34.4229 C110.1034,34.6929 110.1204,34.9539 110.1394,35.1769 L110.2254,35.8879 C110.3574,36.8349 110.5284,37.7809 110.7614,38.7019 C110.8804,39.1599 111.0124,39.6159 111.1844,40.0359 C111.2674,40.2509 111.3714,40.4369 111.4804,40.5929 C111.6134,40.7569 111.7644,40.9319 111.9294,41.0989 C113.2574,42.4589 114.7954,43.6849 115.9054,45.4119 C116.4044,46.2959 116.7344,47.2569 116.8774,48.2379 C117.0284,49.2159 117.0534,50.2099 116.8834,51.1729" id="Fill-22" fill="#000" mask="url(#bodywaving-mask-4)"/><path d="M113.46,35.8135 C114.542,36.0845 115.506,36.4695 116.477,36.9035 C117.439,37.3385 118.369,37.8345 119.27,38.3745 C120.161,38.9295 121.04,39.5035 121.865,40.1485 C122.702,40.7765 123.491,41.4635 124.262,42.1655 C124.323,42.2205 124.327,42.3145 124.272,42.3755 C124.219,42.4335 124.127,42.4365 124.065,42.3875 C123.263,41.7375 122.448,41.1025 121.59,40.5305 C120.744,39.9425 119.851,39.4285 118.952,38.9355 C118.043,38.4585 117.112,38.0275 116.161,37.6585 C115.216,37.2955 114.219,36.9715 113.274,36.7905 L113.245,36.7845 C112.976,36.7325 112.799,36.4715 112.851,36.2025 C112.903,35.9325 113.163,35.7565 113.433,35.8075 C113.441,35.8095 113.452,35.8115 113.46,35.8135" id="Fill-23" fill="#000" mask="url(#bodywaving-mask-4)"/><path d="M84.8892,58.0659 C84.7642,61.8309 84.5012,65.5319 84.5652,69.2589 C84.6592,76.7119 85.5402,84.1419 86.5342,91.5579 C87.4952,98.9689 88.8312,106.3739 89.4612,113.8779 C90.1492,121.3639 92.5122,128.8639 92.7862,136.3609 C92.9022,140.1099 93.0962,141.8459 93.1142,145.6189 C93.0982,147.5099 93.1172,148.3869 92.7372,150.3369 C92.3533438,151.579341 90.8431058,153.7779 87.2157639,154.4929 C83.588422,155.2079 78.1940131,155.584919 76.3332,155.6689 C72.788009,155.8289 67.4303233,156.0839 63.7083233,156.3079 C59.9913233,156.5639 55.6567,156.3079 52.0718737,156.3079 C48.4870474,156.3079 44.5042,156.1869 40.7452,156.3079 C36.9862,156.4269 33.2222,156.4389 29.4562,156.2789 C27.5742,156.1939 25.6912,156.0579 23.8122,155.8289 C21.9342,155.5999 20.0552,155.3249 18.1992,154.7609 L18.5012,153.7649 C20.2452,154.2649 22.0972,154.5069 23.9382,154.6989 C25.7832,154.8999 27.6462,154.9819 29.5062,155.0659 C33.2322,155.1999 36.9692,155.1669 40.7012,155.0269 C44.4332,154.8849 48.219835,154.9679 51.9458737,154.9679 C54.0387,154.9679 61.7753233,155.2499 63.6613233,155.2049 C67.4293233,155.1029 72.5136509,155.0269 76.4162,154.6319 C78.29238,154.442001 84.348346,154.061676 87.2477639,153.4519 C90.1471818,152.842124 91.6612,150.3189 91.7102,150.1109 C92.0392,148.3739 92.0252,147.4749 92.0232,145.6249 C91.9792,141.9019 91.7602,140.1499 91.6162,136.4069 C91.2872,128.9249 88.8702,121.4459 88.1312,114.0069 C87.4462,106.5679 86.0952,99.2039 85.0872,91.7549 C84.0572,84.3209 83.2482,76.8209 83.1732,69.2729 C83.1242,65.5009 83.3722,61.7159 83.6892,57.9999 C83.9742,54.2709 84.2882,50.5589 84.3072,46.7979 C84.9562,50.5119 85.0002,54.3139 84.8892,58.0659 Z" id="Fill-24" fill="#000" mask="url(#bodywaving-mask-4)"/><path d="M31.627,147.1485 C31.368,145.9415 26.451,141.2835 25.675,140.5065 C24.898,139.7305 23.111,137.9055 22.98,136.9875 C22.848,136.0695 22.717,128.8545 22.98,119.6725 C23.169,113.0655 22.689,101.1185 22.406,94.9355 C18.78,95.9635 14.043,97.0215 9.871,97.0215 C7.485,97.0215 5.662,96.7435 4.259,96.3545 C4.245,97.9185 4.264,99.5805 4.369,100.7415 C4.628,103.5875 12.995,134.4685 13.944,139.4715 C14.893,144.4745 15.928,154.9985 16.359,156.2065 C16.791,157.4135 20.327,164.0555 21.794,164.3145 C23.26,164.5735 26.365,163.4515 26.365,163.4515 C26.365,163.4515 27.659,167.1605 28.004,167.9365 C28.349,168.7125 28.914,171.8515 30.247,171.3875 C31.097,171.0905 30.505,169.2305 30.333,166.6425 C30.16,164.0555 30.419,160.5185 30.419,160.5185 C30.419,160.5185 31.886,159.5695 32.058,158.7945 C32.231,158.0175 32.317,156.8955 32.058,154.6535 C31.799,152.4105 31.886,148.3565 31.627,147.1485" id="Fill-25" fill="#7b3d16" mask="url(#bodywaving-mask-4)"/><path d="M28.4874,148.4444 C28.9254,149.3894 29.2804,150.3544 29.6054,151.3274 C29.9324,152.3074 30.2164,153.2564 30.4834,154.2904 C30.7034,155.3714 30.7144,156.3924 30.6984,157.4314 C30.6784,158.4654 30.5864,159.4954 30.4194,160.5184 C30.2754,159.4924 30.1594,158.4714 30.0674,157.4554 C29.9554,156.4484 29.8904,155.4094 29.6844,154.4814 C29.4354,153.5304 29.1734,152.5034 28.9714,151.5034 C28.7614,150.4954 28.5834,149.4794 28.4874,148.4444" id="Fill-26" fill="#221F1F" mask="url(#bodywaving-mask-4)"/><path d="M18.6382,157.419 C19.4572,157.573 20.1952,157.656 20.9532,157.763 C21.7032,157.872 22.4772,157.939 23.2642,157.993 C24.8352,158.102 26.4202,158.214 28.0102,158.444 C26.4252,158.702 24.8332,158.83 23.2312,158.814 C22.4332,158.8 21.6162,158.781 20.8022,158.61 C20.0092,158.425 19.1762,158.101 18.6382,157.419" id="Fill-27" fill="#221F1F" mask="url(#bodywaving-mask-4)"/><path d="M33.2125,54.3487 C30.9135,56.7417 28.8595,59.6307 29.1065,62.8697 C29.0975,66.2827 28.7415,69.6137 28.5175,72.9587 C28.3165,76.3057 27.9765,79.6187 28.2475,82.9367 C28.4545,86.2767 28.6235,89.6187 28.7755,92.9637 L28.7755,92.9677 L28.7915,93.3417 L28.4585,93.4777 C26.1385,94.4187 23.7805,95.1897 21.3725,95.8347 C18.9725,96.4947 16.5225,97.0007 14.0345,97.2877 C11.5505,97.5807 9.0095,97.6647 6.5195,97.2357 C5.2745,97.0497 4.0425,96.7057 2.8895,96.1807 C1.7545,95.6587 0.6235,94.9267 0.0005,93.8337 C0.8035,94.7897 1.9615,95.2847 3.0855,95.6867 C4.2295,96.0757 5.4325,96.2547 6.6315,96.3887 C7.8335,96.5227 9.0525,96.5267 10.2635,96.4857 C11.4735,96.4507 12.6865,96.3477 13.8915,96.1697 C16.3035,95.8277 18.6955,95.2977 21.0665,94.6837 C23.4295,94.0497 25.7925,93.3467 28.0955,92.5457 L27.7785,93.0547 L27.7785,93.0517 C27.5075,89.7017 27.2545,86.3457 27.0395,82.9887 C26.8895,81.3237 26.9115,79.5847 26.9815,77.9077 C27.0455,76.2177 27.1765,74.5377 27.3265,72.8647 C27.6045,69.5207 28.0085,66.1717 28.0675,62.8717 C28.0595,62.4787 28.0885,62.0187 28.1195,61.5647 C28.1935,61.1207 28.2565,60.6717 28.4045,60.2507 C28.6715,59.4017 29.0645,58.6057 29.5615,57.8957 C30.5455,56.4677 31.7855,55.2587 33.2125,54.3487" id="Fill-28" fill="#000" mask="url(#bodywaving-mask-4)"/><path d="M63.5884,24.8829 C63.5884,24.8829 67.9614,22.6989 69.0974,20.4279 C69.0974,20.4279 70.6644,23.0489 71.2754,26.0189 C71.8874,28.9889 69.7914,33.1829 67.9564,34.8419 C67.9564,34.8419 65.7724,25.4939 63.5884,24.8829" id="Fill-29" fill="#ff0c0c" mask="url(#bodywaving-mask-4)"/><path d="M63.5884,24.8829 C63.5884,24.8829 62.7054,25.5569 62.6274,27.6349 C62.5804,28.9009 63.1084,34.8419 63.1084,34.8419 C63.1084,34.8419 57.8444,36.0969 53.3024,32.0779 C48.7594,28.0599 45.0684,21.4759 44.8934,20.4279 C44.8934,20.4279 46.9024,18.6809 47.3394,16.9339 C47.7764,15.1869 48.9994,14.2259 49.5234,14.2259 C50.0474,14.2259 51.9874,17.4279 55.2024,20.4279 C59.1334,24.0969 63.5884,24.8829 63.5884,24.8829" id="Fill-30" fill="#ff0c0c" mask="url(#bodywaving-mask-4)"/><path d="M63.8897,25.2784 C63.7317,25.4154 63.4937,25.7894 63.3817,26.1244 C63.2507,26.4744 63.1687,26.8574 63.1267,27.2504 C63.0447,28.0164 63.1217,28.8834 63.1547,29.7234 C63.2477,31.4164 63.3697,33.1144 63.4997,34.8074 L63.5287,35.1834 L63.1827,35.2274 C61.0137,35.5064 58.8757,35.1734 56.9087,34.3584 C55.9307,33.9464 55.0067,33.4164 54.1557,32.7874 C53.3227,32.1304 52.5527,31.4244 51.8367,30.6694 C50.3827,29.1764 49.0877,27.5464 47.8767,25.8624 C47.2747,25.0164 46.7027,24.1514 46.1607,23.2664 C45.6387,22.3604 45.0757,21.5164 44.7467,20.4524 C44.7227,20.3744 44.7667,20.2924 44.8447,20.2684 C44.9207,20.2454 45.0017,20.2874 45.0267,20.3624 L45.0397,20.4034 C45.3427,21.3104 45.9357,22.2154 46.4647,23.0774 C47.0187,23.9424 47.6027,24.7904 48.2157,25.6164 C49.4487,27.2604 50.7637,28.8484 52.2217,30.2884 C52.9407,31.0184 53.7137,31.6954 54.5137,32.3014 C55.3367,32.8844 56.2237,33.3704 57.1567,33.7434 C59.0127,34.4814 61.1107,34.7414 63.0337,34.4564 L62.7167,34.8764 C62.5517,33.1784 62.3947,31.4854 62.2667,29.7804 C62.2187,28.9244 62.1147,28.0874 62.1897,27.1574 C62.2287,26.7024 62.3147,26.2454 62.4717,25.7944 C62.6477,25.3354 62.8127,24.9264 63.2877,24.4874 C63.4887,24.3014 63.8027,24.3154 63.9877,24.5164 C64.1737,24.7174 64.1607,25.0304 63.9597,25.2164 L63.9497,25.2254 L63.8897,25.2784 Z" id="Fill-31" fill="#000" mask="url(#bodywaving-mask-4)"/><path d="M71.4214,25.9893 C71.7614,27.6453 71.3814,29.3333 70.8014,30.8663 C70.1924,32.3993 69.3834,33.8713 68.1654,35.0733 L67.7914,35.4423 L67.6534,34.9133 C67.1904,33.1393 66.6514,31.3713 66.0124,29.6583 C65.6904,28.8033 65.3394,27.9593 64.9254,27.1653 C64.7194,26.7693 64.4944,26.3853 64.2404,26.0483 C63.9984,25.7103 63.6774,25.4233 63.4544,25.3613 L63.4194,25.3513 C63.1544,25.2783 63.0004,25.0033 63.0734,24.7393 C63.1474,24.4733 63.4214,24.3193 63.6864,24.3933 C63.6974,24.3963 63.7114,24.4003 63.7224,24.4053 C64.3874,24.6453 64.7134,25.0933 65.0074,25.4923 C65.2964,25.9053 65.5244,26.3313 65.7304,26.7603 C66.1434,27.6223 66.4724,28.5013 66.7734,29.3863 C67.3674,31.1603 67.8484,32.9523 68.2594,34.7703 L67.7474,34.6103 C68.8884,33.5623 69.7444,32.1513 70.3754,30.6943 C70.9864,29.2333 71.3994,27.6153 71.1304,26.0493 L71.1294,26.0443 C71.1154,25.9633 71.1704,25.8853 71.2514,25.8723 C71.3304,25.8583 71.4054,25.9113 71.4214,25.9893" id="Fill-32" fill="#000" mask="url(#bodywaving-mask-4)"/></g></g></g><g id="Head" transform="translate(112.000000, 0.000000) scale(1 1)"><g id="Head/Short Hair 1" stroke="none" stroke-width="1" fill="none" fill-rule="evenodd"><g id="Group-38" transform="translate(28.000000, 12.000000)"><g id="Group-3" transform="translate(27.000000, 3.484100)" fill="#ff7475"><path d="M0.643,6.9342 C0.643,6.9342 9.276,-3.6678 16.456,3.4012 C25.815,12.6162 14.932,25.3142 14.932,25.3142 L0.643,6.9342 Z" id="Fill-1"/></g><path d="M35.4072,53.4466 L34.9412,53.2666 C40.5412,38.8096 39.1652,20.6836 31.8092,12.0006 L32.1912,11.6776 C39.7792,20.6346 41.1622,38.5926 35.4072,53.4466" id="Fill-4" fill="#00BFF9"/><path d="M5.4355,29.4535 C5.3625,28.8155 5.3255,28.1685 5.3255,27.5125 C5.3255,17.8205 13.4815,9.9645 23.5425,9.9645 C32.5625,9.9645 40.6565,16.5215 42.1095,24.8125 C42.1095,24.8125 46.1635,47.0615 34.5265,53.7125 C30.2315,56.1675 17.8165,46.0665 17.8165,46.0665" id="Fill-6" fill="#7b3d16"/><path d="M6.1684,22.2308 C5.6234,23.8978 5.3254,25.6708 5.3254,27.5118 C5.3254,28.1678 5.3624,28.8158 5.4354,29.4538 L5.8394,29.9958 C7.9894,29.5568 10.8354,29.1358 11.7274,29.7478 C13.2214,30.7708 14.3754,33.5548 16.0264,33.4098 C17.6774,33.2638 16.8524,30.5438 16.7064,28.7978 C16.5604,27.0508 17.8164,25.4938 17.8164,25.4938 L6.1684,22.2308 Z" id="Fill-8" fill="#000"/><path d="M42.1093,24.8119 C42.8933,28.9549 43.1873,33.2069 42.8933,37.4379 C42.6023,41.6439 41.6953,45.9579 39.3433,49.6089 C38.1743,51.4209 36.5813,52.9779 34.6963,54.0789 C33.5813,54.6519 32.3843,54.5129 31.3293,54.2939 C30.2623,54.0459 29.2573,53.6519 28.2853,53.2079 C26.3353,52.3259 24.5483,51.1659 22.8023,49.9739 C21.0613,48.7729 19.4003,47.4619 17.8163,46.0679 C21.2543,48.4979 24.7813,50.8469 28.5773,52.5589 C29.5263,52.9749 30.5013,53.3369 31.4913,53.5499 C32.4693,53.7479 33.5173,53.8029 34.3023,53.3709 C36.0643,52.3599 37.5873,50.9119 38.7153,49.1949 C39.8463,47.4739 40.6713,45.5469 41.2233,43.5429 C41.7893,41.5409 42.1663,39.4779 42.3623,37.3929 C42.7523,33.2219 42.6403,28.9919 42.1093,24.8119" id="Fill-10" fill="#000"/><path d="M15.079,41.6078 C14.582,42.4578 13.39,42.7778 12.451,42.8078 C9.946,42.8888 6.133,39.7328 4.97,35.4988 C3.807,31.2628 5.562,28.2708 8.066,28.1898 C9.917,28.1288 12.118,29.5608 13.61,32.0208" id="Fill-12" fill="#7b3d16"/><path d="M15.079,41.6068 C14.781,42.1748 14.184,42.5378 13.577,42.7268 C12.966,42.9208 12.306,42.9998 11.653,42.8918 C10.35,42.6828 9.216,41.9608 8.229,41.1438 C6.257,39.4858 4.832,37.1338 4.379,34.5568 C4.143,33.2768 4.137,31.9168 4.568,30.6258 C5,29.3668 6.04,28.1418 7.475,27.8968 C8.895,27.6438 10.208,28.2798 11.224,29.0498 C12.259,29.8408 13.042,30.8958 13.609,32.0208 C12.864,31.0018 11.971,30.1078 10.95,29.4368 C9.942,28.7698 8.711,28.3778 7.62,28.6108 C6.525,28.8578 5.699,29.7948 5.333,30.8948 C4.944,31.9998 4.917,33.2358 5.12,34.4278 C5.31,35.6298 5.733,36.7888 6.336,37.8508 C6.937,38.9118 7.671,39.9178 8.582,40.7438 C9.479,41.5738 10.537,42.2748 11.714,42.5738 C12.298,42.7178 12.928,42.6968 13.529,42.5558 C14.12,42.4108 14.722,42.1398 15.079,41.6068" id="Fill-14" fill="#000"/><path d="M21.6156,16.1 C21.6156,16.1 25.7546,18.354 32.2236,17.841 C38.6916,17.329 38.4496,13.705 43.4556,15.448 L43.4556,10.441 C43.4556,10.441 40.2626,7.031 35.8366,8.772 C31.4106,10.513 27.2756,16.608 21.6156,14.94 L21.6156,16.1 Z" id="Fill-16" fill="#ff7475"/><g id="Group-20" transform="translate(6.000000, 0.484100)" fill="#ff7475"><path d="M31.0341,4.0319 C31.0341,4.0319 27.9511,4.5139 23.0891,3.3539 C18.2271,2.1929 12.7131,0.3789 10.6811,0.5239 C8.6501,0.6699 0.3051,4.4419 0.3051,6.3289 C0.3051,8.2159 2.1921,11.3549 2.1921,11.3549 L18.0591,16.5549 C18.0591,16.5549 26.2821,16.7769 28.8931,13.1489 C31.5061,9.5209 31.0341,4.0319 31.0341,4.0319" id="Fill-18"/></g><path d="M15.079,4.4554 C14.397,5.3054 13.828,6.2554 13.465,7.2704 C13.108,8.2964 13.037,9.3824 13.629,10.2744 C14.132,11.2264 14.697,12.1494 15.34,13.0024 C15.971,13.8374 16.716,14.6864 17.477,15.1304 L16.631,16.3454 C15.638,15.4724 15.101,14.4994 14.529,13.5264 C13.995,12.5424 13.505,11.5474 13.109,10.5094 C12.898,10.0214 12.725,9.3764 12.802,8.8094 C12.855,8.2334 13.045,7.6984 13.269,7.1924 C13.735,6.1864 14.369,5.2824 15.079,4.4554" id="Fill-21" fill="#000"/><path d="M20.3505,15.8666 C22.4845,15.8956 24.7215,15.3736 26.6555,14.4046 C27.6325,13.9216 28.5385,13.3136 29.3715,12.6076 C30.2355,11.8726 31.0725,11.0986 31.9875,10.3826 C32.9015,9.6716 33.8685,8.9556 35.0035,8.4886 C36.1265,7.9996 37.3685,7.8216 38.5535,7.8416 C39.7235,7.8506 40.9625,8.0206 42.0535,8.5876 C43.1315,9.1406 44.0455,10.1146 44.2945,11.2636 C43.6705,10.2876 42.7185,9.6796 41.7315,9.3156 C40.7265,8.9546 39.6545,8.8606 38.5525,8.8676 C37.4655,8.8786 36.4065,9.0596 35.4455,9.5076 C34.4755,9.9306 33.6005,10.6036 32.7395,11.3096 L30.1565,13.5196 C29.2485,14.2846 28.2485,14.9516 27.1815,15.4736 C26.1165,16.0046 24.9755,16.3646 23.8185,16.6056 C22.6505,16.8406 21.4955,16.9606 20.2615,16.8626 L20.3505,15.8666 Z" id="Fill-23" fill="#000"/><path d="M10.4101,9.975 C10.0381,9.318 9.7161,8.583 9.7361,7.974 C9.7521,7.448 10.2791,6.751 10.7701,6.177 C11.8061,4.995 13.0371,3.939 14.2801,2.92 C14.9071,2.414 15.5561,1.935 16.2111,1.464 C16.4341,1.312 16.6591,1.158 16.8861,1.005 C16.8181,1.007 16.7431,1.003 16.6811,1.008 C16.6041,1.014 16.5011,1.035 16.4071,1.05 C16.2931,1.111 16.1791,1.171 16.0651,1.232 C15.3471,1.621 14.6641,2.066 13.9831,2.515 C12.6271,3.426 11.3201,4.411 10.1391,5.595 C9.8471,5.896 9.5611,6.208 9.3021,6.566 C9.0561,6.912 8.7761,7.356 8.7311,7.903 C8.6861,8.933 9.0821,9.736 9.4601,10.494 C9.9041,11.307 10.4211,12.05 10.9821,12.753 L12.8791,13.375 C11.9681,12.301 11.0921,11.165 10.4101,9.975" id="Fill-25" fill="#000"/><path d="M27.1938,3.3646 C26.8888,3.4586 26.5888,3.5696 26.3008,3.7166 C25.3098,4.1766 24.3868,4.8076 23.6668,5.6156 C22.9328,6.4066 22.3268,7.3006 21.8628,8.2536 C21.4108,9.2106 21.0648,10.2196 20.9458,11.2636 C21.7088,9.3336 22.7048,7.4966 24.1748,6.1266 C24.8968,5.4346 25.7508,4.9076 26.6558,4.5416 C27.5568,4.1436 28.5448,4.0226 29.5208,3.9476 L29.5198,3.9336 C29.3758,3.9016 29.2358,3.8726 29.0888,3.8386 C28.4648,3.6886 27.8308,3.5286 27.1938,3.3646" id="Fill-27" fill="#000"/><path d="M33.9999,4.5775 C33.6749,4.7575 33.3559,4.9485 33.0469,5.1535 C31.8569,5.9405 30.7589,6.8605 29.7929,7.8835 C28.8149,8.8915 27.9189,9.9685 27.0229,10.9895 C26.1169,11.9975 25.2119,13.0135 24.0599,13.7945 C24.7539,13.6455 25.3839,13.2825 25.9719,12.8935 C26.5669,12.5065 27.1059,12.0445 27.6129,11.5555 C28.6129,10.5645 29.5119,9.5325 30.5069,8.6025 C31.4949,7.6715 32.5239,6.8015 33.6459,6.0715 C34.5739,5.4815 35.5559,4.9875 36.5719,4.5645 C36.0789,4.6055 35.1999,4.6445 33.9999,4.5775" id="Fill-29" fill="#000"/><g id="Group-33" transform="translate(0.000000, 10.484100)" fill="#ff7475"><path d="M22.579,5.861 C22.579,5.861 23.854,8.406 21.616,12.193 C19.377,15.981 14.181,17.098 14.181,17.098 C14.181,17.098 7.359,16.321 4.603,14.767 C4.603,14.767 3.352,15.058 2.964,16.418 C2.964,16.418 1.507,14.233 1.264,11.173 C1.021,8.114 3.401,5.637 3.401,5.637 C3.401,5.637 1.021,6.123 0.001,8.551 C0.001,8.551 -0.144,5.686 2.623,3.161 C5.392,0.635 8.742,0.781 8.742,0.781 L22.579,5.861 Z" id="Fill-31"/></g><path d="M8.0356,26.7074 C8.0356,26.7074 13.9366,25.4644 16.0716,22.0484 C16.0716,22.0484 14.8686,25.9734 10.9476,27.5824 L8.0356,26.7074 Z" id="Fill-34" fill="#000"/><path d="M43.4555,15.4466 C42.5295,15.2456 41.5875,15.0776 40.6945,15.2296 C39.7975,15.3436 39.0215,15.8216 38.2225,16.3206 C36.6475,17.3906 34.7055,18.1256 32.7645,18.3296 C30.8315,18.5666 28.8875,18.5286 26.9585,18.2776 C25.0285,17.9836 23.1575,17.5206 21.3375,16.6116 L21.4545,16.6596 C19.1295,15.9176 16.8955,15.0596 14.6405,14.2136 C12.3975,13.3486 10.1265,12.5586 8.0365,11.2946 C9.0115,11.4676 9.9125,11.5966 10.8455,11.8786 C12.2135,12.2926 13.5985,12.8996 14.9505,13.3536 C17.2195,14.1176 19.5015,14.9006 21.7775,15.5406 L21.8165,15.5516 L21.8935,15.5896 C23.4795,16.3446 25.3235,16.8236 27.1285,17.0906 C28.9475,17.3636 30.8155,17.4176 32.6445,17.2426 C34.4835,17.1046 36.1875,16.5476 37.8585,15.6656 C38.6995,15.2546 39.6375,14.7836 40.6535,14.7776 C41.6555,14.7696 42.5915,15.0586 43.4555,15.4466" id="Fill-36" fill="#000"/></g></g></g><g id="Expressions" transform="translate(158.000000, 29.000000) scale(1 1)" fill="#000"><g id="Expressions/Glad" stroke="none" stroke-width="1" fill="none" fill-rule="evenodd"><g id="Group-12-Copy" transform="translate(7.000000, 6.000000)" fill="#000"><path d="M11.5379491,6.25091701 C11.6180931,7.32773995 12.0257588,8.38610306 12.5295974,9.37883125 C13.0467932,10.36797 13.6660391,11.3217275 14.3990894,12.1606238 C14.5850235,12.3667585 14.7757662,12.568791 14.9771947,12.7513381 C15.0744361,12.8492777 15.181829,12.9261937 15.2844133,13.0123395 C15.3736403,13.0866915 15.5472856,13.2225763 15.6642958,13.3584611 C15.7893205,13.5061397 15.9100707,13.681508 15.9693773,13.9096919 C16.0292181,14.1378758 15.9982291,14.3983644 15.9036592,14.5983458 C15.7091765,15.0039491 15.3992864,15.2157243 15.1113023,15.3905799 C14.5209083,15.7274716 13.8941823,15.866433 13.2695935,15.95463 C12.6439361,16.0310331 12.0033185,16.0166755 11.3840726,15.8674586 C11.2403477,15.8331028 11.1532579,15.6936286 11.1895899,15.5556927 C11.2216475,15.4316017 11.3434663,15.3516091 11.4716967,15.3623773 L11.4781082,15.3628901 C12.0327046,15.4080141 12.5985212,15.3551985 13.1451032,15.2444396 C13.6890137,15.1367573 14.2249098,14.9439547 14.653413,14.6850044 C14.8639246,14.5588623 15.0391727,14.3916984 15.085122,14.2676074 C15.1294683,14.1568484 15.1080966,14.0876241 14.9734547,13.9271262 C14.8965164,13.8455953 14.8345384,13.8050863 14.7004308,13.6907379 C14.5807491,13.5876706 14.4519845,13.4892182 14.3451258,13.3784593 C14.1175169,13.1656586 13.911814,12.9400385 13.7125226,12.7113418 C12.9329888,11.7873252 12.290234,10.7807522 11.8093701,9.69828872 C11.3236975,8.62556797 10.9593095,7.46311197 11.0036558,6.2473276 C11.0084645,6.1058023 11.1324205,5.99504337 11.2798854,6.0001711 C11.4171988,6.00478606 11.5267289,6.10785339 11.5368805,6.23655937 L11.5379491,6.25091701 Z" id="Fill-1"/><path d="M6.53374389,18.2298502 C6.6133413,18.5089219 6.77522521,18.8224608 6.9709918,19.0648418 C7.16837186,19.3144498 7.40770189,19.521808 7.67499859,19.6774655 C7.9482113,19.8236725 8.23863427,19.9354123 8.54895659,19.9904484 C8.7000841,20.0265832 8.86304365,20.027695 9.01739808,20.0499318 L9.49767162,20.0510437 L9.54284852,20.0515996 C9.79616189,20.0521555 10.0010714,20.2650728 10,20.5269111 C9.99945796,20.7893053 9.79347279,21.0005548 9.54015942,21 C9.52617609,21 9.51219276,20.999443 9.49874726,20.9977752 L8.92650645,20.9427392 C8.73611806,20.9004892 8.54572967,20.8782525 8.3585682,20.8159894 C7.98209398,20.7120324 7.62014092,20.5363617 7.2888436,20.3139938 C6.96238668,20.0816193 6.67949319,19.7858699 6.46060033,19.4512061 C6.24116964,19.1098713 6.08573957,18.75853 6.00506653,18.3304717 C5.97656205,18.1803733 6.07121842,18.0347223 6.21642991,18.0052585 C6.35303627,17.9774626 6.48587788,18.0625183 6.52460094,18.1976068 L6.53374389,18.2298502 Z" id="Fill-5"/><path d="M0.0556765477,3.58091006 C0.874090172,2.55772659 1.97844198,1.63665308 3.31413354,1.04222724 C4.6441964,0.438423959 6.1104739,0.151890909 7.54973363,0.0081034153 L7.55873955,0.00706147694 C8.27302215,-0.0643113009 8.91525732,0.413417438 8.99237057,1.0750483 C9.06948382,1.73615819 8.55333163,2.33058403 7.83848616,2.4019568 C7.73041504,2.41289716 7.61727808,2.41029231 7.51370992,2.39726808 C6.28214939,2.23368376 5.03933145,2.18419169 3.8387288,2.4139391 C2.63812614,2.63483003 1.48705608,3.17090732 0.462069008,3.94142074 C0.340488992,4.03259034 0.161496191,4.01539836 0.0629938635,3.90338999 C-0.0203109621,3.80805262 -0.0191852212,3.67468451 0.0556765477,3.58091006" id="Fill-7"/></g><g id="Group" transform="translate(10.000000, 7.000000)" fill="#000"><g id="Group-18"><path d="M9.01758545,4.63233625 C9.3809508,3.52891014 9.923822,2.47790812 10.6391661,1.70112436 C11.3501566,0.916779447 12.1763523,0.413205815 13.0028829,0.0492617078 L13.0082413,0.0472453969 C13.4184925,-0.133718501 13.8485027,0.221152207 13.9687315,0.838647402 C14.0886253,1.45664667 13.8531913,2.10337838 13.4429401,2.28434227 C13.3806489,2.31156247 13.314004,2.3266848 13.2523826,2.33071742 C12.512256,2.36902733 11.7788273,2.51722618 11.1013267,2.92502504 C10.4231563,3.32475867 9.80962146,4.01685736 9.29622137,4.91209938 C9.23526976,5.0179557 9.1287719,5.03005356 9.05844312,4.93831142 C8.99883111,4.86068345 8.98409555,4.73365587 9.01758545,4.63233625" id="Fill-9-Copy" transform="translate(11.500000, 2.500000) scale(-1, 1) translate(-11.500000, -2.500000)"/><path d="M2.99717249,7.15029338 C3.21141031,8.00393163 2.96204216,8.71178379 2.44040055,8.73114725 C1.91826112,8.75101669 1.32177824,8.07457886 1.10754042,7.22094061 C0.893302607,6.36730235 1.14267076,5.65945019 1.66481361,5.64009015 C2.1864518,5.6202173 2.78293468,6.29665512 2.99717249,7.15029338" id="Fill-11" transform="translate(2.052360, 7.185619) rotate(20.000000) translate(-2.052360, -7.185619)"/><path d="M12.2914755,7.57849314 C12.3505205,8.45660228 11.9797452,9.1093737 11.4623283,9.03690761 C10.9459104,8.96393402 10.479008,8.19284014 10.4199629,7.31473101 C10.3604162,6.43610997 10.732192,5.78334149 11.2486099,5.85631508 C11.765528,5.92929013 12.2324304,6.70038401 12.2914755,7.57849314" id="Fill-13" transform="translate(11.355677, 7.446574) rotate(8.000000) translate(-11.355677, -7.446574)"/></g></g></g></g></g></g></g></svg>