<svg viewBox="35.349397590361434 9.824999999999989 255.30120481927702 373.3499999999999" xmlns="http://www.w3.org/2000/svg" overflow="visible" xmlns:xlink="http://www.w3.org/1999/xlink" width="255.30120481927702px" height="373.3499999999999px"><g id="Master/Comp/Squiggle" stroke="none" stroke-width="1" fill="none" fill-rule="evenodd"><path d="M281,312 C268.396019,313.423812 258.665344,325.60301 253,336 C263.616413,329.699668 272.999463,321.387894 281,312 M265,271 C241.881595,277.085279 218.461925,298.640012 206,319 C228.22341,306.370805 246.568192,288.458706 265,271 M120.581177,44 C93.8471792,47.1393691 66.9322134,85.8195428 65,108 C82.0175766,99.5285268 97.1599505,88.4119573 110.077488,74.6163409 C115.291483,69.6466878 130.821341,49.1473665 120.581177,44 M173,57.3411208 C150.25319,51.4354123 94.0287943,123.899815 84,144 C119.665901,124.603965 155.216903,94.5145215 173,57.3411208 M153,300.730771 C153.655665,301.153769 154.31133,301.576767 154.966994,302 C155.112068,301.222108 155.005744,299.991527 155.447343,299.747626 C163.828984,296.103012 171.308761,290.614647 179.520283,286.505324 C193.727299,276.958067 207.146573,266.21369 220.086206,255.020866 C234.526663,241.200036 253.973799,230.205395 263,212 C221.384777,218.952244 170.770997,263.319161 153,300.730771 M261,136 C211.702046,148.58761 153.560756,202.433887 124,243 C148.523575,229.094129 170.72567,213.097606 193.603135,196.820471 C207.710751,188.307164 219.700281,177.427317 232.403584,166.90603 C241.550113,156.65756 255.290294,148.332508 261,136 M242,70.1174386 C229.485392,68.7350564 218.522851,79.9014308 207.904741,85.4920476 C167.719181,113.015393 133.631976,149.504056 107,190 C139.818452,171.36862 168.512981,146.064257 196.174458,120.527099 C204.062001,114.335979 210.667051,106.760119 218.24238,100.20601 C227.300606,90.9312416 237.681122,82.8716303 242,70.1174386 M186.460437,343.847483 C186.538969,342.436405 187.37774,339.387633 187.201517,337.184703 C179.823596,339.220928 172.531065,342.526388 165.163552,344.909522 C156.299686,347.978421 144.723888,347.622514 137.641405,340.728383 C131.805015,333.287011 135.346966,324.005721 136.550719,315.678963 C124.27287,317.075123 110.791032,322.558887 98.0405757,317.262667 C79.0218077,307.494283 93.2778413,277.904503 99.4732989,263.490146 C90.377387,262.521406 75.4072389,267.861197 71.3619306,256.670606 C67.4644598,238.564572 78.7199826,222.034427 86.9101826,206.882919 C49.1794392,213.165875 57.5820522,182.301885 68.5080746,159.319 C74.3470663,149.65907 63.7011073,153.602228 58.6954463,149.873846 C46.0670449,141.89376 56.270674,124.484148 53.8373863,113.889577 C45.9896963,113.152662 38.7267334,108.849809 39.0481914,100.143938 C38.0407672,74.8049143 52.9404263,50.1554461 73.2119105,35.7391953 C77.9559582,33.0463306 86.2353338,23.8353694 90.9084194,30.1962322 C69.3974653,31.3823524 36.9037191,83.6912257 46.7714613,104.881315 C55.3313734,119.001331 57.4072491,103.51357 60.2450203,96.0430731 C66.8799693,73.1596431 102.459854,24.8083716 128.922065,43.8057128 C138.924398,62.1755398 101.647339,94.0913856 86.1239234,102.858825 C79.01755,107.874676 70.9541355,111.423565 62.6579656,113.785149 C60.193218,117.027622 60.547082,122.487232 60.0054052,126.487694 C59.4008088,135.136734 58.6164419,151.616204 71.9334114,149.157296 C79.4991456,141.088884 83.8510098,129.553989 90.7681512,120.709591 C106.778602,99.5287369 125.22589,80.1435209 146.075951,63.7166199 C151.058904,60.3356208 156.268699,57.2255183 161.314808,53.9356864 C168.904197,49.3186026 184.59319,54.5009227 178.896832,65.3185571 C170.499896,84.0073508 156.073317,98.9417152 141.46129,112.94949 C128.631594,124.273398 115.046388,135.00839 100.085465,143.378008 C92.9906817,148.340817 81.2225766,148.334423 77.5143379,156.902005 C73.4638257,167.750186 56.0935055,203.784183 77.8107226,203.902345 C93.2664874,200.455279 94.6497737,195.559248 102.525375,182.88867 C112.461241,167.890844 123.312044,153.53403 135.11492,139.958885 C154.405473,117.214455 209.740001,66.7980699 238.504693,63.558439 C273.684116,71.7102037 211.668276,119.383997 201.187422,130.008641 C168.974685,157.580668 135.758073,184.327691 97.930348,203.690885 C86.2596974,220.827705 59.1777515,278.75508 104.348153,254.513378 C141.070526,205.392987 197.875861,143.31502 260.167743,130.583823 C299.132043,137.992516 193.445702,208.959873 182.397388,216.227908 C166.141882,228.290388 148.739155,238.727725 131.190011,248.788791 C124.215627,253.464364 114.292534,254.816716 110.629711,263.168101 C91.1766559,298.082281 86.7517007,330.927321 137.847195,307.396486 C143.45485,301.957714 145.24333,293.365742 149.944564,287.095573 C162.278946,268.003986 177.0258,249.951468 194.979428,235.900833 C209.864185,224.290163 226.310816,213.83104 244.734922,209.123026 C253.573952,204.6215 269.154137,201.460486 270.462913,215.151425 C263.4864,236.588494 222.496608,265.455805 203.807576,279.20547 C189.347882,289.538853 173.906783,298.421139 157.948843,306.219601 C154.057286,308.870789 147.118619,308.758784 145.836099,313.929027 C143.806112,322.772715 135.950616,343.900526 151.8946,342.206238 C208.875921,327.053783 184.869705,320.457306 222.733384,286.92792 C233.91487,277.595008 246.434463,270.010848 260.096071,264.924904 C265.035738,262.533246 268.645812,264.742096 272.046312,268.044715 C278.997988,274.839155 257.027437,290.823007 252.51851,296.119464 C236.3685,309.430579 218.970505,321.704283 200.197738,330.988652 C193.737356,334.048553 192.553473,348.696155 195.223774,354.515698 C202.217318,363.345652 230.574451,346.120032 239.942857,343.319188 C248.039387,340.00165 248.480061,328.596284 254.849612,322.793553 C261.656053,315.067077 270.088943,305.732981 281.508625,307.115644 C285.675751,307.809698 288.333988,313.633504 286.304711,317.338679 C278.446613,331.435489 263.099894,337.63533 250.470783,346.449655 C246.249725,351.404886 248.329858,359.725013 247.361227,365.86376 C241.554405,367.539578 243.800826,353.267537 243.121009,349.833732 C228.865686,357.121658 188.009302,375.65606 186.460437,343.847483" id="Background" fill="#FFD686"/><g transform="translate(3.000000, 7.000000) scale(1 1)" id="Master/Character/Standing"><g id="Master/Character/Standing" stroke="none" stroke-width="1" fill="none" fill-rule="evenodd"><g id="Bottom" transform="translate(71.000000, 158.000000) scale(1 1)"><g id="Bottom/Sweat Pants 2" stroke="none" stroke-width="1" fill="none" fill-rule="evenodd"><g id="Group-75" transform="translate(11.000000, -1.000000)"><path d="M77.7971,158.7759 C77.7971,158.7759 77.4941,165.9569 76.8511,168.3129 C76.2091,170.6689 75.3521,171.5189 75.5671,173.0569 C75.7801,174.5949 76.6651,179.6639 76.6651,179.6639 C76.6651,179.6639 82.5631,183.5189 89.4881,181.4489 L94.1291,162.7939 L77.7971,158.7759 Z" id="Fill-1" fill="#CDCDCD"/><path d="M24.7702,146.9742 L17.5122,161.1192 C17.5122,161.1192 16.1162,168.0982 20.2102,171.3552 C24.3052,174.6132 31.7592,173.0572 31.7592,173.0572 C34.9372,166.2512 38.2932,159.9352 42.1022,154.8502 L24.7702,146.9742 Z" id="Fill-3" fill="#CDCDCD"/><path d="M108.3279,1 C108.3279,1 110.2529,31.859 109.9049,44.42 C109.5559,56.981 108.7189,68.427 109.1369,75.615 C109.5559,82.801 109.8139,92.222 108.5509,97.63 C107.2869,103.039 105.8539,124.5 105.8539,135.49 C105.8539,146.481 106.1179,150.011 104.3979,152.817 C102.6779,155.624 97.5249,157.332 97.5249,157.332 C97.5249,157.332 96.3489,159.607 96.0769,161.418 C95.8059,163.228 96.1669,164.314 95.5339,165.219 C94.8999,166.125 87.2659,165.71 83.4629,164.714 C79.6609,163.718 76.1309,162.452 76.1309,160.822 C76.1309,159.192 77.3979,152.585 77.3979,151.86 C77.3979,151.135 75.7689,152.765 75.4969,148.239 C75.2249,143.712 78.3039,132.306 78.4839,126.06 C78.6649,119.814 82.4679,108.227 82.4679,108.227 C82.4679,108.227 82.6489,103.611 82.8289,102.615 C83.0109,101.619 84.6399,100.713 84.6399,100.713 C84.6399,100.713 82.7389,98.994 82.1049,93.2 C81.4719,87.407 81.2919,83.759 79.0369,76.287 C76.7809,68.815 71.0009,57.688 71.0009,57.688 L71.0009,1 L108.3279,1 Z" id="Fill-5" fill="#474747"/><path d="M93.0388,40.7164 C93.0388,40.7164 86.6758,40.2464 84.2098,42.0444 C82.8318,43.0494 81.1798,47.9784 79.9898,52.1314 L71.0008,57.6884 C71.0008,57.6884 76.7808,68.8154 79.0368,76.2864 C81.2918,83.7594 81.4718,87.4064 82.1048,93.2004 C82.7388,98.9934 84.6398,100.7134 84.6398,100.7134 C84.6398,100.7134 83.6488,92.2234 83.9798,83.7704 C84.1018,80.6704 82.7558,48.6884 93.0388,40.7164" id="Fill-7" fill="#000"/><path d="M98.0491,157.6031 C97.5371,158.6431 97.0811,159.7651 96.8031,160.8681 C96.6721,161.4131 96.6061,161.9691 96.5831,162.5521 C96.5471,163.1351 96.5861,163.7271 96.4711,164.4441 C96.4101,164.7971 96.2761,165.1871 96.0511,165.5151 C96.0161,165.5901 95.7961,165.8121 95.7091,165.8421 C95.5821,165.9241 95.4971,165.9481 95.3921,165.9941 C95.2041,166.0581 95.0301,166.0991 94.8621,166.1321 C94.1971,166.2511 93.5761,166.2761 92.9511,166.2911 C91.7061,166.3161 90.4801,166.2451 89.2571,166.1301 C86.8271,165.8961 84.3551,165.5301 82.0201,164.7611 C80.8571,164.3781 79.6931,163.9761 78.5851,163.4181 C78.0361,163.1311 77.4951,162.8181 77.0081,162.4161 C76.5551,162.0171 76.0611,161.4641 76.1311,160.8221 C76.2191,161.4421 76.7191,161.8401 77.2121,162.1391 C77.7091,162.4531 78.2581,162.6871 78.8171,162.8941 C79.9331,163.3121 81.0881,163.6491 82.2561,163.9411 C84.5661,164.6111 86.9371,164.8961 89.3411,165.0551 C90.5381,165.1251 91.7391,165.1651 92.9221,165.1331 C93.5091,165.1141 94.1051,165.0771 94.6341,164.9741 C94.8831,164.9461 95.1741,164.7821 95.0601,164.8531 C95.1751,164.6761 95.2451,164.4811 95.2851,164.2381 C95.3651,163.7521 95.3271,163.1241 95.3621,162.4951 C95.3911,161.8661 95.4721,161.2111 95.6311,160.5791 C95.9591,159.3291 96.4351,158.1941 97.0011,157.0611 L98.0491,157.6031 Z" id="Fill-9" fill="#000"/><path d="M109.1983,0.873 C110.4343,13.117 111.0403,38.6046 110.3593,50.9306 C110.1563,57.0806 109.7943,63.2246 109.7023,69.3516 C109.6883,70.8816 109.6793,72.4126 109.7273,73.9356 L109.9453,78.5336 C110.0793,81.6146 110.1583,84.7016 110.1063,87.7956 C110.0463,90.8886 109.9023,93.9926 109.3033,97.0906 C108.6353,100.0636 108.3453,103.1036 108.0253,106.1566 C107.4403,112.2646 107.0293,118.3966 106.7393,124.5306 C106.5963,127.5986 106.4823,130.6666 106.4403,133.7316 L106.4263,142.9526 C106.4163,144.4946 106.4043,146.0386 106.2983,147.5996 C106.1843,149.1466 106.0043,150.7696 105.2993,152.2786 C104.9633,153.0186 104.4633,153.7416 103.8743,154.3126 C103.2913,154.8966 102.6383,155.3716 101.9673,155.7986 C100.6143,156.6486 99.1983,157.3056 97.6933,157.8376 L97.5993,157.8706 L97.5203,157.8646 C96.9083,157.8186 96.5013,157.6956 96.0193,157.5906 L94.6423,157.2406 L91.9223,156.5156 C90.1503,156.0136 88.2923,155.8206 86.4333,155.4756 C84.5743,155.1466 82.7303,154.8516 80.8563,154.3496 C80.6213,154.2796 80.3803,154.2056 80.1203,154.0926 C79.8843,153.9826 79.6783,153.8616 79.4663,153.7416 C79.0453,153.5056 78.6593,153.2276 78.2683,152.9556 C77.5073,152.3866 76.7743,151.7846 76.1303,151.0596 C77.0413,151.3876 77.8803,151.8126 78.7163,152.2316 C79.5443,152.6416 80.3513,153.1766 81.1373,153.3716 C82.8943,153.8386 84.7663,154.1396 86.6053,154.4576 L89.3833,154.9146 C90.3043,155.0516 91.2843,155.2556 92.1853,155.4996 L94.9113,156.2176 L96.2653,156.5586 C96.6973,156.6586 97.2053,156.7756 97.5303,156.7996 L97.3573,156.8266 C98.7483,156.3306 100.1403,155.6826 101.3863,154.8896 C102.6483,154.0886 103.7383,153.1286 104.3083,151.8186 C104.9133,150.5266 105.0913,149.0276 105.1943,147.5236 C105.2923,146.0156 105.3003,144.4816 105.3053,142.9486 L105.2923,133.7186 C105.3263,130.6336 105.4323,127.5556 105.5653,124.4786 C105.8393,118.3236 106.2333,112.1786 106.8043,106.0386 C107.1143,102.9796 107.4023,99.8776 108.0743,96.8426 C108.6363,93.8956 108.7763,90.8266 108.8253,87.7756 C108.8673,84.7196 108.7793,81.6556 108.6373,78.5936 L108.4053,73.9776 C108.3513,72.4256 108.3553,70.8806 108.3653,69.3356 C108.4513,63.1626 108.7553,57.0196 109.0103,50.8786 C109.7463,38.6166 109.1993,13.22 108.0253,1 L109.1983,0.873 Z" id="Fill-11" fill="#000"/><path d="M48.1531,1 C48.1531,1 43.2456892,19.679813 44.0981,40.145 C44.9505108,60.610187 46.7071,86.058 46.2551,88.621 C45.8031,91.183 40.0751,97.816 37.2111,105.503 C34.3471,113.191 31.5811,122.688 29.0451,125.251 C26.5081,127.813 25.2451,128.304 25.0351,132.233 C24.8241,136.162 26.6491,139.389 26.6491,139.389 C26.6491,139.389 23.4911,145.494 23.4911,147.037 C23.4911,148.581 25.5961,151.808 30.7181,154.193 C35.8401,156.579 41.1181,158.034 41.9601,157.332 C42.8021,156.63 46.3801,149.895 46.3801,149.895 C46.3801,149.895 51.9931,150.948 54.1681,144.773 C56.3431,138.599 57.3091,129.005 61.8691,120.586 C66.4291,112.168 71.8321,101.713 74.1471,95.96 C76.4631,90.207 76.9621,72.952 81.6631,58.809 C86.3641,44.666 88.0091,42.786 90.7131,41.376 C93.4161,39.964 99.5281,40.788 99.5281,40.788 L99.5281,1 L48.1531,1 Z" id="Fill-13" fill="#474747"/><path d="M46.2038,150.2252 C44.9068,150.3162 41.3638,148.6412 37.3848,146.9742 C30.7278,144.1852 28.6768,141.7822 28.6768,141.7822 C28.6768,141.7822 31.2288,148.1112 35.6658,150.9232 C38.1628,152.5052 41.7288,154.8202 43.3748,155.2682 C44.4468,153.4802 45.7418,151.0862 46.2038,150.2252" id="Fill-15" fill="#000"/><path d="M94.1291,156.5582 C91.5261,155.5932 86.9171,154.3042 84.8661,154.3152 C82.8161,154.3252 80.9591,153.9662 80.2891,153.6152 C79.6201,153.2632 77.6361,152.4042 77.6361,152.4042 C77.6361,152.4042 80.6241,156.3112 84.8371,156.9242 C87.6081,157.3282 93.9601,159.5282 96.3351,160.3072 C96.7751,158.7942 97.5251,157.3312 97.5251,157.3312 C97.5251,157.3312 97.9111,157.2952 98.5071,157.1942 C98.4611,157.2022 96.6971,157.5102 94.1291,156.5582" id="Fill-17" fill="#000"/><path d="M99.4607,41.2828 C98.1507,41.1218 96.8017,41.0458 95.4767,41.0508 C94.1567,41.0748 92.8097,41.1578 91.6147,41.5478 C91.0457,41.7348 90.4687,42.0578 89.9487,42.4178 C89.4287,42.7718 88.9877,43.2228 88.5857,43.7208 C87.7847,44.7248 87.1607,45.9108 86.5907,47.1158 C85.4507,49.5348 84.5317,52.0848 83.6217,54.6258 C82.7217,57.1768 81.8547,59.7408 81.1217,62.3258 C79.6657,67.5158 78.6987,72.8428 77.8697,78.1858 L76.6867,86.2268 C76.2767,88.9108 75.8937,91.6008 75.2017,94.2758 C75.0487,94.9428 74.7937,95.6148 74.5617,96.2658 C74.3027,96.8988 74.0377,97.5278 73.7627,98.1508 C73.2147,99.3988 72.6467,100.6338 72.0627,101.8598 C70.8927,104.3118 69.6867,106.7438 68.4747,109.1728 C67.2557,111.5958 66.0147,114.0098 64.7577,116.4128 C63.5227,118.8288 62.1507,121.1878 61.0827,123.6158 C58.9157,128.5158 57.7487,133.7918 56.5087,139.0718 C56.1957,140.3928 55.8717,141.7198 55.4917,143.0418 C55.3117,143.7038 55.0917,144.3618 54.8777,145.0218 C54.6377,145.7028 54.3377,146.3728 53.9547,147.0058 C53.2017,148.2728 52.0627,149.3858 50.6757,150.0138 C49.2767,150.6428 47.8097,150.8708 46.2377,150.6538 L46.3167,150.6648 C42.8547,150.3768 39.4567,149.4238 36.3377,147.9168 C33.2317,146.4248 30.2747,144.4008 28.3507,141.4978 L28.5157,141.3298 C31.4057,143.1568 34.0117,145.1188 36.9947,146.5498 C39.9587,147.9708 43.1737,148.8618 46.4437,149.1258 L46.4457,149.1258 L46.5227,149.1368 C47.6337,149.2878 48.9587,149.1088 50.0197,148.6028 C51.1037,148.0958 52.0137,147.2618 52.6537,146.2088 C52.9787,145.6858 53.2427,145.1158 53.4597,144.5218 C53.6707,143.8938 53.8867,143.2688 54.0697,142.6258 C54.4527,141.3468 54.7867,140.0438 55.1127,138.7318 C56.4027,133.4898 57.6577,128.1228 59.9437,123.1088 C61.0917,120.5878 62.4837,118.2698 63.7437,115.8758 C65.0277,113.4918 66.2957,111.0988 67.5417,108.6958 C68.7907,106.2958 70.0027,103.8748 71.1587,101.4308 C71.7397,100.2118 72.3047,98.9838 72.8467,97.7498 C73.1197,97.1338 73.3797,96.5128 73.6347,95.8908 C73.8547,95.2678 74.0857,94.6708 74.2367,94.0148 C74.9037,91.4398 75.2907,88.7528 75.6967,86.0808 L76.8807,78.0338 C77.7137,72.6708 78.6857,67.3078 80.1587,62.0548 C80.9037,59.4268 81.7747,56.8518 82.6797,54.2938 C83.5957,51.7338 84.5157,49.1748 85.6867,46.6878 C86.2757,45.4488 86.9177,44.2138 87.8077,43.0938 C88.2537,42.5398 88.7717,42.0118 89.3727,41.5998 C89.9667,41.1918 90.5817,40.8418 91.2977,40.5988 C92.6897,40.1498 94.0867,40.0808 95.4677,40.0505689 C96.8527,40.0458 98.2137,40.1218 99.5947,40.2918 L99.4607,41.2828 Z" id="Fill-19" fill="#000"/><path d="M23.4914,147.0367 C23.8244,148.3027 24.7244,149.2317 25.5864,150.1187 C26.4864,150.9837 27.4664,151.7757 28.5494,152.4237 C30.6744,153.7537 33.0834,154.7477 35.4874,155.6117 C36.6974,156.0287 37.9344,156.3727 39.1664,156.6337 C39.7804,156.7557 40.4094,156.8477 40.9814,156.8537 C41.2414,156.8717 41.5894,156.7967 41.5434,156.7877 C41.5304,156.7737 41.7854,156.4677 41.9274,156.2237 C42.5954,155.1827 43.1874,154.0207 43.8304,152.9147 L44.7864,151.2357 C45.1054,150.6747 45.3494,150.0767 46.2764,149.8397 L46.4844,149.9507 C46.8024,150.8557 46.4294,151.3947 46.1264,151.9697 C45.8224,152.5437 45.5224,153.1207 45.1984,153.6847 C44.5594,154.8257 43.8804,155.9227 43.1054,157.0317 C43.0114,157.1687 42.9024,157.3107 42.7854,157.4537 C42.7314,157.5217 42.6744,157.5947 42.5804,157.6837 C42.4794,157.7737 42.4554,157.8367 42.2574,157.9547 C41.6324,158.2507 41.2994,158.1517 40.9214,158.1497 C40.1994,158.0887 39.5534,157.9277 38.9064,157.7657 C37.6174,157.4357 36.3814,157.0007 35.1534,156.5517 C33.9214,156.1107 32.7144,155.6127 31.5134,155.1007 C30.3184,154.5937 29.1154,154.0027 27.9964,153.2887 C26.8934,152.5527 25.8384,151.7117 24.9734,150.6827 C24.5474,150.1637 24.1654,149.6037 23.8774,148.9927 C23.6004,148.3857 23.3994,147.6957 23.4914,147.0367" id="Fill-21" fill="#000"/><path d="M44.6111,50.2496 L46.1871,73.9146 L46.9151,85.7676 L46.9801,87.2646 L46.9981,88.0246 C46.9781,88.3066 46.9951,88.5966 46.9301,88.8876 C46.6551,90.0676 46.1391,90.9176 45.6671,91.8216 C44.6951,93.5866 43.6331,95.2446 42.6231,96.9266 C41.6271,98.6126 40.6451,100.2966 39.7701,102.0256 C38.8821,103.7646 38.1701,105.5126 37.5041,107.3826 C36.1431,111.0756 34.8581,114.8166 33.3871,118.5186 C32.6281,120.3616 31.8601,122.2076 30.7981,123.9766 C30.5391,124.4196 30.2361,124.8526 29.8881,125.2716 C29.5191,125.7126 29.1601,126.0346 28.7951,126.3776 C28.0701,127.0626 27.3151,127.6976 26.7571,128.4016 C26.1861,129.0966 25.8701,129.9296 25.7011,130.8536 C25.5331,131.7786 25.4641,132.7466 25.5121,133.6906 C25.6251,135.5976 26.1331,137.4726 26.7521,139.3306 L26.5461,139.4476 C25.3531,137.7956 24.7691,135.7876 24.5861,133.7546 C24.4971,132.7276 24.5301,131.7076 24.6771,130.6826 C24.8181,129.6616 25.1801,128.5736 25.8421,127.7096 C27.1461,125.9886 28.8191,124.9556 29.6201,123.2846 C30.5371,121.6276 31.2341,119.7836 31.9091,117.9496 C33.2631,114.2686 34.4421,110.4956 35.7701,106.7566 C37.0431,102.9656 38.9041,99.2976 41.0391,95.9536 C42.0871,94.2606 43.2061,92.6216 44.2621,90.9926 C44.7641,90.1876 45.2881,89.3206 45.5171,88.5846 C45.5781,88.3986 45.5731,88.1856 45.6071,87.9776 L45.6421,87.2556 L45.6831,85.7886 C45.7261,81.8516 45.6291,77.8956 45.4981,73.9466 C45.2421,66.0476 44.9681,58.1456 44.6111,50.2496" id="Fill-23" fill="#000"/><path d="M71.7678,192.6422 C68.8838,191.1462 67.6518,189.9092 67.1448,189.0192 C66.5708,191.1692 63.3048,193.1052 63.4458,194.5882 C63.6008,196.2132 66.8518,199.0782 69.7928,201.0902 C72.7348,203.1032 79.9328,205.2702 81.2678,204.1862 C82.4128,203.2572 82.7228,199.2062 84.4068,198.6562 C84.4028,198.6552 84.4008,198.6542 84.3968,198.6532 C82.8058,198.2312 77.8278,195.7842 71.7678,192.6422" id="Fill-25" fill="#CDCDCD"/><g id="Group-29" transform="translate(67.000000, 168.184000)" fill="#474747"><path d="M26.7981,38.5041 C31.1061,40.5861 34.6241,42.0941 37.9271,43.0271 C41.2301,43.9611 42.5221,44.0321 47.1891,43.6731 C50.2781,43.4361 52.8571,42.8221 54.2521,42.4331 C54.6831,41.9171 54.9031,41.4581 54.8861,41.1111 C54.8081,39.5631 54.2671,36.3121 52.4861,34.4541 C50.7061,32.5971 48.4621,30.3521 46.5261,29.3461 C44.5911,28.3391 44.1271,26.5211 39.7231,21.8331 C35.3191,17.1451 31.2781,12.3081 31.2781,12.3081 C31.2781,12.3081 33.0651,4.3671 32.7601,3.5731 C32.4561,2.7791 29.7901,0.6941 26.0391,0.5961 C22.2871,0.4961 16.9851,0.3981 15.2981,1.4891 C13.6101,2.5811 14.5041,10.7201 14.5041,10.7201 C14.3091,12.6591 9.6651,11.4811 9.6651,11.4811 C9.6651,11.4811 8.7821,6.2691 8.5671,4.8731 C8.3511,3.4791 9.3971,1.5181 9.3971,1.5181 C8.8811,1.3231 6.6631,1.0161 5.8121,1.8671 C4.9601,2.7191 5.8121,7.3631 5.7351,8.0601 C5.6571,8.7561 4.1861,10.2271 2.8701,11.9301 C1.5541,13.6331 0.2381,20.2121 0.2381,20.2121 C0.2381,20.4221 0.1991,20.6291 0.1451,20.8351 C0.6521,21.7251 1.8831,22.9621 4.7681,24.4581 C10.8271,27.6001 15.8061,30.0471 17.3971,30.4691 C17.4011,30.4701 17.4031,30.4711 17.4061,30.4721 C17.6861,30.3801 17.9991,30.3741 18.3641,30.5071 C19.1611,30.7951 19.5951,31.5681 19.8121,32.5461 C20.7291,33.7291 23.3541,36.8391 26.7981,38.5041" id="Fill-27"/></g><path d="M75.5666,173.0572 C75.3506,171.6622 76.3976,169.7022 76.3976,169.7022 C75.8806,169.5072 73.6636,169.2002 72.8116,170.0512 C73.2256,173.8792 76.6646,179.6642 76.6646,179.6642 C76.6646,179.6642 75.7816,174.4532 75.5666,173.0572" id="Fill-30" fill="#000"/><path d="M114.1892,211.857 C109.5222,212.216 108.2302,212.145 104.9272,211.211 C101.6242,210.278 98.1062,208.77 93.7982,206.688 C90.3542,205.023 87.7292,201.913 86.8122,200.73 C87.2952,202.902 86.7022,206.085 86.6082,207.206 C86.4712,208.831 88.0602,210.224 92.4722,213.01 C96.8842,215.797 108.8822,216.184 108.8822,216.184 C115.6092,214.922 119.7612,212.406 121.2522,210.617 C119.8572,211.006 117.2782,211.62 114.1892,211.857" id="Fill-32" fill="#CDCDCD"/><g id="Group-36" transform="translate(108.000000, 205.184000)" fill="#CDCDCD"><path d="M8.1833,1.5334 C6.8603,2.6364 5.2613,5.9994 4.2143,7.7084 C3.1663,9.4174 0.8823,11.0004 0.8823,11.0004 C9.5513,9.3744 13.9633,5.6594 13.8863,4.1114 C13.8383,3.1544 13.6103,1.5474 13.0243,0.0194 C10.7833,0.0424 9.3613,0.5524 8.1833,1.5334" id="Fill-34"/></g><path d="M121.0251,205.2037 C119.5931,205.4607 118.2051,205.8147 117.1271,206.5997 C116.5741,207.0047 116.1491,207.4257 115.7691,208.0097 C115.3781,208.5677 115.0071,209.1687 114.6581,209.7837 C113.9161,211.0037 113.2821,212.2597 112.3711,213.4877 C111.3971,214.6727 110.1881,215.5317 108.8821,216.1837 C109.8931,215.1437 110.8931,214.0997 111.6201,212.9567 C112.2781,211.7727 112.9091,210.4347 113.6421,209.1857 C114.0231,208.5627 114.4111,207.9377 114.8771,207.3417 C115.3311,206.7507 115.9631,206.1627 116.6431,205.8197 C118.0261,205.0577 119.6011,204.9747 121.0251,205.2037" id="Fill-37" fill="#000"/><path d="M83.3669,179.734 C83.9079,178.895 84.9939,178.46 86.0309,178.478 C86.5579,178.464 87.0709,178.569 87.5799,178.688 C88.0799,178.829 88.5639,179.012 89.0399,179.219 L89.0469,179.222 L89.1829,179.291 L89.2729,179.456 C90.3899,181.503 91.6129,183.51 92.8459,185.49 C94.1019,187.437 95.4109,189.433 97.0029,190.977 C97.3859,191.307 97.8829,191.639 98.3769,191.962 L99.8489,192.928 L102.8139,194.827 L105.7969,196.696 C106.8039,197.295 107.7849,197.943 108.8819,198.375 C107.7029,198.18 106.6149,197.655 105.5429,197.165 C104.4649,196.671 103.4369,196.087 102.3989,195.523 C101.3669,194.948 100.3589,194.335 99.3469,193.727 L97.8379,192.803 C97.3369,192.497 96.8389,192.199 96.3119,191.778 C95.3549,190.955 94.6049,190.02 93.8779,189.067 C93.1529,188.115 92.4899,187.13 91.8369,186.137 C90.5329,184.153 89.3689,182.098 88.2329,180.013 L88.4589,180.246 L88.4529,180.243 C88.0739,179.977 87.6829,179.729 87.2719,179.518 C86.8579,179.329 86.4299,179.143 85.9789,179.066 C85.0979,178.874 84.0709,179.028 83.3669,179.734" id="Fill-39" fill="#000"/><path d="M90.4748,186.0601 C90.2158,186.0601 89.9638,185.9261 89.8248,185.6861 C89.6178,185.3281 89.7388,184.8701 90.0968,184.6621 C90.3398,184.5201 95.1428,180.9221 101.1878,183.0791 C101.5788,183.2171 101.8478,183.6001 102.0628,184.2261 C102.1968,184.6181 102.0508,184.9351 101.6598,184.7921 C96.2818,182.8771 90.9028,185.9271 90.8498,185.9581 C90.7318,186.0271 90.6018,186.0601 90.4748,186.0601" id="Fill-41" fill="#000"/><path d="M94.1296,190.358 C93.8856,190.358 93.6456,190.239 93.5016,190.019 C93.2746,189.672 93.3716,189.208 93.7176,188.981 C93.9006,188.861 97.9766,186.036 103.1156,185.696 C103.5266,185.677 103.6546,185.913 103.8206,186.363 C103.9646,186.751 104.3776,187.088 103.9646,187.116 C99.2146,187.43 94.5816,190.208 94.5406,190.235 C94.4136,190.318 94.2706,190.358 94.1296,190.358" id="Fill-43" fill="#000"/><path d="M99.1775,194.3648 C99.0865,194.3648 98.9935,194.3478 98.9035,194.3128 C98.5175,194.1608 98.3285,193.7258 98.4795,193.3408 C98.5545,193.1508 99.6045,188.8418 105.8235,188.5618 C106.2395,188.5088 106.3915,188.7708 106.5815,189.1388 C106.8275,189.6178 107.0725,189.9098 106.6585,189.9278 C101.4005,190.1648 99.8905,193.8518 99.8755,193.8888 C99.7595,194.1848 99.4765,194.3648 99.1775,194.3648" id="Fill-45" fill="#000"/><path d="M107.8303,191.5435 C107.7723,191.4875 104.1953,188.9045 96.6733,191.4435 C96.2803,191.5745 95.8553,191.3655 95.7223,190.9735 C95.5903,190.5805 95.8013,190.1545 96.1933,190.0225 C104.7133,187.1495 108.2973,190.6405 108.4453,190.7905 C108.7363,191.0855 108.7343,191.5605 108.4393,191.8515 C108.2933,191.9955 107.9763,191.6895 107.8303,191.5435" id="Fill-47" fill="#000"/><path d="M67.1448,189.0191 C68.1668,190.2061 69.5348,190.9131 70.8728,191.6261 C72.2298,192.2911 73.6588,192.9571 75.0328,193.6591 C77.7958,195.0711 80.4918,196.5751 83.1598,198.2101 C81.6298,197.8421 80.1648,197.2811 78.7278,196.6801 C77.2888,196.0811 75.8878,195.4051 74.4978,194.7081 C73.1178,193.9791 71.7508,193.2901 70.4108,192.4181 C69.1208,191.5431 67.7688,190.5021 67.1448,189.0191" id="Fill-49" fill="#000"/><path d="M86.8122,200.7291 C88.4482,202.4421 90.2332,203.9831 92.1752,205.2171 C93.1532,205.8271 94.1762,206.2931 95.2702,206.7741 C96.3412,207.2601 97.4092,207.7501 98.4882,208.2081 C100.6342,209.1541 102.8012,210.0301 105.0172,210.7581 C106.1342,211.1141 107.2412,211.4651 108.3812,211.6671 C109.5202,211.8991 110.7002,211.9361 111.8842,212.0111 C110.7122,212.2021 109.5232,212.2841 108.3142,212.2421 C107.1062,212.1711 105.9182,211.9271 104.7662,211.6431 C102.4382,211.0781 100.1982,210.2281 98.0172,209.2901 C96.9322,208.8031 95.8552,208.3051 94.7922,207.7811 C93.7522,207.2561 92.6302,206.7131 91.6622,205.9771 C89.7042,204.5431 88.0912,202.7251 86.8122,200.7291" id="Fill-51" fill="#000"/><path d="M5.7405,173.7515 C5.7405,173.7515 -0.2055,177.8015 0.0055,179.0265 C0.2175,180.2525 1.9075,183.3375 5.6255,186.8025 C9.3445,190.2675 11.6685,191.5345 13.0625,191.3655 C14.4575,191.1965 16.1055,188.7885 18.4715,190.6895 C20.8385,192.5915 19.9925,199.9015 21.0075,202.5225 C21.9325,204.9135 29.1355,209.0685 33.8235,210.9655 C33.8155,210.9625 33.7975,210.9575 33.7975,210.9575 C33.7975,210.9575 40.1755,213.8825 46.2165,213.7305 C52.2585,213.5775 57.9255,208.6305 57.9255,208.6305 L5.7405,173.7515 Z" id="Fill-53" fill="#CDCDCD"/><path d="M16.7956,155.071466 C17.5236,155.0578 19.3806,155.4758 20.0266,157.7788 C20.6736,160.0818 19.9056,163.7588 22.4516,165.0918 C24.9966,166.4248 28.2286,165.5358 29.8036,168.5248 C31.3786,171.5138 28.9326,176.8468 30.2166,180.0388 C31.5006,183.2298 36.2246,191.4878 38.6826,193.5578 C41.1416,195.6298 44.1706,200.9768 43.9536,203.0548 C43.7366,205.1348 45.5226,211.2798 45.5226,211.2798 C45.5226,211.2798 38.9636,209.5908 34.8586,206.2888 C31.7106,203.7578 28.9706,199.9948 26.9086,196.7478 C22.8736,190.3898 18.3356,185.7178 15.2986,183.6208 C12.2616,181.5238 6.1916,178.3998 5.2076,173.6498 C5.2076,173.6498 6.0756,169.3518 8.4616,166.2958 C10.8476,163.2388 15.7636,161.6298 16.2856,159.1058 C16.8076,156.5828 16.1356,155.0848 16.7956,155.071466" id="Fill-55" fill="#474747"/><path d="M24.7751,167.2574 C24.7751,167.2574 24.2801,163.4804 24.7751,162.2214 C25.2701,160.9614 26.1241,160.6924 27.4281,161.0064 C28.7331,161.3214 31.5821,163.6674 34.2181,164.0714 C36.8541,164.4764 37.5131,163.0914 38.4191,164.0714 C39.3251,165.0534 38.2141,173.9854 38.4191,177.4154 C38.4191,177.4154 38.8521,179.7444 40.1091,181.4964 C41.3681,183.2474 44.1121,188.9654 45.1981,191.0234 C46.2851,193.0814 49.8451,197.8574 50.7561,198.8524 C51.9811,200.1914 53.5161,200.7814 55.9031,202.6394 C58.9291,204.9944 57.9251,208.6304 57.9251,208.6304 C57.9251,208.6304 50.6771,212.5604 45.5231,211.2794 C42.9371,210.6374 41.5671,209.6894 41.5671,209.6894 L23.7221,177.7074 L24.7751,167.2574 Z" id="Fill-57" fill="#474747"/><path d="M56.969,205.0767 C55.333,204.8187 55.123,205.6977 51.755,208.3607 C49.636,210.0367 47.099,210.8807 45.51,211.2757 C45.514,211.2777 45.518,211.2787 45.522,211.2797 C50.677,212.5597 57.925,208.6307 57.925,208.6307 C58.203,207.6017 58.605,205.3337 56.969,205.0767" id="Fill-59" fill="#CDCDCD"/><path d="M56.9197,205.3902 C56.3787,205.3972 56.0057,205.4892 55.6387,205.7932 C55.2597,206.0772 54.8687,206.4792 54.4647,206.8502 C53.6527,207.6142 52.8027,208.3362 51.8777,209.0062 C49.9757,210.3462 47.7487,211.0992 45.5097,211.2762 C47.5577,210.3642 49.5167,209.3952 51.1687,208.0652 L53.6937,205.9682 C54.1297,205.6192 54.5537,205.2572 55.1127,204.9482 C55.3927,204.8012 55.7247,204.6662 56.0707,204.6452 C56.4157,204.6192 56.7307,204.6802 57.0187,204.7622 C57.1887,204.8112 57.2867,204.9882 57.2387,205.1582 C57.1987,205.2972 57.0727,205.3882 56.9357,205.3902 L56.9197,205.3902 Z" id="Fill-61" fill="#000"/><path d="M16.7839,154.482753 C18.3189,154.465 19.6989,155.433 20.3329,156.749 C20.9619,158.081 20.9509,159.423 21.0889,160.625 C21.2069,161.826 21.3929,163.016 21.9989,163.778 C22.5529,164.528 23.6969,164.832 24.8579,165.08 C26.0229,165.336 27.3779,165.451 28.6629,166.213 C29.9409,166.973 30.7889,168.361 31.0059,169.762 C31.2279,171.146 31.1029,172.454 30.9679,173.704 C30.8289,174.955 30.6549,176.173 30.6249,177.348 C30.6309,177.925 30.6329,178.508 30.7499,179.028 C30.7819,179.306 30.8889,179.523 30.9629,179.787 C31.0809,180.061 31.1869,180.336 31.3189,180.612 C31.8199,181.716 32.3859,182.813 32.9699,183.897 C34.1499,186.059 35.4069,188.194 36.8029,190.204 C37.4999,191.195 38.2419,192.201 39.0559,192.959 C40.0469,193.825 40.8749,194.852 41.6039,195.897 C42.3259,196.955 42.9909,198.051 43.4749,199.244 C43.7169,199.838 43.9119,200.459 44.0209,201.104 C44.1339,201.737 44.1849,202.436 43.9539,203.055 C43.8149,202.426 43.5369,201.893 43.2669,201.349 C42.9969,200.81 42.6999,200.283 42.4039,199.756 C41.8059,198.708 41.2009,197.655 40.5039,196.669 C39.7979,195.682 39.0389,194.768 38.1449,194.004 C37.1259,193.073 36.3839,192.057 35.6349,191.029 C34.1669,188.965 32.8699,186.819 31.6389,184.628 C31.0309,183.527 30.4409,182.418 29.8989,181.262 C29.7609,180.977 29.6369,180.672 29.5069,180.378 C29.3999,180.047 29.2469,179.688 29.1999,179.346 C29.0369,178.649 29.0419,177.976 29.0389,177.312 C29.0799,175.997 29.2699,174.749 29.4089,173.528 C29.5529,172.311 29.6499,171.109 29.4779,170.028 C29.3169,168.975 28.7309,168.054 27.8689,167.525 C26.9979,166.981 25.7999,166.827 24.5489,166.563 C23.9209,166.432 23.2669,166.267 22.6259,165.995 C22.0059,165.748 21.2889,165.278 20.8459,164.666 C19.9299,163.407 19.8309,161.987 19.7149,160.746 C19.6129,159.489 19.5989,158.262 19.1589,157.315 C18.9359,156.844 18.6219,156.43 18.2029,156.146 C17.8009,155.856 17.2639,155.673 16.8059,155.663 L16.7769,155.662 C16.4509,155.653 16.1939,155.383 16.2017182,155.058 C16.2099,154.74 16.4689,154.487 16.7839,154.482753" id="Fill-63" fill="#000"/><path d="M45.5222,211.2799 C43.1372,211.0539 40.8222,210.3869 38.5932,209.4679 C36.3772,208.5599 34.2322,207.1499 32.5372,205.4109 C30.8302,203.6749 29.4732,201.6759 28.2112,199.6629 C26.9652,197.6239 25.8912,195.5359 24.5082,193.6389 C23.1312,191.7439 21.6412,189.9229 19.9772,188.2769 C18.3162,186.6359 16.5632,185.0709 14.6162,183.8699 C12.6282,182.6719 10.5602,181.4459 8.7092,179.8759 C7.7922,179.0849 6.9322,178.1889 6.2792,177.1339 C5.6232,176.0929 5.1722,174.8689 5.2082,173.6499 C6.2302,175.8329 7.8512,177.3499 9.5952,178.8249 C11.3432,180.3009 13.3332,181.5029 15.2702,182.8949 C17.2442,184.3109 18.9112,186.0329 20.4752,187.8109 C22.0282,189.6029 23.5022,191.4509 24.8962,193.3589 C26.3142,195.2509 27.6122,197.2419 29.0872,199.0449 C30.5442,200.8699 32.1322,202.5709 33.7842,204.1359 C34.6022,204.9309 35.4712,205.6489 36.3652,206.3099 C37.2782,206.9609 38.2472,207.5669 39.2532,208.1239 C41.2582,209.2589 43.3712,210.2509 45.5222,211.2799" id="Fill-65" fill="#000"/><path d="M29.6921,183.1422 C29.3681,183.1422 29.0701,182.9312 28.9731,182.6062 C28.8551,182.2082 29.0811,181.7912 29.4781,181.6732 C29.7321,181.5982 34.7841,179.7032 40.1411,181.2002 C40.5401,181.3112 41.0271,181.6282 41.1951,182.0992 C41.3351,182.4902 41.0981,182.8932 40.7011,182.7832 C35.7691,181.4072 29.9631,183.0942 29.9051,183.1112 C29.8351,183.1322 29.7621,183.1422 29.6921,183.1422" id="Fill-67" fill="#000"/><path d="M33.031,188.7769 C32.829,188.7769 32.627,188.6959 32.479,188.5359 C32.198,188.2309 32.218,187.7559 32.523,187.4749 C32.701,187.3109 36.685,183.4099 41.927,184.1779 C42.337,184.2389 42.331,184.5499 42.577,185.0889 C42.748,185.4659 42.398,185.7549 41.992,185.6999 C37.45,185.0199 33.578,188.5429 33.539,188.5789 C33.395,188.7119 33.213,188.7769 33.031,188.7769" id="Fill-69" fill="#000"/><path d="M35.9499,192.3814 C35.7399,192.3814 35.5299,192.2924 35.3819,192.1204 C35.1119,191.8074 35.1459,191.3344 35.4589,191.0644 C35.6269,190.9184 39.1319,187.5474 43.4329,187.3184 C43.8509,187.3004 43.9649,187.5554 44.1239,188.0244 C44.2569,188.4164 44.4179,188.7534 44.0049,188.7764 C40.2209,188.9784 36.4769,192.1674 36.4389,192.1994 C36.2979,192.3214 36.1229,192.3814 35.9499,192.3814" id="Fill-71" fill="#000"/><path d="M38.491,194.8883 C38.345,194.8883 38.197,194.8453 38.067,194.7563 C37.726,194.5223 37.639,194.0553 37.873,193.7143 C37.994,193.5373 40.221,189.6783 43.816,188.1613 C44.199,187.9993 44.21,188.5433 44.371,188.9263 C44.532,189.3073 44.774,189.3913 44.392,189.5523 C41.205,190.8963 39.137,194.5233 39.11,194.5633 C38.965,194.7743 38.73,194.8883 38.491,194.8883" id="Fill-73" fill="#000"/></g></g></g><g id="Body" transform="translate(74.000000, 0.000000) scale(1 1)"><g id="Body/Coffee" stroke="none" stroke-width="1" fill="none" fill-rule="evenodd"><g id="Group-92" transform="translate(36.000000, 52.000000)"><g id="Group-3" transform="translate(145.000000, 75.305000)" fill="#000"><path d="M1.3916,0.2904 C1.3916,0.2904 3.0856,2.1334 4.5186,2.8504 C5.9536,3.5664 6.2276,4.6424 5.9746,5.2744 C5.7216,5.9074 2.5876,5.9494 0.9916,5.5074 L1.3916,0.2904 Z" id="Fill-1"/></g><path d="M146.082,81.3396 C146.082,81.3396 148.528,81.9726 148.633,84.5666 C148.739,87.1596 145.639,87.3076 145.639,87.3076 L146.082,81.3396 Z" id="Fill-4" fill="#000"/><path d="M126.6333,65.4411 L127.7143,58.5571 C133.8993,55.7331 143.0033,56.4001 148.6363,59.7231 L149.3403,68.9131 L126.6333,65.4411 Z" id="Fill-6" fill="#474747"/><path d="M109.3047,94.2468 C109.3047,94.2468 113.2217,93.6928 116.1087,93.8508 C118.9947,94.0098 119.5877,94.3258 123.1457,93.6538 C126.7037,92.9808 130.4197,89.6208 131.9617,88.9098 L131.9617,77.6818 L109.3047,85.7468 L109.3047,94.2468 Z" id="Fill-8" fill="#e7915c"/><path d="M127.0171,64.487 L127.0171,95.858 C131.2171,98.809 139.8741,99.972 145.2741,97.659 L148.5241,66.202 L127.0171,64.487 Z" id="Fill-10" fill="#CDCDCD"/><path d="M127.0171,95.8581 C128.3561,96.7051 129.8431,97.2651 131.3551,97.6701 C132.8711,98.0711 134.4251,98.3091 135.9811,98.4101 C139.0761,98.5971 142.2751,98.2771 144.9961,97.0231 L145.0011,97.0221 L144.5851,97.5871 L147.8351,66.1301 L149.2131,66.2731 L145.9621,97.7301 L145.9191,98.1541 L145.5461,98.2951 L145.5421,98.2961 C143.9751,98.8951 142.3471,99.1791 140.7311,99.2891 C139.1131,99.3981 137.4991,99.3141 135.9121,99.0981 C134.3251,98.8791 132.7611,98.5201 131.2531,98.0011 C129.7511,97.4791 128.2901,96.8001 127.0171,95.8581" id="Fill-12" fill="#000"/><path d="M109.3047,80.823 C109.3047,80.823 112.4237,81.258 114.1887,80.636 C115.9537,80.013 122.3147,74.347 123.8177,73.827 C125.3207,73.306 129.7547,72.961 130.9047,73.038 C132.0537,73.114 133.8167,73.689 136.6907,73.574 C139.5647,73.459 140.7147,72.961 141.0597,73.229 C141.4047,73.497 141.7107,76.717 139.0287,77.675 C136.3457,78.633 132.0157,78.211 131.4407,78.402 C131.4407,78.402 131.2487,79.169 130.2527,80.511 C129.2567,81.851 125.8457,85.914 123.9677,86.22 C122.0907,86.527 120.2127,86.488 120.2127,86.488 L109.3047,86.488 L109.3047,80.823 Z" id="Fill-14" fill="#e7915c"/><path d="M141.0595,73.2292 C141.4615,73.6602 141.4925,74.2912 141.5065,74.8582 C141.4975,75.4412 141.3425,76.0352 141.0405,76.5692 C140.7345,77.0992 140.2795,77.5602 139.7395,77.8752 C139.1835,78.1812 138.6385,78.3492 138.0815,78.5042 C136.9705,78.7912 135.8455,78.8982 134.7355,78.9682 C134.1805,79.0062 133.6255,79.0192 133.0785,79.0242 L132.2675,79.0372 L131.8805,79.0472 C131.7665,79.0502 131.6355,79.0722 131.6595,79.0602 L131.6595,79.0592 L132.1125,78.5712 C131.8845,79.3762 131.5585,79.8752 131.2015,80.4522 C130.8445,81.0072 130.4425,81.5012 130.0395,81.9832 C129.2305,82.9482 128.3785,83.8752 127.4315,84.7262 C126.9595,85.1542 126.4535,85.5522 125.9135,85.9252 C125.3715,86.2842 124.7705,86.6632 123.9835,86.7502 C122.7125,86.8572 121.4465,86.7832 120.2125,86.4882 L123.8175,85.7102 C124.7195,85.4492 125.6575,84.5432 126.4815,83.7282 C127.3155,82.8722 128.1215,81.9652 128.8895,81.0332 C129.2695,80.5622 129.6385,80.0892 129.9745,79.6252 C130.2945,79.1742 130.6185,78.6052 130.7685,78.2342 L130.9375,77.8192 L131.2225,77.7462 L131.2265,77.7442 C131.5165,77.6682 131.6585,77.6752 131.8165,77.6622 L132.2495,77.6532 L133.0755,77.6582 L134.6915,77.6652 C135.7635,77.6662 136.8225,77.5892 137.8515,77.4362 C138.3575,77.3452 138.8725,77.2242 139.2935,77.0402 C139.7195,76.8392 140.0865,76.5322 140.3635,76.1402 C140.8915,75.3632 141.2635,74.2812 141.0595,73.2292" id="Fill-16" fill="#000"/><path d="M62.5893,25.281 C62.5893,25.281 67.5133,30.523 70.9793,33.061 C74.4443,35.6 77.6013,37.602 78.9873,41.607 C80.3743,45.611 81.0673,53.312 81.5283,57.548 C81.9913,61.783 81.0143,67.219 81.9483,69.676 C82.8823,72.134 83.3733,73.756 82.7833,74.885 C82.1943,76.016 81.1623,76.802 81.1623,76.802 L82.8333,78.621 C82.8333,78.621 82.4403,77.146 85.7333,77.589 C89.0253,78.031 91.8273,80.39 96.8893,79.898 C101.9513,79.407 104.6053,77.146 106.6693,76.95 C108.7333,76.753 114.1893,80.635 114.1893,80.635 C114.1893,80.635 112.4043,81.69 112.3603,87.031 C112.3173,92.371 113.0173,94.647 113.0173,94.647 C113.0173,94.647 112.4483,96.093 108.2023,97.844 C103.9563,99.594 103.1243,101.17 101.3733,103.578 C99.6223,105.985 99.0973,108.524 95.1573,110.582 C91.2173,112.638 80.7123,111.633 80.7123,111.633 L62.8133,112.544 L62.5893,25.281 Z" id="Fill-18" fill="#ff7475"/><path d="M80.7192,111.5525 C82.3562,111.4865 83.9802,111.4475 85.5972,111.4025 C87.2142,111.3625 88.8282,111.3165 90.4172,111.1345 C91.9912,110.9505 93.6042,110.6675 94.9032,110.0015 C96.2792,109.2645 97.4832,108.3015 98.3772,107.0535 C99.2872,105.8335 99.9792,104.2995 100.9992,102.9435 C101.9172,101.6485 102.9262,100.1725 104.3602,99.1475 C105.7362,98.1035 107.3762,97.4465 108.8062,96.8225 C109.5252,96.4945 110.2222,96.1295 110.8652,95.7115 C111.1842,95.5015 111.4902,95.2795 111.7662,95.0405 C111.9012,94.9215 112.0312,94.7985 112.1422,94.6745 C112.2442,94.5755 112.3762,94.3665 112.3652,94.3905 L112.3482,94.8535 C112.0082,93.5455 111.8932,92.3655 111.7842,91.1225 C111.6902,89.8955 111.6522,88.6695 111.6522,87.4475 C111.6502,86.2185 111.7132,84.9565 111.9622,83.7045 C112.0952,83.0775 112.2622,82.4505 112.5252,81.8355 C112.6582,81.5275 112.8082,81.2225 113.0052,80.9265 C113.1032,80.7785 113.2072,80.6315 113.3342,80.4895 C113.4742,80.3365 111.0112,79.3695 109.5612,78.6245 C108.8392,78.2585 108.0872,77.9155 107.3802,77.7395 C107.2082,77.7015 107.0342,77.6675 106.8942,77.6655 C106.7762,77.6545 106.6142,77.6875 106.4392,77.7135 C106.0932,77.7905 105.7312,77.9085 105.3572,78.0555 C103.8612,78.6545 102.2652,79.4225 100.5872,79.8855 C98.9032,80.3585 97.1812,80.6455 95.4032,80.6235 C93.6282,80.6205 91.8792,80.1755 90.2712,79.5915 C88.6612,79.0175 87.1322,78.3065 85.5912,78.1275 C84.1842,77.9485 82.9392,79.2145 82.0362,80.5245 C81.5672,81.1925 81.1482,81.9095 80.7182,82.6375 C80.4952,82.9965 80.3032,83.3805 80.0072,83.7145 C79.8662,83.8845 79.6942,84.0445 79.4972,84.1795 C79.3072,84.3065 79.0322,84.4375 78.7842,84.3565 L78.7822,84.3355 C79.5252,82.9485 80.3042,81.4455 81.2402,79.9825 C81.7202,79.2605 82.2652,78.5505 82.9852,77.9615 C83.6842,77.3725 84.6772,76.9405 85.6842,77.0375 C87.5162,77.2095 89.1012,77.9275 90.6702,78.4315 C92.2372,78.9525 93.8142,79.2935 95.4172,79.2895 C97.0112,79.2945 98.6452,79.0085 100.1952,78.5515 C101.7672,78.0985 103.2122,77.3795 104.8322,76.7065 C105.2402,76.5425 105.6832,76.4015 106.1592,76.2985 C106.4002,76.2615 106.6542,76.2105 106.9582,76.2285 C107.2402,76.2395 107.4812,76.2925 107.7192,76.3475 C108.6472,76.5875 109.4322,76.9675 110.2092,77.3635 C111.7492,78.1695 113.1772,79.0825 114.5902,80.0715 L114.5412,81.2325 C114.5682,81.2155 114.4372,81.3235 114.3812,81.4005 C114.3082,81.4835 114.2372,81.5845 114.1692,81.6875 C114.0322,81.8965 113.9162,82.1355 113.8112,82.3825 C113.6032,82.8795 113.4592,83.4255 113.3452,83.9805 C113.1352,85.1025 113.0732,86.2635 113.0702,87.4485 C113.0672,88.6415 113.1012,89.8315 113.1892,91.0135 C113.2822,92.1755 113.4202,93.4085 113.6862,94.4415 L113.7582,94.7195 L113.6682,94.9045 C113.4802,95.2945 113.3522,95.4075 113.1822,95.6095 C113.0212,95.7885 112.8542,95.9455 112.6842,96.0955 C112.3422,96.3885 111.9872,96.6435 111.6252,96.8805 C110.9002,97.3495 110.1482,97.7385 109.3852,98.0835 C108.6082,98.4385 107.8672,98.7175 107.1672,99.0655 C106.4632,99.4095 105.7892,99.7955 105.1772,100.2465 C103.9332,101.1265 103.0552,102.3885 102.0932,103.7335 C101.1382,104.9775 100.4812,106.4485 99.4412,107.8455 C98.4152,109.2415 96.9942,110.3425 95.4902,111.1165 C93.8612,111.9195 92.1762,112.0995 90.5282,112.2615 C87.2232,112.5245 83.9262,112.3955 80.7042,111.7115 L80.7192,111.5525 Z" id="Fill-20" fill="#000"/><path d="M71.0258,32.9968 C73.0918,33.8788 74.8878,35.1828 76.5648,36.7348 C78.2458,38.2708 79.4778,40.4378 80.0098,42.6398 C81.1418,47.0008 81.5568,51.3968 82.0538,55.7718 L82.2318,57.4098 C82.2908,57.9728 82.3338,58.5428 82.3558,59.1048 C82.3978,60.2308 82.3828,61.3468 82.3398,62.4508 C82.2818,64.6388 82.0708,66.8868 82.4118,68.8628 C82.4568,69.1188 82.5228,69.3008 82.6068,69.5658 L82.8848,70.3528 C83.0658,70.8828 83.2408,71.4188 83.3828,71.9798 C83.5198,72.5428 83.6428,73.1268 83.6288,73.7708 C83.6488,74.3968 83.3688,75.1658 82.9668,75.6198 C82.2378,76.5388 81.4488,77.2738 80.6798,78.0598 C79.9308,78.8508 79.0988,79.5698 78.5808,80.5478 C78.7808,79.4278 79.4748,78.4708 80.0998,77.5688 C80.7408,76.6668 81.4748,75.8098 82.0688,74.9708 C82.3538,74.5618 82.4468,74.2358 82.4458,73.7578 C82.4438,73.3008 82.3308,72.7988 82.1918,72.3008 C82.0478,71.7998 81.8668,71.2948 81.6758,70.7888 L81.3808,70.0288 C81.2898,69.7758 81.1638,69.4378 81.1078,69.1538 C80.8378,67.9698 80.8278,66.8358 80.8298,65.7188 C80.8368,64.6008 80.8798,63.5008 80.9068,62.4068 C80.9298,61.3138 80.9588,60.2288 80.9218,59.1578 C80.9018,58.6208 80.8648,58.0958 80.8128,57.5638 L80.6408,55.9218 C80.1698,51.5658 79.7608,47.1658 78.6968,42.9988 C78.1788,40.9268 77.2028,39.1098 75.7148,37.5778 C74.2768,36.0128 72.4008,34.8478 70.9308,33.1268 L71.0258,32.9968 Z" id="Fill-22" fill="#000"/><path d="M148.5009,66.4294 C148.1139,66.3194 147.7279,66.2084 147.3379,66.1074 L132.8969,64.9554 C130.8949,65.2064 128.9249,65.6474 127.0169,66.2564 L127.0169,67.8374 C130.5099,66.9734 134.1179,66.7314 137.6539,67.0994 C141.2599,67.4644 144.7779,68.4314 148.1569,69.7544 L148.5009,66.4294 Z" id="Fill-24" fill="#000"/><path d="M148.7856,61.6745 C140.6866,60.0245 133.4096,60.5145 126.9736,63.2735 L126.6326,65.4415 L129.8576,65.9345 C135.3246,64.1335 141.6146,63.7425 149.0666,65.3425 L148.7856,61.6745 Z" id="Fill-26" fill="#000"/><path d="M125.2934,67.5945 C132.3294,65.1515 140.3584,65.0275 150.0014,68.6645 L150.0014,65.2335 C150.0014,65.0405 149.8774,64.8665 149.6964,64.8025 C141.0024,61.7265 132.9854,61.3685 125.6454,63.8805 C125.4354,63.9515 125.2934,64.1535 125.2934,64.3745 L125.2934,67.5945 Z" id="Fill-28" fill="#474747"/><path d="M105.9311,91.9861 C105.4721,93.8811 104.8641,95.7151 104.1671,97.5131 C103.4611,99.3061 102.6941,101.0751 101.8631,102.8181 C101.0261,104.5591 100.1291,106.2691 99.0531,107.9231 C98.7751,108.3381 98.5031,108.7431 98.1191,109.1591 C97.7381,109.5211 97.3751,109.8471 96.9441,110.1281 C96.1171,110.6791 95.1101,111.1401 94.1011,111.0151 C95.0201,110.6751 95.7081,110.0451 96.3721,109.4211 C96.6931,109.1011 97.0231,108.7571 97.2991,108.4201 C97.5421,108.1071 97.7831,107.6951 98.0041,107.2901 C98.8861,105.6351 99.6741,103.8841 100.5131,102.1701 C102.1931,98.7301 103.8051,95.2521 105.9311,91.9861" id="Fill-30" fill="#000"/><path d="M127.9008,95.3923 C130.4418,94.5973 133.1358,94.3613 135.7998,94.5193 C138.4508,94.7093 141.1528,95.3063 143.4428,96.6913 C140.8668,96.0493 138.3228,95.6813 135.7338,95.5163 C133.1478,95.3323 130.5568,95.3763 127.9008,95.3923" id="Fill-32" fill="#000"/><path d="M73.9897,38.0993 C73.9897,38.0993 76.8517,48.1523 77.2007,59.1823 C77.5507,70.2133 76.5027,80.8253 77.2007,89.6913 C77.8997,98.5573 79.8467,107.1153 80.5107,111.8783 C81.5067,119.0283 85.5247,129.4973 84.9657,131.9923 C84.2077,135.3693 82.7607,136.4273 82.7607,136.4273 C82.7607,136.4273 84.2767,140.1283 82.2277,141.3103 C80.1797,142.4933 77.0277,139.7633 72.1147,138.4143 C67.2027,137.0663 58.7077,136.9123 54.1017,137.3223 C49.4967,137.7313 34.0427,139.7783 29.4377,139.8803 C24.8317,139.9833 19.8207,139.8803 19.8207,139.8803 C19.8207,139.8803 15.9367,78.7423 21.5597,56.3443 C27.1817,33.9473 33.2707,23.0983 33.2707,23.0983 L42.1707,18.5563 L62.5897,25.2813" id="Fill-34" fill="#ff7475"/><path d="M28.7426,137.4773 L33.2456,136.9473 C34.7446,136.7783 36.2456,136.5583 37.7096,136.2793 C39.1826,135.9963 40.6386,135.5643 42.1246,135.2113 C43.6006,134.8493 45.1216,134.4833 46.6556,134.5153 C45.1396,134.7053 43.7226,135.2633 42.2876,135.7513 C40.8586,136.2743 39.4126,136.7683 37.9216,137.1793 C36.4226,137.5983 34.9066,137.8193 33.3906,138.0583 C31.8696,138.2533 30.3526,138.4163 28.8146,138.4753 L28.7426,137.4773 Z" id="Fill-36" fill="#000"/><path d="M80.8383,142.4548 C79.5813,142.4548 78.2043,141.7758 76.6903,141.0288 C75.3173,140.3518 73.7613,139.5848 71.9313,139.0828 C66.9583,137.7178 58.3883,137.6378 54.1633,138.0118 C52.5473,138.1548 49.6093,138.4998 46.2063,138.8968 C40.0843,139.6138 32.4653,140.5058 29.4533,140.5728 C24.8853,140.6758 19.8563,140.5738 19.8063,140.5728 L19.1693,140.5598 L19.1293,139.9248 C19.0903,139.3118 15.3033,78.4208 20.8873,56.1758 C26.4673,33.9458 27.3753,36.0188 22.2313,56.5138 C17.0053,77.3288 20.0833,132.6198 20.4723,139.1988 C21.9673,139.2228 25.8393,139.2688 29.4213,139.1878 C32.3693,139.1228 39.9523,138.2348 46.0453,137.5218 C49.4583,137.1228 52.4053,136.7768 54.0403,136.6328 C58.4933,136.2348 67.1033,136.3198 72.2983,137.7468 C74.2553,138.2838 75.8743,139.0828 77.3033,139.7868 C79.5923,140.9158 80.8313,141.4688 81.8203,140.7508 C83.6093,139.4488 82.4833,136.3908 82.4713,136.3588 L83.7673,135.8708 C83.8303,136.0368 85.2683,139.9548 82.6353,141.8698 C82.0653,142.2858 81.4663,142.4548 80.8383,142.4548" id="Fill-38" fill="#000"/><g id="Group" transform="translate(5.789700, 88.682700)"><path d="M17.508,0.493 C17.508,0.493 18.316,5.371 18.383,10.684 C18.452,15.998 17.49,31.033 17.478,35.826 C17.465,40.619 17.519,44.408 18.383,46.415 C19.248,48.421 24.076,54.981 24.618,55.931 C25.16,56.879 24.55,60.945 24.618,63.046 C24.686,65.146 24.821,65.891 23.534,67.653 C23.534,67.653 23.941,69.889 24.144,74.226 C24.347,78.562 25.092,81.138 23.602,81.409 C22.111,81.68 20.485,75.446 20.485,75.446 C20.485,75.446 16.935,76.123 15.559,75.649 C14.183,75.175 13.438,72.329 11.676,69.415 C9.914,66.501 9.304,66.569 8.695,64.536 C8.085,62.504 8.017,53.694 7.61,48.748 C7.204,43.802 4.779,29.192 4.17,24.855 C3.56,20.518 1.444,13.491 0.969,8.884 C0.495,4.276 -1.77635684e-15,1.42108547e-14 -1.77635684e-15,1.42108547e-14 L17.508,0.493 Z" id="Fill-46" fill="#e7915c"/><path d="M11.635,65.202 C12.236,65.473 12.799,65.721 13.358,65.925 C13.935,66.126 14.436,66.254 15.051,66.317 C15.66,66.412 16.281,66.497 16.904,66.656 C17.506,66.821 18.213,66.99 18.664,67.52 C18.037,67.374 17.431,67.457 16.804,67.431 C16.179,67.431 15.548,67.388 14.911,67.306 C14.607,67.254 14.246,67.195 13.921,67.077 C13.599,66.949 13.287,66.809 13.008,66.62 C12.448,66.251 11.961,65.783 11.635,65.202" id="Fill-100" fill="#000"/><path d="M22.0134,55.6747 C22.0024,56.7367 22.0544,57.8277 22.1764,58.8897 C22.2864,59.9427 22.5654,61.0207 22.7634,62.0947 L24.0184,68.5477 C24.4064,70.7527 24.4804,72.9487 24.5844,75.1457 L24.6814,78.4377 C24.6734,79.0017 24.7464,79.5007 24.6724,80.1137 C24.5794,80.7187 24.1284,81.2247 23.6014,81.4087 C24.0064,81.0247 24.2644,80.5537 24.3064,80.0637 C24.3124,79.5827 24.2614,78.9857 24.2424,78.4537 L24.0494,75.1737 C23.8854,72.9957 23.7424,70.7957 23.3054,68.6887 L21.8624,62.2627 C21.6394,61.1847 21.3594,60.1357 21.2214,59.0067 C21.0814,57.8907 21.0154,56.7877 21.0134,55.6567 L22.0134,55.6747 Z" id="Fill-102" fill="#000"/></g><path d="M76.1333,48.2966 C77.0183,51.9406 77.4573,55.6816 77.6043,59.4336 C77.7323,63.1776 77.7123,66.9236 77.6433,70.6606 C77.5303,78.1336 77.1573,85.6066 78.0993,92.9756 C79.0043,100.3616 80.3063,107.7236 81.7863,115.0256 C82.1663,116.8526 82.5483,118.6616 83.0733,120.4316 L84.7093,125.7756 C84.9793,126.6766 85.2443,127.5856 85.4513,128.5336 C85.6693,129.4806 85.7803,130.5066 85.7253,131.5036 C85.6173,133.5136 84.9363,135.5756 83.1803,137.0206 L83.1773,137.0226 L83.0233,137.1336 L82.8163,137.1506 C81.1023,137.2946 79.5183,137.1066 77.9113,136.8276 C76.3203,136.5466 74.7483,136.0876 73.2563,135.5516 C71.7933,135.0166 70.2923,134.5886 68.7773,134.1856 C67.2603,133.7906 65.7233,133.4476 64.1573,133.1836 C65.7473,133.0756 67.3463,133.1776 68.9323,133.3626 C70.5233,133.5366 72.0903,133.8786 73.6503,134.2586 C75.1713,134.6676 76.6613,135.0096 78.1843,135.2636 C79.6863,135.5166 81.2613,135.6846 82.7053,135.7026 L82.3443,135.8316 L82.3453,135.8316 C82.8843,135.4036 83.4203,134.6506 83.7343,133.9016 C84.0703,133.1356 84.2333,132.2896 84.2773,131.4326 C84.3933,129.7096 83.8453,127.9796 83.3313,126.1876 C82.7933,124.4116 82.2263,122.6206 81.7583,120.7926 C81.2823,118.9626 80.8893,117.1156 80.5223,115.2826 C79.0823,107.9316 77.8273,100.5576 76.9633,93.1056 C76.0603,85.6126 76.5433,78.0886 76.7283,70.6406 C76.8373,66.9086 76.8983,63.1806 76.8113,59.4566 C76.7473,55.7376 76.4043,52.0326 76.1333,48.2966" id="Fill-40" fill="#000"/><path d="M65.6259,26.0202 C65.2799,25.2292 63.9689,23.8372 61.6139,22.2452 C61.5769,22.6332 61.5389,23.0012 61.5009,23.3362 C60.9099,28.5592 60.0779,31.7912 60.0779,31.7912 C58.6789,33.9602 54.7559,33.2012 50.0829,30.6532 C44.9899,27.8762 40.8009,22.3472 40.8009,22.3472 C41.8009,20.3292 42.4439,18.0782 42.8499,15.8162 C41.5079,15.7762 40.5759,15.9032 40.2829,16.1692 C39.3559,17.0112 39.6509,17.2642 38.8519,19.4962 C38.0519,21.7262 36.4939,22.3162 36.4939,22.3162 C36.4939,22.3162 36.4939,26.4422 49.5439,33.0612 C58.7399,37.7262 65.0789,34.1452 65.0789,34.1452 C65.0789,34.1452 66.2159,27.3682 65.6259,26.0202" id="Fill-42" fill="#000"/><g id="Group-46" transform="translate(40.000000, 0.305000)" fill="#e7915c"><path d="M21.5009,23.0316 C22.1929,16.9156 22.8129,1.2676 22.8129,1.2676 L2.9259,0.6946 C2.9259,0.6946 5.0509,13.4616 0.8009,22.0426 C0.8009,22.0426 4.9899,27.5716 10.0829,30.3476 C14.7559,32.8956 18.6789,33.6556 20.0779,31.4856 C20.0779,31.4856 20.9099,28.2546 21.5009,23.0316" id="Fill-44"/></g><path d="M40.4507,17.2302 C40.5287,17.3852 41.0637,18.2092 41.9877,19.3482 C42.3507,18.1952 42.6367,17.0072 42.8497,15.8162 C41.9647,15.7902 41.2627,15.8362 40.8007,15.9482 C40.7997,15.9502 40.2007,16.7312 40.4507,17.2302" id="Fill-47" fill="#000"/><path d="M65.6259,26.0202 C65.2799,25.2292 63.9689,23.8372 61.6139,22.2452 C61.5769,22.6332 61.5389,23.0012 61.5009,23.3362 C61.2409,25.6282 60.9359,27.5372 60.6739,28.9572 C63.3019,28.7082 64.8149,27.4892 65.6259,26.0202" id="Fill-49" fill="#000"/><path d="M65.6259,26.0202 C64.8149,27.4892 63.3019,28.7082 60.6739,28.9572 C58.8149,29.1322 56.4029,28.8272 53.2669,27.7622 C48.0429,25.9882 44.0459,21.8852 41.9869,19.3482 C41.0639,18.2092 40.7369,17.6862 40.6429,17.5412 C40.0499,16.6312 40.7989,15.9502 40.7999,15.9482 C40.5619,16.0052 40.3829,16.0792 40.2829,16.1692 C39.3559,17.0112 39.6509,17.2642 38.8519,19.4962 C38.0519,21.7262 36.4939,22.3162 36.4939,22.3162 C36.4939,22.3162 36.4939,26.4422 49.5439,33.0612 C58.7399,37.7262 65.0789,34.1452 65.0789,34.1452 C65.0789,34.1452 66.2159,27.3682 65.6259,26.0202" id="Fill-51" fill="#ff7475"/><path d="M42.1709,18.5564 C42.1709,18.5564 32.8669,23.6794 26.0689,26.2144 C19.2729,28.7484 14.7159,32.3834 10.3119,37.7084 C5.9089,43.0344 5.1019,57.0894 2.9129,62.1584 C0.7239,67.2274 0.9549,73.7934 0.9549,80.8224 C0.9549,87.8494 0.9549,90.0374 1.6459,94.4154 C2.3369,98.7934 3.2589,106.3974 3.2589,115.1534 C3.2589,123.9094 1.1849,136.0044 6.7149,137.9634 C12.2449,139.9214 18.4659,133.0094 23.3049,132.6634 C28.1429,132.3184 32.8349,134.6854 35.6179,131.2524 C38.4009,127.8214 33.4839,119.1944 33.4839,119.1944 C33.4839,119.1944 35.3509,117.6124 35.2489,113.0054 C35.1469,108.3994 29.8229,101.3354 29.1069,93.9644 C28.3899,86.5934 25.8309,79.7354 28.2879,71.4424 C30.7449,63.1504 31.4609,60.3864 32.8949,58.6464 C34.3279,56.9064 36.7849,54.8584 36.7849,54.8584 C36.7849,54.8584 42.1079,47.0774 41.6979,35.7144 C41.2889,24.3514 42.1709,18.5564 42.1709,18.5564" id="Fill-61" fill="#ff7475"/><path d="M36.7846,54.8581 C35.9766,56.0791 35.0826,57.1881 34.2126,58.3021 L32.9186,59.9571 C32.4746,60.5251 32.2056,61.0031 31.9166,61.6481 C30.8486,64.1821 30.1316,66.9681 29.4436,69.7091 L28.9506,71.7981 C28.7776,72.4801 28.5786,73.1641 28.4676,73.8431 C28.1876,75.2001 28.0586,76.5851 28.0196,77.9731 C27.9336,80.7551 28.3096,83.5451 28.7636,86.3471 L29.4366,90.5851 C29.5476,91.2951 29.6376,92.0121 29.7256,92.7301 C29.8006,93.4611 29.8816,94.1701 29.9746,94.8361 C30.3706,97.5611 31.3516,100.2121 32.4446,102.8201 C33.5186,105.4461 34.8086,108.0091 35.5556,110.9001 C35.6436,111.2631 35.7006,111.6411 35.7716,112.0101 C35.7996,112.3921 35.8476,112.7891 35.8466,113.1601 C35.8486,113.9001 35.7956,114.6441 35.6896,115.3841 C35.4196,116.8611 35.0176,118.3371 33.8176,119.5671 L33.8076,119.5761 L33.9186,118.9471 C34.8566,120.5551 35.6276,122.2191 36.2436,123.9801 C36.8326,125.7351 37.3186,127.6071 37.0006,129.6301 C36.8406,130.6221 36.2656,131.6761 35.5116,132.3321 C34.7496,133.0371 33.7536,133.4891 32.7696,133.6571 C30.7876,133.9891 28.9396,133.6361 27.1596,133.4531 C26.2666,133.3551 25.3826,133.2611 24.5096,133.2551 C23.6146,133.2481 22.8046,133.2831 21.9936,133.5351 C20.3466,133.9741 18.7536,134.8651 17.1536,135.6981 C15.5586,136.5571 13.8996,137.3701 12.1436,137.9551 C10.3956,138.5161 8.4066,138.6801 6.7146,137.9631 C8.4976,138.4291 10.3006,138.0431 11.9376,137.3861 C13.5896,136.7121 15.1046,135.7401 16.6796,134.8431 C18.2546,133.9461 19.8156,132.9641 21.6606,132.3821 C22.1136,132.2181 22.6046,132.1431 23.0986,132.0751 C23.5826,132.0271 24.0496,132.0051 24.5196,132.0121 C25.4616,132.0081 26.3856,132.0951 27.2956,132.1841 C29.1056,132.3621 30.9036,132.6431 32.5166,132.3421 C34.0916,132.0721 35.4746,130.9231 35.7206,129.3881 C36.0126,127.8031 35.5876,126.0311 35.0926,124.3581 C34.5716,122.6731 33.8456,121.0171 33.0506,119.4421 L32.9056,119.1561 L33.1606,118.8121 L33.1616,118.8121 C33.5316,118.4251 33.8776,117.7881 34.0946,117.1801 C34.3206,116.5551 34.4626,115.8931 34.5536,115.2211 C34.6336,114.5461 34.6686,113.8621 34.6506,113.1731 C34.6436,112.8321 34.5926,112.5181 34.5646,112.1891 C34.4906,111.8591 34.4356,111.5311 34.3486,111.2021 C33.6176,108.5611 32.2536,106.0171 31.1396,103.3761 C30.0106,100.7351 28.9566,97.9911 28.5036,95.0561 C28.3936,94.3081 28.3076,93.6001 28.2306,92.9111 C28.1396,92.2121 28.0466,91.5141 27.9316,90.8141 L27.2266,86.5951 C26.7656,83.7671 26.4066,80.8611 26.5126,77.9271 C26.5636,76.4631 26.7126,74.9951 27.0176,73.5561 C27.1436,72.8261 27.3506,72.1371 27.5336,71.4361 L28.0396,69.3611 C28.7626,66.5751 29.4836,63.8071 30.6516,61.0801 C30.8086,60.7381 30.9706,60.3991 31.1806,60.0541 C31.3966,59.6891 31.6286,59.4051 31.8626,59.1231 C32.3266,58.5491 32.8306,58.0251 33.3516,57.5211 C34.4076,56.5271 35.5196,55.6021 36.7846,54.8581" id="Fill-63" fill="#000"/><path d="M10.1674,56.364 C10.9944,55.607 12.3474,55.46 13.4484,55.9 C14.5654,56.326 15.4594,57.141 16.1664,58.023 C17.5214,59.789 18.6804,61.617 19.8974,63.415 C21.1204,65.205 22.2844,67.028 23.5674,68.747 C24.2084,69.607 24.8694,70.443 25.5674,71.226 C26.2554,71.99 27.0794,72.74 27.8554,72.971 L27.7044,73.96 C27.0304,73.816 26.4764,73.518 26.0094,73.167 C25.7844,72.985 25.5524,72.807 25.3354,72.619 L24.7264,72.03 C23.9384,71.229 23.2274,70.379 22.5714,69.497 C21.2504,67.739 20.0144,65.938 18.8554,64.096 C17.6824,62.271 16.5444,60.406 15.3004,58.691 C14.6984,57.851 13.9854,57.108 13.1274,56.607 C12.2784,56.13 11.1964,55.938 10.1674,56.364" id="Fill-70" fill="#000"/><path d="M24.0727,126.5495 C24.4407,125.5215 25.1757,124.8125 25.8757,124.0845 C26.5777,123.3555 27.3127,122.6535 28.0827,121.9875 C28.8547,121.3245 29.6607,120.6955 30.5197,120.1245 C31.3847,119.5645 32.2967,119.0455 33.3217,118.7215 L33.6467,119.6665 C31.9107,120.3925 30.2887,121.5605 28.7567,122.7965 C27.9817,123.4095 27.2297,124.0605 26.4847,124.7195 C25.7397,125.3825 25.0587,126.0975 24.0727,126.5495" id="Fill-72" fill="#000"/><path d="M5.2314,99.0447 C6.3024,101.3467 7.2094,103.7167 8.0364,106.1147 C8.8744,108.5117 9.5724,110.9527 10.2064,113.4097 C10.8174,115.8727 11.3614,118.3537 11.7674,120.8577 C11.9694,122.1107 12.1554,123.3647 12.3254,124.6207 C12.4594,125.8837 12.6084,127.1417 12.6864,128.4077 L11.0134,121.0087 C10.4324,118.5527 9.8654,116.0957 9.2374,113.6547 C8.6324,111.2077 7.9634,108.7777 7.3044,106.3417 L5.2314,99.0447 Z" id="Fill-74" fill="#000"/><path d="M26.5122,126.5495 C26.8002,125.7475 27.3812,125.1305 28.0042,124.6165 C28.6312,124.0995 29.2942,123.6285 29.9872,123.1995 C30.6792,122.7675 31.4192,122.4175 32.1922,122.1155 C32.9702,121.8315 33.7932,121.5955 34.7412,121.6785 L34.6432,122.6735 C34.0012,122.6635 33.2632,122.8665 32.5592,123.1165 C31.8452,123.3635 31.1582,123.7095 30.4722,124.0565 C29.7872,124.4085 29.1222,124.8075 28.4902,125.2505 C27.8582,125.7005 27.2482,126.1425 26.5122,126.5495" id="Fill-76" fill="#000"/><path d="M37.4697,23.6286 C39.0397,25.5346 40.7637,27.2706 42.6617,28.7566 C44.5667,30.2326 46.6527,31.4526 48.8857,32.3326 C53.3467,34.1486 58.2277,34.6916 63.1507,34.8846 C58.2887,35.6546 53.1237,35.3376 48.4287,33.4586 C46.0947,32.5136 43.9117,31.1716 42.0537,29.4816 C40.1817,27.8086 38.6487,25.7966 37.4697,23.6286" id="Fill-78" fill="#000"/><path d="M7.4751,56.3396 C6.6311,57.7616 5.8761,59.2206 5.1001,60.6656 C4.3331,62.1146 3.5781,63.5686 2.8851,65.0356 C2.5571,65.7706 2.2141,66.5206 2.0091,67.2356 C1.8301,67.9766 1.7011,68.8006 1.5981,69.6016 L0.9661,74.4956 C0.7661,72.8476 0.6961,71.1896 0.7761,69.5256 C0.8341,68.6896 0.8761,67.8686 1.0751,67.0066 C1.2961,66.1316 1.6431,65.3766 2.0061,64.6186 C2.7341,63.1156 3.5741,61.6856 4.4771,60.2986 C5.3851,58.9156 6.3501,57.5596 7.4751,56.3396" id="Fill-80" fill="#000"/><path d="M65.0791,34.1452 C65.0161,32.4862 65.2311,30.8592 65.3731,29.2532 C65.4361,28.4522 65.5241,27.6462 65.5061,26.8592 C65.4971,26.6652 65.4841,26.4692 65.4491,26.2952 C65.4191,26.1352 65.3461,25.9822 65.2481,25.8042 C65.0631,25.4592 64.8551,25.1062 64.6651,24.7272 C65.0251,24.9552 65.3411,25.2302 65.6131,25.5622 C65.7401,25.7252 65.8811,25.9272 65.9451,26.1672 C66.0081,26.3902 66.0381,26.6032 66.0661,26.8162 C66.1551,27.6612 66.1451,28.4922 66.0671,29.3162 C65.8981,30.9662 65.5681,32.5652 65.0791,34.1452" id="Fill-88" fill="#000"/><path d="M65.8706,26.156 C65.4946,27.457 64.4046,28.556 63.1316,29.131 C61.8506,29.722 60.4496,29.82 59.1356,29.758 C56.4786,29.586 54.0206,28.852 51.6476,27.806 C49.2886,26.728 47.2156,25.17 45.3696,23.433 C43.5266,21.687 41.9446,19.687 40.6416,17.541 C41.4686,18.494 42.2296,19.476 43.1246,20.35 C44.0026,21.235 44.9306,22.063 45.8796,22.855 C47.7856,24.432 49.9016,25.738 52.1476,26.647 C53.2626,27.097 54.4486,27.443 55.6336,27.724 C56.8166,28.004 58.0146,28.198 59.1946,28.229 C61.5686,28.264 63.7776,27.735 65.3816,25.885 L65.8706,26.156 Z" id="Fill-90" fill="#000"/></g></g></g><g id="Head" transform="translate(112.000000, 0.000000) scale(1 1)"><g id="Head/Pink Hair" stroke="none" stroke-width="1" fill="none" fill-rule="evenodd"><g id="Group-31" transform="translate(14.000000, 3.000000)"><path d="M68.1908,53.1089 C67.4558,47.7479 61.4998,42.0559 61.3008,37.1589 L40.3678,37.1589 L40.3678,61.0649 L63.8548,61.0649 C65.4318,57.1249 62.9438,52.5649 62.9438,52.5649 C66.5238,53.8389 67.6618,61.0649 67.6618,61.0649 C67.6618,61.0649 68.9258,58.4689 68.1908,53.1089" id="Fill-1" fill="#000"/><g id="Group-5" transform="translate(0.000000, 33.369900)" fill="#ff7475"><path d="M28.5501,27.6951 L28.5501,19.2371 L34.5671,19.2371 L34.5671,0.4631 L15.7721,0.4631 C12.8901,6.9071 7.2041,7.7411 2.8821,13.6551 C-1.4399,19.5691 0.3801,27.6951 0.3801,27.6951 C0.3801,27.6951 1.6831,14.2391 13.1301,13.1371 C13.1301,13.1371 4.8051,17.3981 4.8051,27.6951 L28.5501,27.6951 Z" id="Fill-3"/></g><g id="Group-8" transform="translate(7.000000, 0.369900)" fill="#ff7475"><path d="M27.5673,16.8572 C27.5673,22.5882 16.9093,23.1772 11.0873,22.4222 C5.3513,21.6792 0.8033,16.7392 0.8033,11.0072 C0.8033,5.2762 5.4923,0.6292 11.2753,0.6292 C20.7723,0.6292 27.5673,11.1262 27.5673,16.8572" id="Fill-6"/></g><path d="M50.852,63.3316 L50.386,63.1516 C55.986,48.6946 54.61,30.5696 47.254,21.8866 L47.636,21.5636 C55.224,30.5196 56.607,48.4776 50.852,63.3316" id="Fill-9" fill="#00BFF9"/><path d="M20.8808,39.3394 C20.8078,38.7014 20.7708,38.0544 20.7708,37.3984 C20.7708,27.7064 28.9268,19.8504 38.9878,19.8504 C48.0078,19.8504 56.1008,26.4074 57.5538,34.6974 C57.5538,34.6974 61.6088,56.9474 49.9708,63.5984 C45.6758,66.0524 33.2618,55.9524 33.2618,55.9524" id="Fill-11" fill="#e7915c"/><path d="M57.5541,34.6988 C58.3381,38.8408 58.6321,43.0928 58.3391,47.3238 C58.0471,51.5298 57.1411,55.8448 54.7881,59.4948 C53.6191,61.3068 52.0271,62.8648 50.1411,63.9648 C49.0261,64.5378 47.8291,64.3978 46.7751,64.1798 C45.7071,63.9318 44.7021,63.5378 43.7301,63.0948 C41.7811,62.2108 39.9931,61.0528 38.2481,59.8608 C36.5071,58.6588 34.8451,57.3468 33.2621,55.9528 C36.6991,58.3828 40.2261,60.7328 44.0221,62.4448 C44.9711,62.8608 45.9461,63.2218 46.9361,63.4358 C47.9141,63.6338 48.9631,63.6888 49.7471,63.2568 C51.5101,62.2458 53.0321,60.7978 54.1611,59.0798 C55.2911,57.3598 56.1161,55.4328 56.6681,53.4288 C57.2341,51.4278 57.6111,49.3638 57.8071,47.2788 C58.1971,43.1078 58.0851,38.8778 57.5541,34.6988" id="Fill-13" fill="#000"/><path d="M28.998,41.9165 C35.552,40.1595 38.498,33.1135 36.739,25.0015 L23.423,25.0015 L23.423,41.9165 L28.998,41.9165 Z" id="Fill-15" fill="#ff7475"/><path d="M62.5419,38.4019 C62.1089,25.7369 51.6479,15.5989 38.7969,15.5989 C25.9469,15.5989 15.4849,25.7369 15.0529,38.4019 C17.3613757,41.8006333 19.2673423,43.5 20.7708,43.5 C23.3568979,43.5 27.5852645,41.8006333 33.4559,38.4019 C39.7299,30.8219 36.7389,25.0019 36.7389,25.0019 C41.2129,27.2379 40.3679,38.4019 40.3679,38.4019 L62.5419,38.4019 Z" id="Fill-17" fill="#ff7475"/><path d="M62.5419,38.4019 C62.2339,32.8089 59.8629,27.4399 56.0719,23.4279 C52.2799,19.4279 47.0929,16.7399 41.6119,16.1609 C38.8809,15.8619 36.0989,15.9979 33.4269,16.6349 C30.7509,17.2399 28.1719,18.3139 25.8749,19.8309 C21.2579,22.8289 17.6869,27.4269 15.9419,32.7449 C17.2819,27.3069 20.7739,22.3959 25.4829,19.2359 C27.8319,17.6459 30.4809,16.5059 33.2429,15.8469 C36.0119,15.2039 38.8859,15.0859 41.7019,15.4139 C47.3539,16.0399 52.6929,18.8659 56.4639,23.0659 C60.2919,27.2339 62.4479,32.8129 62.5419,38.4019" id="Fill-19" fill="#000"/><path d="M30.5238,51.4927 C30.5238,51.4927 30.2298,53.4627 31.3468,55.4817 C32.2368,57.0907 34.1478,58.4187 34.1208,61.0647 L28.1268,61.0647 L28.1268,51.4807 L30.5238,51.4927 Z" id="Fill-21" fill="#ff7475"/><path d="M36.7387,25.0015 C37.8657,25.5035 38.6347,26.5675 39.1577,27.6555 C39.6837,28.7595 40.0467,29.9415 40.2607,31.1425 C40.6937,33.5445 40.8497,35.9805 40.7177,38.4285 L40.3677,38.0505 C44.0637,38.0475 47.7597,37.9575 51.4547,38.0245 C55.1507,38.0465 58.8457,38.1575 62.5417,38.4015 C58.8457,38.6465 55.1507,38.7585 51.4547,38.7785 C47.7597,38.8475 44.0637,38.7565 40.3677,38.7535 L39.9937,38.7535 L40.0167,38.3755 C40.1637,36.0045 40.1577,33.5825 39.8087,31.2195 C39.6327,30.0375 39.3607,28.8695 38.9187,27.7645 C38.4707,26.6755 37.8077,25.6055 36.7387,25.0015" id="Fill-23" fill="#000"/><path d="M30.5238,51.4927 C30.0268,52.3437 28.8348,52.6627 27.8958,52.6937 C25.3908,52.7737 21.5778,49.6187 20.4148,45.3847 C19.2518,41.1487 21.0068,38.1557 23.5108,38.0747 C25.3618,38.0147 27.5628,39.4467 29.0548,41.9067" id="Fill-25" fill="#e7915c"/><path d="M30.5238,51.4937 C30.2258,52.0607 29.6288,52.4237 29.0218,52.6127 C28.4108,52.8067 27.7508,52.8847 27.0988,52.7767 C25.7948,52.5687 24.6608,51.8457 23.6738,51.0287 C21.7018,49.3727 20.2768,47.0197 19.8238,44.4427 C19.5878,43.1617 19.5818,41.8027 20.0128,40.5117 C20.4448,39.2527 21.4848,38.0277 22.9198,37.7827 C24.3398,37.5297 25.6528,38.1657 26.6688,38.9347 C27.7038,39.7267 28.4868,40.7827 29.0548,41.9067 C28.3088,40.8867 27.4158,39.9937 26.3948,39.3217 C25.3868,38.6557 24.1568,38.2637 23.0648,38.4957 C21.9698,38.7437 21.1448,39.6807 20.7778,40.7807 C20.3888,41.8847 20.3618,43.1207 20.5648,44.3137 C20.7558,45.5147 21.1778,46.6737 21.7818,47.7367 C22.3818,48.7987 23.1158,49.8027 24.0268,50.6297 C24.9238,51.4587 25.9818,52.1607 27.1598,52.4597 C27.7428,52.6037 28.3728,52.5827 28.9738,52.4417 C29.5648,52.2967 30.1678,52.0257 30.5238,51.4937" id="Fill-27" fill="#000"/><path d="M28.9984,41.9165 C30.6274,41.3505 32.0974,40.4345 33.2744,39.2435 C34.4434,38.0425 35.3124,36.5845 35.8874,35.0205 C36.4694,33.4565 36.7394,31.7865 36.8524,30.1095 C36.9554,28.4275 36.8874,26.7275 36.7384,25.0015 C37.8514,28.2675 37.9144,31.9935 36.6164,35.2995 C35.9744,36.9445 34.9724,38.4685 33.6404,39.6315 C32.3294,40.8125 30.6914,41.6005 28.9984,41.9165" id="Fill-29" fill="#000"/></g></g></g><g id="Expressions" transform="translate(158.000000, 29.000000) scale(1 1)" fill="#000"><g id="Expressions/Happy 2" stroke="none" stroke-width="1" fill="none" fill-rule="evenodd"><g id="Group" transform="translate(19.000000, 5.000000)" fill="#000"><g id="Group-18"><path d="M0.017585448,4.63233625 C0.380950805,3.52891014 0.923821996,2.47790812 1.63916615,1.70112436 C2.35015661,0.916779447 3.17635231,0.413205815 4.00288291,0.0492617078 L4.00824129,0.0472453969 C4.4184925,-0.133718501 4.84850275,0.221152207 4.96873147,0.838647402 C5.08862529,1.45664667 4.85319133,2.10337838 4.44294012,2.28434227 C4.38064892,2.31156247 4.31400403,2.3266848 4.25238262,2.33071742 C3.51225595,2.36902733 2.77882726,2.51722618 2.10132669,2.92502504 C1.42315633,3.32475867 0.809621456,4.01685736 0.296221371,4.91209938 C0.235269763,5.0179557 0.128771898,5.03005356 0.0584431194,4.93831142 C-0.00116889303,4.86068345 -0.0159044467,4.73365587 0.017585448,4.63233625" id="Fill-9-Copy" transform="translate(2.500000, 2.500000) scale(-1, 1) translate(-2.500000, -2.500000)"/></g></g><g id="Group-12-Copy" transform="translate(7.000000, 5.000000)" fill="#000"><path d="M11.5379491,7.25091701 C11.6180931,8.32773995 12.0257588,9.38610306 12.5295974,10.3788312 C13.0467932,11.36797 13.6660391,12.3217275 14.3990894,13.1606238 C14.5850235,13.3667585 14.7757662,13.568791 14.9771947,13.7513381 C15.0744361,13.8492777 15.181829,13.9261937 15.2844133,14.0123395 C15.3736403,14.0866915 15.5472856,14.2225763 15.6642958,14.3584611 C15.7893205,14.5061397 15.9100707,14.681508 15.9693773,14.9096919 C16.0292181,15.1378758 15.9982291,15.3983644 15.9036592,15.5983458 C15.7091765,16.0039491 15.3992864,16.2157243 15.1113023,16.3905799 C14.5209083,16.7274716 13.8941823,16.866433 13.2695935,16.95463 C12.6439361,17.0310331 12.0033185,17.0166755 11.3840726,16.8674586 C11.2403477,16.8331028 11.1532579,16.6936286 11.1895899,16.5556927 C11.2216475,16.4316017 11.3434663,16.3516091 11.4716967,16.3623773 L11.4781082,16.3628901 C12.0327046,16.4080141 12.5985212,16.3551985 13.1451032,16.2444396 C13.6890137,16.1367573 14.2249098,15.9439547 14.653413,15.6850044 C14.8639246,15.5588623 15.0391727,15.3916984 15.085122,15.2676074 C15.1294683,15.1568484 15.1080966,15.0876241 14.9734547,14.9271262 C14.8965164,14.8455953 14.8345384,14.8050863 14.7004308,14.6907379 C14.5807491,14.5876706 14.4519845,14.4892182 14.3451258,14.3784593 C14.1175169,14.1656586 13.911814,13.9400385 13.7125226,13.7113418 C12.9329888,12.7873252 12.290234,11.7807522 11.8093701,10.6982887 C11.3236975,9.62556797 10.9593095,8.46311197 11.0036558,7.2473276 C11.0084645,7.1058023 11.1324205,6.99504337 11.2798854,7.0001711 C11.4171988,7.00478606 11.5267289,7.10785339 11.5368805,7.23655937 L11.5379491,7.25091701 Z" id="Fill-1"/><path d="M2.00075166,10.7502749 C2.063031,10.0408329 2.4044141,9.3320317 2.92398533,8.85778861 C3.43605998,8.3732916 4.0876865,8.09579531 4.74796292,8.02081363 C5.40939267,7.94390934 6.09677215,8.07977358 6.68900262,8.43417416 C7.28526972,8.78152519 7.75524814,9.37817428 7.98418241,10.0459598 C8.03146858,10.1850284 7.96918923,10.3394779 7.84463053,10.39267 C7.74429158,10.4349673 7.63530272,10.3990787 7.57129339,10.3112796 L7.56610345,10.3042301 C6.87353402,9.35446212 5.85976463,8.92379812 4.82984873,9.01223805 C3.80742943,9.09619189 2.81845644,9.71591227 2.39403421,10.8573 C2.35193798,10.9739382 2.23314589,11.0303347 2.12819366,10.9835512 C2.04227122,10.9450991 1.99325507,10.8470461 2.00075166,10.7502749" id="Fill-3"/><path d="M6.53374389,19.2298502 C6.6133413,19.5089219 6.77522521,19.8224608 6.9709918,20.0648418 C7.16837186,20.3144498 7.40770189,20.521808 7.67499859,20.6774655 C7.9482113,20.8236725 8.23863427,20.9354123 8.54895659,20.9904484 C8.7000841,21.0265832 8.86304365,21.027695 9.01739808,21.0499318 L9.49767162,21.0510437 L9.54284852,21.0515996 C9.79616189,21.0521555 10.0010714,21.2650728 10,21.5269111 C9.99945796,21.7893053 9.79347279,22.0005548 9.54015942,22 C9.52617609,22 9.51219276,21.999443 9.49874726,21.9977752 L8.92650645,21.9427392 C8.73611806,21.9004892 8.54572967,21.8782525 8.3585682,21.8159894 C7.98209398,21.7120324 7.62014092,21.5363617 7.2888436,21.3139938 C6.96238668,21.0816193 6.67949319,20.7858699 6.46060033,20.4512061 C6.24116964,20.1098713 6.08573957,19.75853 6.00506653,19.3304717 C5.97656205,19.1803733 6.07121842,19.0347223 6.21642991,19.0052585 C6.35303627,18.9774626 6.48587788,19.0625183 6.52460094,19.1976068 L6.53374389,19.2298502 Z" id="Fill-5"/><path d="M0.0556765477,3.58091006 C0.874090172,2.55772659 1.97844198,1.63665308 3.31413354,1.04222724 C4.6441964,0.438423959 6.1104739,0.151890909 7.54973363,0.0081034153 L7.55873955,0.00706147694 C8.27302215,-0.0643113009 8.91525732,0.413417438 8.99237057,1.0750483 C9.06948382,1.73615819 8.55333163,2.33058403 7.83848616,2.4019568 C7.73041504,2.41289716 7.61727808,2.41029231 7.51370992,2.39726808 C6.28214939,2.23368376 5.03933145,2.18419169 3.8387288,2.4139391 C2.63812614,2.63483003 1.48705608,3.17090732 0.462069008,3.94142074 C0.340488992,4.03259034 0.161496191,4.01539836 0.0629938635,3.90338999 C-0.0203109621,3.80805262 -0.0191852212,3.67468451 0.0556765477,3.58091006" id="Fill-7"/><g id="Group-11" transform="translate(12.000000, 8.000000)"><path d="M0.202625,1.7113 C0.335125,1.3438 0.55075,1.0143 0.86825,0.7128 C1.185125,0.4203 1.63825,0.1413 2.2345,0.0838 C2.37825,0.0593 2.528875,0.0773 2.6745,0.0828 C2.802625,0.1043 2.932625,0.1158 3.058875,0.1508 C3.31325,0.2088 3.555125,0.3103 3.766375,0.4368 C4.195125,0.6963 4.47075,1.0508 4.57075,1.4643 C4.59825,1.5768 4.507,1.6858 4.366375,1.7073 C4.267,1.7228 4.17075,1.6908 4.112625,1.6318 L4.081375,1.5998 C3.857625,1.3708 3.5595,1.1638 3.267,1.0398 C3.117,0.9753 2.962625,0.9258 2.796375,0.8968 C2.717625,0.8743 2.628875,0.8713 2.546375,0.8568 C2.47575,0.8638 2.407625,0.8433 2.337625,0.8558 C1.77075,0.8803 1.1295,1.3758 0.597,1.8653 L0.583875,1.8773 C0.50325,1.9513 0.362625,1.9593 0.270125,1.8948 C0.202625,1.8478 0.1795,1.7758 0.202625,1.7113" id="Fill-9"/></g></g></g></g></g></g></g></svg>